<svg xmlns="http://www.w3.org/2000/svg" viewBox="0 0 18 50"><title>CDx-icon</title><g id="Layer_2" data-name="Layer 2"><g id="Layer_1-2" data-name="Layer 1"><path d="M0,3V47a3,3,0,0,0,3,3H15a3,3,0,0,0,3-3V3a3,3,0,0,0-3-3H3A3,3,0,0,0,0,3ZM15,2a1,1,0,0,1,1,1V47a1,1,0,0,1-1,1H3a1,1,0,0,1-1-1V3A1,1,0,0,1,3,2Z" fill="#fff"/><path d="M3.13,17a.88.88,0,0,0,.87.88H14a.88.88,0,1,0,0-1.75H4A.87.87,0,0,0,3.13,17Z" fill="#fff"/><path d="M6.77,29.59a.76.76,0,0,1-.55.4,2.52,2.52,0,0,0-1.38,4.24.81.81,0,0,1,.21.65,2.56,2.56,0,0,0,1,2.4,2.54,2.54,0,0,0,2.6.22.74.74,0,0,1,.68,0,2.54,2.54,0,0,0,2.6-.22,2.59,2.59,0,0,0,1-2.4.81.81,0,0,1,.21-.65,2.52,2.52,0,0,0,.72-1.76,2.66,2.66,0,0,0-.13-.78,2.51,2.51,0,0,0-2-1.7.79.79,0,0,1-.55-.4,2.52,2.52,0,0,0-4.46,0Zm2.92.82a2.51,2.51,0,0,0,1.79,1.3.78.78,0,0,1,.61.52.79.79,0,0,1-.18.78,2.52,2.52,0,0,0-.72,1.76,2,2,0,0,0,0,.35.78.78,0,0,1-.31.74.77.77,0,0,1-.8.07,2.48,2.48,0,0,0-2.22,0,.77.77,0,0,1-.8-.07.79.79,0,0,1-.31-.74A2.52,2.52,0,0,0,6.09,33a.79.79,0,0,1-.18-.78.78.78,0,0,1,.61-.52,2.51,2.51,0,0,0,1.79-1.3.78.78,0,0,1,1.38,0Z" fill="#fff"/></g></g></svg>