<svg xmlns="http://www.w3.org/2000/svg" viewBox="0 0 33.98 37.91"><title>FMI-icon</title><g id="Layer_2" data-name="Layer 2"><g id="Layer_1-2" data-name="Layer 1"><path d="M16.68.08.31,9.59a.63.63,0,0,0-.31.54v19a.63.63,0,0,0,.31.54l14,8.15a.62.62,0,0,0,.93-.55V19a.6.6,0,0,0-.31-.54L7.85,14.34a.63.63,0,0,0-.94.55v2.56a.63.63,0,0,0,.32.55l4.59,2.66V32.35L3.46,27.49V11.77L17,3.92l13.53,7.85V27.49l-8.36,4.86V20.66L26.75,18a.65.65,0,0,0,.31-.55V14.88a.62.62,0,0,0-.93-.54L19,18.48a.62.62,0,0,0-.31.54V37.28a.62.62,0,0,0,.93.55l14-8.15a.62.62,0,0,0,.32-.54v-19a.62.62,0,0,0-.32-.54L17.3.08a.62.62,0,0,0-.62,0" fill="#fff"/></g></g></svg>