<svg xmlns="http://www.w3.org/2000/svg" viewBox="0 0 27.94 41.18"><title>liquid-icon</title><g id="Layer_2" data-name="Layer 2"><g id="Layer_1-2" data-name="Layer 1"><path d="M26.25,20.53,15.58,1A1.84,1.84,0,0,0,14,0h0a1.85,1.85,0,0,0-1.61,1L1.7,20.53A14,14,0,0,0,14,41.18a13.83,13.83,0,0,0,8.4-2.83.73.73,0,0,0,.15-1,.74.74,0,0,0-1-.14A12.49,12.49,0,0,1,3,21.24L13.65,1.67a.36.36,0,0,1,.32-.2h0a.37.37,0,0,1,.32.19L25,21.24a12.51,12.51,0,0,1,1.51,6,12.34,12.34,0,0,1-2.53,7.51.74.74,0,0,0,1.18.89,13.82,13.82,0,0,0,2.82-8.4A14,14,0,0,0,26.25,20.53Z" fill="#fff"/></g></g></svg>