<?xml version="1.0" encoding="UTF-8"?>
<svg width="193px" height="42px" viewBox="0 0 193 42" version="1.1" xmlns="http://www.w3.org/2000/svg" xmlns:xlink="http://www.w3.org/1999/xlink">
    <!-- Generator: Sketch 50.2 (55047) - http://www.bohemiancoding.com/sketch -->
    <title>FoundationMedicine-Logo</title>
    <desc>Created with Sketch.</desc>
    <defs></defs>
    <g id="Symbols" stroke="none" stroke-width="1" fill="none" fill-rule="evenodd">
        <g id="FOOTER-short" transform="translate(-261.000000, -132.000000)" fill="#FFFFFF">
            <g id="FOOTER">
                <g transform="translate(259.000000, 131.000000)" id="Logos">
                    <g transform="translate(2.000000, 0.000000)">
                        <g id="FoundationMedicine-Logo" transform="translate(0.000000, 1.000000)">
                            <path d="M18.1728354,0.0928542662 C18.3824992,-0.0309514221 18.6406768,-0.0309514221 18.8503407,0.0928542662 L36.6844234,10.6223771 C36.8940872,10.7461828 37.0235979,10.9743821 37.0235979,11.2219935 L37.0235979,32.2797449 C37.0235979,32.5273563 36.8940872,32.755987 36.6844234,32.8797927 L21.3954151,41.9059607 C20.9440261,42.1729841 20.3791571,41.8395284 20.3791571,41.3063443 L20.3791571,21.0699379 C20.3791571,20.8223265 20.5078241,20.5932644 20.7179098,20.4694588 L28.4737846,15.8908052 C28.9251736,15.6237818 29.4904645,15.9572375 29.4904645,16.4904216 L29.4904645,19.3362269 C29.4904645,19.5838383 29.3609538,19.8129004 29.1512899,19.9367061 L24.1442473,22.8925129 L24.1442473,35.8373251 L33.2585077,30.4567385 L33.2585077,13.0445685 L18.5120099,4.33848348 L3.76551206,13.0445685 L3.76551206,30.4567385 L12.8789287,35.8373251 L12.8789287,22.8925129 L7.87399535,19.9375688 C7.66433151,19.8137631 7.53482084,19.584701 7.53482084,19.3370897 L7.53482084,16.4917157 C7.53482084,15.9581003 8.09968984,15.6246445 8.55150066,15.8916679 L16.3056881,20.4694588 C16.5153519,20.5932644 16.6444408,20.8223265 16.6444408,21.0699379 L16.6444408,41.3063443 C16.6444408,41.8395284 16.0799936,42.1729841 15.6281828,41.9059607 L0.338752653,32.8797927 C0.129088807,32.755987 0,32.5273563 0,32.2797449 L0,11.2219935 C0,10.9743821 0.129088807,10.7461828 0.338752653,10.6223771 L18.1728354,0.0928542662 Z M64.5984013,9.31529959 L64.5984013,6.44663121 L53.9165135,6.44663121 L53.9165135,20.7912673 L57.0024109,20.7912673 L57.0024109,15.2376978 L63.6960452,15.2376978 L63.6960452,12.3690294 L57.0024109,12.3690294 L57.0024109,9.31529959 L64.5984013,9.31529959 Z M78.1257271,13.6597145 C78.1257271,16.1190045 76.4024337,18.1270724 73.9172632,18.1270724 C71.4320927,18.1270724 69.6687228,16.0780235 69.6687228,13.6187335 L69.6687228,13.5781839 C69.6687228,11.118894 71.392438,9.11039471 73.8771866,9.11039471 C76.3619352,9.11039471 78.1257271,11.1594436 78.1257271,13.6187335 L78.1257271,13.6597145 Z M73.8771866,21.0371531 C78.2058802,21.0371531 81.3521035,17.6969878 81.3521035,13.6187335 L81.3521035,13.5781839 C81.3521035,9.4994983 78.2459568,6.20074534 73.9172632,6.20074534 C69.5889915,6.20074534 66.4423463,9.54091065 66.4423463,13.6187335 L66.4423463,13.6597145 C66.4423463,17.7375374 69.5489149,21.0371531 73.8771866,21.0371531 Z M89.9504305,21.0168783 C93.7180518,21.0168783 96.1028199,18.8854362 96.1028199,14.5410212 L96.1028199,6.44663121 L93.0169224,6.44663121 L93.0169224,14.6639641 C93.0169224,16.9386241 91.8745287,18.1067976 89.9909289,18.1067976 C88.1069073,18.1067976 86.9649354,16.8976431 86.9649354,14.561296 L86.9649354,6.44663121 L83.8781943,6.44663121 L83.8781943,14.6436893 C83.8781943,18.8651614 86.183231,21.0168783 89.9504305,21.0168783 Z M111.714972,20.7912673 L111.714972,6.44663121 L108.668729,6.44663121 L108.668729,15.2791102 L102.095747,6.44663121 L99.2503087,6.44663121 L99.2503087,20.7912673 L102.29613,20.7912673 L102.29613,11.6719215 L109.089744,20.7912673 L111.714972,20.7912673 Z M124.782472,13.6597145 C124.782472,16.2005351 123.079006,17.9428737 120.553759,17.9428737 L118.168991,17.9428737 L118.168991,9.29502479 L120.553759,9.29502479 C123.079006,9.29502479 124.782472,11.0774816 124.782472,13.6191649 L124.782472,13.6597145 Z M120.553759,20.7912673 C124.962605,20.7912673 128.008426,17.6560068 128.008426,13.6191649 L128.008426,13.5781839 C128.008426,9.54091065 124.962605,6.44663121 120.553759,6.44663121 L115.082671,6.44663121 L115.082671,20.7912673 L120.553759,20.7912673 Z M137.808629,14.7869071 L134.080662,14.7869071 L135.944435,10.1349191 L137.808629,14.7869071 Z M143.419352,20.7912673 L137.407863,6.34396307 L134.562003,6.34396307 L128.550093,20.7912673 L131.695894,20.7912673 L132.978767,17.5740449 L138.910524,17.5740449 L140.192975,20.7912673 L143.419352,20.7912673 Z M154.400337,9.35671195 L154.400337,6.44663121 L142.777283,6.44663121 L142.777283,9.35671195 L147.04565,9.35671195 L147.04565,20.7912673 L150.132392,20.7912673 L150.132392,9.35671195 L154.400337,9.35671195 Z M156.906601,20.7912673 L159.992498,20.7912673 L159.992498,6.44663121 L156.906601,6.44663121 L156.906601,20.7912673 Z M174.562237,13.6597145 C174.562237,16.1190045 172.838944,18.1270724 170.354195,18.1270724 C167.868603,18.1270724 166.105233,16.0780235 166.105233,13.6187335 L166.105233,13.5781839 C166.105233,11.118894 167.828948,9.11039471 170.313697,9.11039471 C172.798445,9.11039471 174.562237,11.1594436 174.562237,13.6187335 L174.562237,13.6597145 Z M170.313697,21.0371531 C174.642812,21.0371531 177.789036,17.6969878 177.789036,13.6187335 L177.789036,13.5781839 C177.789036,9.4994983 174.682467,6.20074534 170.354195,6.20074534 C166.025502,6.20074534 162.878857,9.54091065 162.878857,13.6187335 L162.878857,13.6597145 C162.878857,17.7375374 165.985425,21.0371531 170.313697,21.0371531 Z M189.953757,6.44663121 L189.953757,15.2791102 L183.381196,6.44663121 L180.535759,6.44663121 L180.535759,20.7912673 L183.581158,20.7912673 L183.581158,11.6719215 L190.374772,20.7912673 L193,20.7912673 L193,6.44663121 L189.953757,6.44663121 Z M63.7319032,27.8611329 L59.4896907,34.3589903 L55.2474781,27.8611329 L53.9169353,27.8611329 L53.9169353,39.7689106 L55.1981207,39.7689106 L55.1981207,30.1405379 L59.4399113,36.5025111 L59.5061432,36.5025111 L63.7483557,30.1237142 L63.7483557,39.7689106 L65.062446,39.7689106 L65.062446,27.8611329 L63.7319032,27.8611329 Z M68.3563199,27.8611329 L68.3563199,39.7689106 L76.8571975,39.7689106 L76.8571975,38.5437951 L69.6708321,38.5437951 L69.6708321,34.3762454 L76.0257137,34.3762454 L76.0257137,33.1515613 L69.6708321,33.1515613 L69.6708321,29.0853856 L76.7740913,29.0853856 L76.7740913,27.8611329 L68.3563199,27.8611329 Z M83.5453476,29.1026408 C86.4890787,29.1026408 88.3693035,31.1780037 88.3693035,33.8318455 C88.3693035,36.4856873 86.4890787,38.5269713 83.5453476,38.5269713 L80.8167646,38.5269713 L80.8167646,29.1026408 L83.5453476,29.1026408 Z M83.5453476,39.7689106 C87.2045513,39.7689106 89.733595,37.1659715 89.733595,33.7977666 C89.733595,30.4295617 87.2045513,27.8611329 83.5453476,27.8611329 L79.5026743,27.8611329 L79.5026743,39.7689106 L83.5453476,39.7689106 Z M92.6279686,39.7689106 L93.9424807,39.7689106 L93.9424807,27.8611329 L92.6279686,27.8611329 L92.6279686,39.7689106 Z M102.675803,39.9729527 C104.788894,39.9729527 106.119436,39.1390977 107.333968,37.880766 L106.468735,37.0128321 C105.354184,38.1016319 104.306287,38.7310135 102.709129,38.7310135 C100.147603,38.7310135 98.2011458,36.5706689 98.2011458,33.7977666 C98.2011458,31.0248643 100.130306,28.8985986 102.709129,28.8985986 C104.289413,28.8985986 105.387511,29.5793142 106.368755,30.5317984 L107.267314,29.5452353 C106.102984,28.4223566 104.838673,27.6570907 102.725582,27.6570907 C99.2988225,27.6570907 96.8368543,30.4295617 96.8368543,33.8318455 C96.8368543,37.2677769 99.3156969,39.9729527 102.675803,39.9729527 Z M109.746157,39.7689106 L111.060669,39.7689106 L111.060669,27.8611329 L109.746157,27.8611329 L109.746157,39.7689106 Z M123.037663,27.8611329 L123.037663,37.4040926 L115.701116,27.8611329 L114.46971,27.8611329 L114.46971,39.7689106 L115.750474,39.7689106 L115.750474,30.0042223 L123.27053,39.7689106 L124.318849,39.7689106 L124.318849,27.8611329 L123.037663,27.8611329 Z M127.612723,27.8611329 L127.612723,39.7689106 L136.1136,39.7689106 L136.1136,38.5437951 L128.926813,38.5437951 L128.926813,34.3762454 L135.281695,34.3762454 L135.281695,33.1515613 L128.926813,33.1515613 L128.926813,29.0853856 L136.030494,29.0853856 L136.030494,27.8611329 L127.612723,27.8611329 Z M145.294092,30.727213 C145.294092,28.7674595 143.764854,27.1541032 141.799836,27.1541032 C139.834817,27.1541032 138.286173,28.7868716 138.286173,30.7470564 C138.286173,32.7068098 139.815833,34.3197348 141.78043,34.3197348 C143.745449,34.3197348 145.294092,32.6869664 145.294092,30.727213 Z M144.974745,30.727213 C144.974745,32.5282191 143.600329,34.0130246 141.78043,34.0130246 C139.970656,34.0130246 138.60552,32.5480625 138.60552,30.7470564 C138.60552,28.9456189 139.980358,27.4608134 141.799836,27.4608134 C143.610032,27.4608134 144.974745,28.9257755 144.974745,30.727213 Z M143.377588,29.9054365 C143.377588,29.222564 142.816094,28.7967933 142.022577,28.7967933 L140.415717,28.7967933 L140.415717,32.4691202 L140.948103,32.4691202 L140.948103,31.0835318 L141.867755,31.0835318 L142.903418,32.4691202 L143.561518,32.4691202 L142.448233,30.9942364 C142.990321,30.8656855 143.377588,30.5093667 143.377588,29.9054365 Z M142.825796,29.9352017 C142.825796,30.3609724 142.477341,30.5982307 141.974063,30.5982307 L140.948103,30.5982307 L140.948103,29.292016 L142.003172,29.292016 C142.516152,29.292016 142.825796,29.5292743 142.825796,29.9352017 Z" id="Fill-1"></path>
                        </g>
                    </g>
                </g>
            </g>
        </g>
    </g>
</svg>