<svg xmlns="http://www.w3.org/2000/svg" width="1426" height="801" viewBox="0 0 1426 801">
    <g fill="none" fill-rule="evenodd" stroke="#EDC96B" stroke-width="2">
        <path d="M305 332.5L529 449V216zM752 332.5L976 449V216zM529 682.5L753 799V566z"/>
        <path d="M976 216L529-17v466zM1423 448L976 215v466z"/>
        <path d="M753 99.5L529-17v233zM753 565.5L529 449v233z"/>
        <path d="M976-16.5L752-133v233zM976 216.5L752 100v233z"/>
        <g>
            <path d="M3 422.537l86.9 44.64v-89.281zM176.799 422.537l86.899 44.64v-89.281z"/>
            <path d="M263.698 377.896L89.899 288.614v178.564z"/>
            <path d="M408.138 214.413L89.9 50.931v326.965zM176.799 511.818l-86.9-44.64v89.281z"/>
            <path d="M263.698 288.614l-86.9-44.641v89.282zM263.698 377.896l-86.9-44.641v89.282z"/>
        </g>
    </g>
</svg>
