<svg xmlns="http://www.w3.org/2000/svg" width="1415" height="677" viewBox="0 0 1415 677">
    <g fill="none" fill-rule="evenodd" stroke="#EDC96B" stroke-width="2">
        <path d="M305 209.5L529 93v233zM752 209.5L976 93v233z"/>
        <path d="M976 326L529 559V93zM1423 94L976 327v-466z"/>
        <path d="M753 442.5L529 559V326zM753-23.5L529 93v-233z"/>
        <path d="M976 558.5L752 675V442zM976 325.5L752 442V209z"/>
        <g>
            <path d="M3 119.463l86.9-44.64v89.281zM176.799 119.463l86.899-44.64v89.281z"/>
            <path d="M263.698 164.104L89.899 253.386V74.822z"/>
            <path d="M408.138 327.587L89.9 491.069V164.104zM176.799 30.182l-86.9 44.64v-89.281z"/>
            <path d="M263.698 253.386l-86.9 44.641v-89.282zM263.698 164.104l-86.9 44.641v-89.282z"/>
        </g>
    </g>
</svg>
