<svg xmlns="http://www.w3.org/2000/svg" width="1257" height="699" viewBox="0 0 1257 699">
    <g fill="none" fill-rule="evenodd" stroke="#EDC96B" stroke-width="2">
        <path d="M305 231.5L529 115v233zM752 231.5L976 115v233z"/>
        <path d="M976 348L529 581V115zM1423 116L976 349v-466z"/>
        <path d="M753 464.5L529 581V348zM753-1.5L529 115v-233z"/>
        <path d="M976 580.5L752 697V464zM976 347.5L752 464V231z"/>
        <g>
            <path d="M3 141.463l86.9-44.64v89.281zM176.799 141.463l86.899-44.64v89.281z"/>
            <path d="M263.698 186.104L89.899 275.386V96.822z"/>
            <path d="M408.138 349.587L89.9 513.069V186.104zM176.799 52.182l-86.9 44.64V7.541z"/>
            <path d="M263.698 275.386l-86.9 44.641v-89.282zM263.698 186.104l-86.9 44.641v-89.282z"/>
        </g>
    </g>
</svg>
