<?xml version="1.0" encoding="UTF-8"?>
<svg width="76px" height="40px" viewBox="0 0 76 40" version="1.1" xmlns="http://www.w3.org/2000/svg" xmlns:xlink="http://www.w3.org/1999/xlink">
    <!-- Generator: Sketch 50.2 (55047) - http://www.bohemiancoding.com/sketch -->
    <title>Roche-Logo</title>
    <desc>Created with Sketch.</desc>
    <defs>
        <polygon id="path-1" points="37.9570326 39.2111514 75.9139534 39.2111514 75.9139534 0.109568749 37.9570326 0.109568749 0.000111835112 0.109568749 0.000111835112 39.2111514 37.9570326 39.2111514"></polygon>
    </defs>
    <g id="Symbols" stroke="none" stroke-width="1" fill="none" fill-rule="evenodd">
        <g id="FOOTER-short" transform="translate(-499.000000, -132.000000)">
            <g id="FOOTER">
                <g transform="translate(259.000000, 131.000000)" id="Logos">
                    <g transform="translate(2.000000, 0.000000)">
                        <g id="Roche-Logo" transform="translate(238.000000, 1.000000)">
                            <path d="M51.4085039,15.3174609 C50.8876319,14.9028238 50.157069,14.6939757 49.4276245,14.6939757 C48.5927754,14.6939757 47.8636105,15.0065526 47.3424588,15.4211896 L47.3424588,10.4424858 L44.9435957,10.4424858 L44.9435957,26.6222305 L47.3424588,26.6222305 L47.3424588,18.1178601 C47.3424588,17.5994942 47.8636105,16.9760091 48.8024662,16.8722803 C49.2193316,16.8722803 49.7402036,17.0797379 50.0527828,17.4957655 C50.3667598,17.9104025 50.3667598,18.5324972 50.3667598,19.1543137 L50.3667598,26.6222305 L52.7642251,26.6222305 L52.7642251,19.0505849 C52.7642251,16.8722803 52.4516459,16.146735 51.4085039,15.3174609" id="Fill-1" fill="#FEFEFE"></path>
                            <path d="M31.2830207,22.9926683 C31.1787344,23.8219424 30.8661553,24.7549454 29.8230133,24.7549454 C28.7812692,24.7549454 28.3630059,23.8219424 28.3630059,22.8889395 C28.3630059,22.8889395 28.2589993,22.3691832 28.2589993,20.8143637 C28.2589993,19.2581538 28.3630059,18.5323303 28.3630059,18.5323303 C28.3630059,17.7030562 28.7812692,16.7686628 29.8230133,16.7686628 C30.8661553,16.7686628 31.2830207,17.7030562 31.2830207,18.5323303 C31.2830207,18.5323303 31.3870273,19.2581538 31.3870273,20.8143637 C31.3870273,22.3691832 31.2830207,22.8889395 31.2830207,22.9926683 M29.8230133,14.694087 C27.5295548,14.694087 26.0695474,16.1468462 25.8612545,18.9469674 C25.8612545,19.154425 25.7569682,19.569062 25.7569682,20.8143637 C25.7569682,21.7473666 25.8612545,22.5766408 25.8612545,22.68176 C26.0695474,25.2747017 27.5295548,26.8295212 29.8230133,26.8295212 C32.1178698,26.8295212 33.5778772,25.2747017 33.7861701,22.68176 L33.7861701,20.8143637 L33.7861701,18.9469674 C33.3695843,15.4210228 31.3870273,14.694087 29.8230133,14.694087" id="Fill-3" fill="#FEFEFE"></path>
                            <path d="M59.9599198,19.3616879 L56.9358984,19.3616879 L56.9358984,18.5324137 C57.039905,17.5994108 57.4567704,16.7687462 58.3959058,16.7687462 C59.6473407,16.7687462 59.8559132,17.9103191 59.9599198,18.5324137 L59.9599198,19.3616879 Z M62.3576646,20.0886237 C62.3576646,19.8800537 62.3576646,19.5691455 62.2533784,18.9470508 C62.2533784,17.9103191 61.836513,16.7687462 61.2116343,16.0432009 C60.5850781,15.2139267 59.543334,14.6941704 58.3959058,14.6941704 C56.2050559,14.6941704 54.8507327,16.1466516 54.5367557,18.9470508 C54.5367557,19.1542303 54.432749,19.4654167 54.432749,20.8144471 C54.432749,21.747172 54.5367557,22.5767242 54.5367557,22.6815654 C54.6410419,25.274507 56.2050559,26.8296046 58.3959058,26.8296046 C60.6893643,26.8296046 62.1493717,25.274507 62.2533784,22.5767242 L59.9599198,22.5767242 L59.9599198,22.9927517 C59.8559132,23.6145683 59.6473407,24.7550288 58.3959058,24.7550288 C57.3524842,24.7550288 57.039905,23.8220259 56.9358984,22.9927517 C56.9358984,22.6815654 56.8316121,22.3692666 56.8316121,21.4362637 L62.3576646,21.4362637 L62.3576646,20.0886237 Z" id="Fill-5" fill="#FEFEFE"></path>
                            <g id="Group-9" transform="translate(0.000000, 0.168525)">
                                <mask id="mask-2" fill="white">
                                    <use xlink:href="#path-1"></use>
                                </mask>
                                <g id="Clip-8"></g>
                                <path d="M57.9790683,37.4474838 L18.0405133,37.4474838 L2.60614952,19.8166485 L18.0405133,2.08041577 L57.9790683,2.08041577 L73.3080275,19.8166485 L57.9790683,37.4474838 Z M59.0208124,0.109568749 L16.9973713,0.109568749 L0.000111835112,19.7115292 L16.9973713,39.2111514 L59.0208124,39.2111514 L75.9140652,19.8166485 L59.0208124,0.109568749 Z" id="Fill-7" fill="#FEFEFE" mask="url(#mask-2)"></path>
                            </g>
                            <path d="M21.689665,14.9028238 L21.689665,15.2137321 C21.5856584,15.9395555 21.2730792,17.1834667 19.8130718,17.1834667 L18.4570711,17.1834667 L18.4570711,12.6207904 L19.7087856,12.6207904 C20.9591021,12.6207904 21.5856584,13.3466138 21.689665,14.4867962 L21.689665,14.9028238 Z M24.0874098,21.6438047 C23.9831236,19.8801372 23.4622515,18.8434054 22.6288004,18.3250396 C23.2539586,17.9104025 24.0874098,16.8722803 24.0874098,14.799095 C24.0874098,11.686397 22.1065304,10.6499434 19.8130718,10.5462146 L16.058208,10.5462146 L16.058208,26.6222305 L18.4570711,26.6222305 L18.4570711,19.2580425 L19.8130718,19.2580425 C20.646523,19.2580425 21.4813721,19.9849783 21.689665,21.8509842 L21.8979579,25.5854987 C21.8979579,26.1038646 22.0022442,26.6222305 22.0022442,26.6222305 L24.5053935,26.6222305 C24.5053935,26.6222305 24.4013869,26.1038646 24.2971006,25.5854987 L24.0874098,21.6438047 Z" id="Fill-10" fill="#FEFEFE"></path>
                            <path d="M39.4162571,14.694087 C37.1227986,14.694087 35.7670774,16.1468462 35.4544983,18.9469674 L35.4544983,20.8143637 C35.3502121,21.7473666 35.4544983,22.5766408 35.4544983,22.68176 C35.6627912,25.2747017 37.1227986,26.8295212 39.4162571,26.8295212 C41.8153999,26.8295212 43.171121,25.3781524 43.3794139,22.68176 L43.3794139,22.472912 L40.9802712,22.472912 C40.8762645,22.68176 40.8762645,22.7852107 40.8762645,22.8889395 C40.8762645,23.8219424 40.5636854,24.7549454 39.4162571,24.7549454 C38.3745131,24.7549454 37.9576477,23.7182137 37.9576477,22.9926683 C37.8522431,22.5766408 37.8522431,22.1620037 37.8522431,20.8143637 C37.8522431,19.2578757 37.8522431,18.8432386 37.9576477,18.5323303 C38.0619339,17.5993274 38.3745131,16.7686628 39.4162571,16.7686628 C40.4593991,16.7686628 40.8762645,17.7030562 40.8762645,18.5323303 C40.8762645,18.5323303 40.8762645,18.7397879 40.9802712,19.2578757 L43.3794139,19.2578757 L43.3794139,18.8432386 C43.0668348,15.5247516 40.9802712,14.694087 39.4162571,14.694087" id="Fill-12" fill="#FEFEFE"></path>
                        </g>
                    </g>
                </g>
            </g>
        </g>
    </g>
</svg>