<?xml version="1.0" encoding="utf-8"?>
<!-- Generator: Adobe Illustrator 22.1.0, SVG Export Plug-In . SVG Version: 6.00 Build 0)  -->
<svg version="1.1" id="Layer_1" xmlns="http://www.w3.org/2000/svg" xmlns:xlink="http://www.w3.org/1999/xlink" x="0px" y="0px"
	 viewBox="0 0 1401 640" style="enable-background:new 0 0 1401 640;" xml:space="preserve">
<style type="text/css">
	.st0{enable-background:new    ;}
	.st1{fill:#435363;}
	.st2{fill:#FF4C00;}
	.st3{fill:#64CCC9;}
	.st4{fill:none;stroke:#A0D8B3;stroke-width:2.33;stroke-linecap:round;stroke-linejoin:round;}
	.st5{fill:none;stroke:#FF4C00;stroke-width:2.33;stroke-linecap:round;stroke-linejoin:round;}
	.st6{fill:none;stroke:#64CCC9;stroke-width:2.33;stroke-linecap:round;stroke-linejoin:round;}
	.st7{fill:none;stroke:#435363;stroke-width:2.33;stroke-linecap:round;stroke-linejoin:round;}
	.st8{fill:none;stroke:#FF4C00;stroke-width:6.23;stroke-linecap:round;stroke-linejoin:round;}
	.st9{fill:none;stroke:#435363;stroke-width:6.23;stroke-linecap:round;stroke-linejoin:round;}
	.st10{fill:none;stroke:#8B99A6;stroke-width:1.56;stroke-linecap:round;stroke-linejoin:round;}
</style>
<title>Roche_Illustration_1401w x 640h</title>
<g class="st0">
	<path class="st1" d="M308.7,246.4l1.3-1.5c1.9,1.7,3.8,2.6,6.4,2.6c2.5,0,4.1-1.3,4.1-3.1v-0.1c0-1.7-0.9-2.7-4.8-3.5
		c-4.3-0.9-6.2-2.3-6.2-5.3v-0.1c0-2.9,2.6-5.1,6.1-5.1c2.7,0,4.6,0.8,6.5,2.3l-1.2,1.6c-1.7-1.4-3.4-2-5.3-2c-2.4,0-3.9,1.3-3.9,3
		v0.1c0,1.7,1,2.7,5,3.6c4.1,0.9,6,2.4,6,5.2v0.1c0,3.2-2.6,5.2-6.3,5.2C313.3,249.3,310.9,248.4,308.7,246.4z"/>
	<path class="st1" d="M326.9,230.6h2.1l6.7,10.1l6.7-10.1h2.1v18.5h-2.1v-15l-6.7,9.9h-0.1l-6.7-9.9v15h-2V230.6z"/>
	<path class="st1" d="M356.7,230.4h2l8.4,18.7h-2.2l-2.2-4.9h-10.1l-2.2,4.9h-2.1L356.7,230.4z M361.8,242.3l-4.2-9.4l-4.2,9.4
		H361.8z"/>
	<path class="st1" d="M370.7,230.6h8c2.3,0,4.1,0.7,5.3,1.9c0.9,0.9,1.4,2.2,1.4,3.7v0.1c0,3.1-2.1,4.9-5,5.4l5.7,7.6h-2.6l-5.4-7.2
		h-5.3v7.2h-2.1V230.6z M378.5,240c2.8,0,4.8-1.4,4.8-3.8v-0.1c0-2.3-1.7-3.7-4.7-3.7h-5.7v7.5H378.5z"/>
	<path class="st1" d="M394.6,232.5h-6.2v-1.9h14.6v1.9h-6.2v16.6h-2.1V232.5z"/>
	<path class="st1" d="M406.8,230.6h13.4v1.9h-11.3v6.3H419v1.9h-10.1v6.5h11.4v1.9h-13.5V230.6z"/>
	<path class="st1" d="M424.5,230.6h8c2.3,0,4.1,0.7,5.3,1.9c0.9,0.9,1.4,2.2,1.4,3.7v0.1c0,3.1-2.1,4.9-5,5.4l5.7,7.6h-2.6l-5.4-7.2
		h-5.3v7.2h-2.1V230.6z M432.3,240c2.8,0,4.8-1.4,4.8-3.8v-0.1c0-2.3-1.7-3.7-4.7-3.7h-5.7v7.5H432.3z"/>
	<path class="st1" d="M442.3,251.4c1.3-0.5,1.9-1.2,1.8-2.3h-1v-2.8h2.4v2.4c0,2.1-0.9,3.2-2.9,3.6L442.3,251.4z"/>
	<path class="st1" d="M458.1,230.6h2.1l6.7,10.1l6.7-10.1h2.1v18.5h-2.1v-15L467,244h-0.1l-6.7-9.9v15h-2V230.6z"/>
	<path class="st1" d="M480.2,239.9L480.2,239.9c0-5.2,3.8-9.6,9.5-9.6s9.4,4.4,9.4,9.5v0.1c0,5.1-3.8,9.6-9.5,9.6
		S480.2,245,480.2,239.9z M497,239.9L497,239.9c0-4.3-3.1-7.7-7.3-7.7s-7.2,3.4-7.2,7.6v0.1c0,4.2,3.1,7.6,7.3,7.6
		S497,244.1,497,239.9z"/>
	<path class="st1" d="M503.6,230.6h8c2.3,0,4.1,0.7,5.3,1.9c0.9,0.9,1.4,2.2,1.4,3.7v0.1c0,3.1-2.1,4.9-5,5.4l5.7,7.6h-2.6l-5.4-7.2
		h-5.3v7.2h-2.1V230.6z M511.3,240c2.8,0,4.8-1.4,4.8-3.8v-0.1c0-2.3-1.7-3.7-4.7-3.7h-5.7v7.5H511.3z"/>
	<path class="st1" d="M522.7,230.6h13.4v1.9h-11.3v6.3h10.1v1.9h-10.1v6.5h11.4v1.9h-13.5V230.6z"/>
</g>
<g class="st0">
	<path class="st1" d="M320.6,262.3H334v1.9h-11.3v6.3h10.1v1.9h-10.1v6.5h11.4v1.9h-13.5V262.3z"/>
	<path class="st1" d="M338.3,262.3h13.3v1.9h-11.2v6.6h10v1.9h-10v8.1h-2.1V262.3z"/>
	<path class="st1" d="M355.7,262.3H369v1.9h-11.2v6.6h10v1.9h-10v8.1h-2.1V262.3z"/>
	<path class="st1" d="M373.2,262.3h2.1v18.5h-2.1V262.3z"/>
	<path class="st1" d="M379.9,271.6L379.9,271.6c0-5.3,3.9-9.6,9.4-9.6c3.4,0,5.4,1.2,7.2,2.9l-1.4,1.5c-1.6-1.5-3.3-2.5-5.8-2.5
		c-4.1,0-7.2,3.3-7.2,7.6v0.1c0,4.3,3.1,7.6,7.2,7.6c2.5,0,4.2-1,6-2.7l1.4,1.3c-1.9,2-4,3.3-7.4,3.3
		C383.9,281.2,379.9,277,379.9,271.6z"/>
	<path class="st1" d="M400.5,262.3h2.1v18.5h-2.1V262.3z"/>
	<path class="st1" d="M408,262.3h13.4v1.9h-11.3v6.3h10.1v1.9h-10.1v6.5h11.4v1.9H408V262.3z"/>
	<path class="st1" d="M425.7,262.3h2l11.7,14.8v-14.8h2v18.5h-1.7l-12-15.2v15.2h-2V262.3z"/>
	<path class="st1" d="M451.5,264.2h-6.2v-1.9h14.6v1.9h-6.2v16.6h-2.1V264.2z"/>
	<path class="st1" d="M471.7,262.3h8c2.3,0,4.1,0.7,5.3,1.9c0.9,0.9,1.4,2.2,1.4,3.7v0.1c0,3.1-2.1,4.9-5,5.4l5.7,7.6h-2.6l-5.4-7.2
		h-5.3v7.2h-2.1V262.3z M479.5,271.8c2.8,0,4.8-1.4,4.8-3.8v-0.1c0-2.3-1.7-3.7-4.7-3.7h-5.7v7.5H479.5z"/>
	<path class="st1" d="M501.3,278.2c-1.7,1.8-3.7,2.9-6.1,2.9c-3.3,0-5.8-2.1-5.8-5.2v-0.1c0-2.5,1.6-4.2,4.5-5.3
		c-1.3-1.5-1.9-2.6-1.9-4.1v-0.1c0-2.4,2-4.4,4.9-4.4c2.6,0,4.5,1.9,4.5,4.2v0.1c0,2.4-1.7,3.9-4.4,4.8l4.2,4.3
		c0.8-1.2,1.6-2.6,2.2-4.1l1.7,0.8c-0.8,1.7-1.7,3.3-2.7,4.7l3.2,3.3l-1.6,1.2L501.3,278.2z M500,276.9l-4.9-5.1
		c-2.5,0.9-3.5,2.4-3.5,4v0.1c0,2,1.6,3.5,3.9,3.5C497.1,279.3,498.6,278.4,500,276.9z M499.4,266.3L499.4,266.3
		c0-1.5-1.1-2.6-2.6-2.6c-1.7,0-2.8,1.2-2.8,2.7v0.1c0,1.1,0.4,1.9,1.9,3.4C498.2,269.1,499.4,267.9,499.4,266.3z"/>
	<path class="st1" d="M509.2,262.3h6.4c5.8,0,9.8,4,9.8,9.2v0.1c0,5.2-4,9.3-9.8,9.3h-6.4V262.3z M511.3,264.2v14.7h4.3
		c4.7,0,7.7-3.2,7.7-7.3v-0.1c0-4.1-3-7.3-7.7-7.3H511.3z"/>
</g>
<g class="st0">
	<path class="st1" d="M923.4,230.6h7.9c2.1,0,3.8,0.6,4.8,1.6c0.8,0.8,1.2,1.8,1.2,3v0.1c0,2.4-1.5,3.7-2.9,4.3c2.2,0.7,4,1.9,4,4.5
		v0.1c0,3.2-2.7,5.1-6.7,5.1h-8.2V230.6z M935.2,235.5c0-1.8-1.5-3-4.1-3h-5.6v6.4h5.5C933.5,238.8,935.2,237.7,935.2,235.5
		L935.2,235.5z M931.3,240.7h-5.8v6.5h6.2c2.8,0,4.6-1.2,4.6-3.3v-0.1C936.2,241.8,934.5,240.7,931.3,240.7z"/>
	<path class="st1" d="M942.5,230.6h13.4v1.9h-11.3v6.3h10.1v1.9h-10.1v6.5H956v1.9h-13.5V230.6z"/>
	<path class="st1" d="M965.1,232.5h-6.2v-1.9h14.6v1.9h-6.2v16.6h-2.1V232.5z"/>
	<path class="st1" d="M982.3,232.5h-6.2v-1.9h14.6v1.9h-6.2v16.6h-2.1V232.5z"/>
	<path class="st1" d="M994.5,230.6h13.4v1.9h-11.3v6.3h10.1v1.9h-10.1v6.5h11.4v1.9h-13.5V230.6z"/>
	<path class="st1" d="M1012.3,230.6h8c2.3,0,4.1,0.7,5.3,1.9c0.9,0.9,1.4,2.2,1.4,3.7v0.1c0,3.1-2.1,4.9-5,5.4l5.7,7.6h-2.6
		l-5.4-7.2h-5.3v7.2h-2.1V230.6z M1020,240c2.8,0,4.8-1.4,4.8-3.8v-0.1c0-2.3-1.7-3.7-4.7-3.7h-5.7v7.5H1020z"/>
</g>
<g class="st0">
	<path class="st1" d="M875.2,262.3h6.9c4.2,0,6.9,2.2,6.9,5.9v0.1c0,4-3.3,6.1-7.3,6.1h-4.5v6.5h-2.1V262.3z M881.8,272.4
		c3.1,0,5.1-1.6,5.1-4.1v-0.1c0-2.6-2-4-5-4h-4.7v8.1H881.8z"/>
	<path class="st1" d="M897.8,262.2h2l8.4,18.7H906l-2.2-4.9h-10.1l-2.2,4.9h-2.1L897.8,262.2z M903,274l-4.2-9.4l-4.2,9.4H903z"/>
	<path class="st1" d="M914.4,264.2h-6.2v-1.9h14.6v1.9h-6.2v16.6h-2.1V264.2z"/>
	<path class="st1" d="M926.8,262.3h2.1v18.5h-2.1V262.3z"/>
	<path class="st1" d="M934.4,262.3h13.4v1.9h-11.3v6.3h10.1v1.9h-10.1v6.5h11.4v1.9h-13.5V262.3z"/>
	<path class="st1" d="M952.1,262.3h2l11.7,14.8v-14.8h2v18.5h-1.7l-12-15.2v15.2h-2V262.3z"/>
	<path class="st1" d="M977.9,264.2h-6.2v-1.9h14.6v1.9H980v16.6h-2.1V264.2z"/>
	<path class="st1" d="M997.3,271.6L997.3,271.6c0-5.3,3.9-9.6,9.4-9.6c3.4,0,5.4,1.2,7.2,2.9l-1.4,1.5c-1.6-1.5-3.3-2.5-5.8-2.5
		c-4.1,0-7.2,3.3-7.2,7.6v0.1c0,4.3,3.1,7.6,7.2,7.6c2.5,0,4.2-1,6-2.7l1.4,1.3c-1.9,2-4,3.3-7.4,3.3
		C1001.2,281.2,997.3,277,997.3,271.6z"/>
	<path class="st1" d="M1024.5,262.2h2l8.4,18.7h-2.2l-2.2-4.9h-10.1l-2.2,4.9h-2.1L1024.5,262.2z M1029.6,274l-4.2-9.4l-4.2,9.4
		H1029.6z"/>
	<path class="st1" d="M1038.5,262.3h8c2.3,0,4.1,0.7,5.3,1.9c0.9,0.9,1.4,2.2,1.4,3.7v0.1c0,3.1-2.1,4.9-5,5.4l5.7,7.6h-2.6
		l-5.4-7.2h-5.3v7.2h-2.1V262.3z M1046.3,271.8c2.8,0,4.8-1.4,4.8-3.8v-0.1c0-2.3-1.7-3.7-4.7-3.7h-5.7v7.5H1046.3z"/>
	<path class="st1" d="M1057.6,262.3h13.4v1.9h-11.3v6.3h10.1v1.9h-10.1v6.5h11.4v1.9h-13.5V262.3z"/>
</g>
<g class="st0">
	<path class="st1" d="M614.2,276.9h4.2c3.8,0,6.4,2.6,6.4,6v0c0,3.4-2.6,6-6.4,6h-4.2V276.9z M615.5,278.1v9.5h2.8c3,0,5-2.1,5-4.7
		v0c0-2.7-1.9-4.7-5-4.7H615.5z"/>
	<path class="st1" d="M626.7,286.3L626.7,286.3c0-1.9,1.5-2.9,3.8-2.9c1.1,0,1.9,0.2,2.7,0.4v-0.3c0-1.6-1-2.4-2.6-2.4
		c-1,0-1.9,0.3-2.7,0.7l-0.4-1.1c1-0.4,1.9-0.7,3.2-0.7c1.2,0,2.2,0.3,2.9,1c0.6,0.6,0.9,1.5,0.9,2.6v5.4h-1.3v-1.3
		c-0.6,0.8-1.6,1.5-3.2,1.5C628.3,289,626.7,288.1,626.7,286.3z M633.2,285.6v-0.9c-0.7-0.2-1.5-0.4-2.6-0.4c-1.7,0-2.6,0.7-2.6,1.8
		v0c0,1.1,1,1.8,2.2,1.8C631.8,288,633.2,287,633.2,285.6z"/>
	<path class="st1" d="M637.6,286.5v-5.3h-1.2V280h1.2v-2.7h1.3v2.7h2.8v1.2h-2.8v5.2c0,1.1,0.6,1.5,1.5,1.5c0.4,0,0.8-0.1,1.3-0.3
		v1.1c-0.5,0.2-1,0.4-1.6,0.4C638.7,289,637.6,288.3,637.6,286.5z"/>
	<path class="st1" d="M643.4,286.3L643.4,286.3c0-1.9,1.5-2.9,3.8-2.9c1.1,0,1.9,0.2,2.7,0.4v-0.3c0-1.6-1-2.4-2.6-2.4
		c-1,0-1.9,0.3-2.7,0.7l-0.4-1.1c1-0.4,1.9-0.7,3.2-0.7c1.2,0,2.2,0.3,2.9,1c0.6,0.6,0.9,1.5,0.9,2.6v5.4h-1.3v-1.3
		c-0.6,0.8-1.6,1.5-3.2,1.5C645.1,289,643.4,288.1,643.4,286.3z M649.9,285.6v-0.9c-0.7-0.2-1.5-0.4-2.6-0.4c-1.7,0-2.6,0.7-2.6,1.8
		v0c0,1.1,1,1.8,2.2,1.8C648.6,288,649.9,287,649.9,285.6z"/>
	<path class="st1" d="M655.3,287.2v1.7H654v-12.5h1.3v5.4c0.7-1.1,1.8-2,3.4-2c2.1,0,4.2,1.7,4.2,4.6v0c0,2.9-2.1,4.6-4.2,4.6
		C657.1,289,656,288.1,655.3,287.2z M661.6,284.4L661.6,284.4c0-2.1-1.4-3.5-3.1-3.5c-1.6,0-3.2,1.4-3.2,3.4v0
		c0,2.1,1.6,3.4,3.2,3.4C660.2,287.9,661.6,286.6,661.6,284.4z"/>
	<path class="st1" d="M664.7,286.3L664.7,286.3c0-1.9,1.5-2.9,3.8-2.9c1.1,0,1.9,0.2,2.7,0.4v-0.3c0-1.6-1-2.4-2.6-2.4
		c-1,0-1.9,0.3-2.7,0.7l-0.4-1.1c1-0.4,1.9-0.7,3.2-0.7c1.2,0,2.2,0.3,2.9,1c0.6,0.6,0.9,1.5,0.9,2.6v5.4h-1.3v-1.3
		c-0.6,0.8-1.6,1.5-3.2,1.5C666.3,289,664.7,288.1,664.7,286.3z M671.2,285.6v-0.9c-0.7-0.2-1.5-0.4-2.6-0.4c-1.7,0-2.6,0.7-2.6,1.8
		v0c0,1.1,1,1.8,2.2,1.8C669.9,288,671.2,287,671.2,285.6z"/>
	<path class="st1" d="M674.5,287.7l0.7-0.9c1,0.7,2,1.1,3.1,1.1c1.1,0,1.8-0.5,1.8-1.4v0c0-0.9-1-1.2-2.2-1.6
		c-1.4-0.4-2.9-0.9-2.9-2.5v0c0-1.5,1.3-2.5,3-2.5c1.1,0,2.3,0.4,3.2,1l-0.6,1c-0.8-0.5-1.8-0.9-2.6-0.9c-1,0-1.7,0.5-1.7,1.3v0
		c0,0.8,1.1,1.2,2.3,1.5c1.4,0.4,2.8,0.9,2.8,2.5v0c0,1.7-1.4,2.7-3.2,2.7C676.9,289,675.5,288.5,674.5,287.7z"/>
	<path class="st1" d="M683.2,284.4L683.2,284.4c0-2.6,1.8-4.6,4.2-4.6c2.6,0,4.1,2.1,4.1,4.7c0,0.2,0,0.3,0,0.4h-7
		c0.2,1.9,1.5,3,3.1,3c1.2,0,2.1-0.5,2.8-1.2l0.8,0.7c-0.9,1-2,1.7-3.6,1.7C685.2,289.1,683.2,287.2,683.2,284.4z M690.3,283.9
		c-0.1-1.6-1.1-3-2.8-3c-1.5,0-2.7,1.3-2.9,3H690.3z"/>
	<path class="st1" d="M706,287.2c-1.1,1.2-2.4,1.9-3.9,1.9c-2.2,0-3.8-1.4-3.8-3.4v0c0-1.6,1.1-2.7,2.9-3.5c-0.8-1-1.2-1.7-1.2-2.6
		v0c0-1.6,1.3-2.8,3.2-2.8c1.7,0,2.9,1.2,2.9,2.7v0c0,1.5-1.1,2.5-2.8,3.1l2.7,2.8c0.5-0.8,1-1.7,1.4-2.7l1.1,0.5
		c-0.5,1.1-1.1,2.2-1.7,3l2.1,2.1l-1,0.8L706,287.2z M705.2,286.3L702,283c-1.6,0.6-2.3,1.6-2.3,2.6v0c0,1.3,1,2.3,2.5,2.3
		C703.4,287.9,704.4,287.3,705.2,286.3z M704.9,279.5L704.9,279.5c0-1-0.7-1.7-1.7-1.7c-1.1,0-1.8,0.8-1.8,1.7v0
		c0,0.7,0.3,1.2,1.2,2.2C704.1,281.2,704.9,280.5,704.9,279.5z"/>
	<path class="st1" d="M720.8,276.8h1.3l5.5,12.1H726l-1.4-3.2h-6.5l-1.4,3.2h-1.4L720.8,276.8z M724.1,284.4l-2.7-6.1l-2.7,6.1
		H724.1z"/>
	<path class="st1" d="M729.6,280h1.3v1.5c0.6-1,1.5-1.7,3-1.7c2.1,0,3.4,1.4,3.4,3.5v5.5h-1.3v-5.2c0-1.6-0.9-2.7-2.4-2.7
		c-1.5,0-2.7,1.1-2.7,2.8v5.1h-1.3V280z"/>
	<path class="st1" d="M739.5,286.3L739.5,286.3c0-1.9,1.5-2.9,3.8-2.9c1.1,0,1.9,0.2,2.7,0.4v-0.3c0-1.6-1-2.4-2.6-2.4
		c-1,0-1.9,0.3-2.7,0.7l-0.4-1.1c1-0.4,1.9-0.7,3.2-0.7c1.2,0,2.2,0.3,2.9,1c0.6,0.6,0.9,1.5,0.9,2.6v5.4H746v-1.3
		c-0.6,0.8-1.6,1.5-3.2,1.5C741.2,289,739.5,288.1,739.5,286.3z M746,285.6v-0.9c-0.7-0.2-1.5-0.4-2.6-0.4c-1.7,0-2.6,0.7-2.6,1.8v0
		c0,1.1,1,1.8,2.2,1.8C744.7,288,746,287,746,285.6z"/>
	<path class="st1" d="M750.2,276.4h1.3v12.5h-1.3V276.4z"/>
	<path class="st1" d="M761.2,280h1.4l-3.7,9.1c-0.8,1.8-1.6,2.5-2.9,2.5c-0.7,0-1.3-0.2-1.9-0.4l0.4-1c0.4,0.2,0.8,0.3,1.4,0.3
		c0.8,0,1.3-0.4,1.8-1.7l-4-8.8h1.5l3.2,7.4L761.2,280z"/>
	<path class="st1" d="M765.2,286.5v-5.3h-1.2V280h1.2v-2.7h1.3v2.7h2.8v1.2h-2.8v5.2c0,1.1,0.6,1.5,1.5,1.5c0.4,0,0.8-0.1,1.3-0.3
		v1.1c-0.5,0.2-1,0.4-1.6,0.4C766.3,289,765.2,288.3,765.2,286.5z"/>
	<path class="st1" d="M771.7,276.6h1.5v1.5h-1.5V276.6z M771.8,280h1.3v8.9h-1.3V280z"/>
	<path class="st1" d="M775.6,284.5L775.6,284.5c0-2.5,2-4.7,4.5-4.7c1.7,0,2.7,0.7,3.5,1.6l-0.9,0.9c-0.7-0.7-1.5-1.3-2.7-1.3
		c-1.8,0-3.2,1.5-3.2,3.4v0c0,1.9,1.4,3.4,3.3,3.4c1.1,0,2-0.6,2.7-1.3l0.8,0.8c-0.9,1-2,1.7-3.6,1.7
		C777.5,289.1,775.6,286.9,775.6,284.5z"/>
	<path class="st1" d="M785.2,287.7l0.7-0.9c1,0.7,2,1.1,3.1,1.1c1.1,0,1.8-0.5,1.8-1.4v0c0-0.9-1-1.2-2.2-1.6
		c-1.4-0.4-2.9-0.9-2.9-2.5v0c0-1.5,1.3-2.5,3-2.5c1.1,0,2.3,0.4,3.2,1l-0.6,1c-0.8-0.5-1.8-0.9-2.6-0.9c-1,0-1.7,0.5-1.7,1.3v0
		c0,0.8,1.1,1.2,2.3,1.5c1.4,0.4,2.8,0.9,2.8,2.5v0c0,1.7-1.4,2.7-3.1,2.7C787.6,289,786.2,288.5,785.2,287.7z"/>
</g>
<g class="st0">
	<path class="st1" d="M666.7,297.2h1.5v1.5h-1.5V297.2z M666.8,300.5h1.3v8.9h-1.3V300.5z"/>
	<path class="st1" d="M671.2,300.5h1.3v1.5c0.6-1,1.5-1.7,3-1.7c2.1,0,3.4,1.4,3.4,3.5v5.5h-1.3v-5.2c0-1.6-0.9-2.7-2.4-2.7
		c-1.5,0-2.7,1.1-2.7,2.8v5.1h-1.3V300.5z"/>
	<path class="st1" d="M682.2,307.1v-5.3H681v-1.2h1.2v-2.7h1.3v2.7h2.8v1.2h-2.8v5.2c0,1.1,0.6,1.5,1.5,1.5c0.4,0,0.8-0.1,1.3-0.3
		v1.1c-0.5,0.2-1,0.4-1.6,0.4C683.3,309.6,682.2,308.9,682.2,307.1z"/>
	<path class="st1" d="M687.8,305L687.8,305c0-2.6,1.8-4.6,4.2-4.6c2.6,0,4.1,2.1,4.1,4.7c0,0.2,0,0.3,0,0.4h-7c0.2,1.9,1.5,3,3.1,3
		c1.2,0,2.1-0.5,2.8-1.2l0.8,0.7c-0.9,1-2,1.7-3.6,1.7C689.8,309.6,687.8,307.7,687.8,305z M694.9,304.5c-0.1-1.6-1.1-3-2.8-3
		c-1.5,0-2.7,1.3-2.9,3H694.9z"/>
	<path class="st1" d="M698.5,300.5h1.3v2.3c0.7-1.5,1.9-2.5,3.6-2.5v1.4h-0.1c-1.9,0-3.5,1.4-3.5,4.1v3.5h-1.3V300.5z"/>
	<path class="st1" d="M705.9,301.7h-1.2v-1.1h1.2v-0.8c0-1,0.3-1.8,0.8-2.3c0.4-0.4,1.1-0.7,1.9-0.7c0.6,0,1,0.1,1.5,0.2v1.1
		c-0.5-0.1-0.8-0.2-1.3-0.2c-1,0-1.5,0.6-1.5,1.9v0.7h2.8v1.1h-2.8v7.7h-1.3V301.7z"/>
	<path class="st1" d="M710.8,306.8L710.8,306.8c0-1.9,1.5-2.9,3.8-2.9c1.1,0,1.9,0.2,2.7,0.4V304c0-1.6-1-2.4-2.6-2.4
		c-1,0-1.9,0.3-2.7,0.7l-0.4-1.1c1-0.4,1.9-0.7,3.2-0.7c1.2,0,2.2,0.3,2.9,1c0.6,0.6,0.9,1.5,0.9,2.6v5.4h-1.3v-1.3
		c-0.6,0.8-1.6,1.5-3.2,1.5C712.5,309.6,710.8,308.6,710.8,306.8z M717.3,306.1v-0.9c-0.7-0.2-1.5-0.4-2.6-0.4
		c-1.7,0-2.6,0.7-2.6,1.8v0c0,1.1,1,1.8,2.2,1.8C716,308.5,717.3,307.6,717.3,306.1z"/>
	<path class="st1" d="M720.8,305L720.8,305c0-2.5,2-4.7,4.5-4.7c1.7,0,2.7,0.7,3.5,1.6l-0.9,0.9c-0.7-0.7-1.5-1.3-2.7-1.3
		c-1.8,0-3.2,1.5-3.2,3.4v0c0,1.9,1.4,3.4,3.3,3.4c1.1,0,2-0.6,2.7-1.3l0.8,0.8c-0.9,1-2,1.7-3.6,1.7
		C722.8,309.6,720.8,307.5,720.8,305z"/>
	<path class="st1" d="M730.4,305L730.4,305c0-2.6,1.8-4.6,4.2-4.6c2.6,0,4.1,2.1,4.1,4.7c0,0.2,0,0.3,0,0.4h-7c0.2,1.9,1.5,3,3.1,3
		c1.2,0,2.1-0.5,2.8-1.2l0.8,0.7c-0.9,1-2,1.7-3.6,1.7C732.3,309.6,730.4,307.7,730.4,305z M737.4,304.5c-0.1-1.6-1.1-3-2.8-3
		c-1.5,0-2.7,1.3-2.9,3H737.4z"/>
</g>
<g class="st0">
	<path class="st1" d="M83.9,54.5h1.4v5.3h6.9v-5.3h1.4v12h-1.4v-5.4h-6.9v5.4h-1.4V54.5z"/>
	<path class="st1" d="M96.1,62.1L96.1,62.1c0-2.6,1.8-4.6,4.2-4.6c2.6,0,4.1,2.1,4.1,4.7c0,0.2,0,0.3,0,0.4h-7c0.2,1.9,1.5,3,3.1,3
		c1.2,0,2.1-0.5,2.8-1.2l0.8,0.7c-0.9,1-2,1.7-3.6,1.7C98.1,66.7,96.1,64.9,96.1,62.1z M103.2,61.6c-0.1-1.6-1.1-3-2.8-3
		c-1.5,0-2.7,1.3-2.9,3H103.2z"/>
	<path class="st1" d="M106.9,54h1.3v12.5h-1.3V54z"/>
	<path class="st1" d="M111.3,57.7h1.3v1.8c0.7-1.1,1.8-2,3.4-2c2.1,0,4.2,1.7,4.2,4.6v0c0,2.9-2.1,4.6-4.2,4.6
		c-1.6,0-2.7-0.9-3.4-1.9v4.4h-1.3V57.7z M118.9,62.1L118.9,62.1c0-2.1-1.4-3.5-3.1-3.5c-1.6,0-3.2,1.4-3.2,3.4v0
		c0,2.1,1.6,3.4,3.2,3.4C117.5,65.5,118.9,64.3,118.9,62.1z"/>
	<path class="st1" d="M127.8,57.7h1.3v1.8c0.7-1.1,1.8-2,3.4-2c2.1,0,4.2,1.7,4.2,4.6v0c0,2.9-2.1,4.6-4.2,4.6
		c-1.6,0-2.7-0.9-3.4-1.9v4.4h-1.3V57.7z M135.4,62.1L135.4,62.1c0-2.1-1.4-3.5-3.1-3.5c-1.6,0-3.2,1.4-3.2,3.4v0
		c0,2.1,1.6,3.4,3.2,3.4C134,65.5,135.4,64.3,135.4,62.1z"/>
	<path class="st1" d="M138.5,64L138.5,64c0-1.9,1.5-2.9,3.8-2.9c1.1,0,1.9,0.2,2.7,0.4v-0.3c0-1.6-1-2.4-2.6-2.4
		c-1,0-1.9,0.3-2.7,0.7l-0.4-1.1c1-0.4,1.9-0.7,3.2-0.7c1.2,0,2.2,0.3,2.9,1c0.6,0.6,0.9,1.5,0.9,2.6v5.4H145v-1.3
		c-0.6,0.8-1.6,1.5-3.2,1.5C140.2,66.7,138.5,65.8,138.5,64z M145,63.3v-0.9c-0.7-0.2-1.5-0.4-2.6-0.4c-1.7,0-2.6,0.7-2.6,1.8v0
		c0,1.1,1,1.8,2.2,1.8C143.7,65.7,145,64.7,145,63.3z"/>
	<path class="st1" d="M149.5,64.2v-5.3h-1.2v-1.2h1.2V55h1.3v2.7h2.8v1.2h-2.8V64c0,1.1,0.6,1.5,1.5,1.5c0.4,0,0.8-0.1,1.3-0.3v1.1
		c-0.5,0.2-1,0.4-1.6,0.4C150.6,66.7,149.5,66,149.5,64.2z"/>
	<path class="st1" d="M156,54.3h1.5v1.5H156V54.3z M156.1,57.7h1.3v8.9h-1.3V57.7z"/>
	<path class="st1" d="M159.9,62.1L159.9,62.1c0-2.6,1.8-4.6,4.2-4.6c2.6,0,4.1,2.1,4.1,4.7c0,0.2,0,0.3,0,0.4h-7
		c0.2,1.9,1.5,3,3.1,3c1.2,0,2.1-0.5,2.8-1.2l0.8,0.7c-0.9,1-2,1.7-3.6,1.7C161.9,66.7,159.9,64.9,159.9,62.1z M166.9,61.6
		c-0.1-1.6-1.1-3-2.8-3c-1.5,0-2.7,1.3-2.9,3H166.9z"/>
	<path class="st1" d="M170.6,57.7h1.3v1.5c0.6-1,1.5-1.7,3-1.7c2.1,0,3.4,1.4,3.4,3.5v5.5H177v-5.2c0-1.6-0.9-2.7-2.4-2.7
		c-1.5,0-2.7,1.1-2.7,2.8v5.1h-1.3V57.7z"/>
	<path class="st1" d="M181.6,64.2v-5.3h-1.2v-1.2h1.2V55h1.3v2.7h2.8v1.2h-2.8V64c0,1.1,0.6,1.5,1.5,1.5c0.4,0,0.8-0.1,1.3-0.3v1.1
		c-0.5,0.2-1,0.4-1.6,0.4C182.7,66.7,181.6,66,181.6,64.2z"/>
	<path class="st1" d="M187.3,65.4l0.7-0.9c1,0.7,2,1.1,3.1,1.1c1.1,0,1.8-0.5,1.8-1.4v0c0-0.9-1-1.2-2.2-1.6
		c-1.4-0.4-2.9-0.9-2.9-2.5v0c0-1.5,1.3-2.5,3-2.5c1.1,0,2.3,0.4,3.2,1l-0.6,1c-0.8-0.5-1.8-0.9-2.6-0.9c-1,0-1.7,0.5-1.7,1.3v0
		c0,0.8,1.1,1.2,2.3,1.5c1.4,0.4,2.8,0.9,2.8,2.5v0c0,1.7-1.4,2.7-3.2,2.7C189.7,66.7,188.3,66.2,187.3,65.4z"/>
</g>
<g class="st0">
	<path class="st1" d="M54.8,79.4h-1.2v-1.1h1.2v-0.8c0-1,0.3-1.8,0.8-2.3c0.4-0.4,1.1-0.7,1.9-0.7c0.6,0,1,0.1,1.5,0.2v1.1
		c-0.5-0.1-0.8-0.2-1.3-0.2c-1,0-1.5,0.6-1.5,1.9v0.7h2.8v1.1h-2.8v7.7h-1.3V79.4z M60.7,74.8h1.5v1.5h-1.5V74.8z M60.8,78.2h1.3
		v8.9h-1.3V78.2z"/>
	<path class="st1" d="M65.1,78.2h1.3v1.5c0.6-1,1.5-1.7,3-1.7c2.1,0,3.4,1.4,3.4,3.5v5.5h-1.3v-5.2c0-1.6-0.9-2.7-2.4-2.7
		c-1.5,0-2.7,1.1-2.7,2.8v5.1h-1.3V78.2z"/>
	<path class="st1" d="M75.2,82.7L75.2,82.7c0-2.9,2.1-4.6,4.2-4.6c1.6,0,2.7,0.9,3.4,1.9v-5.3h1.3v12.5h-1.3v-1.8
		c-0.7,1.1-1.8,2-3.4,2C77.3,87.3,75.2,85.6,75.2,82.7z M82.8,82.7L82.8,82.7c0-2.1-1.6-3.4-3.2-3.4c-1.7,0-3.1,1.3-3.1,3.4v0
		c0,2.1,1.5,3.4,3.1,3.4C81.3,86.1,82.8,84.7,82.8,82.7z"/>
	<path class="st1" d="M91.6,82.7L91.6,82.7c0-2.5,2-4.7,4.5-4.7c1.7,0,2.7,0.7,3.5,1.6l-0.9,0.9c-0.7-0.7-1.5-1.3-2.7-1.3
		c-1.8,0-3.2,1.5-3.2,3.4v0c0,1.9,1.4,3.4,3.3,3.4c1.1,0,2-0.6,2.7-1.3l0.8,0.8c-0.9,1-2,1.7-3.6,1.7C93.6,87.3,91.6,85.2,91.6,82.7
		z"/>
	<path class="st1" d="M102.1,74.6h1.3v12.5h-1.3V74.6z"/>
	<path class="st1" d="M106.5,74.8h1.5v1.5h-1.5V74.8z M106.6,78.2h1.3v8.9h-1.3V78.2z"/>
	<path class="st1" d="M111,78.2h1.3v1.5c0.6-1,1.5-1.7,3-1.7c2.1,0,3.4,1.4,3.4,3.5v5.5h-1.3v-5.2c0-1.6-0.9-2.7-2.4-2.7
		c-1.5,0-2.7,1.1-2.7,2.8v5.1H111V78.2z"/>
	<path class="st1" d="M121.6,74.8h1.5v1.5h-1.5V74.8z M121.6,78.2h1.3v8.9h-1.3V78.2z"/>
	<path class="st1" d="M125.5,82.7L125.5,82.7c0-2.5,2-4.7,4.5-4.7c1.7,0,2.7,0.7,3.5,1.6l-0.9,0.9c-0.7-0.7-1.5-1.3-2.7-1.3
		c-1.8,0-3.2,1.5-3.2,3.4v0c0,1.9,1.4,3.4,3.3,3.4c1.1,0,2-0.6,2.7-1.3l0.8,0.8c-0.9,1-2,1.7-3.6,1.7
		C127.4,87.3,125.5,85.2,125.5,82.7z"/>
	<path class="st1" d="M135.1,84.5L135.1,84.5c0-1.9,1.5-2.9,3.8-2.9c1.1,0,1.9,0.2,2.7,0.4v-0.3c0-1.6-1-2.4-2.6-2.4
		c-1,0-1.9,0.3-2.7,0.7l-0.4-1.1c1-0.4,1.9-0.7,3.2-0.7c1.2,0,2.2,0.3,2.9,1c0.6,0.6,0.9,1.5,0.9,2.6v5.4h-1.3v-1.3
		c-0.6,0.8-1.6,1.5-3.2,1.5C136.8,87.3,135.1,86.3,135.1,84.5z M141.7,83.8V83c-0.7-0.2-1.5-0.4-2.6-0.4c-1.7,0-2.6,0.7-2.6,1.8v0
		c0,1.1,1,1.8,2.2,1.8C140.3,86.2,141.7,85.2,141.7,83.8z"/>
	<path class="st1" d="M145.8,74.6h1.3v12.5h-1.3V74.6z"/>
	<path class="st1" d="M155.8,84.7v-5.3h-1.2v-1.2h1.2v-2.7h1.3v2.7h2.8v1.2h-2.8v5.2c0,1.1,0.6,1.5,1.5,1.5c0.4,0,0.8-0.1,1.3-0.3
		v1.1c-0.5,0.2-1,0.4-1.6,0.4C156.9,87.2,155.8,86.5,155.8,84.7z"/>
	<path class="st1" d="M162.3,78.2h1.3v2.3c0.7-1.5,1.9-2.5,3.6-2.5v1.4h-0.1c-1.9,0-3.5,1.4-3.5,4.1v3.5h-1.3V78.2z"/>
	<path class="st1" d="M169.2,74.8h1.5v1.5h-1.5V74.8z M169.3,78.2h1.3v8.9h-1.3V78.2z"/>
	<path class="st1" d="M173,84.5L173,84.5c0-1.9,1.5-2.9,3.8-2.9c1.1,0,1.9,0.2,2.7,0.4v-0.3c0-1.6-1-2.4-2.6-2.4
		c-1,0-1.9,0.3-2.7,0.7l-0.4-1.1c1-0.4,1.9-0.7,3.2-0.7c1.2,0,2.2,0.3,2.9,1c0.6,0.6,0.9,1.5,0.9,2.6v5.4h-1.3v-1.3
		c-0.6,0.8-1.6,1.5-3.2,1.5C174.7,87.3,173,86.3,173,84.5z M179.6,83.8V83c-0.7-0.2-1.5-0.4-2.6-0.4c-1.7,0-2.6,0.7-2.6,1.8v0
		c0,1.1,1,1.8,2.2,1.8C178.2,86.2,179.6,85.2,179.6,83.8z"/>
	<path class="st1" d="M183.7,74.6h1.3v12.5h-1.3V74.6z"/>
	<path class="st1" d="M187.4,85.9L188,85c1,0.7,2,1.1,3.1,1.1c1.1,0,1.8-0.5,1.8-1.4v0c0-0.9-1-1.2-2.2-1.6
		c-1.4-0.4-2.9-0.9-2.9-2.5v0c0-1.5,1.3-2.5,3-2.5c1.1,0,2.3,0.4,3.2,1l-0.6,1c-0.8-0.5-1.8-0.9-2.6-0.9c-1,0-1.7,0.5-1.7,1.3v0
		c0,0.8,1.1,1.2,2.3,1.5c1.4,0.4,2.8,0.9,2.8,2.5v0c0,1.7-1.4,2.7-3.2,2.7C189.8,87.2,188.4,86.7,187.4,85.9z"/>
</g>
<g class="st0">
	<path class="st1" d="M1101.9,438.3h4.5c2.7,0,4.5,1.4,4.5,3.8v0c0,2.6-2.2,3.9-4.7,3.9h-2.9v4.2h-1.4V438.3z M1106.2,444.8
		c2,0,3.3-1.1,3.3-2.6v0c0-1.7-1.3-2.6-3.2-2.6h-3v5.3H1106.2z"/>
	<path class="st1" d="M1112.2,447.7L1112.2,447.7c0-1.9,1.5-2.9,3.8-2.9c1.1,0,1.9,0.2,2.7,0.4v-0.3c0-1.6-1-2.4-2.6-2.4
		c-1,0-1.9,0.3-2.7,0.7l-0.4-1.1c1-0.4,1.9-0.7,3.2-0.7c1.2,0,2.2,0.3,2.9,1c0.6,0.6,0.9,1.5,0.9,2.6v5.4h-1.3V449
		c-0.6,0.8-1.6,1.5-3.2,1.5C1113.9,450.5,1112.2,449.5,1112.2,447.7z M1118.8,447v-0.9c-0.7-0.2-1.5-0.4-2.6-0.4
		c-1.7,0-2.6,0.7-2.6,1.8v0c0,1.1,1,1.8,2.2,1.8C1117.4,449.4,1118.8,448.5,1118.8,447z"/>
	<path class="st1" d="M1123.2,448v-5.3h-1.2v-1.2h1.2v-2.7h1.3v2.7h2.8v1.2h-2.8v5.2c0,1.1,0.6,1.5,1.5,1.5c0.4,0,0.8-0.1,1.3-0.3
		v1.1c-0.5,0.2-1,0.4-1.6,0.4C1124.3,450.5,1123.2,449.8,1123.2,448z"/>
	<path class="st1" d="M1129.7,438.1h1.5v1.5h-1.5V438.1z M1129.8,441.4h1.3v8.9h-1.3V441.4z"/>
	<path class="st1" d="M1133.6,445.9L1133.6,445.9c0-2.6,1.8-4.6,4.2-4.6c2.6,0,4.1,2.1,4.1,4.7c0,0.2,0,0.3,0,0.4h-7
		c0.2,1.9,1.5,3,3.1,3c1.2,0,2.1-0.5,2.8-1.2l0.8,0.7c-0.9,1-2,1.7-3.6,1.7C1135.6,450.5,1133.6,448.6,1133.6,445.9z M1140.6,445.4
		c-0.1-1.6-1.1-3-2.8-3c-1.5,0-2.7,1.3-2.9,3H1140.6z"/>
	<path class="st1" d="M1144.3,441.4h1.3v1.5c0.6-1,1.5-1.7,3-1.7c2.1,0,3.4,1.4,3.4,3.5v5.5h-1.3v-5.2c0-1.6-0.9-2.7-2.4-2.7
		c-1.5,0-2.7,1.1-2.7,2.8v5.1h-1.3V441.4z"/>
	<path class="st1" d="M1155.3,448v-5.3h-1.2v-1.2h1.2v-2.7h1.3v2.7h2.8v1.2h-2.8v5.2c0,1.1,0.6,1.5,1.5,1.5c0.4,0,0.8-0.1,1.3-0.3
		v1.1c-0.5,0.2-1,0.4-1.6,0.4C1156.4,450.5,1155.3,449.8,1155.3,448z"/>
</g>
<g class="st0">
	<path class="st1" d="M1101.1,466.5L1101.1,466.5c0-2.5,2-4.7,4.6-4.7c2.7,0,4.6,2.1,4.6,4.6v0c0,2.5-2,4.6-4.6,4.6
		C1103,471.1,1101.1,469,1101.1,466.5z M1109,466.5L1109,466.5c0-1.9-1.4-3.5-3.3-3.5c-1.9,0-3.2,1.6-3.2,3.4v0
		c0,1.9,1.4,3.4,3.3,3.4C1107.6,469.9,1109,468.3,1109,466.5z"/>
	<path class="st1" d="M1112.6,467.5V462h1.3v5.2c0,1.6,0.9,2.7,2.4,2.7c1.5,0,2.7-1.1,2.7-2.8V462h1.3v8.9h-1.3v-1.5
		c-0.6,1-1.5,1.7-3,1.7C1113.8,471,1112.6,469.6,1112.6,467.5z"/>
	<path class="st1" d="M1123.7,468.5v-5.3h-1.2V462h1.2v-2.7h1.3v2.7h2.8v1.2h-2.8v5.2c0,1.1,0.6,1.5,1.5,1.5c0.4,0,0.8-0.1,1.3-0.3
		v1.1c-0.5,0.2-1,0.4-1.6,0.4C1124.8,471,1123.7,470.3,1123.7,468.5z"/>
	<path class="st1" d="M1129.4,466.5L1129.4,466.5c0-2.5,2-4.7,4.5-4.7c1.7,0,2.7,0.7,3.5,1.6l-0.9,0.9c-0.7-0.7-1.5-1.3-2.7-1.3
		c-1.8,0-3.2,1.5-3.2,3.4v0c0,1.9,1.4,3.4,3.3,3.4c1.1,0,2-0.6,2.7-1.3l0.8,0.8c-0.9,1-2,1.7-3.6,1.7
		C1131.3,471.1,1129.4,468.9,1129.4,466.5z"/>
	<path class="st1" d="M1138.9,466.5L1138.9,466.5c0-2.5,2-4.7,4.6-4.7c2.7,0,4.6,2.1,4.6,4.6v0c0,2.5-2,4.6-4.6,4.6
		C1140.8,471.1,1138.9,469,1138.9,466.5z M1146.8,466.5L1146.8,466.5c0-1.9-1.4-3.5-3.3-3.5c-1.9,0-3.2,1.6-3.2,3.4v0
		c0,1.9,1.4,3.4,3.3,3.4C1145.4,469.9,1146.8,468.3,1146.8,466.5z"/>
	<path class="st1" d="M1150.5,462h1.3v1.5c0.6-0.9,1.4-1.7,2.9-1.7c1.4,0,2.4,0.8,2.8,1.8c0.6-1,1.6-1.8,3.1-1.8
		c2,0,3.3,1.4,3.3,3.6v5.5h-1.3v-5.2c0-1.7-0.9-2.7-2.3-2.7c-1.3,0-2.4,1-2.4,2.7v5.1h-1.3v-5.2c0-1.7-0.9-2.6-2.3-2.6
		c-1.4,0-2.5,1.2-2.5,2.8v5.1h-1.3V462z"/>
	<path class="st1" d="M1166.2,466.4L1166.2,466.4c0-2.6,1.8-4.6,4.2-4.6c2.6,0,4.1,2.1,4.1,4.7c0,0.2,0,0.3,0,0.4h-7
		c0.2,1.9,1.5,3,3.1,3c1.2,0,2.1-0.5,2.8-1.2l0.8,0.7c-0.9,1-2,1.7-3.6,1.7C1168.2,471.1,1166.2,469.2,1166.2,466.4z M1173.3,465.9
		c-0.1-1.6-1.1-3-2.8-3c-1.5,0-2.7,1.3-2.9,3H1173.3z"/>
	<path class="st1" d="M1176.2,469.7l0.7-0.9c1,0.7,2,1.1,3.1,1.1c1.1,0,1.8-0.5,1.8-1.4v0c0-0.9-1-1.2-2.2-1.6
		c-1.4-0.4-2.9-0.9-2.9-2.5v0c0-1.5,1.3-2.5,3-2.5c1.1,0,2.3,0.4,3.2,1l-0.6,1c-0.8-0.5-1.8-0.9-2.6-0.9c-1,0-1.7,0.5-1.7,1.3v0
		c0,0.8,1.1,1.2,2.3,1.5c1.4,0.4,2.8,0.9,2.8,2.5v0c0,1.7-1.4,2.7-3.2,2.7C1178.6,471,1177.2,470.5,1176.2,469.7z"/>
</g>
<g class="st0">
	<path class="st1" d="M77,299.3h1.4l4.4,6.5l4.4-6.5h1.4v12h-1.4v-9.7l-4.4,6.4h-0.1l-4.4-6.4v9.7H77V299.3z"/>
	<path class="st1" d="M91.1,306.9L91.1,306.9c0-2.5,2-4.7,4.6-4.7c2.7,0,4.6,2.1,4.6,4.6v0c0,2.5-2,4.6-4.6,4.6
		C93,311.5,91.1,309.4,91.1,306.9z M99,306.9L99,306.9c0-1.9-1.4-3.5-3.3-3.5c-1.9,0-3.2,1.6-3.2,3.4v0c0,1.9,1.4,3.4,3.3,3.4
		C97.7,310.3,99,308.8,99,306.9z"/>
	<path class="st1" d="M102.8,298.8h1.3v12.5h-1.3V298.8z"/>
	<path class="st1" d="M106.7,306.9L106.7,306.9c0-2.6,1.8-4.6,4.2-4.6c2.6,0,4.1,2.1,4.1,4.7c0,0.2,0,0.3,0,0.4h-7
		c0.2,1.9,1.5,3,3.1,3c1.2,0,2.1-0.5,2.8-1.2l0.8,0.7c-0.9,1-2,1.7-3.6,1.7C108.7,311.5,106.7,309.6,106.7,306.9z M113.7,306.4
		c-0.1-1.6-1.1-3-2.8-3c-1.5,0-2.7,1.3-2.9,3H113.7z"/>
	<path class="st1" d="M116.8,306.9L116.8,306.9c0-2.5,2-4.7,4.5-4.7c1.7,0,2.7,0.7,3.5,1.6l-0.9,0.9c-0.7-0.7-1.5-1.3-2.7-1.3
		c-1.8,0-3.2,1.5-3.2,3.4v0c0,1.9,1.4,3.4,3.3,3.4c1.1,0,2-0.6,2.7-1.3l0.8,0.8c-0.9,1-2,1.7-3.6,1.7
		C118.8,311.5,116.8,309.4,116.8,306.9z"/>
	<path class="st1" d="M127,307.9v-5.5h1.3v5.2c0,1.6,0.9,2.7,2.4,2.7c1.5,0,2.7-1.1,2.7-2.8v-5.1h1.3v8.9h-1.3v-1.5
		c-0.6,1-1.5,1.7-3,1.7C128.2,311.5,127,310,127,307.9z"/>
	<path class="st1" d="M137.8,298.8h1.3v12.5h-1.3V298.8z"/>
	<path class="st1" d="M141.5,308.7L141.5,308.7c0-1.9,1.5-2.9,3.8-2.9c1.1,0,1.9,0.2,2.7,0.4v-0.3c0-1.6-1-2.4-2.6-2.4
		c-1,0-1.9,0.3-2.7,0.7l-0.4-1.1c1-0.4,1.9-0.7,3.2-0.7c1.2,0,2.2,0.3,2.9,1c0.6,0.6,0.9,1.5,0.9,2.6v5.4H148v-1.3
		c-0.6,0.8-1.6,1.5-3.2,1.5C143.2,311.5,141.5,310.5,141.5,308.7z M148,308v-0.9c-0.7-0.2-1.5-0.4-2.6-0.4c-1.7,0-2.6,0.7-2.6,1.8v0
		c0,1.1,1,1.8,2.2,1.8C146.7,310.4,148,309.4,148,308z"/>
	<path class="st1" d="M152.1,302.4h1.3v2.3c0.7-1.5,1.9-2.5,3.6-2.5v1.4h-0.1c-1.9,0-3.5,1.4-3.5,4.1v3.5h-1.3V302.4z"/>
</g>
<g class="st0">
	<path class="st1" d="M56.2,328.5V323h1.3v5.2c0,1.6,0.9,2.7,2.4,2.7c1.5,0,2.7-1.1,2.7-2.8V323h1.3v8.9h-1.3v-1.5
		c-0.6,1-1.5,1.7-3,1.7C57.4,332,56.2,330.6,56.2,328.5z"/>
	<path class="st1" d="M66.8,323h1.3v1.5c0.6-1,1.5-1.7,3-1.7c2.1,0,3.4,1.4,3.4,3.5v5.5h-1.3v-5.2c0-1.6-0.9-2.7-2.4-2.7
		c-1.5,0-2.7,1.1-2.7,2.8v5.1h-1.3V323z"/>
	<path class="st1" d="M76.9,327.4L76.9,327.4c0-2.9,2.1-4.6,4.2-4.6c1.6,0,2.7,0.9,3.4,1.9v-5.3h1.3v12.5h-1.3V330
		c-0.7,1.1-1.8,2-3.4,2C79,332,76.9,330.3,76.9,327.4z M84.6,327.4L84.6,327.4c0-2.1-1.6-3.4-3.2-3.4c-1.7,0-3.1,1.3-3.1,3.4v0
		c0,2.1,1.5,3.4,3.1,3.4C83,330.8,84.6,329.5,84.6,327.4z"/>
	<path class="st1" d="M88.2,327.4L88.2,327.4c0-2.6,1.8-4.6,4.2-4.6c2.6,0,4.1,2.1,4.1,4.7c0,0.2,0,0.3,0,0.4h-7
		c0.2,1.9,1.5,3,3.1,3c1.2,0,2.1-0.5,2.8-1.2l0.8,0.7c-0.9,1-2,1.7-3.6,1.7C90.2,332,88.2,330.2,88.2,327.4z M95.2,326.9
		c-0.1-1.6-1.1-3-2.8-3c-1.5,0-2.7,1.3-2.9,3H95.2z"/>
	<path class="st1" d="M98.9,323h1.3v2.3c0.7-1.5,1.9-2.5,3.6-2.5v1.4h-0.1c-1.9,0-3.5,1.4-3.5,4.1v3.5h-1.3V323z"/>
	<path class="st1" d="M105.1,330.7l0.7-0.9c1,0.7,2,1.1,3.1,1.1c1.1,0,1.8-0.5,1.8-1.4v0c0-0.9-1-1.2-2.2-1.6
		c-1.4-0.4-2.9-0.9-2.9-2.5v0c0-1.5,1.3-2.5,3-2.5c1.1,0,2.3,0.4,3.2,1l-0.6,1c-0.8-0.5-1.8-0.9-2.6-0.9c-1,0-1.7,0.5-1.7,1.3v0
		c0,0.8,1.1,1.2,2.3,1.5c1.4,0.4,2.8,0.9,2.8,2.5v0c0,1.7-1.4,2.7-3.2,2.7C107.5,332,106.1,331.5,105.1,330.7z"/>
	<path class="st1" d="M114.6,329.5v-5.3h-1.2V323h1.2v-2.7h1.3v2.7h2.8v1.2H116v5.2c0,1.1,0.6,1.5,1.5,1.5c0.4,0,0.8-0.1,1.3-0.3
		v1.1c-0.5,0.2-1,0.4-1.6,0.4C115.7,332,114.6,331.3,114.6,329.5z"/>
	<path class="st1" d="M120.4,329.3L120.4,329.3c0-1.9,1.5-2.9,3.8-2.9c1.1,0,1.9,0.2,2.7,0.4v-0.3c0-1.6-1-2.4-2.6-2.4
		c-1,0-1.9,0.3-2.7,0.7l-0.4-1.1c1-0.4,1.9-0.7,3.2-0.7c1.2,0,2.2,0.3,2.9,1c0.6,0.6,0.9,1.5,0.9,2.6v5.4h-1.3v-1.3
		c-0.6,0.8-1.6,1.5-3.2,1.5C122.1,332,120.4,331.1,120.4,329.3z M127,328.6v-0.9c-0.7-0.2-1.5-0.4-2.6-0.4c-1.7,0-2.6,0.7-2.6,1.8v0
		c0,1.1,1,1.8,2.2,1.8C125.6,331,127,330,127,328.6z"/>
	<path class="st1" d="M131,323h1.3v1.5c0.6-1,1.5-1.7,3-1.7c2.1,0,3.4,1.4,3.4,3.5v5.5h-1.3v-5.2c0-1.6-0.9-2.7-2.4-2.7
		c-1.5,0-2.7,1.1-2.7,2.8v5.1H131V323z"/>
	<path class="st1" d="M141,327.4L141,327.4c0-2.9,2.1-4.6,4.2-4.6c1.6,0,2.7,0.9,3.4,1.9v-5.3h1.3v12.5h-1.3V330
		c-0.7,1.1-1.8,2-3.4,2C143.2,332,141,330.3,141,327.4z M148.7,327.4L148.7,327.4c0-2.1-1.6-3.4-3.2-3.4c-1.7,0-3.1,1.3-3.1,3.4v0
		c0,2.1,1.5,3.4,3.1,3.4C147.2,330.8,148.7,329.5,148.7,327.4z"/>
	<path class="st1" d="M153,319.6h1.5v1.5H153V319.6z M153,323h1.3v8.9H153V323z"/>
	<path class="st1" d="M157.4,323h1.3v1.5c0.6-1,1.5-1.7,3-1.7c2.1,0,3.4,1.4,3.4,3.5v5.5h-1.3v-5.2c0-1.6-0.9-2.7-2.4-2.7
		c-1.5,0-2.7,1.1-2.7,2.8v5.1h-1.3V323z"/>
	<path class="st1" d="M167.9,333.4l0.6-1c1,0.7,2.1,1.1,3.4,1.1c2,0,3.2-1.1,3.2-3.2v-1c-0.8,1-1.8,1.9-3.5,1.9
		c-2.1,0-4.2-1.6-4.2-4.1v0c0-2.6,2.1-4.2,4.2-4.2c1.7,0,2.7,0.8,3.5,1.8V323h1.3v7.3c0,1.4-0.4,2.4-1.1,3.1c-0.8,0.8-2,1.2-3.4,1.2
		C170.4,334.6,169.1,334.2,167.9,333.4z M175.1,327L175.1,327c0-1.8-1.6-3-3.3-3c-1.7,0-3.1,1.2-3.1,3v0c0,1.8,1.4,3,3.1,3
		C173.6,330,175.1,328.8,175.1,327z"/>
</g>
<g class="st0">
	<path class="st1" d="M77.6,348L77.6,348c0-2.5,2-4.7,4.6-4.7c2.7,0,4.6,2.1,4.6,4.6v0c0,2.5-2,4.6-4.6,4.6
		C79.5,352.6,77.6,350.5,77.6,348z M85.5,348L85.5,348c0-1.9-1.4-3.5-3.3-3.5c-1.9,0-3.2,1.6-3.2,3.4v0c0,1.9,1.4,3.4,3.3,3.4
		C84.1,351.4,85.5,349.9,85.5,348z"/>
	<path class="st1" d="M89.7,344.7h-1.2v-1.1h1.2v-0.8c0-1,0.3-1.8,0.8-2.3c0.4-0.4,1.1-0.7,1.9-0.7c0.6,0,1,0.1,1.5,0.2v1.1
		c-0.5-0.1-0.8-0.2-1.3-0.2c-1,0-1.5,0.6-1.5,1.9v0.7h2.8v1.1H91v7.7h-1.3V344.7z"/>
	<path class="st1" d="M100.1,348L100.1,348c0-2.5,2-4.7,4.5-4.7c1.7,0,2.7,0.7,3.5,1.6l-0.9,0.9c-0.7-0.7-1.5-1.3-2.7-1.3
		c-1.8,0-3.2,1.5-3.2,3.4v0c0,1.9,1.4,3.4,3.3,3.4c1.1,0,2-0.6,2.7-1.3l0.8,0.8c-0.9,1-2,1.7-3.6,1.7
		C102,352.6,100.1,350.5,100.1,348z"/>
	<path class="st1" d="M109.7,349.8L109.7,349.8c0-1.9,1.5-2.9,3.8-2.9c1.1,0,1.9,0.2,2.7,0.4V347c0-1.6-1-2.4-2.6-2.4
		c-1,0-1.9,0.3-2.7,0.7l-0.4-1.1c1-0.4,1.9-0.7,3.2-0.7c1.2,0,2.2,0.3,2.9,1c0.6,0.6,0.9,1.5,0.9,2.6v5.4h-1.3V351
		c-0.6,0.8-1.6,1.5-3.2,1.5C111.4,352.6,109.7,351.6,109.7,349.8z M116.3,349.1v-0.9c-0.7-0.2-1.5-0.4-2.6-0.4
		c-1.7,0-2.6,0.7-2.6,1.8v0c0,1.1,1,1.8,2.2,1.8C114.9,351.5,116.3,350.5,116.3,349.1z"/>
	<path class="st1" d="M120.3,343.5h1.3v1.5c0.6-1,1.5-1.7,3-1.7c2.1,0,3.4,1.4,3.4,3.5v5.5h-1.3v-5.2c0-1.6-0.9-2.7-2.4-2.7
		c-1.5,0-2.7,1.1-2.7,2.8v5.1h-1.3V343.5z"/>
	<path class="st1" d="M130.3,348L130.3,348c0-2.5,2-4.7,4.5-4.7c1.7,0,2.7,0.7,3.5,1.6l-0.9,0.9c-0.7-0.7-1.5-1.3-2.7-1.3
		c-1.8,0-3.2,1.5-3.2,3.4v0c0,1.9,1.4,3.4,3.3,3.4c1.1,0,2-0.6,2.7-1.3l0.8,0.8c-0.9,1-2,1.7-3.6,1.7
		C132.3,352.6,130.3,350.5,130.3,348z"/>
	<path class="st1" d="M139.8,348L139.8,348c0-2.6,1.8-4.6,4.2-4.6c2.6,0,4.1,2.1,4.1,4.7c0,0.2,0,0.3,0,0.4h-7c0.2,1.9,1.5,3,3.1,3
		c1.2,0,2.1-0.5,2.8-1.2l0.8,0.7c-0.9,1-2,1.7-3.6,1.7C141.8,352.6,139.8,350.7,139.8,348z M146.9,347.5c-0.1-1.6-1.1-3-2.8-3
		c-1.5,0-2.7,1.3-2.9,3H146.9z"/>
	<path class="st1" d="M150.5,343.5h1.3v2.3c0.7-1.5,1.9-2.5,3.6-2.5v1.4h-0.1c-1.9,0-3.5,1.4-3.5,4.1v3.5h-1.3V343.5z"/>
</g>
<g class="st0">
	<path class="st2" d="M329.4,594.3h7.8c2.2,0,3.9,0.6,5,1.7c0.9,0.9,1.4,2.2,1.4,3.8v0c0,2.9-1.7,4.6-4.1,5.3l4.7,6.6h-3.6l-4.3-6.1
		h-3.8v6.1h-3.1V594.3z M336.9,602.9c2.2,0,3.6-1.1,3.6-2.9v0c0-1.9-1.3-2.9-3.6-2.9h-4.5v5.9H336.9z"/>
	<path class="st2" d="M357.1,609.7c-1.5,1.4-3.2,2.3-5.3,2.3c-3.3,0-5.7-2-5.7-5v0c0-2.2,1.3-3.9,3.7-4.9c-1-1.3-1.4-2.4-1.4-3.6v0
		c0-2.3,1.9-4.4,5-4.4c2.8,0,4.6,1.9,4.6,4.2v0c0,2.3-1.5,3.7-3.8,4.5l3,3c0.7-1,1.3-2.1,1.9-3.4l2.3,1.2c-0.7,1.4-1.5,2.8-2.4,4
		l2.8,2.8l-2.3,1.6L357.1,609.7z M355.4,607.9l-3.9-4c-1.6,0.7-2.3,1.8-2.3,2.9v0c0,1.5,1.2,2.5,2.9,2.5
		C353.3,609.4,354.4,608.8,355.4,607.9z M355.3,598.4L355.3,598.4c0-1.2-0.8-2-2-2c-1.2,0-2.1,0.9-2.1,2.1v0c0,0.9,0.3,1.5,1.3,2.6
		C354.4,600.5,355.3,599.6,355.3,598.4z"/>
	<path class="st2" d="M364.7,594.3h6.5c5.5,0,9.3,3.8,9.3,8.7v0.1c0,4.9-3.8,8.7-9.3,8.7h-6.5V594.3z M367.8,597.1v11.9h3.4
		c3.7,0,6.1-2.5,6.1-5.9v0c0-3.4-2.4-5.9-6.1-5.9H367.8z"/>
	<path class="st2" d="M390.9,603L390.9,603c0-5,3.7-9.1,9-9.1c3.2,0,5.2,1.1,6.8,2.7l-2,2.3c-1.4-1.3-2.9-2.2-4.9-2.2
		c-3.3,0-5.8,2.7-5.8,6.2v0.1c0,3.4,2.4,6.2,5.8,6.2c2.1,0,3.5-0.8,5-2.2l2,2c-1.8,1.9-3.8,3.1-7.1,3.1
		C394.7,612,390.9,608,390.9,603z"/>
	<path class="st2" d="M408.7,605.2L408.7,605.2c0-3.8,3-6.9,7-6.9s7,3.1,7,6.8v0c0,3.7-3,6.9-7.1,6.9
		C411.7,612,408.7,608.9,408.7,605.2z M419.7,605.2L419.7,605.2c0-2.4-1.7-4.3-4-4.3c-2.4,0-4,1.9-4,4.2v0c0,2.3,1.7,4.2,4,4.2
		C418.2,609.4,419.7,607.5,419.7,605.2z"/>
	<path class="st2" d="M426,593.5h3v18.2h-3V593.5z"/>
	<path class="st2" d="M433.1,593.5h3v18.2h-3V593.5z"/>
	<path class="st2" d="M439.2,607.9L439.2,607.9c0-2.9,2.2-4.3,5.4-4.3c1.5,0,2.5,0.2,3.5,0.5v-0.3c0-1.9-1.1-2.9-3.3-2.9
		c-1.5,0-2.6,0.3-3.8,0.8l-0.8-2.4c1.4-0.6,2.9-1.1,5-1.1c2,0,3.4,0.5,4.4,1.5c1,0.9,1.4,2.3,1.4,4.1v7.8h-2.9v-1.6
		c-0.9,1.1-2.3,1.9-4.3,1.9C441.4,612,439.2,610.6,439.2,607.9z M448.2,607v-0.9c-0.8-0.3-1.8-0.5-3-0.5c-1.9,0-3.1,0.8-3.1,2.2v0
		c0,1.3,1.1,2,2.6,2C446.7,609.8,448.2,608.6,448.2,607z"/>
	<path class="st2" d="M457.7,609.7v2h-3v-18.2h3v7.2c1-1.4,2.3-2.5,4.5-2.5c3.1,0,6.1,2.4,6.1,6.8v0c0,4.4-3,6.8-6.1,6.8
		C460,612,458.6,610.9,457.7,609.7z M465.2,605.2L465.2,605.2c0-2.6-1.7-4.3-3.8-4.3c-2,0-3.8,1.7-3.8,4.2v0c0,2.5,1.8,4.2,3.8,4.2
		C463.5,609.4,465.2,607.7,465.2,605.2z"/>
	<path class="st2" d="M470.7,605.2L470.7,605.2c0-3.8,3-6.9,7-6.9s7,3.1,7,6.8v0c0,3.7-3,6.9-7.1,6.9
		C473.7,612,470.7,608.9,470.7,605.2z M481.7,605.2L481.7,605.2c0-2.4-1.7-4.3-4-4.3c-2.4,0-4,1.9-4,4.2v0c0,2.3,1.7,4.2,4,4.2
		C480.2,609.4,481.7,607.5,481.7,605.2z"/>
	<path class="st2" d="M487.8,598.6h3v3c0.8-2,2.3-3.3,4.7-3.2v3.2h-0.2c-2.6,0-4.5,1.7-4.5,5.2v5h-3V598.6z"/>
	<path class="st2" d="M496.6,607.9L496.6,607.9c0-2.9,2.2-4.3,5.4-4.3c1.5,0,2.5,0.2,3.5,0.5v-0.3c0-1.9-1.1-2.9-3.3-2.9
		c-1.5,0-2.6,0.3-3.8,0.8l-0.8-2.4c1.4-0.6,2.9-1.1,5-1.1c2,0,3.4,0.5,4.4,1.5c1,0.9,1.4,2.3,1.4,4.1v7.8h-2.9v-1.6
		c-0.9,1.1-2.3,1.9-4.3,1.9C498.8,612,496.6,610.6,496.6,607.9z M505.6,607v-0.9c-0.8-0.3-1.8-0.5-3-0.5c-1.9,0-3.1,0.8-3.1,2.2v0
		c0,1.3,1.1,2,2.6,2C504.1,609.8,505.6,608.6,505.6,607z"/>
	<path class="st2" d="M512.6,608.1v-6.9h-1.7v-2.6h1.7v-3.6h3v3.6h3.5v2.6h-3.5v6.5c0,1.2,0.6,1.6,1.6,1.6c0.7,0,1.3-0.1,1.9-0.4
		v2.5c-0.7,0.4-1.6,0.7-2.7,0.7C514.1,611.9,512.6,611,512.6,608.1z"/>
	<path class="st2" d="M522.2,593.7h3.2v2.9h-3.2V593.7z M522.3,598.6h3v13.2h-3V598.6z"/>
	<path class="st2" d="M528.6,605.2L528.6,605.2c0-3.8,3-6.9,7-6.9c4,0,7,3.1,7,6.8v0c0,3.7-3,6.9-7.1,6.9
		C531.5,612,528.6,608.9,528.6,605.2z M539.6,605.2L539.6,605.2c0-2.4-1.7-4.3-4-4.3c-2.4,0-4,1.9-4,4.2v0c0,2.3,1.7,4.2,4,4.2
		C538,609.4,539.6,607.5,539.6,605.2z"/>
	<path class="st2" d="M545.7,598.6h3v2c0.8-1.2,2.1-2.3,4.1-2.3c3,0,4.7,2,4.7,5v8.4h-3v-7.5c0-2-1-3.2-2.8-3.2c-1.7,0-3,1.2-3,3.3
		v7.4h-3V598.6z"/>
</g>
<g class="st0">
	<path class="st1" d="M1237.3,299.3h1.4v5.3h6.9v-5.3h1.4v12h-1.4v-5.4h-6.9v5.4h-1.4V299.3z"/>
	<path class="st1" d="M1249.6,306.9L1249.6,306.9c0-2.6,1.8-4.6,4.2-4.6c2.6,0,4.1,2.1,4.1,4.7c0,0.2,0,0.3,0,0.4h-7
		c0.2,1.9,1.5,3,3.1,3c1.2,0,2.1-0.5,2.8-1.2l0.8,0.7c-0.9,1-2,1.7-3.6,1.7C1251.6,311.5,1249.6,309.6,1249.6,306.9z M1256.6,306.4
		c-0.1-1.6-1.1-3-2.8-3c-1.5,0-2.7,1.3-2.9,3H1256.6z"/>
	<path class="st1" d="M1260.4,298.8h1.3v12.5h-1.3V298.8z"/>
	<path class="st1" d="M1264.8,302.4h1.3v1.8c0.7-1.1,1.8-2,3.4-2c2.1,0,4.2,1.7,4.2,4.6v0c0,2.9-2.1,4.6-4.2,4.6
		c-1.6,0-2.7-0.9-3.4-1.9v4.4h-1.3V302.4z M1272.3,306.9L1272.3,306.9c0-2.1-1.4-3.5-3.1-3.5c-1.6,0-3.2,1.4-3.2,3.4v0
		c0,2.1,1.6,3.4,3.2,3.4C1270.9,310.3,1272.3,309,1272.3,306.9z"/>
	<path class="st1" d="M1280.5,310.2l0.7-0.9c1,0.7,2,1.1,3.1,1.1c1.1,0,1.8-0.5,1.8-1.4v0c0-0.9-1-1.2-2.2-1.6
		c-1.4-0.4-2.9-0.9-2.9-2.5v0c0-1.5,1.3-2.5,3-2.5c1.1,0,2.3,0.4,3.2,1l-0.6,1c-0.8-0.5-1.8-0.9-2.6-0.9c-1,0-1.7,0.5-1.7,1.3v0
		c0,0.8,1.1,1.2,2.3,1.5c1.4,0.4,2.8,0.9,2.8,2.5v0c0,1.7-1.4,2.7-3.2,2.7C1282.9,311.5,1281.5,311,1280.5,310.2z"/>
	<path class="st1" d="M1289.2,306.9L1289.2,306.9c0-2.6,1.8-4.6,4.2-4.6c2.6,0,4.1,2.1,4.1,4.7c0,0.2,0,0.3,0,0.4h-7
		c0.2,1.9,1.5,3,3.1,3c1.2,0,2.1-0.5,2.8-1.2l0.8,0.7c-0.9,1-2,1.7-3.6,1.7C1291.2,311.5,1289.2,309.6,1289.2,306.9z M1296.3,306.4
		c-0.1-1.6-1.1-3-2.8-3c-1.5,0-2.7,1.3-2.9,3H1296.3z"/>
	<path class="st1" d="M1300,298.8h1.3v12.5h-1.3V298.8z"/>
	<path class="st1" d="M1303.9,306.9L1303.9,306.9c0-2.6,1.8-4.6,4.2-4.6c2.6,0,4.1,2.1,4.1,4.7c0,0.2,0,0.3,0,0.4h-7
		c0.2,1.9,1.5,3,3.1,3c1.2,0,2.1-0.5,2.8-1.2l0.8,0.7c-0.9,1-2,1.7-3.6,1.7C1305.9,311.5,1303.9,309.6,1303.9,306.9z M1310.9,306.4
		c-0.1-1.6-1.1-3-2.8-3c-1.5,0-2.7,1.3-2.9,3H1310.9z"/>
	<path class="st1" d="M1314,306.9L1314,306.9c0-2.5,2-4.7,4.5-4.7c1.7,0,2.7,0.7,3.5,1.6l-0.9,0.9c-0.7-0.7-1.5-1.3-2.7-1.3
		c-1.8,0-3.2,1.5-3.2,3.4v0c0,1.9,1.4,3.4,3.3,3.4c1.1,0,2-0.6,2.7-1.3l0.8,0.8c-0.9,1-2,1.7-3.6,1.7
		C1316,311.5,1314,309.4,1314,306.9z"/>
	<path class="st1" d="M1324.8,308.9v-5.3h-1.2v-1.2h1.2v-2.7h1.3v2.7h2.8v1.2h-2.8v5.2c0,1.1,0.6,1.5,1.5,1.5c0.4,0,0.8-0.1,1.3-0.3
		v1.1c-0.5,0.2-1,0.4-1.6,0.4C1325.9,311.4,1324.8,310.7,1324.8,308.9z"/>
</g>
<g class="st0">
	<path class="st1" d="M1217.3,329.5v-5.3h-1.2V323h1.2v-2.7h1.3v2.7h2.8v1.2h-2.8v5.2c0,1.1,0.6,1.5,1.5,1.5c0.4,0,0.8-0.1,1.3-0.3
		v1.1c-0.5,0.2-1,0.4-1.6,0.4C1218.4,332,1217.3,331.3,1217.3,329.5z"/>
	<path class="st1" d="M1223.7,323h1.3v2.3c0.7-1.5,1.9-2.5,3.6-2.5v1.4h-0.1c-1.9,0-3.5,1.4-3.5,4.1v3.5h-1.3V323z"/>
	<path class="st1" d="M1229.8,327.4L1229.8,327.4c0-2.6,1.8-4.6,4.2-4.6c2.6,0,4.1,2.1,4.1,4.7c0,0.2,0,0.3,0,0.4h-7
		c0.2,1.9,1.5,3,3.1,3c1.2,0,2.1-0.5,2.8-1.2l0.8,0.7c-0.9,1-2,1.7-3.6,1.7C1231.7,332,1229.8,330.2,1229.8,327.4z M1236.8,326.9
		c-0.1-1.6-1.1-3-2.8-3c-1.5,0-2.7,1.3-2.9,3H1236.8z"/>
	<path class="st1" d="M1239.8,329.3L1239.8,329.3c0-1.9,1.5-2.9,3.8-2.9c1.1,0,1.9,0.2,2.7,0.4v-0.3c0-1.6-1-2.4-2.6-2.4
		c-1,0-1.9,0.3-2.7,0.7l-0.4-1.1c1-0.4,1.9-0.7,3.2-0.7c1.2,0,2.2,0.3,2.9,1c0.6,0.6,0.9,1.5,0.9,2.6v5.4h-1.3v-1.3
		c-0.6,0.8-1.6,1.5-3.2,1.5C1241.4,332,1239.8,331.1,1239.8,329.3z M1246.3,328.6v-0.9c-0.7-0.2-1.5-0.4-2.6-0.4
		c-1.7,0-2.6,0.7-2.6,1.8v0c0,1.1,1,1.8,2.2,1.8C1245,331,1246.3,330,1246.3,328.6z"/>
	<path class="st1" d="M1250.7,329.5v-5.3h-1.2V323h1.2v-2.7h1.3v2.7h2.8v1.2h-2.8v5.2c0,1.1,0.6,1.5,1.5,1.5c0.4,0,0.8-0.1,1.3-0.3
		v1.1c-0.5,0.2-1,0.4-1.6,0.4C1251.8,332,1250.7,331.3,1250.7,329.5z"/>
	<path class="st1" d="M1257.2,323h1.3v1.5c0.6-0.9,1.4-1.7,2.9-1.7c1.4,0,2.4,0.8,2.8,1.8c0.6-1,1.6-1.8,3.1-1.8
		c2,0,3.3,1.4,3.3,3.6v5.5h-1.3v-5.2c0-1.7-0.9-2.7-2.3-2.7c-1.3,0-2.4,1-2.4,2.7v5.1h-1.3v-5.2c0-1.7-0.9-2.6-2.3-2.6
		c-1.4,0-2.5,1.2-2.5,2.8v5.1h-1.3V323z"/>
	<path class="st1" d="M1272.9,327.4L1272.9,327.4c0-2.6,1.8-4.6,4.2-4.6c2.6,0,4.1,2.1,4.1,4.7c0,0.2,0,0.3,0,0.4h-7
		c0.2,1.9,1.5,3,3.1,3c1.2,0,2.1-0.5,2.8-1.2l0.8,0.7c-0.9,1-2,1.7-3.6,1.7C1274.9,332,1272.9,330.2,1272.9,327.4z M1280,326.9
		c-0.1-1.6-1.1-3-2.8-3c-1.5,0-2.7,1.3-2.9,3H1280z"/>
	<path class="st1" d="M1283.6,323h1.3v1.5c0.6-1,1.5-1.7,3-1.7c2.1,0,3.4,1.4,3.4,3.5v5.5h-1.3v-5.2c0-1.6-0.9-2.7-2.4-2.7
		c-1.5,0-2.7,1.1-2.7,2.8v5.1h-1.3V323z"/>
	<path class="st1" d="M1294.6,329.5v-5.3h-1.2V323h1.2v-2.7h1.3v2.7h2.8v1.2h-2.8v5.2c0,1.1,0.6,1.5,1.5,1.5c0.4,0,0.8-0.1,1.3-0.3
		v1.1c-0.5,0.2-1,0.4-1.6,0.4C1295.7,332,1294.6,331.3,1294.6,329.5z"/>
	<path class="st1" d="M1306.2,323h1.3v1.8c0.7-1.1,1.8-2,3.4-2c2.1,0,4.2,1.7,4.2,4.6v0c0,2.9-2.1,4.6-4.2,4.6
		c-1.6,0-2.7-0.9-3.4-1.9v4.4h-1.3V323z M1313.8,327.4L1313.8,327.4c0-2.1-1.4-3.5-3.1-3.5c-1.6,0-3.2,1.4-3.2,3.4v0
		c0,2.1,1.6,3.4,3.2,3.4C1312.4,330.8,1313.8,329.6,1313.8,327.4z"/>
	<path class="st1" d="M1317.7,319.3h1.3v12.5h-1.3V319.3z"/>
	<path class="st1" d="M1321.4,329.3L1321.4,329.3c0-1.9,1.5-2.9,3.8-2.9c1.1,0,1.9,0.2,2.7,0.4v-0.3c0-1.6-1-2.4-2.6-2.4
		c-1,0-1.9,0.3-2.7,0.7l-0.4-1.1c1-0.4,1.9-0.7,3.2-0.7c1.2,0,2.2,0.3,2.9,1c0.6,0.6,0.9,1.5,0.9,2.6v5.4h-1.3v-1.3
		c-0.6,0.8-1.6,1.5-3.2,1.5C1323.1,332,1321.4,331.1,1321.4,329.3z M1327.9,328.6v-0.9c-0.7-0.2-1.5-0.4-2.6-0.4
		c-1.7,0-2.6,0.7-2.6,1.8v0c0,1.1,1,1.8,2.2,1.8C1326.6,331,1327.9,330,1327.9,328.6z"/>
	<path class="st1" d="M1332,323h1.3v1.5c0.6-1,1.5-1.7,3-1.7c2.1,0,3.4,1.4,3.4,3.5v5.5h-1.3v-5.2c0-1.6-0.9-2.7-2.4-2.7
		c-1.5,0-2.7,1.1-2.7,2.8v5.1h-1.3V323z"/>
	<path class="st1" d="M1341.8,330.7l0.7-0.9c1,0.7,2,1.1,3.1,1.1c1.1,0,1.8-0.5,1.8-1.4v0c0-0.9-1-1.2-2.2-1.6
		c-1.4-0.4-2.9-0.9-2.9-2.5v0c0-1.5,1.3-2.5,3-2.5c1.1,0,2.3,0.4,3.2,1l-0.6,1c-0.8-0.5-1.8-0.9-2.6-0.9c-1,0-1.7,0.5-1.7,1.3v0
		c0,0.8,1.1,1.2,2.3,1.5c1.4,0.4,2.8,0.9,2.8,2.5v0c0,1.7-1.4,2.7-3.2,2.7C1344.2,332,1342.8,331.5,1341.8,330.7z"/>
</g>
<path class="st1" d="M219.2,86.7h28c0.6,0,1.2-0.5,1.2-1.2c0-0.6-0.5-1.2-1.2-1.2l0,0H246c-0.1-0.6-0.6-1.1-1.3-1.1
	c-0.6,0.1-1,0.5-1.1,1.1h-19.8c0-0.6-0.5-1.2-1.2-1.2c-0.6,0-1.2,0.5-1.2,1.2h-2.3c-0.6,0-1.2,0.5-1.2,1.2
	C218,86.2,218.6,86.7,219.2,86.7z"/>
<path class="st1" d="M276.4,94.9h-2.3c-3.2,0-5.8-2.6-5.8-5.8V76.2c0-7.5-0.3-7.8-7.3-14.8l-3.2-3.2c-0.1-1.5-0.6-3-1.5-4.3l6.3-6.3
	c0.1,0,0.1,0,0.2,0c0.3,0,0.5-0.1,0.7-0.3c0.4-0.4,0.4-1,0-1.4l0,0l-1.2-1.2c1.6-1.1,3.4-1.9,5.2-2.3c0.6-0.1,1.1-0.7,1-1.3
	c0-0.3-0.2-0.5-0.4-0.7l-8.2-8.2c-0.3-0.3-0.7-0.4-1.2-0.3c-0.4,0.1-0.7,0.5-0.8,0.9c-0.4,1.9-1.2,3.7-2.3,5.3l-1.2-1.2
	c-0.4-0.4-1-0.4-1.4,0l0,0c-0.2,0.2-0.3,0.6-0.3,0.9L229.3,61l0,0c-0.4-0.4-1-0.4-1.4,0l0,0c-0.7,0.7-1.3,1.6-1.7,2.5l-6.8,1.1
	c-0.4,0.1-0.7,0.4-0.7,0.9v2.3c0,0.4,0.3,0.8,0.7,0.9l6.6,1.1l-3.9,5.4c-0.2,0.3-0.2,0.8,0.1,1.1l1.6,1.6c0.3,0.3,0.8,0.3,1.1,0.1
	l5.4-3.9l1.1,6.6c0.1,0.4,0.4,0.7,0.9,0.7h2.3c0.4,0,0.8-0.3,0.9-0.7l1.1-6.8c0.9-0.4,1.8-1,2.5-1.7c0.4-0.4,0.4-1,0-1.4l0,0
	l5.6-5.6c1.3,0.9,2.7,1.4,4.3,1.5l0.9,0.9c4.3,4.3,4.3,4.3,4.3,8.5V89c0,3.2-2.6,5.8-5.8,5.8h-8.2v-3.5c0-0.4-0.2-0.8-0.6-1.1
	c-4.1-1.7-8.7-1.7-12.7,0c-0.4,0.2-0.6,0.6-0.6,1.1v3.5H218c-1.9,0-3.5,1.6-3.5,3.5v4.7c0,0.6,0.5,1.2,1.2,1.2h2.3v1.2
	c0,0.6,0.5,1.2,1.2,1.2c0.6,0,1.2-0.5,1.2-1.2l0,0v-1.2H274v1.2c0,0.6,0.5,1.2,1.2,1.2c0.6,0,1.2-0.5,1.2-1.2v-1.2h2.3
	c0.6,0,1.2-0.5,1.2-1.2l0,0v-4.7C279.9,96.5,278.3,94.9,276.4,94.9z M249.6,64.6c-3.2,0-5.8-2.6-5.8-5.8s2.6-5.8,5.8-5.8
	s5.8,2.6,5.8,5.8l0,0C255.4,61.9,252.8,64.6,249.6,64.6z M259.5,35.3l5.5,5.5c-1.6,0.5-3.1,1.4-4.4,2.4l-3.4-3.4
	C258.1,38.3,258.9,36.8,259.5,35.3z M254.1,39.5l6.6,6.6l-6.1,6.1c-3.6-2.8-8.7-2.1-11.4,1.5c-2.3,2.9-2.3,7,0,10l-5.6,5.5l-6.6-6.6
	L254.1,39.5z M228.6,63.2l8.4,8.3c-2.8,1.8-6.5,1.1-8.3-1.7C227.4,67.8,227.4,65.2,228.6,63.2L228.6,63.2z M220.4,66.2l5.2-0.9
	c-0.1,0.9-0.1,1.7,0,2.6l-5.2-0.9V66.2z M224.5,76.2l-0.6-0.6l3.1-4.3c0.2,0.4,0.5,0.7,0.8,1s0.6,0.6,1,0.8L224.5,76.2z M233.9,79.8
	H233l-0.9-5.2c0.4,0.1,0.9,0.1,1.3,0.1c0.4,0,0.9,0,1.3-0.1L233.9,79.8z M256.6,89V76.2c0-4.8-0.1-5.3-4.6-9.7
	c2.6-0.8,4.5-2.8,5.4-5.4l1.9,1.8c6.7,6.7,6.7,6.7,6.7,13.2V89c0,2.2,0.9,4.3,2.5,5.8h-14.3C255.7,93.4,256.6,91.3,256.6,89
	L256.6,89z M228.6,92.2c1.5-0.5,3.1-0.8,4.7-0.8c1.6,0,3.2,0.3,4.7,0.8v2.7h-9.3L228.6,92.2L228.6,92.2z M277.6,101.9h-60.7v-3.5
	c0-0.6,0.5-1.1,1.1-1.2h58.4c0.6,0,1.2,0.5,1.2,1.2l0,0L277.6,101.9z"/>
<path class="st1" d="M347.6,57.5c4.2-3.4,4.8-9.5,1.4-13.7s-9.5-4.8-13.7-1.4c-4.2,3.4-4.8,9.5-1.4,13.7c0.4,0.5,0.9,1,1.4,1.4
	c-2.9,2-5.1,4.8-6.3,8.1c0.6,0.7,1.2,1.4,1.7,2.2c1.2-3.9,3.5-7.1,6.5-8.7c0.5-0.3,0.9-0.8,0.9-1.5c0-0.6-0.3-1.2-0.8-1.5
	c-3.4-2.3-4.3-6.9-2.1-10.3c2.3-3.4,6.9-4.3,10.3-2.1c3.4,2.3,4.3,6.9,2.1,10.3c-0.5,0.8-1.2,1.5-2.1,2.1c-0.8,0.5-1,1.6-0.5,2.4
	c0.2,0.2,0.4,0.5,0.7,0.6c4.4,2.4,7.4,8.4,7.4,14.9c0,0.6,0.5,1.2,1.2,1.2c0.6,0,1.2-0.5,1.2-1.2l0,0
	C355.5,66.8,352.4,60.5,347.6,57.5z"/>
<path class="st1" d="M307.2,65.5c-1.2-3.3-3.4-6.1-6.3-8.1c4.2-3.4,4.8-9.5,1.4-13.7s-9.5-4.8-13.7-1.4c-4.2,3.4-4.8,9.5-1.4,13.7
	c0.4,0.5,0.9,1,1.4,1.4c-4.8,3-7.9,9.4-7.9,16.5c-0.1,0.6,0.4,1.2,1.1,1.3c0.6,0.1,1.2-0.4,1.3-1.1c0-0.1,0-0.1,0-0.2
	c0-6.5,3-12.5,7.4-14.9c0.5-0.3,0.9-0.8,0.9-1.5c0-0.6-0.3-1.2-0.8-1.5c-3.4-2.3-4.3-6.9-2.1-10.3c2.3-3.4,6.9-4.3,10.3-2.1
	c3.4,2.3,4.3,6.9,2.1,10.3c-0.5,0.8-1.2,1.5-2.1,2.1c-0.8,0.5-1,1.6-0.5,2.4c0.2,0.2,0.4,0.5,0.7,0.6c3,1.6,5.3,4.8,6.5,8.7
	C306,67,306.6,66.2,307.2,65.5z"/>
<path class="st1" d="M324.3,64.5c4.2-3.4,4.8-9.5,1.4-13.7s-9.5-4.8-13.7-1.4c-4.2,3.4-4.8,9.5-1.4,13.7c0.4,0.5,0.9,1,1.4,1.4
	c-4.8,3.1-7.9,9.4-7.9,16.5c-0.1,0.6,0.4,1.2,1.1,1.3c0.6,0.1,1.2-0.4,1.3-1.1c0-0.1,0-0.1,0-0.2c0-6.5,3-12.5,7.4-14.9
	c0.9-0.4,1.2-1.5,0.8-2.3c-0.1-0.3-0.4-0.5-0.6-0.7c-3.4-2.3-4.3-6.9-2.1-10.3c2.3-3.4,6.9-4.3,10.3-2.1c3.4,2.3,4.3,6.9,2.1,10.3
	c-0.5,0.8-1.2,1.5-2.1,2.1c-0.5,0.3-0.8,0.9-0.8,1.5s0.4,1.2,0.9,1.4c4.4,2.4,7.4,8.4,7.4,14.9c0,0.6,0.5,1.2,1.2,1.2
	c0.6,0,1.2-0.5,1.2-1.2l0,0C332.1,73.8,329.1,67.5,324.3,64.5z"/>
<path class="st3" d="M1118,68.9c4.2-3.4,4.8-9.5,1.4-13.6c-1.8-2.3-4.6-3.6-7.6-3.6c-5.4,0-9.7,4.3-9.7,9.7c0,2.9,1.3,5.7,3.6,7.6
	c-2.9,2-5.1,4.8-6.3,8.1c0.6,0.7,1.2,1.4,1.7,2.2c1.2-3.9,3.5-7.1,6.5-8.7c0.9-0.4,1.2-1.5,0.7-2.3c-0.1-0.3-0.3-0.5-0.6-0.7
	c-3.4-2.3-4.3-6.9-2.1-10.3c2.3-3.4,6.9-4.3,10.3-2.1s4.3,6.9,2.1,10.3c-0.5,0.8-1.2,1.5-2.1,2.1c-0.8,0.5-1,1.6-0.5,2.4
	c0.2,0.3,0.4,0.5,0.7,0.6c4.4,2.4,7.4,8.4,7.4,14.9c-0.1,0.6,0.4,1.2,1.1,1.3c0.6,0.1,1.2-0.4,1.3-1.1c0-0.1,0-0.1,0-0.2
	C1125.8,78.3,1122.8,72,1118,68.9z"/>
<path class="st3" d="M1077.6,77c-1.2-3.3-3.4-6.1-6.3-8.1c4.2-3.4,4.8-9.5,1.4-13.6c-1.8-2.3-4.6-3.6-7.6-3.6
	c-5.4,0-9.7,4.3-9.7,9.7c0,2.9,1.3,5.7,3.6,7.6c-4.8,3-7.9,9.4-7.9,16.4c0,0.6,0.5,1.2,1.2,1.2c0.6,0,1.2-0.5,1.2-1.2l0,0
	c0-6.5,3-12.5,7.4-14.9c0.9-0.4,1.2-1.5,0.7-2.3c-0.1-0.3-0.3-0.5-0.6-0.7c-3.4-2.3-4.3-6.9-2.1-10.3c2.3-3.4,6.9-4.3,10.3-2.1
	s4.3,6.9,2.1,10.3c-0.5,0.8-1.2,1.5-2.1,2.1c-0.8,0.5-1,1.6-0.5,2.4c0.2,0.3,0.4,0.5,0.7,0.6c3,1.6,5.3,4.8,6.5,8.7
	C1076.4,78.4,1077,77.7,1077.6,77z"/>
<path class="st3" d="M1094.6,76c4.2-3.4,4.8-9.5,1.4-13.7s-9.5-4.8-13.7-1.4s-4.8,9.5-1.4,13.7c0.4,0.5,0.9,1,1.4,1.4
	c-4.8,3-7.9,9.4-7.9,16.4c0,0.6,0.5,1.2,1.2,1.2c0.6,0,1.2-0.5,1.2-1.2l0,0c0-6.5,3-12.5,7.4-14.9c0.5-0.3,0.9-0.8,0.9-1.4
	s-0.3-1.2-0.8-1.5c-3.4-2.3-4.3-6.9-2.1-10.3c2.3-3.4,6.9-4.3,10.3-2.1c3.4,2.3,4.3,6.9,2.1,10.3c-0.5,0.8-1.2,1.5-2.1,2.1
	c-0.5,0.3-0.8,0.9-0.8,1.5s0.4,1.2,0.9,1.4c4.4,2.4,7.4,8.3,7.4,14.9c-0.1,0.6,0.4,1.2,1.1,1.3c0.6,0.1,1.2-0.4,1.3-1.1
	c0-0.1,0-0.1,0-0.2C1102.5,85.3,1099.4,79,1094.6,76z"/>
<path class="st1" d="M339.6,456h2.2l-4.2-9.9h-2l-4.2,9.9h2.2l0.9-2.2h4.1L339.6,456z M335.3,451.9l1.3-3.2l1.3,3.2H335.3z"/>
<polygon class="st1" points="347.2,456 349.4,456 349.4,448.2 352.4,448.2 352.4,446.2 344.2,446.2 344.2,448.2 347.2,448.2 "/>
<polygon class="st1" points="344.2,478.5 347.2,478.5 347.2,486.4 349.4,486.4 349.4,478.5 352.4,478.5 352.4,476.5 344.2,476.5 "/>
<path class="st1" d="M354.8,486.4h2.2l0.9-2.2h4.1l0.9,2.2h2.2l-4.2-9.9h-2L354.8,486.4z M361.2,482.2h-2.6l1.3-3.2L361.2,482.2z"/>
<path class="st1" d="M337.1,466.2L337.1,466.2c0,2.8,2.2,5,5,5c1.5,0.1,3-0.6,4-1.8l-1.4-1.4c-0.7,0.7-1.6,1.1-2.6,1.1
	c-1.6,0-2.9-1.4-2.8-3V466l0,0c-0.1-1.6,1.2-2.9,2.8-3l0,0c0.9,0,1.8,0.4,2.5,1.1l1.4-1.6c-1-1-2.4-1.6-3.9-1.5
	c-2.8,0-5,2.2-5.1,4.9C337.1,466.2,337.1,466.2,337.1,466.2z"/>
<path class="st1" d="M355.4,463.2c1,0,1.9,0.3,2.6,1l1.4-1.6c-1.1-0.9-2.4-1.4-3.9-1.3c-2.8-0.1-5.1,2.1-5.1,4.9c0,0.1,0,0.1,0,0.2
	l0,0c-0.1,2.7,2.1,5,4.8,5c0.1,0,0.2,0,0.3,0c1.5,0,3-0.5,4.2-1.6v-4.2h-4.3v1.9h2.2v1.4c-0.6,0.4-1.3,0.6-2,0.6c-1.6,0-3-1.3-3-2.9
	c0-0.1,0-0.2,0-0.2l0,0C352.5,464.6,353.8,463.2,355.4,463.2L355.4,463.2z"/>
<path class="st1" d="M384.5,465.1h-1.9c-1.4-4.8-4-9.3-7.6-12.8h0.7c0.6,0,1.2-0.5,1.2-1.2c0-0.6-0.5-1.2-1.2-1.2h-3
	c-10-9.3-23.4-14.6-23.9-14.9c-0.6-0.2-1.3,0.1-1.5,0.8c-0.2,0.6,0.1,1.2,0.6,1.4c7.7,3.2,14.8,7.5,21.3,12.7h-13.3
	c-0.6,0-1.2,0.5-1.2,1.2s0.5,1.2,1.2,1.2l0,0h15.8c4.3,4.2,7.2,8.5,8.5,12.8h-17.3c-0.6,0-1.2,0.5-1.2,1.2s0.5,1.2,1.2,1.2l0,0h17.8
	c0.2,1,0.3,2,0.3,3c0,3.4-1,6.8-2.7,9.8h-10.7c-0.6-0.1-1.2,0.4-1.3,1.1c-0.1,0.6,0.4,1.2,1.1,1.3c0.1,0,0.1,0,0.2,0h9.2
	c-7.2,9.9-21.1,15.2-21.3,15.2c-0.6,0.2-0.9,0.9-0.7,1.5l0,0c0.2,0.5,0.6,0.8,1.1,0.8c0.1,0,0.3,0,0.4-0.1c0.7-0.2,16-6.1,23.3-17.4
	h2.9c0.6,0.1,1.2-0.4,1.3-1.1c0.1-0.6-0.4-1.2-1.1-1.3c-0.1,0-0.1,0-0.2,0H381c1.6-3,2.4-6.4,2.4-9.8c0-1-0.1-2-0.3-3h1.4
	c0.6,0,1.2-0.5,1.2-1.2C385.7,465.6,385.1,465.1,384.5,465.1L384.5,465.1z"/>
<path class="st1" d="M348.7,495.3c-7.6-3.2-14.8-7.5-21.2-12.7h13.2c0.6,0.1,1.2-0.4,1.3-1.1c0.1-0.6-0.4-1.2-1.1-1.3
	c-0.1,0-0.1,0-0.2,0h-15.8c-4.3-4.2-7.2-8.5-8.5-12.8h17.3c0.6,0,1.2-0.5,1.2-1.2c0-0.6-0.5-1.2-1.2-1.2h-17.8c-0.2-1-0.3-2-0.3-3
	c0-3.4,1-6.8,2.7-9.8H329c0.6,0,1.2-0.5,1.2-1.2c0-0.6-0.5-1.2-1.2-1.2h-9.2c7.2-9.9,21.1-15.2,21.3-15.2c0.6-0.2,0.9-0.9,0.7-1.5
	c-0.2-0.6-0.9-0.9-1.5-0.7c-0.7,0.2-16,6.1-23.3,17.4h-2.9c-0.6,0-1.2,0.5-1.2,1.2c0,0.6,0.5,1.2,1.2,1.2h1.5
	c-1.6,3-2.4,6.4-2.4,9.8c0,1,0.1,2,0.3,3h-1.4c-0.6,0-1.2,0.5-1.2,1.2c0,0.6,0.5,1.2,1.2,1.2h1.9c1.4,4.8,4,9.3,7.6,12.8h-0.7
	c-0.6-0.1-1.2,0.4-1.3,1.1c-0.1,0.6,0.4,1.2,1.1,1.3c0.1,0,0.1,0,0.2,0h3c10,9.3,23.4,14.6,23.9,14.9c0.1,0.1,0.3,0.1,0.4,0.1
	c0.6,0,1.2-0.5,1.2-1.2C349.4,495.9,349.1,495.4,348.7,495.3L348.7,495.3z"/>
<path class="st1" d="M289.2,447.3c-2.3-2.1-4.5-3.1-6.5-3c-2.4,0.2-4.2,1.8-5.6,4.1c-4.1-5.9-4.2-9.6-4.2-21.2
	c0.1-0.6-0.4-1.2-1.1-1.3c-0.6-0.1-1.2,0.4-1.3,1.1c0,0.1,0,0.1,0,0.2c0,17.8,0.1,18.1,13.7,33.4c1.6,1.8,2.7,4,3.2,6.4
	c0,0.3,0.3,0.5,0.7,0.5s0.5-0.3,0.5-0.7c-0.2-2-0.7-4-1.6-5.8c1.4,0.2,2.8,0.1,4.1-0.4c0.2-0.1,0.4-0.3,0.3-0.6
	c0-0.3-0.3-0.5-0.6-0.4l0,0l0,0c-1.1,0.2-2.2,0.1-3.2-0.2c-1.1-0.3-2.1-0.9-2.8-1.8c-2.6-2.9-4.6-5.2-6.2-7.2
	c1.2-2.4,2.6-3.7,4.2-3.9h0.2c1.2,0,2.8,0.8,4.5,2.4c7.3,6.7,15.8,25.7,15.8,40.1c0,3.9-0.6,6.5-1.9,7.7c-0.7,0.6-1.5,1-2.4,0.9
	c-1.7-0.2-3.3-0.6-4.9-1.2s-3.2-1-4.9-1.4c-1.2-0.3-2.5-0.4-3.7-0.6c-2.8-0.3-5-0.6-7-2.7c-1.7-1.7-3.4-8-3.4-17
	c-0.1-5.2,0.3-10.3,1.1-15.4c1.3,1.2,2.2,2,2.5,2.1c2,1.9,2.2,3.8,2.5,5.8c0.2,1.3,0.4,2.7,0.5,4.1c-0.1,2-0.7,3.9-1.8,5.6
	c-0.2,0.3-0.1,0.6,0.1,0.8s0.6,0.1,0.8-0.1l0,0c0.9-1,1.6-2.2,2.1-3.4c0.7,2.3,1.9,4.5,3.4,6.4c0.4,0.5,0.9,0.9,1.4,1.3
	c0.3,0.2,0.6,0.1,0.8-0.2s0.1-0.6-0.2-0.8c-1.9-1.4-3.2-5.6-3.8-8c2,1.3,4.4,2,6.8,1.8c0.3-0.1,0.5-0.3,0.4-0.6
	c0-0.2-0.2-0.4-0.4-0.4c-2.6,0-5-1.1-6.6-3.1c-0.6-0.7-0.9-1.5-1.1-2.4c-0.4-2.5-0.3-5.3-3.1-8.1c-1.2-1.2-7.1-5.7-11.1-12l0,0
	c-0.1-0.1-0.2-0.3-0.4-0.4c-0.2-0.1-0.4-0.2-0.6-0.2s-0.4,0-0.6,0.2c-0.1,0.1-0.3,0.2-0.3,0.4l0,0c-4,6.2-10,10.8-11.1,12
	c-2.8,2.8-2.8,5.6-3.1,8.1c-0.1,0.9-0.5,1.7-1.1,2.4c-1.6,2-4.1,3.1-6.6,3.1c-0.3,0.1-0.5,0.3-0.4,0.6c0,0.2,0.2,0.4,0.4,0.4
	c2.4,0.2,4.8-0.4,6.8-1.8c-0.6,2.4-1.9,6.6-3.8,8c-0.3,0.2-0.4,0.5-0.2,0.8s0.5,0.4,0.8,0.2c0.5-0.3,1-0.8,1.4-1.3
	c1.5-1.9,2.6-4.1,3.4-6.4c0.5,1.2,1.2,2.4,2.1,3.4c0.2,0.3,0.6,0.3,0.8,0.1s0.3-0.6,0.1-0.8l0,0c-1.1-1.7-1.7-3.6-1.8-5.6
	c0.1-1.4,0.3-2.7,0.5-4.1c0.2-2,0.5-3.9,2.5-5.8c0.2-0.2,1.2-1,2.5-2.1c0.7,5.1,1,10.3,0.9,15.4c0,8.9-1.7,15.3-3.4,17
	c-2.1,2.1-4.3,2.4-7,2.7c-1.2,0.1-2.5,0.3-3.7,0.6c-1.6,0.4-3.3,0.9-4.9,1.4c-1.6,0.6-3.2,1-4.9,1.2c-0.9,0.1-1.8-0.3-2.4-0.9
	c-1.3-1.3-1.9-3.9-1.9-7.7c0-14.5,8.5-33.5,15.8-40.1c1.7-1.5,3.2-2.4,4.4-2.4h0.2c1.6,0.1,3,1.5,4.2,3.9c-1.6,2-3.6,4.3-6.2,7.2
	c-0.7,0.8-1.7,1.4-2.8,1.8c-1.1,0.3-2.2,0.4-3.2,0.2h-0.1c-0.3-0.1-0.6,0.1-0.6,0.4c-0.1,0.3,0.1,0.6,0.4,0.6
	c1.3,0.4,2.7,0.6,4.1,0.4c-0.9,1.8-1.4,3.8-1.6,5.8c0,0.3,0.3,0.6,0.6,0.6s0.5-0.2,0.6-0.4c0.6-2.3,1.7-4.5,3.2-6.4
	c13.5-15.4,13.6-15.8,13.6-33.5c0-0.6-0.5-1.2-1.2-1.2c-0.6,0-1.2,0.5-1.2,1.2c0,11.6,0,15.3-4.1,21.2c-1.4-2.4-3.2-3.9-5.6-4.1
	c-2-0.2-4.1,0.8-6.5,3c-7.8,7.1-16.5,26.6-16.5,41.9c0,4.6,0.9,7.6,2.6,9.4c1.1,1,2.5,1.6,4,1.6h0.1c1.9-0.2,3.8-0.6,5.6-1.3
	c1.5-0.5,3-1,4.6-1.4c1.2-0.3,2.4-0.4,3.5-0.5c3-0.4,5.8-0.7,8.4-3.3s4.1-11.4,4.1-18.6c0.1-5.8-0.4-11.6-1.4-17.3
	c2.1-2.1,4.1-4.3,5.8-6.7c1.7,2.4,3.7,4.6,5.8,6.7c-0.9,5.7-1.4,11.6-1.3,17.4c0,7.2,1.3,15.8,4.1,18.6c2.7,2.7,5.5,3,8.4,3.3
	c1.1,0.1,2.3,0.3,3.5,0.5c1.6,0.4,3.1,0.8,4.6,1.4c1.8,0.7,3.7,1.1,5.6,1.3h0.1c1.5,0,2.9-0.5,4-1.6c1.8-1.7,2.6-4.8,2.6-9.4
	C305.7,473.8,297,454.4,289.2,447.3z"/>
<path class="st1" d="M668.3,196.1h-25.7c-0.5,0-0.9,0.4-0.9,0.9v3.2h-0.3c-0.5,0.1-0.8,0.5-0.8,1c0,0.4,0.4,0.7,0.8,0.8h0.3v3.2
	c0,0.5,0.4,0.9,0.9,0.9l0,0h25.7c0.5,0,0.9-0.4,0.9-0.9l0,0V202h0.3c0.5,0.1,0.9-0.3,1-0.8s-0.3-0.9-0.8-1c-0.1,0-0.1,0-0.2,0h-0.3
	V197C669.2,196.5,668.9,196.1,668.3,196.1C668.4,196.1,668.4,196.1,668.3,196.1z M667.5,204.3h-23.9v-6.4h23.9V204.3z"/>
<path class="st1" d="M651.5,250.1l3.5,2c0.2,0.1,0.3,0.1,0.5,0.1s0.4,0,0.5-0.1l3.5-2c0.3-0.2,0.5-0.5,0.5-0.9v-0.9l3.6-0.5
	c0.3,0,0.6-0.3,0.5-0.7c0-0.3-0.2-0.5-0.5-0.5l-3.6-0.5v-0.9c0-0.4-0.2-0.7-0.5-0.9l-3.5-2c-0.3-0.2-0.7-0.2-1,0l-3.5,2
	c-0.3,0.2-0.5,0.5-0.5,0.9v0.9l-3.7,0.5c-0.3,0-0.6,0.3-0.5,0.7c0,0.3,0.2,0.5,0.5,0.5l3.7,0.5v0.9
	C651,249.6,651.2,249.9,651.5,250.1z M653,245.8l2.5-1.4l2.5,1.4v2.9l-2.5,1.4l-2.5-1.4V245.8z"/>
<path class="st1" d="M663.7,199.9c-0.6,0-1.2,0.5-1.2,1.2c0,0.6,0.5,1.2,1.2,1.2c0.6,0,1.2-0.5,1.2-1.2l0,0
	C664.9,200.4,664.3,199.9,663.7,199.9L663.7,199.9z"/>
<path class="st1" d="M663.7,217.4c0.6,0,1.2-0.5,1.2-1.2s-0.5-1.2-1.2-1.2c-0.6,0-1.2,0.5-1.2,1.2l0,0
	C662.5,216.9,663,217.4,663.7,217.4z M664.3,216.2L664.3,216.2z"/>
<path class="st1" d="M663.7,232.6c0.6,0,1.2-0.5,1.2-1.2s-0.5-1.2-1.2-1.2c-0.6,0-1.2,0.5-1.2,1.2l0,0
	C662.5,232.1,663,232.6,663.7,232.6z M664.3,231.4L664.3,231.4z"/>
<path class="st1" d="M659.6,199.9c-0.6,0-1.2,0.5-1.2,1.2c0,0.6,0.5,1.2,1.2,1.2c0.6,0,1.2-0.5,1.2-1.2l0,0
	C660.8,200.4,660.2,199.9,659.6,199.9z"/>
<path class="st1" d="M659.6,217.4c0.6,0,1.2-0.5,1.2-1.2c0-0.6-0.5-1.2-1.2-1.2c-0.6,0-1.2,0.5-1.2,1.2l0,0
	C658.4,216.9,659,217.4,659.6,217.4z M660.2,216.2L660.2,216.2z"/>
<path class="st1" d="M659.6,232.6c0.6,0,1.2-0.5,1.2-1.2c0-0.6-0.5-1.2-1.2-1.2c-0.6,0-1.2,0.5-1.2,1.2l0,0
	C658.4,232.1,659,232.6,659.6,232.6z M660.2,231.4L660.2,231.4z"/>
<path class="st1" d="M641.5,217.1h0.3v3.2c0,0.5,0.4,0.9,0.9,0.9h25.7c0.5,0,0.9-0.4,0.9-0.9l0,0v-3.2h0.3c0.5,0.1,0.9-0.3,1-0.8
	s-0.3-0.9-0.8-1c-0.1,0-0.1,0-0.2,0h-0.3v-3.2c0-0.5-0.4-0.9-0.9-0.9l0,0h-25.7c-0.5,0-0.9,0.4-0.9,0.9l0,0v3.2h-0.3
	c-0.5,0.1-0.8,0.5-0.8,1C640.8,216.8,641.1,217.1,641.5,217.1z M643.5,213h23.9v6.4h-23.9V213z"/>
<path class="st1" d="M641.5,232.3h0.3v3.2c0,0.5,0.4,0.9,0.9,0.9h25.7c0.5,0,0.9-0.4,0.9-0.9l0,0v-3.2h0.3c0.5,0.1,0.9-0.3,1-0.8
	s-0.3-0.9-0.8-1c-0.1,0-0.1,0-0.2,0h-0.3v-3.2c0-0.5-0.4-0.9-0.9-0.9l0,0h-25.7c-0.5,0-0.9,0.4-0.9,0.9l0,0v3.2h-0.3
	c-0.5,0.1-0.8,0.5-0.8,1C640.8,231.9,641.1,232.3,641.5,232.3z M643.5,228.2h23.9v6.4h-23.9V228.2z"/>
<path class="st1" d="M675.4,253c-0.6,0-1.2,0.5-1.2,1.2v2.3c0,0.6-0.5,1.2-1.2,1.2h-35c-0.6,0-1.2-0.5-1.2-1.2v-57.2
	c0.1-0.6-0.4-1.2-1.1-1.3c-0.6-0.1-1.2,0.4-1.3,1.1c0,0.1,0,0.1,0,0.2v57.2c0,1.9,1.6,3.5,3.5,3.5h1.2v1.2c-0.1,0.6,0.4,1.2,1.1,1.3
	c0.6,0.1,1.2-0.4,1.3-1.1c0-0.1,0-0.1,0-0.2V260h28v1.2c0,0.6,0.5,1.2,1.2,1.2c0.6,0,1.2-0.5,1.2-1.2V260h1.2c1.9,0,3.5-1.6,3.5-3.5
	l0,0v-2.3C676.5,253.5,676,253,675.4,253z"/>
<path class="st1" d="M673,187.6h-35c-1.9,0-3.5,1.6-3.5,3.5v2.3c-0.1,0.6,0.4,1.2,1.1,1.3c0.6,0.1,1.2-0.4,1.3-1.1
	c0-0.1,0-0.1,0-0.2v-2.3c0-0.6,0.5-1.2,1.2-1.1h35c0.6,0,1.2,0.5,1.2,1.2v57.2c0,0.6,0.5,1.2,1.2,1.2c0.6,0,1.2-0.5,1.2-1.2v-57.2
	C676.5,189.2,675,187.7,673,187.6L673,187.6z"/>
<path class="st1" d="M748.8,255.6c-2.7-1.8-3-2.1-4.5-8.4h-2.4c1.1,4.8,1.7,6.8,2.9,8.2h-21.3c1.2-1.4,1.8-3.3,2.9-8.2H724
	c-1.5,6.3-1.8,6.6-4.5,8.4c-0.5,0.4-0.7,1.1-0.3,1.6c0.2,0.3,0.6,0.5,1,0.5h28c0.6,0,1.2-0.5,1.2-1.2
	C749.3,256.1,749.1,255.8,748.8,255.6L748.8,255.6z"/>
<path class="st1" d="M770.3,237.8c-0.6,0-1.2,0.5-1.2,1.2v2.3c0,0.6-0.5,1.2-1.2,1.2l0,0h-67.7c-0.6,0-1.2-0.5-1.2-1.2V204
	c0.1-0.6-0.4-1.2-1.1-1.3c-0.6-0.1-1.2,0.4-1.3,1.1c0,0.1,0,0.1,0,0.2v37.4c0,1.9,1.6,3.5,3.5,3.5H768c1.9,0,3.5-1.6,3.5-3.5V239
	C771.5,238.4,771,237.9,770.3,237.8z"/>
<path class="st1" d="M768,192.3h-67.7c-1.9,0-3.5,1.6-3.5,3.5v2.3c-0.1,0.6,0.4,1.2,1.1,1.3c0.6,0.1,1.2-0.4,1.3-1.1
	c0-0.1,0-0.1,0-0.2v-2.3c0-0.6,0.5-1.2,1.2-1.2h32.1c0,1,0.8,1.8,1.8,1.8s1.8-0.8,1.8-1.8H768c0.6,0,1.2,0.5,1.2,1.2v37.3
	c0,0.6,0.5,1.2,1.2,1.2c0.6,0,1.2-0.5,1.2-1.2v-37.3C771.5,193.9,769.9,192.3,768,192.3L768,192.3z"/>
<path class="st1" d="M733.7,234.4l-2.3,1.4c-0.3,0.2-0.4,0.4-0.4,0.8v2.7c0,0.3,0.2,0.6,0.4,0.8l2.3,1.4c0.1,0.1,0.3,0.1,0.4,0.1
	c0.2,0,0.3,0,0.4-0.1l2.3-1.4c0.3-0.2,0.4-0.4,0.4-0.8v-2.7c0-0.3-0.2-0.6-0.4-0.8l-2.3-1.4C734.3,234.2,734,234.2,733.7,234.4z
	 M735.6,238.7l-1.5,0.8l-1.5-0.8V237l1.5-0.8l1.5,0.8V238.7z"/>
<path class="st1" d="M765.5,232v-32.7c0-0.6-0.4-1-1-1h-60.7c-0.6,0-1,0.4-1,1V232c0,0.6,0.4,1,1,1h60.7
	C765.1,233,765.5,232.6,765.5,232L765.5,232z M763.5,231h-58.7v-30.7h58.7V231z"/>
<path class="st1" d="M709.6,218.1h3.8l0.8,2h2.1l-3.9-9.1h-1.8l-3.9,9.1h2L709.6,218.1z M711.5,213.5l1.2,2.9h-2.4L711.5,213.5z"/>
<path class="st1" d="M721.5,220.3c1.4,0,2.8-0.5,3.8-1.4V215h-3.9v1.7h2v1.3c-0.6,0.4-1.2,0.6-1.9,0.6c-1.5,0-2.7-1.2-2.7-2.7
	c0-0.1,0-0.1,0-0.2l0,0c-0.1-1.5,1.1-2.8,2.6-2.8c0.9,0,1.7,0.3,2.4,0.9l1.2-1.5c-1-0.9-2.3-1.3-3.5-1.2c-2.6-0.1-4.7,2-4.7,4.5v0.1
	l0,0c-0.1,2.5,1.9,4.6,4.4,4.6C721.2,220.3,721.4,220.3,721.5,220.3z"/>
<path class="st1" d="M731.5,220.3c1.4,0.1,2.8-0.5,3.7-1.6l-1.3-1.3c-0.6,0.7-1.5,1.1-2.4,1.1c-1.5,0-2.7-1.3-2.6-2.7v-0.1l0,0
	c-0.1-1.5,1.1-2.7,2.5-2.8h0.1c0.9,0,1.7,0.4,2.3,1l1.3-1.5c-0.9-0.9-2.2-1.5-3.6-1.4c-2.5-0.1-4.6,1.9-4.7,4.5c0,0.1,0,0.1,0,0.2
	l0,0c-0.1,2.5,1.9,4.6,4.4,4.7C731.3,220.3,731.4,220.3,731.5,220.3z"/>
<path class="st1" d="M738.6,218.1h3.8l0.8,2h2.1l-3.9-9.1h-1.8l-3.9,9.1h2L738.6,218.1z M740.5,213.5l1.2,2.9h-2.4L740.5,213.5z"/>
<polygon class="st1" points="747.7,220.2 749.7,220.2 749.7,213 752.4,213 752.4,211.1 744.9,211.1 744.9,213 747.7,213 "/>
<path class="st1" d="M754,220.2l0.8-2h3.8l0.8,2h2.1l-3.9-9.1h-1.8l-3.9,9.1H754z M756.7,213.5l1.2,2.9h-2.4L756.7,213.5z"/>
<path class="st3" d="M1032.7,480.6v-52.8h1.3c0.6,0,1-0.4,1-1s-0.4-1-1-1h-2.3c-0.6,0-1,0.4-1,1v54.9c0,0.6,0.4,1,1,1h44.3
	c0.6,0,1-0.4,1-1v-54.9c0-0.6-0.4-1-1-1h-2.3c-0.6,0-1,0.4-1,1s0.4,1,1,1h1.3v52.8H1032.7z"/>
<path class="st3" d="M1079.5,419.8h-5.8c-0.6-0.1-1.2,0.4-1.3,1.1c-0.1,0.6,0.4,1.2,1.1,1.3c0.1,0,0.1,0,0.2,0h5.8
	c0.6,0,1.2,0.5,1.2,1.2l0,0V477c0,0.6,0.5,1.2,1.2,1.2c0.6,0,1.2-0.5,1.2-1.2v-53.7C1083,421.4,1081.5,419.8,1079.5,419.8z"/>
<path class="st3" d="M1081.9,481.7c-0.6,0-1.2,0.5-1.2,1.1l0,0v2.3c0,0.6-0.5,1.2-1.2,1.2l0,0h-51.4c-0.6,0-1.2-0.5-1.2-1.2v-53.7
	c0-0.6-0.5-1.2-1.2-1.2c-0.6,0-1.2,0.5-1.2,1.2v53.7c0,1.9,1.6,3.5,3.5,3.5h51.4c1.9,0,3.5-1.6,3.5-3.5v-2.3
	C1083,482.2,1082.5,481.7,1081.9,481.7z"/>
<path class="st3" d="M1025.8,426.8c0.6,0,1.2-0.5,1.2-1.2v-2.3c0-0.6,0.5-1.2,1.2-1.2h5.8c0.6,0.1,1.2-0.4,1.3-1.1
	c0.1-0.6-0.4-1.2-1.1-1.3c-0.1,0-0.1,0-0.2,0h-5.8c-1.9,0-3.5,1.6-3.5,3.5v2.3C1024.7,426.3,1025.2,426.8,1025.8,426.8L1025.8,426.8
	z"/>
<path class="st3" d="M1041,428h25.7c2.6,0,4.7-2.1,4.7-4.7s-2.1-4.7-4.7-4.7h-8.3c-0.7-2.5-3.3-3.9-5.7-3.3
	c-1.6,0.4-2.8,1.7-3.3,3.3h-8.4c-2.6,0-4.7,2.1-4.7,4.7C1036.3,425.9,1038.4,428,1041,428z M1041,421h9.3c0.6,0,1.2-0.5,1.2-1.2
	c-0.1-1.3,0.9-2.4,2.2-2.5c1.3-0.1,2.4,0.9,2.5,2.2c0,0.1,0,0.2,0,0.3c0,0.6,0.5,1.2,1.2,1.2h9.3c1.3-0.1,2.4,0.9,2.5,2.2
	s-0.9,2.4-2.2,2.5c-0.1,0-0.2,0-0.3,0H1041c-1.3,0.1-2.4-0.9-2.5-2.2s0.9-2.4,2.2-2.5C1040.8,421,1040.9,421,1041,421z"/>
<path class="st3" d="M1040.2,440.5c0.5,0.5,1.2,0.5,1.7,0l4.7-4.7c0.4-0.5,0.4-1.2-0.1-1.6c-0.4-0.4-1.1-0.4-1.5,0l-3.9,3.9
	l-1.5-1.5c-0.5-0.5-1.2-0.5-1.7,0s-0.5,1.2,0,1.7l0,0L1040.2,440.5z"/>
<path class="st3" d="M1050.3,439.6h18.7c0.6,0,1.2-0.5,1.2-1.2c0-0.6-0.5-1.2-1.2-1.2h-18.7c-0.6,0-1.2,0.5-1.2,1.2
	C1049.1,439.1,1049.7,439.6,1050.3,439.6L1050.3,439.6L1050.3,439.6z"/>
<path class="st3" d="M1037.8,448.6l2.3,2.3c0.5,0.5,1.2,0.5,1.7,0l4.7-4.7c0.4-0.5,0.4-1.2-0.1-1.6c-0.4-0.4-1.1-0.4-1.5,0l-3.8,3.8
	l-1.5-1.5c-0.5-0.4-1.2-0.4-1.7,0C1037.4,447.5,1037.4,448.2,1037.8,448.6z"/>
<path class="st3" d="M1050.3,450.1h18.7c0.6-0.1,1.1-0.6,1.1-1.3c-0.1-0.6-0.5-1-1.1-1.1h-18.7c-0.6-0.1-1.2,0.4-1.3,1.1
	c-0.1,0.6,0.4,1.2,1.1,1.3C1050.2,450.1,1050.2,450.1,1050.3,450.1L1050.3,450.1z"/>
<path class="st3" d="M1037.8,459.1l2.3,2.3c0.5,0.5,1.2,0.5,1.7,0l4.7-4.7c0.5-0.5,0.5-1.2,0-1.7s-1.2-0.5-1.7,0l0,0l-3.8,3.9
	l-1.5-1.5c-0.5-0.5-1.2-0.5-1.7,0C1037.4,457.9,1037.4,458.7,1037.8,459.1L1037.8,459.1L1037.8,459.1z"/>
<path class="st3" d="M1050.3,460.6h18.7c0.6-0.1,1.1-0.6,1.1-1.3c-0.1-0.6-0.5-1-1.1-1.1h-18.7c-0.6-0.1-1.2,0.4-1.3,1.1
	c-0.1,0.6,0.4,1.2,1.1,1.3C1050.2,460.7,1050.2,460.7,1050.3,460.6L1050.3,460.6z"/>
<path class="st3" d="M1037.8,469.6l2.3,2.3c0.4,0.5,1.2,0.5,1.6,0l0,0l4.7-4.7c0.5-0.5,0.5-1.2,0-1.6l0,0c-0.5-0.4-1.2-0.4-1.7,0
	l-3.8,3.9l-1.5-1.5c-0.5-0.5-1.2-0.5-1.7,0C1037.4,468.5,1037.4,469.2,1037.8,469.6L1037.8,469.6z"/>
<path class="st3" d="M1050.3,471.2h18.7c0.6,0,1.2-0.5,1.2-1.2c0-0.6-0.5-1.2-1.2-1.2h-18.7c-0.6,0-1.2,0.5-1.2,1.2
	C1049.2,470.6,1049.7,471.2,1050.3,471.2L1050.3,471.2z"/>
<polyline class="st4" points="1249.2,211.6 1253.3,214.4 1261,203.3 "/>
<path class="st4" d="M1243.2,218.9c-5.6-6.6-4.8-16.5,1.8-22c6.6-5.6,16.5-4.8,22,1.8c5.6,6.6,4.8,16.5-1.8,22
	c-5.7,4.8-14.1,4.9-19.9,0.2"/>
<path class="st5" d="M1292.7,218.9c-5.5-6.6-4.7-16.4,1.9-21.9s16.4-4.7,21.9,1.9c5.5,6.6,4.7,16.4-1.9,21.9
	c-5.7,4.8-14,4.9-19.8,0.2"/>
<line class="st5" x1="1300" y1="204.2" x2="1309.3" y2="213.5"/>
<line class="st5" x1="1300" y1="213.5" x2="1309.3" y2="204.2"/>
<line class="st6" x1="1250.2" y1="263" x2="1260" y2="253.2"/>
<path class="st6" d="M1235,241c-2.9,4.3-2.3,10,1.3,13.6l22.4,22.4c3.6,3.6,9.3,4.2,13.6,1.3"/>
<path class="st6" d="M1275.2,275.3c2.9-4.3,2.3-10-1.3-13.6l-22.4-22.4c-3.6-3.6-9.3-4.2-13.6-1.3"/>
<line class="st7" x1="1299.7" y1="263" x2="1309.6" y2="253.2"/>
<path class="st7" d="M1284.5,241c-2.9,4.3-2.3,9.9,1.3,13.6l22.4,22.4c3.6,3.6,9.3,4.2,13.6,1.3"/>
<path class="st7" d="M1324.7,275.3c2.9-4.3,2.3-10-1.3-13.6l-22.4-22.4c-3.6-3.6-9.3-4.2-13.6-1.3"/>
<polyline class="st4" points="85.7,211.6 89.8,214.4 97.6,203.3 "/>
<path class="st4" d="M79.8,218.9c-5.5-6.6-4.7-16.4,1.9-21.9s16.4-4.7,21.9,1.9s4.7,16.4-1.9,21.9c-5.7,4.8-14,4.9-19.8,0.2"/>
<path class="st5" d="M129.3,218.9c-5.5-6.6-4.7-16.4,1.9-21.9c6.6-5.5,16.4-4.7,21.9,1.9c5.5,6.6,4.7,16.4-1.9,21.9
	c-5.7,4.8-14,4.9-19.8,0.2"/>
<line class="st5" x1="136.6" y1="204.2" x2="145.9" y2="213.5"/>
<line class="st5" x1="136.6" y1="213.5" x2="145.9" y2="204.2"/>
<line class="st7" x1="86.8" y1="263" x2="96.6" y2="253.2"/>
<path class="st7" d="M71.6,241c-2.9,4.3-2.3,9.9,1.3,13.6L95.3,277c3.6,3.6,9.3,4.2,13.6,1.3"/>
<path class="st7" d="M111.8,275.3c2.9-4.3,2.3-9.9-1.3-13.6l-22.4-22.4c-3.6-3.6-9.3-4.2-13.6-1.4"/>
<line class="st7" x1="136.3" y1="263" x2="146.1" y2="253.2"/>
<path class="st7" d="M121.1,241c-2.9,4.3-2.3,10,1.3,13.6l22.4,22.4c3.6,3.6,9.3,4.2,13.6,1.3"/>
<path class="st7" d="M161.3,275.3c2.9-4.3,2.3-10-1.3-13.6l-22.4-22.4c-3.6-3.7-9.3-4.2-13.6-1.4"/>
<path class="st8" d="M626.7,169.2c-42.6-95.7-147-147.7-249.1-124.1"/>
<polyline class="st8" points="634.5,152.2 627.8,171 609.1,164.3 "/>
<path class="st8" d="M401.7,474.7C507.9,487.2,607.5,420.8,637,318"/>
<polyline class="st8" points="412,489.3 398.5,474.6 413.1,461.2 "/>
<path class="st8" d="M253.3,125.5c-23.7,31.1-38.6,68.1-43.1,106.9c-7.5,63.5,13.3,127.1,56.8,174"/>
<polyline class="st8" points="235.6,126.5 255.1,122.8 258.9,142.4 "/>
<path class="st9" d="M770.9,169.2C813.5,73.5,918,21.5,1020,45.1"/>
<polyline class="st9" points="763.1,152.2 769.8,171 788.5,164.3 "/>
<path class="st9" d="M995.9,474.7C889.7,487.2,790.1,420.8,760.6,318"/>
<polyline class="st9" points="985.6,489.3 999.1,474.6 984.5,461.2 "/>
<path class="st9" d="M1144.4,125.5c23.7,31.1,38.6,68.1,43.1,106.9c7.5,63.5-13.3,127.1-56.8,174"/>
<polyline class="st9" points="1162,126.5 1142.5,122.8 1138.8,142.4 "/>
<path class="st10" d="M681.8,544.2c0,8.8-7.2,16-16,16H221.4c-8.8,0-16-7.2-16-16"/>
<line class="st10" x1="443.6" y1="561.8" x2="443.6" y2="577.4"/>
<g class="st0">
	<path class="st2" d="M775.9,603L775.9,603c0-5,3.7-9.1,9-9.1c3.2,0,5.2,1.1,6.8,2.7l-2,2.3c-1.4-1.3-2.9-2.2-4.9-2.2
		c-3.3,0-5.8,2.7-5.8,6.2v0.1c0,3.4,2.4,6.2,5.8,6.2c2.1,0,3.5-0.8,5-2.2l2,2c-1.8,1.9-3.8,3.1-7.1,3.1
		C779.7,612,775.9,608,775.9,603z"/>
	<path class="st2" d="M794.9,593.5h3v18.2h-3V593.5z"/>
	<path class="st2" d="M801.9,593.7h3.2v2.9h-3.2V593.7z M802,598.6h3v13.2h-3V598.6z"/>
	<path class="st2" d="M808.9,598.6h3v2c0.8-1.2,2.1-2.3,4.1-2.3c3,0,4.7,2,4.7,5v8.4h-3v-7.5c0-2-1-3.2-2.8-3.2c-1.7,0-3,1.2-3,3.3
		v7.4h-3V598.6z"/>
	<path class="st2" d="M824.4,593.7h3.2v2.9h-3.2V593.7z M824.6,598.6h3v13.2h-3V598.6z"/>
	<path class="st2" d="M830.8,605.2L830.8,605.2c0-3.8,2.9-6.9,6.9-6.9c2.5,0,4,0.9,5.3,2.3l-1.9,2c-0.9-1-1.9-1.6-3.4-1.6
		c-2.2,0-3.8,1.9-3.8,4.2v0c0,2.3,1.6,4.2,3.9,4.2c1.4,0,2.5-0.6,3.4-1.6l1.8,1.8c-1.3,1.4-2.8,2.5-5.4,2.5
		C833.7,612,830.8,608.9,830.8,605.2z"/>
	<path class="st2" d="M844.9,607.9L844.9,607.9c0-2.9,2.2-4.3,5.4-4.3c1.5,0,2.5,0.2,3.5,0.5v-0.3c0-1.9-1.1-2.9-3.3-2.9
		c-1.5,0-2.6,0.3-3.8,0.8l-0.8-2.4c1.4-0.6,2.9-1.1,5-1.1c2,0,3.4,0.5,4.4,1.5c1,0.9,1.4,2.3,1.4,4.1v7.8h-2.9v-1.6
		c-0.9,1.1-2.3,1.9-4.3,1.9C847.1,612,844.9,610.6,844.9,607.9z M853.9,607v-0.9c-0.8-0.3-1.8-0.5-3-0.5c-1.9,0-3.1,0.8-3.1,2.2v0
		c0,1.3,1.1,2,2.6,2C852.4,609.8,853.9,608.6,853.9,607z"/>
	<path class="st2" d="M860.5,593.5h3v18.2h-3V593.5z"/>
	<path class="st2" d="M875.3,594.3h6.9c4.1,0,6.6,2.3,6.6,5.8v0c0,3.9-3.1,6-7,6h-3.5v5.6h-3.1V594.3z M881.9,603.3
		c2.3,0,3.8-1.3,3.8-3.1v0c0-2-1.5-3.1-3.8-3.1h-3.6v6.3H881.9z"/>
	<path class="st2" d="M891.6,598.6h3v3c0.8-2,2.3-3.3,4.7-3.2v3.2h-0.2c-2.6,0-4.5,1.7-4.5,5.2v5h-3V598.6z"/>
	<path class="st2" d="M900.4,607.9L900.4,607.9c0-2.9,2.2-4.3,5.4-4.3c1.5,0,2.5,0.2,3.5,0.5v-0.3c0-1.9-1.1-2.9-3.3-2.9
		c-1.5,0-2.6,0.3-3.8,0.8l-0.8-2.4c1.4-0.6,2.9-1.1,5-1.1c2,0,3.4,0.5,4.4,1.5c1,0.9,1.4,2.3,1.4,4.1v7.8h-2.9v-1.6
		c-0.9,1.1-2.3,1.9-4.3,1.9C902.6,612,900.4,610.6,900.4,607.9z M909.4,607v-0.9c-0.8-0.3-1.8-0.5-3-0.5c-1.9,0-3.1,0.8-3.1,2.2v0
		c0,1.3,1.1,2,2.6,2C907.9,609.8,909.4,608.6,909.4,607z"/>
	<path class="st2" d="M915.2,605.2L915.2,605.2c0-3.8,2.9-6.9,6.9-6.9c2.5,0,4,0.9,5.3,2.3l-1.9,2c-0.9-1-1.9-1.6-3.4-1.6
		c-2.2,0-3.8,1.9-3.8,4.2v0c0,2.3,1.6,4.2,3.9,4.2c1.4,0,2.5-0.6,3.4-1.6l1.8,1.8c-1.3,1.4-2.8,2.5-5.4,2.5
		C918.1,612,915.2,608.9,915.2,605.2z"/>
	<path class="st2" d="M930.7,608.1v-6.9h-1.7v-2.6h1.7v-3.6h3v3.6h3.5v2.6h-3.5v6.5c0,1.2,0.6,1.6,1.6,1.6c0.7,0,1.3-0.1,1.9-0.4
		v2.5c-0.7,0.4-1.6,0.7-2.7,0.7C932.3,611.9,930.7,611,930.7,608.1z"/>
	<path class="st2" d="M940.4,593.7h3.2v2.9h-3.2V593.7z M940.5,598.6h3v13.2h-3V598.6z"/>
	<path class="st2" d="M946.7,605.2L946.7,605.2c0-3.8,2.9-6.9,6.9-6.9c2.5,0,4,0.9,5.3,2.3l-1.9,2c-0.9-1-1.9-1.6-3.4-1.6
		c-2.2,0-3.8,1.9-3.8,4.2v0c0,2.3,1.6,4.2,3.9,4.2c1.4,0,2.5-0.6,3.4-1.6l1.8,1.8c-1.3,1.4-2.8,2.5-5.4,2.5
		C949.6,612,946.7,608.9,946.7,605.2z"/>
	<path class="st2" d="M960.6,605.2L960.6,605.2c0-3.8,2.7-6.9,6.4-6.9c4.2,0,6.3,3.3,6.3,7.1c0,0.3,0,0.5,0,0.8h-9.7
		c0.3,2.1,1.8,3.3,3.8,3.3c1.5,0,2.5-0.5,3.6-1.6l1.8,1.6c-1.2,1.5-3,2.5-5.4,2.5C963.5,612,960.6,609.2,960.6,605.2z M970.3,604.2
		c-0.2-1.9-1.3-3.5-3.3-3.5c-1.8,0-3.1,1.4-3.4,3.5H970.3z"/>
	<path class="st2" d="M983.4,603L983.4,603c0-5,3.7-9.1,9-9.1c3.2,0,5.2,1.1,6.8,2.7l-2,2.3c-1.4-1.3-2.9-2.2-4.9-2.2
		c-3.3,0-5.8,2.7-5.8,6.2v0.1c0,3.4,2.4,6.2,5.8,6.2c2.1,0,3.5-0.8,5-2.2l2,2c-1.8,1.9-3.8,3.1-7.1,3.1
		C987.2,612,983.4,608,983.4,603z"/>
	<path class="st2" d="M1001.2,605.2L1001.2,605.2c0-3.8,3-6.9,7-6.9c4,0,7,3.1,7,6.8v0c0,3.7-3,6.9-7.1,6.9
		C1004.2,612,1001.2,608.9,1001.2,605.2z M1012.3,605.2L1012.3,605.2c0-2.4-1.7-4.3-4-4.3c-2.4,0-4,1.9-4,4.2v0c0,2.3,1.7,4.2,4,4.2
		C1010.7,609.4,1012.3,607.5,1012.3,605.2z"/>
	<path class="st2" d="M1018.5,593.5h3v18.2h-3V593.5z"/>
	<path class="st2" d="M1025.6,593.5h3v18.2h-3V593.5z"/>
	<path class="st2" d="M1031.7,607.9L1031.7,607.9c0-2.9,2.2-4.3,5.4-4.3c1.5,0,2.5,0.2,3.5,0.5v-0.3c0-1.9-1.1-2.9-3.3-2.9
		c-1.5,0-2.6,0.3-3.8,0.8l-0.8-2.4c1.4-0.6,2.9-1.1,5-1.1c2,0,3.4,0.5,4.4,1.5c1,0.9,1.4,2.3,1.4,4.1v7.8h-2.9v-1.6
		c-0.9,1.1-2.3,1.9-4.3,1.9C1033.9,612,1031.7,610.6,1031.7,607.9z M1040.7,607v-0.9c-0.8-0.3-1.8-0.5-3-0.5c-1.9,0-3.1,0.8-3.1,2.2
		v0c0,1.3,1.1,2,2.6,2C1039.2,609.8,1040.7,608.6,1040.7,607z"/>
	<path class="st2" d="M1050.2,609.7v2h-3v-18.2h3v7.2c1-1.4,2.3-2.5,4.5-2.5c3.1,0,6.1,2.4,6.1,6.8v0c0,4.4-3,6.8-6.1,6.8
		C1052.5,612,1051.1,610.9,1050.2,609.7z M1057.7,605.2L1057.7,605.2c0-2.6-1.7-4.3-3.8-4.3c-2,0-3.8,1.7-3.8,4.2v0
		c0,2.5,1.8,4.2,3.8,4.2C1056.1,609.4,1057.7,607.7,1057.7,605.2z"/>
	<path class="st2" d="M1063.2,605.2L1063.2,605.2c0-3.8,3-6.9,7-6.9c4,0,7,3.1,7,6.8v0c0,3.7-3,6.9-7.1,6.9
		C1066.2,612,1063.2,608.9,1063.2,605.2z M1074.2,605.2L1074.2,605.2c0-2.4-1.7-4.3-4-4.3c-2.4,0-4,1.9-4,4.2v0c0,2.3,1.7,4.2,4,4.2
		C1072.7,609.4,1074.2,607.5,1074.2,605.2z"/>
	<path class="st2" d="M1080.3,598.6h3v3c0.8-2,2.3-3.3,4.7-3.2v3.2h-0.2c-2.6,0-4.5,1.7-4.5,5.2v5h-3V598.6z"/>
	<path class="st2" d="M1089.1,607.9L1089.1,607.9c0-2.9,2.2-4.3,5.4-4.3c1.5,0,2.5,0.2,3.5,0.5v-0.3c0-1.9-1.1-2.9-3.3-2.9
		c-1.5,0-2.6,0.3-3.8,0.8l-0.8-2.4c1.4-0.6,2.9-1.1,5-1.1c2,0,3.4,0.5,4.4,1.5c1,0.9,1.4,2.3,1.4,4.1v7.8h-2.9v-1.6
		c-0.9,1.1-2.3,1.9-4.3,1.9C1091.3,612,1089.1,610.6,1089.1,607.9z M1098.1,607v-0.9c-0.8-0.3-1.8-0.5-3-0.5c-1.9,0-3.1,0.8-3.1,2.2
		v0c0,1.3,1.1,2,2.6,2C1096.6,609.8,1098.1,608.6,1098.1,607z"/>
	<path class="st2" d="M1105.1,608.1v-6.9h-1.7v-2.6h1.7v-3.6h3v3.6h3.5v2.6h-3.5v6.5c0,1.2,0.6,1.6,1.6,1.6c0.7,0,1.3-0.1,1.9-0.4
		v2.5c-0.7,0.4-1.6,0.7-2.7,0.7C1106.6,611.9,1105.1,611,1105.1,608.1z"/>
	<path class="st2" d="M1114.7,593.7h3.2v2.9h-3.2V593.7z M1114.9,598.6h3v13.2h-3V598.6z"/>
	<path class="st2" d="M1121.1,605.2L1121.1,605.2c0-3.8,3-6.9,7-6.9c4,0,7,3.1,7,6.8v0c0,3.7-3,6.9-7.1,6.9
		C1124.1,612,1121.1,608.9,1121.1,605.2z M1132.1,605.2L1132.1,605.2c0-2.4-1.7-4.3-4-4.3c-2.4,0-4,1.9-4,4.2v0c0,2.3,1.7,4.2,4,4.2
		C1130.6,609.4,1132.1,607.5,1132.1,605.2z"/>
	<path class="st2" d="M1138.2,598.6h3v2c0.8-1.2,2.1-2.3,4.1-2.3c3,0,4.7,2,4.7,5v8.4h-3v-7.5c0-2-1-3.2-2.8-3.2c-1.7,0-3,1.2-3,3.3
		v7.4h-3V598.6z"/>
</g>
<path class="st10" d="M1202.2,544.2c0,8.8-7.2,16-16,16H741.8c-8.8,0-16-7.2-16-16"/>
<line class="st10" x1="964" y1="561.8" x2="964" y2="577.4"/>
</svg>
