<svg width="108px" height="108px" xmlns="http://www.w3.org/2000/svg" viewBox="0 0 179.98 179.98"><defs><style>.cls-1,.cls-2{fill:none;stroke:#ff4c00;stroke-miterlimit:10;stroke-width:2px;}.cls-1{stroke-linecap:round;}</style></defs><title>Asset 1</title><g id="Layer_2" data-name="Layer 2"><g id="CONTENT"><path class="cls-1" d="M92.52,66.61H48.58a5.68,5.68,0,0,0,0,11.37h54.54l-5.54,5.54a5.68,5.68,0,1,0,8,8l15.24-15.24a5.68,5.68,0,0,0,0-8L105.63,53a5.68,5.68,0,0,0-8,8l5.54,5.54M87.47,102H131.4a5.68,5.68,0,0,1,0,11.37H76.85l5.54,5.54a5.68,5.68,0,0,1-8,8L59.11,111.71a5.69,5.69,0,0,1,0-8L74.35,88.43a5.68,5.68,0,0,1,8,8L76.85,102"/><circle class="cls-2" cx="89.99" cy="89.99" r="88.99"/></g></g></svg>