<svg width="108px" height="108px" xmlns="http://www.w3.org/2000/svg" viewBox="0 0 179.98 179.98"><defs><style>.cls-1,.cls-2{fill:none;stroke:#ff4c00;stroke-miterlimit:10;stroke-width:2px;}.cls-1{stroke-linecap:round;}</style></defs><title>Asset 3</title><g id="Layer_2" data-name="Layer 2"><g id="CONTENT"><path class="cls-1" d="M44.48,86.16H36.37A3.87,3.87,0,0,0,32.45,90a3.79,3.79,0,0,0,1.15,2.72,4,4,0,0,0,2.77,1.12H54.6V111.7a3.79,3.79,0,0,0,1.15,2.72,4,4,0,0,0,2.77,1.12,3.87,3.87,0,0,0,3.92-3.84V93.83H80.68A3.88,3.88,0,0,0,84.59,90m0,0a3.87,3.87,0,0,0-3.92-3.84H62.44V68.28a3.92,3.92,0,0,0-7.84,0V86.16H49.47m58,0H99.31A3.87,3.87,0,0,0,95.39,90a3.79,3.79,0,0,0,1.15,2.72,4,4,0,0,0,2.77,1.12h44.31A3.88,3.88,0,0,0,147.54,90m-35.12-3.84h31.2A3.87,3.87,0,0,1,147.54,90"/><circle class="cls-2" cx="89.99" cy="89.99" r="88.99"/></g></g></svg>