<svg width="108px" height="108px" xmlns="http://www.w3.org/2000/svg" viewBox="0 0 179.98 179.98"><defs><style>.cls-1,.cls-2{fill:none;stroke:#ff4c00;stroke-width:2px;}.cls-1{stroke-linecap:round;stroke-linejoin:round;}.cls-2{stroke-miterlimit:10;}</style></defs><title>Asset 4</title><g id="Layer_2" data-name="Layer 2"><g id="CONTENT"><path class="cls-1" d="M121.64,67.19S113,73.48,116,87c1.55,8.13,7.86,18.29-2.27,28.08-7.06,6.82-19.28,3.58-19.28,3.58"/><path class="cls-1" d="M113.59,90.36S86.11,84,90.24,112.91c1.11,8,6.43,19.33-3.71,29.12"/><line class="cls-1" x1="110.58" y1="104.11" x2="99.22" y2="92.34"/><line class="cls-1" x1="102.98" y1="111.45" x2="91.62" y2="99.68"/><line class="cls-1" x1="134.99" y1="92.43" x2="120.18" y2="76.65"/><path class="cls-1" d="M120.14,92.08c6.9,2.43,15.06,2.95,22-3.71"/><line class="cls-1" x1="73.23" y1="116.65" x2="87.12" y2="131.88"/><path class="cls-1" d="M88.08,117c-6.9-2.43-15.06-2.95-22,3.71"/><path class="cls-1" d="M93.41,38s-8.68,6.29-5.68,19.83c1.55,8.13,7.86,18.29-2.27,28.08-7.06,6.82-19.28,3.58-19.28,3.58"/><path class="cls-1" d="M85.35,61.12S57.88,54.77,62,83.67c1.11,8,6.43,19.33-3.71,29.12"/><line class="cls-1" x1="82.35" y1="74.87" x2="70.98" y2="63.1"/><line class="cls-1" x1="74.74" y1="82.21" x2="63.38" y2="70.44"/><line class="cls-1" x1="106.75" y1="63.19" x2="91.94" y2="47.41"/><path class="cls-1" d="M91.9,62.84c6.9,2.43,15.06,2.95,22-3.71"/><line class="cls-1" x1="44.99" y1="87.41" x2="58.88" y2="102.64"/><path class="cls-1" d="M59.84,87.77c-6.9-2.43-15.06-2.95-22,3.71"/><circle class="cls-2" cx="89.99" cy="89.99" r="88.99"/></g></g></svg>