<svg width="133px" height="147px" xmlns="http://www.w3.org/2000/svg" viewBox="0 0 220.35 244.91"><defs><style>.cls-1,.cls-2{fill:none;stroke:#ff4c00;stroke-width:2px;}.cls-1{stroke-miterlimit:10;}.cls-2{stroke-linecap:round;stroke-linejoin:round;}.cls-3{fill:#a0d8b3;}.cls-4{font-size:29.97px;fill:#fff;font-family:Gotham-Bold, Gotham;font-weight:700;}</style></defs><title>Asset 3</title><g id="Layer_2" data-name="Layer 2"><g id="CONTENT"><circle class="cls-1" cx="110.18" cy="134.73" r="109.18"/><path class="cls-2" d="M156.63,182.24v1.93a4.25,4.25,0,0,1-4.32,4.17H70.08a4.25,4.25,0,0,1-4.32-4.17V95.6"/><path class="cls-2" d="M65.76,86V83.6a4.25,4.25,0,0,1,4.32-4.17H138.3v13s-.63,5,4.9,5,13.42.15,13.42.15v74.7"/><line class="cls-2" x1="138.66" y1="79.41" x2="156.63" y2="97.62"/><line class="cls-2" x1="79.26" y1="150.59" x2="97.75" y2="150.59"/><line class="cls-2" x1="79.26" y1="139.6" x2="139.71" y2="139.6"/><line class="cls-2" x1="79.26" y1="128.6" x2="143.4" y2="128.6"/><line class="cls-2" x1="79.26" y1="117.6" x2="104.76" y2="117.6"/><polygon class="cls-2" points="78.65 95.54 78.65 103 85.33 106.72 92.01 103 92.01 95.54 85.33 91.81 78.65 95.54"/><circle class="cls-3" cx="110.18" cy="23.7" r="23.7"/><text class="cls-4" transform="translate(100.84 34.6)">2</text></g></g></svg>