<svg width="133px" height="147px" xmlns="http://www.w3.org/2000/svg" viewBox="0 0 220.35 244.69"><defs><style>.cls-1,.cls-4,.cls-5{fill:none;stroke:#ff4c00;stroke-width:2px;}.cls-1,.cls-4{stroke-miterlimit:10;}.cls-2{fill:#a0d8b3;}.cls-3{font-size:29.97px;fill:#fff;font-family:Gotham-Bold, Gotham;font-weight:700;}.cls-4,.cls-5{stroke-linecap:round;}.cls-5{stroke-linejoin:round;}</style></defs><title>Asset 2</title><g id="Layer_2" data-name="Layer 2"><g id="CONTENT"><circle class="cls-1" cx="110.18" cy="134.51" r="109.18"/><circle class="cls-2" cx="110.18" cy="23.7" r="23.7"/><text class="cls-3" transform="translate(103.85 34.6)">1</text><path class="cls-4" d="M152.76,186.67v4.19a3.6,3.6,0,0,1-3.58,3.58H65.47a3.6,3.6,0,0,1-3.58-3.58v-87.3"/><path class="cls-4" d="M139,86.15h10.12a3.6,3.6,0,0,1,3.58,3.58v87.55"/><path class="cls-4" d="M61.89,93.88V89.73a3.6,3.6,0,0,1,3.58-3.58h9.82"/><path class="cls-5" d="M139.83,95.94h2.22A1.92,1.92,0,0,1,144,97.86v84.88a1.92,1.92,0,0,1-1.92,1.92H72.59a1.92,1.92,0,0,1-1.92-1.92V97.86a1.92,1.92,0,0,1,1.92-1.92h2.79"/><path class="cls-5" d="M128.12,84.39H113a5.7,5.7,0,1,0-11.41,0H86.52a5.78,5.78,0,0,0,0,11.55h41.6a5.78,5.78,0,1,0,0-11.55Z"/><polyline class="cls-5" points="82.64 112.86 86.29 116.66 93.88 109.26"/><line class="cls-5" x1="101.63" y1="114.76" x2="132" y2="114.76"/><polyline class="cls-5" points="82.64 129.86 86.29 133.65 93.88 126.25"/><line class="cls-5" x1="101.63" y1="131.75" x2="132" y2="131.75"/><polyline class="cls-5" points="82.64 146.94 86.29 150.74 93.88 143.33"/><line class="cls-5" x1="101.63" y1="148.84" x2="132" y2="148.84"/><polyline class="cls-5" points="82.64 164.03 86.29 167.82 93.88 160.42"/><line class="cls-5" x1="101.63" y1="165.93" x2="132" y2="165.93"/></g></g></svg>