<svg width="133px" height="147px" xmlns="http://www.w3.org/2000/svg" viewBox="0 0 220.35 244.46"><defs><style>.cls-1,.cls-4{fill:none;stroke:#ff4c00;stroke-width:2px;}.cls-1{stroke-miterlimit:10;}.cls-2{fill:#a0d8b3;}.cls-3{font-size:29.97px;fill:#fff;font-family:Gotham-Bold, Gotham;font-weight:700;}.cls-4{stroke-linecap:round;stroke-linejoin:round;}</style></defs><title>Asset 6</title><g id="Layer_2" data-name="Layer 2"><g id="CONTENT"><circle class="cls-1" cx="110.18" cy="134.28" r="109.18"/><circle class="cls-2" cx="110.18" cy="23.7" r="23.7"/><text class="cls-3" transform="translate(100.74 34.6)">5</text><path class="cls-4" d="M155,182.24v1.93a4.25,4.25,0,0,1-4.32,4.17H68.47a4.25,4.25,0,0,1-4.32-4.17V95.6"/><path class="cls-4" d="M64.15,100V84a4.25,4.25,0,0,1,4.32-4.17H150.7A4.25,4.25,0,0,1,155,84v92"/><rect class="cls-4" x="86.91" y="100.81" width="45.34" height="18.83"/><polygon class="cls-4" points="103.41 157.18 109.75 153.6 116.09 157.18 116.09 164.33 109.75 167.9 103.41 164.33 103.41 157.18"/><line class="cls-4" x1="90.73" y1="174.59" x2="128.77" y2="174.59"/><line class="cls-4" x1="59.6" y1="93.89" x2="68.83" y2="93.89"/><line class="cls-4" x1="59.6" y1="105.42" x2="68.83" y2="105.42"/><line class="cls-4" x1="59.6" y1="116.95" x2="68.83" y2="116.95"/><line class="cls-4" x1="59.6" y1="128.47" x2="68.83" y2="128.47"/><line class="cls-4" x1="59.6" y1="140" x2="68.83" y2="140"/><line class="cls-4" x1="59.6" y1="151.53" x2="68.83" y2="151.53"/><line class="cls-4" x1="59.6" y1="163.06" x2="68.83" y2="163.06"/><line class="cls-4" x1="59.6" y1="174.59" x2="68.83" y2="174.59"/></g></g></svg>