<svg width="133px" height="147px" xmlns="http://www.w3.org/2000/svg" viewBox="0 0 220.35 244.91"><defs><style>.cls-1,.cls-4{fill:none;}.cls-1,.cls-4,.cls-5{stroke:#ff4c00;stroke-width:2px;}.cls-1{stroke-miterlimit:10;}.cls-2{fill:#a0d8b3;}.cls-3{font-size:29.97px;font-family:Gotham-Bold, Gotham;font-weight:700;}.cls-3,.cls-5{fill:#fff;}.cls-4,.cls-5{stroke-linecap:round;stroke-linejoin:round;}</style></defs><title>Asset 5</title><g id="Layer_2" data-name="Layer 2"><g id="CONTENT"><circle class="cls-1" cx="110.18" cy="134.73" r="109.18"/><circle class="cls-2" cx="110.18" cy="23.7" r="23.7"/><text class="cls-3" transform="translate(99.85 34.6)">4</text><path class="cls-4" d="M70.68,172.12h0a7.72,7.72,0,0,1-7.7-7.7V107.31a5.23,5.23,0,0,0-2.46-4.64H80.84a5.23,5.23,0,0,0-2.46,4.64v57.11A7.72,7.72,0,0,1,70.68,172.12Z"/><line class="cls-4" x1="84.23" y1="139.88" x2="92.85" y2="139.88"/><line class="cls-4" x1="84.23" y1="110.31" x2="92.85" y2="110.31"/><line class="cls-4" x1="84.23" y1="117.71" x2="89.16" y2="117.71"/><line class="cls-4" x1="84.23" y1="125.1" x2="89.16" y2="125.1"/><line class="cls-4" x1="84.23" y1="132.49" x2="89.16" y2="132.49"/><line class="cls-4" x1="62.98" y1="125.1" x2="77.07" y2="125.1"/><path class="cls-4" d="M73.75,164a3.35,3.35,0,0,1-5.3,2.73"/><rect class="cls-5" x="2.72" y="125.4" width="70.81" height="23.87" rx="3.17" ry="3.17" transform="translate(-99.04 176.06) rotate(-90.25)"/><line class="cls-4" x1="30.91" y1="125.48" x2="45.23" y2="125.42"/><path class="cls-4" d="M32.81,149a1.75,1.75,0,0,1,.9-2.5,11,11,0,0,0,3.23-2.2,1.75,1.75,0,0,1,2.66.08,11,11,0,0,0,3.09,2.39,1.75,1.75,0,0,1,.75,2.55A11,11,0,0,0,42.11,153a1.75,1.75,0,0,1-2.2,1.5,11,11,0,0,0-3.9-.12,1.75,1.75,0,0,1-2.1-1.63A11,11,0,0,0,32.81,149Z"/><path class="cls-5" d="M200.49,155.17v1.93a2.42,2.42,0,0,1-2.42,2.42H130.62a2.42,2.42,0,0,1-2.42-2.42V125.78"/><path class="cls-5" d="M128.2,120V117.7a2.42,2.42,0,0,1,2.42-2.42h67.45a2.42,2.42,0,0,1,2.42,2.42v31.45"/><polyline class="cls-5" points="132.97 120.04 164.17 140.79 195.72 120.04"/><line class="cls-5" x1="132.96" y1="154.76" x2="159.04" y2="137.38"/><line class="cls-5" x1="195.72" y1="154.76" x2="169.92" y2="137.38"/><line class="cls-4" x1="100.59" y1="134.74" x2="117.25" y2="134.74"/><line class="cls-4" x1="111.53" y1="140.46" x2="117.25" y2="134.74"/><line class="cls-4" x1="111.53" y1="129.01" x2="117.25" y2="134.74"/></g></g></svg>