<?xml version="1.0" encoding="UTF-8"?>
<svg width="36px" height="19px" viewBox="0 0 36 19" version="1.1" xmlns="http://www.w3.org/2000/svg" xmlns:xlink="http://www.w3.org/1999/xlink">
    <!-- Generator: Sketch 50.2 (55047) - http://www.bohemiancoding.com/sketch -->
    <title>Icons / arrow-right-gray</title>
    <desc>Created with Sketch.</desc>
    <defs></defs>
    <g id="▶︎--All-Pages-–-Final" stroke="none" stroke-width="1" fill="none" fill-rule="evenodd">
        <g id="Roche_FMI-What-we-do-Vision" transform="translate(-825.000000, -1546.000000)" fill="#8B99A6">
            <g id="How-does-it-work" transform="translate(260.000000, 1018.000000)">
                <g id="how-getting" transform="translate(124.000000, 476.000000)">
                    <g id="STEPS">
                        <g id="Arrows" transform="translate(202.000000, 52.531250)">
                            <g id="Icons-/-arrow-right-gray" transform="translate(239.000000, 0.000000)">
                                <path d="M25.5352455,17.0915089 C25.2608527,17.3659018 25.2608527,17.8126696 25.5352455,18.0870625 C25.672442,18.2251384 25.8518527,18.2937366 26.0339018,18.2937366 C26.212433,18.2937366 26.3909643,18.2251384 26.5281607,18.0870625 L34.9727768,9.64332589 C35.0378571,9.58176339 35.0888661,9.50261161 35.1240446,9.41642411 C35.1961607,9.24492857 35.1961607,9.04880804 35.1240446,8.8773125 C35.0888661,8.791125 35.0378571,8.71197321 34.9727768,8.64689286 L26.5281607,0.205794643 C26.2537679,-0.0685982143 25.8105179,-0.0685982143 25.5352455,0.205794643 C25.2608527,0.481066964 25.2608527,0.927834821 25.5352455,1.20222768 L32.7776339,8.44461607 L0.704450893,8.44461607 C0.315727679,8.44461607 0,8.75682589 0,9.14466964 C0,9.53691071 0.315727679,9.84912054 0.704450893,9.84912054 L32.7776339,9.84912054 L25.5352455,17.0915089 Z" id="Fill-1"></path>
                            </g>
                        </g>
                    </g>
                </g>
            </g>
        </g>
    </g>
</svg>