<svg xmlns="http://www.w3.org/2000/svg" width="221" height="47" viewBox="0 0 221 47">
    <path fill="#435363" fill-rule="evenodd" d="M20.81.104a.776.776 0 0 1 .775 0l20.422 11.783c.24.138.388.394.388.67v23.566a.776.776 0 0 1-.388.671l-17.508 10.1a.776.776 0 0 1-1.163-.67V23.578c0-.277.147-.533.388-.672l8.88-5.123a.776.776 0 0 1 1.165.67v3.185a.776.776 0 0 1-.389.672l-5.733 3.308v14.486l10.437-6.021V14.597L21.198 4.855 4.312 14.597v19.486l10.435 6.02V25.619l-5.73-3.307a.776.776 0 0 1-.389-.672v-3.184c0-.597.647-.97 1.164-.671l8.88 5.122c.24.139.387.395.387.672v22.646c0 .596-.646.97-1.164.67L.388 36.795A.775.775 0 0 1 0 36.123V12.558c0-.277.148-.533.388-.671L20.809.104zm53.16 10.32v-3.21H61.74v16.052h3.533v-6.214h7.665v-3.21h-7.665v-3.418h8.698zm15.49 4.862c0 2.752-1.973 5-4.819 5s-4.865-2.294-4.865-5.046v-.045c0-2.752 1.974-5 4.82-5 2.844 0 4.864 2.293 4.864 5.045v.046zm-4.865 8.256c4.957 0 8.56-3.738 8.56-8.302v-.045c0-4.565-3.557-8.256-8.514-8.256-4.956 0-8.56 3.738-8.56 8.301v.046c0 4.563 3.558 8.256 8.514 8.256zM103 23.519c4.314 0 7.045-2.385 7.045-7.247V7.214h-3.533v9.196c0 2.545-1.309 3.852-3.465 3.852-2.158 0-3.465-1.353-3.465-3.967v-9.08h-3.535v9.172c0 4.724 2.64 7.132 6.953 7.132zm24.922-.253V7.214h-3.488v9.884l-7.526-9.884h-3.259v16.052h3.488V13.061l7.78 10.205h3.005zm14.964-7.98c0 2.843-1.951 4.793-4.843 4.793h-2.73v-9.677h2.73c2.892 0 4.843 1.994 4.843 4.838v.046zm-4.843 7.98c5.049 0 8.537-3.508 8.537-8.026v-.045c0-4.518-3.488-7.98-8.537-7.98h-6.264v16.051h6.264zm19.759-6.719h-4.27l2.135-5.206 2.135 5.206zm6.424 6.72l-6.883-16.168h-3.259L147.2 23.266h3.602l1.469-3.6h6.792l1.469 3.6h3.694zM176.8 10.47V7.214h-13.309v3.257h4.888v12.795h3.534V10.471h4.887zm2.87 12.795h3.534V7.214h-3.534v16.052zm20.217-7.98c0 2.752-1.973 5-4.818 5-2.846 0-4.866-2.294-4.866-5.046v-.045c0-2.752 1.974-5 4.82-5 2.845 0 4.864 2.293 4.864 5.045v.046zm-4.865 8.256c4.958 0 8.56-3.738 8.56-8.302v-.045c0-4.565-3.557-8.256-8.513-8.256-4.957 0-8.56 3.738-8.56 8.301v.046c0 4.563 3.557 8.256 8.513 8.256zm22.49-16.328v9.884l-7.526-9.884h-3.259v16.052h3.488V13.061l7.779 10.205H221V7.214h-3.488zM72.978 31.178l-4.858 7.271-4.857-7.271h-1.524v13.325h1.467V33.73l4.857 7.119h.076l4.858-7.138v10.793h1.505V31.178h-1.524zm5.295 0v13.325h9.734v-1.37H79.78v-4.664h7.276v-1.37H79.78v-4.551h8.133v-1.37h-9.639zm17.393 1.39c3.37 0 5.524 2.322 5.524 5.291 0 2.97-2.153 5.255-5.524 5.255H92.54V32.567h3.125zm0 11.935c4.19 0 7.086-2.913 7.086-6.682 0-3.769-2.896-6.643-7.086-6.643h-4.63v13.325h4.63zm10.4 0h1.505V31.178h-1.505v13.325zm11.506.229c2.42 0 3.943-.933 5.334-2.342l-.991-.97c-1.276 1.218-2.476 1.922-4.305 1.922-2.933 0-5.162-2.418-5.162-5.52 0-3.104 2.209-5.483 5.162-5.483 1.81 0 3.067.762 4.19 1.828l1.03-1.104c-1.334-1.257-2.782-2.113-5.201-2.113-3.924 0-6.743 3.102-6.743 6.91 0 3.844 2.838 6.872 6.686 6.872zm8.096-.229h1.505V31.178h-1.505v13.325zm15.22-13.325v10.679l-8.401-10.68h-1.41v13.326h1.466V33.576l8.611 10.927h1.2V31.178h-1.466zm5.238 0v13.325h9.735v-1.37h-8.23v-4.664h7.277v-1.37h-7.277v-4.551h8.134v-1.37h-9.639zm20.247 3.207a3.984 3.984 0 0 0-4.001-3.998 4.021 4.021 0 0 0-4.024 4.02 3.984 3.984 0 0 0 4.002 3.998 4.021 4.021 0 0 0 4.023-4.02zm-.366 0c0 2.016-1.573 3.677-3.657 3.677-2.073 0-3.636-1.64-3.636-3.655 0-2.015 1.574-3.677 3.658-3.677 2.073 0 3.635 1.64 3.635 3.655zm-1.829-.92c0-.764-.642-1.24-1.551-1.24h-1.84v4.11h.61v-1.551h1.053l1.186 1.55h.753l-1.275-1.65c.621-.144 1.064-.543 1.064-1.218zm-.631.034c0 .476-.4.742-.976.742h-1.174v-1.462h1.208c.587 0 .942.266.942.72z"/>
</svg>
