<svg xmlns="http://www.w3.org/2000/svg" width="329" height="178" viewBox="0 0 329 178">
    <g fill="none" fill-rule="evenodd" stroke="#EDC96B" stroke-width="2">
        <path d="M72 70.114l50.89-26.5v53zM173.555 70.114l50.89-26.5v53zM122.89-9.5L173.783-36v53z"/>
        <path d="M224.445 96.614l-101.554 53v-106zM326 43.841l-101.555 53v-106z"/>
        <path d="M173.782 123.114l-50.891 26.5v-53zM173.782 17.114l-50.891 26.5v-53z"/>
        <path d="M224.445 149.5l-50.89 26.5v-53zM224.445 96.5l-50.89 26.5V70z"/>
        <g>
            <path d="M3 49.5l19.691-10.126v20.251zM42.383 49.5l19.691-10.126v20.251z"/>
            <path d="M62.074 59.625L22.691 79.877V39.374z"/>
            <path d="M94.805 96.707L22.69 133.789V59.625zM42.383 29.248L22.69 39.374V19.123z"/>
            <path d="M62.074 79.877L42.383 90.002V69.751zM62.074 59.625L42.383 69.751V49.5z"/>
        </g>
    </g>
</svg>
