<?xml version="1.0" standalone="no"?>
  <!DOCTYPE svg PUBLIC "-//W3C//DTD SVG 1.1//EN" "http://www.w3.org/Graphics/SVG/1.1/DTD/svg11.dtd" >
  <svg>
  <metadata>
  Created by font-carrier
  </metadata>
  <defs>
  <font id="Gotham-MediumItalic" horiz-adv-x="1263" vert-adv-y="1263" >
    <font-face
      
      font-family="Gotham-MediumItalic"
      
      font-weight="400"
      
      font-stretch="normal"
      
      units-per-em="1000"
      
      ascent="800"
      
      descent="-200"
      
    />
      <missing-glyph />

      

      
      <glyph glyph-name="uni21" unicode="&#x21;" d="M106 222L187 665L197 700L339 700L329 665L173 222L106 222M14 0L51 138L184 138L147 0L14 0Z"  horiz-adv-x="303" vert-adv-y="1000"  />

      
      <glyph glyph-name="uni22" unicode="&#x22;" d="M100 401L186 700L324 700L323 695L164 401L100 401M323 401L410 700L548 700L546 695L387 401L323 401Z"  horiz-adv-x="493" vert-adv-y="1000"  />

      
      <glyph glyph-name="uni23" unicode="&#x23;" d="M55 0L111 161L18 161L46 265L148 265L208 439L103 439L131 543L244 543L299 700L406 700L351 543L515 543L570 700L677 700L622 543L715 543L688 439L585 439L525 265L630 265L603 161L488 161L433 0L326 0L382 161L218 161L162 0L55 0M255 265L418 265L479 439L315 439L255 265Z"  horiz-adv-x="687" vert-adv-y="1000"  />

      
      <glyph glyph-name="uni24" unicode="&#x24;" d="M422 758L509 758L489 688Q582 665 648 598L565 516Q511 565 454 583L400 396Q484 365 525 324Q566 283 566 213Q566 119 488 59.50Q410 0 292 0L286 0L257-98L170-98L201 8Q68 33-4 127L86 203Q150 132 236 113L293 308Q207 340 165 379.50Q123 419 123 490Q123 580 198.50 640Q274 700 385 700Q388 700 394.50 699.50Q401 699 404 699L422 758M249 503Q249 477 266 460Q283 443 328 424L377 594Q316 594 282.50 568Q249 542 249 503M439 201Q439 227 422 245Q405 263 365 281L314 106Q372 108 405.50 134Q439 160 439 201Z"  horiz-adv-x="631" vert-adv-y="1000"  />

      
      <glyph glyph-name="uni25" unicode="&#x25;" d="M62 0L399 349L737 700L846 700L509 351L171 0L62 0M236 346Q169 346 128 388Q87 430 87 497Q87 589 151 653Q206 708 280 708Q346 708 387.50 665.50Q429 623 429 557Q429 464 364 401Q309 346 236 346M189 441.50Q189 441.50 198.50 430.75Q208 420 241 420Q274 420 303 447Q345 491 345 553Q345 591 326.50 612.50Q308 634 274 634Q241 634 212 607Q170 563 170 501Q170 463 189 441.50M628-8Q562-8 520.50 34.50Q479 77 479 143Q479 236 544 299Q599 354 672 354Q739 354 780 312Q821 270 821 203Q821 111 757 47Q702-8 628-8M633 66Q668 66 695 93Q738 136 738 199Q738 237 719 258.50Q700 280 667 280Q632 280 605 253Q562 210 562 147Q562 109 581 87.50Q600 66 633 66Z"  horiz-adv-x="862" vert-adv-y="1000"  />

      
      <glyph glyph-name="uni26" unicode="&#x26;" d="M585 352L662 300Q604 210 547 148L623 44L532-14L468 75Q361-10 241-10Q146-10 85.50 39.50Q25 89 25 174Q25 247 77.50 306.50Q130 366 237 398Q198 466 198 523Q198 601 257.50 656.50Q317 712 409 712Q491 712 542 667Q593 622 593 551Q593 420 393 357L491 224Q542 280 585 352M255 92Q332 92 411 152L287 326Q214 302 178.50 264Q143 226 143 182Q143 141 172.50 116.50Q202 92 255 92M307 522Q307 479 341 428Q420 453 451 480.50Q482 508 482 544Q482 573 461 594Q440 615 403 615Q362 615 334.50 587.50Q307 560 307 522Z"  horiz-adv-x="694" vert-adv-y="1000"  />

      
      <glyph glyph-name="uni27" unicode="&#x27;" d="M100 401L186 700L324 700L323 695L164 401L100 401Z"  horiz-adv-x="269" vert-adv-y="1000"  />

      
      <glyph glyph-name="uni28" unicode="&#x28;" d="M251-142Q70 7 70 212Q70 408 218 558Q316 655 466 715L510 625Q395 573 318 496Q194 372 194 216Q194 71 326-66L251-142Z"  horiz-adv-x="441" vert-adv-y="1000"  />

      
      <glyph glyph-name="uni29" unicode="&#x29;" d="M201 717Q382 568 382 363Q382 167 234 17Q136-80-14-140L-58-50Q57 2 134 79Q258 203 258 359Q258 504 126 641L201 717Z"  horiz-adv-x="441" vert-adv-y="1000"  />

      
      <glyph glyph-name="uni2a" unicode="&#x2a;" d="M276 379L208 396L253 511L137 466L118 535L242 553L145 631L195 681L272 584L291 706L358 688L313 573L429 618L448 550L324 531L422 454L371 403L294 500L276 379Z"  horiz-adv-x="430" vert-adv-y="1000"  />

      
      <glyph glyph-name="uni2b" unicode="&#x2b;" d="M218 106L269 297L77 297L107 408L298 408L349 598L464 598L413 408L605 408L575 297L383 297L332 106L218 106Z"  horiz-adv-x="634" vert-adv-y="1000"  />

      
      <glyph glyph-name="uni2c" unicode="&#x2c;" d="M-45-145L-54-94Q47-80 61 0L9 0L46 138L179 138L148 21Q126-63 80-101Q34-139-45-145Z"  horiz-adv-x="293" vert-adv-y="1000"  />

      
      <glyph glyph-name="uni2d" unicode="&#x2d;" d="M53 247L85 366L381 366L349 247L53 247Z"  horiz-adv-x="411" vert-adv-y="1000"  />

      
      <glyph glyph-name="uni2e" unicode="&#x2e;" d="M9 0L46 138L179 138L142 0L9 0Z"  horiz-adv-x="293" vert-adv-y="1000"  />

      
      <glyph glyph-name="uni2f" unicode="&#x2f;" d="M-131-128L561 798L677 798L-15-128L-131-128Z"  horiz-adv-x="521" vert-adv-y="1000"  />

      
      <glyph glyph-name="uni30" unicode="&#x30;" d="M439 712Q559 712 629.50 634.50Q700 557 700 430Q700 335 664 243.50Q628 152 564 88Q464-12 330-12Q210-12 139 65.50Q68 143 68 270Q68 365 104 456.50Q140 548 204 612Q304 712 439 712M339 99Q410 99 468 159Q517 207 545 281.50Q573 356 573 430Q573 509 535 555Q497 601 429 601Q358 601 300 541Q252 493 223.50 418.50Q195 344 195 270Q195 191 233 145Q271 99 339 99Z"  horiz-adv-x="724" vert-adv-y="1000"  />

      
      <glyph glyph-name="uni31" unicode="&#x31;" d="M94 0L248 573L115 539L113 645L320 705L405 705L216 0L94 0Z"  horiz-adv-x="404" vert-adv-y="1000"  />

      
      <glyph glyph-name="uni32" unicode="&#x32;" d="M-27 0L0 100L371 368Q427 409 453 442.50Q479 476 479 513Q479 553 450.50 576Q422 599 372 599Q288 599 195 508L119 587Q230 710 378 710Q480 710 543 658.50Q606 607 606 525Q606 462 569.50 410Q533 358 447 296L189 108L516 108L487 0L-27 0Z"  horiz-adv-x="606" vert-adv-y="1000"  />

      
      <glyph glyph-name="uni33" unicode="&#x33;" d="M244-12Q65-12-9 122L84 188Q143 99 250 99Q317 99 362 134.50Q407 170 407 220Q407 268 366 293Q325 318 252 318L214 318L206 393L444 593L146 593L175 700L641 700L616 608L366 404Q442 391 487 348Q532 305 532 231Q532 139 466 73Q381-12 244-12Z"  horiz-adv-x="605" vert-adv-y="1000"  />

      
      <glyph glyph-name="uni34" unicode="&#x34;" d="M331 0L373 157L33 157L20 249L518 705L637 705L517 258L617 258L590 157L490 157L448 0L331 0M177 258L400 258L475 537L177 258Z"  horiz-adv-x="655" vert-adv-y="1000"  />

      
      <glyph glyph-name="uni35" unicode="&#x35;" d="M251-11Q173-11 104 24.50Q35 60-2 114L87 186Q158 100 261 100Q334 100 381 140Q428 180 428 235Q428 283 390.50 313Q353 343 286 343Q232 343 172 314L108 366L217 700L628 700L598 591L298 591L245 430Q289 446 335 446Q434 446 494.50 392Q555 338 555 247Q555 148 482 77Q394-11 251-11Z"  horiz-adv-x="607" vert-adv-y="1000"  />

      
      <glyph glyph-name="uni36" unicode="&#x36;" d="M314-12Q201-12 137 52Q66 123 66 248Q66 353 102.50 448.50Q139 544 204 609Q309 712 449 712Q577 712 662 627L588 540Q524 601 439 601Q352 601 290 538Q221 469 203 372Q230 404 278 426.50Q326 449 381 449Q475 449 536 394.50Q597 340 597 251Q597 148 520 73Q437-12 314-12M315 93Q385 93 431 139Q472 180 472 237Q472 285 438.50 316.50Q405 348 347 348Q274 348 226 302Q186 260 186 208Q186 159 218 129Q254 93 315 93Z"  horiz-adv-x="642" vert-adv-y="1000"  />

      
      <glyph glyph-name="uni37" unicode="&#x37;" d="M30 0L476 592L130 592L159 700L651 700L626 607L175 0L30 0Z"  horiz-adv-x="600" vert-adv-y="1000"  />

      
      <glyph glyph-name="uni38" unicode="&#x38;" d="M299-10Q187-10 110.50 45Q34 100 34 184Q34 261 86 310Q138 359 224 377Q182 397 157 434Q132 471 132 516Q132 593 203 651.50Q274 710 391 710Q498 710 566 658Q634 606 634 525Q634 458 590 411Q546 364 473 348Q523 329 554 289.50Q585 250 585 196Q585 111 505.50 50.50Q426-10 299-10M305 91Q374 91 418.50 122Q463 153 464 202Q464 246 422.50 276Q381 306 314 306Q244 306 200 273.50Q156 241 156 194Q155 149 196.50 120Q238 91 305 91M377 405Q439 405 478 436Q517 467 517 511Q518 553 482.50 580.50Q447 608 386 608Q327 608 288 578Q249 548 248 503Q247 461 283 433Q319 405 377 405Z"  horiz-adv-x="656" vert-adv-y="1000"  />

      
      <glyph glyph-name="uni39" unicode="&#x39;" d="M243-12Q114-12 19 80L93 168Q167 99 250 99Q336 99 399 163Q463 226 484 321Q456 289 409 266.50Q362 244 306 244Q211 244 150.50 298.50Q90 353 90 445Q90 551 167 628Q251 712 374 712Q488 712 551 649Q622 578 622 442Q622 342 585 249.50Q548 157 482 91Q379-12 243-12M343 345Q414 345 460 391Q502 433 502 491Q502 539 470 571Q434 607 373 607Q303 607 258 562Q215 519 215 459Q215 408 249 376.50Q283 345 343 345Z"  horiz-adv-x="642" vert-adv-y="1000"  />

      
      <glyph glyph-name="uni3a" unicode="&#x3a;" d="M11 0L48 138L181 138L144 0L11 0M116 391L153 528L286 528L249 391L116 391Z"  horiz-adv-x="296" vert-adv-y="1000"  />

      
      <glyph glyph-name="uni3b" unicode="&#x3b;" d="M-44-145L-53-94Q48-80 62 0L11 0L48 138L181 138L150 21Q127-63 81-101Q35-139-44-145M116 391L153 528L286 528L249 391L116 391Z"  horiz-adv-x="296" vert-adv-y="1000"  />

      
      <glyph glyph-name="uni3c" unicode="&#x3c;" d="M494 77L75 298L104 406L642 627L608 506L209 347L523 187L494 77Z"  horiz-adv-x="634" vert-adv-y="1000"  />

      
      <glyph glyph-name="uni3d" unicode="&#x3d;" d="M59 171L89 283L557 283L527 171L59 171M126 421L156 533L624 533L594 421L126 421Z"  horiz-adv-x="634" vert-adv-y="1000"  />

      
      <glyph glyph-name="uni3e" unicode="&#x3e;" d="M37 77L70 198L470 357L155 517L185 627L604 406L575 298L37 77Z"  horiz-adv-x="634" vert-adv-y="1000"  />

      
      <glyph glyph-name="uni3f" unicode="&#x3f;" d="M182 222L205 384L211 389Q313 396 369.50 428.50Q426 461 426 515Q426 554 399 575.50Q372 597 323 597Q237 597 164 529L98 610Q195 709 339 709Q438 709 496.50 657Q555 605 555 529Q555 439 487 382.50Q419 326 296 308L263 222L182 222M99 0L136 138L269 138L232 0L99 0Z"  horiz-adv-x="541" vert-adv-y="1000"  />

      
      <glyph glyph-name="uni40" unicode="&#x40;" d="M476-157Q290-157 174-48.50Q58 60 58 232Q58 327 96.50 416Q135 505 200 570Q265 635 356 674.50Q447 714 547 714Q729 714 838 613.50Q947 513 947 367Q947 224 879 145.50Q811 67 720 67Q669 67 634 89.50Q599 112 586 151Q510 66 418 66Q350 66 304 111Q258 156 258 234Q258 348 334.50 427.50Q411 507 507 507Q603 507 645 426L667 498L759 473L684 235Q673 196 673 179Q673 147 692 129Q711 111 743 111Q803 111 855 180.50Q907 250 907 367Q907 498 808.50 587.50Q710 677 547 677Q424 677 320 615.50Q216 554 157 451.50Q98 349 98 232Q98 76 203-22Q308-120 476-120Q580-120 681-75L697-108Q592-157 476-157M456 151Q516 151 565.50 203.50Q615 256 615 324Q615 368 587.50 394.50Q560 421 515 421Q456 421 410 369.50Q364 318 364 247Q364 202 389 176.50Q414 151 456 151Z"  horiz-adv-x="980" vert-adv-y="1000"  />

      
      <glyph glyph-name="uni41" unicode="&#x41;" d="M-50 0L447 705L565 705L684 0L558 0L531 169L200 169L84 0L-50 0M275 278L516 278L471 561L275 278Z"  horiz-adv-x="763" vert-adv-y="1000"  />

      
      <glyph glyph-name="uni42" unicode="&#x42;" d="M19 0L207 700L475 700Q586 700 645 653.50Q704 607 704 532Q704 462 660 416Q616 370 544 354Q653 312 653 211Q653 116 573.50 58Q494 0 355 0L19 0M169 109L372 109Q445 109 487.50 138Q530 167 530 218Q530 257 497 279Q464 301 407 301L220 301L169 109M249 405L422 405Q496 405 538 433Q580 461 580 512Q580 591 464 591L298 591L249 405Z"  horiz-adv-x="717" vert-adv-y="1000"  />

      
      <glyph glyph-name="uni43" unicode="&#x43;" d="M391-12Q253-12 164 69Q75 150 75 286Q75 370 108.50 448.50Q142 527 202 587Q327 712 498 712Q685 712 771 562L669 493Q635 545 592 572Q549 599 484 599Q381 599 297 517Q203 423 203 291Q203 205 256 153.50Q309 102 394 102Q449 102 491.50 121.50Q534 141 579 181L660 99Q546-12 391-12Z"  horiz-adv-x="730" vert-adv-y="1000"  />

      
      <glyph glyph-name="uni44" unicode="&#x44;" d="M19 0L207 700L397 700Q580 700 671 609Q747 533 747 405Q747 244 634 131Q503 0 270 0L19 0M570 529Q511 588 388 588L301 588L172 112L285 112Q446 112 541 207Q619 285 619 400Q619 480 570 529Z"  horiz-adv-x="775" vert-adv-y="1000"  />

      
      <glyph glyph-name="uni45" unicode="&#x45;" d="M19 0L207 700L721 700L691 590L300 590L251 407L598 407L568 298L222 298L171 110L568 110L538 0L19 0Z"  horiz-adv-x="660" vert-adv-y="1000"  />

      
      <glyph glyph-name="uni46" unicode="&#x46;" d="M19 0L207 700L728 700L698 588L300 588L249 397L602 397L572 285L219 285L143 0L19 0Z"  horiz-adv-x="661" vert-adv-y="1000"  />

      
      <glyph glyph-name="uni47" unicode="&#x47;" d="M395-12Q263-12 168.50 67.50Q74 147 74 289Q74 371 107.50 448Q141 525 201 585Q328 712 508 712Q697 712 785 588L693 510Q619 599 499 599Q380 599 294 513Q203 422 203 293Q203 203 259 152Q315 101 403 101Q486 101 551 137L594 284L415 284L444 391L742 391L647 56Q532-12 395-12Z"  horiz-adv-x="782" vert-adv-y="1000"  />

      
      <glyph glyph-name="uni48" unicode="&#x48;" d="M19 0L207 700L331 700L253 409L582 409L660 700L783 700L595 0L472 0L551 295L222 295L143 0L19 0Z"  horiz-adv-x="756" vert-adv-y="1000"  />

      
      <glyph glyph-name="uni49" unicode="&#x49;" d="M26 0L214 700L338 700L150 0L26 0Z"  horiz-adv-x="317" vert-adv-y="1000"  />

      
      <glyph glyph-name="uni4a" unicode="&#x4a;" d="M190-10Q118-10 61 24.50Q4 59-29 120L61 192Q112 104 195 104Q256 104 299 147Q337 183 365 293L474 700L601 700L484 265Q463 188 441.50 143Q420 98 385 62Q312-10 190-10Z"  horiz-adv-x="567" vert-adv-y="1000"  />

      
      <glyph glyph-name="uni4b" unicode="&#x4b;" d="M19 0L207 700L331 700L236 347L646 700L815 700L459 401L639 0L502 0L361 328L192 186L143 0L19 0Z"  horiz-adv-x="723" vert-adv-y="1000"  />

      
      <glyph glyph-name="uni4c" unicode="&#x4c;" d="M19 0L207 700L331 700L173 112L541 112L510 0L19 0Z"  horiz-adv-x="618" vert-adv-y="1000"  />

      
      <glyph glyph-name="uni4d" unicode="&#x4d;" d="M19 0L207 700L332 700L454 369L754 700L895 700L707 0L582 0L717 502L409 172L405 172L276 500L142 0L19 0Z"  horiz-adv-x="868" vert-adv-y="1000"  />

      
      <glyph glyph-name="uni4e" unicode="&#x4e;" d="M19 0L207 700L321 700L558 205L692 700L813 700L625 0L522 0L277 509L141 0L19 0Z"  horiz-adv-x="786" vert-adv-y="1000"  />

      
      <glyph glyph-name="uni4f" unicode="&#x4f;" d="M491 712Q631 712 718.50 624.50Q806 537 806 405Q806 323 773 245.50Q740 168 681 109Q562-12 390-12Q251-12 163.50 75.50Q76 163 76 295Q76 377 109 455Q142 533 201 591Q320 712 491 712M403 101Q508 101 587 180Q630 223 654 281Q678 339 678 398Q678 486 624.50 542.50Q571 599 479 599Q374 599 295 520Q252 477 228 419Q204 361 204 302Q204 213 257.50 157Q311 101 403 101Z"  horiz-adv-x="836" vert-adv-y="1000"  />

      
      <glyph glyph-name="uni50" unicode="&#x50;" d="M19 0L207 700L428 700Q572 700 640 631Q692 579 692 493Q692 391 624 321Q528 227 350 227L204 227L143 0L19 0M537 552Q501 588 424 588L300 588L233 336L357 336Q471 336 527 390Q564 429 564 483Q564 525 537 552Z"  horiz-adv-x="674" vert-adv-y="1000"  />

      
      <glyph glyph-name="uni51" unicode="&#x51;" d="M491 712Q631 712 718.50 624.50Q806 537 806 405Q806 323 773 245.50Q740 168 681 109L679 107L741 30L640-38L588 38Q497-12 390-12Q251-12 163.50 75.50Q76 163 76 295Q76 377 109 455Q142 533 201 591Q320 712 491 712M403 101Q466 101 521 131L423 257L524 327L608 203Q678 290 678 398Q678 486 624.50 542.50Q571 599 479 599Q374 599 295 520Q252 477 228 419Q204 361 204 302Q204 213 257.50 157Q311 101 403 101Z"  horiz-adv-x="836" vert-adv-y="1000"  />

      
      <glyph glyph-name="uni52" unicode="&#x52;" d="M474 0L354 244L208 244L143 0L19 0L207 700L461 700Q606 700 673 632Q724 581 724 500Q724 402 660 340Q600 280 485 256L615 0L474 0M238 353L396 353Q510 353 561 406Q596 441 596 490Q596 527 571 554Q535 588 454 588L301 588L238 353Z"  horiz-adv-x="723" vert-adv-y="1000"  />

      
      <glyph glyph-name="uni53" unicode="&#x53;" d="M296-10Q98-10-1 121L92 198Q179 99 303 99Q362 99 400 126Q438 153 438 196Q438 228 410.50 250.50Q383 273 309 302Q219 338 174 380Q129 422 129 490Q129 574 187 632Q265 710 398 710Q560 710 655 605L569 521Q487 601 389 601Q330 601 294.50 573.50Q259 546 259 509Q259 476 287.50 454.50Q316 433 395 402Q483 368 526 325.50Q569 283 569 214Q569 130 508 69Q429-10 296-10Z"  horiz-adv-x="637" vert-adv-y="1000"  />

      
      <glyph glyph-name="uni54" unicode="&#x54;" d="M174 0L332 586L109 586L140 700L708 700L677 586L455 586L297 0L174 0Z"  horiz-adv-x="619" vert-adv-y="1000"  />

      
      <glyph glyph-name="uni55" unicode="&#x55;" d="M345-11Q223-11 154.50 51Q86 113 86 220Q86 276 102 331L200 700L324 700L220 314Q210 276 210 237Q210 177 248 140Q286 103 357 103Q436 103 488 155Q541 208 565 302L672 700L795 700L683 283Q647 149 574 76Q487-11 345-11Z"  horiz-adv-x="762" vert-adv-y="1000"  />

      
      <glyph glyph-name="uni56" unicode="&#x56;" d="M229-5L130 700L262 700L325 165L676 700L815 700L338-5L229-5Z"  horiz-adv-x="721" vert-adv-y="1000"  />

      
      <glyph glyph-name="uni57" unicode="&#x57;" d="M191-5L136 700L264 700L293 181L602 702L706 702L740 181L1046 700L1186 700L753-5L640-5L604 492L302-5L191-5Z"  horiz-adv-x="1098" vert-adv-y="1000"  />

      
      <glyph glyph-name="uni58" unicode="&#x58;" d="M-43 0L304 363L143 700L281 700L393 450L623 700L781 700L445 348L611 0L473 0L355 261L115 0L-43 0Z"  horiz-adv-x="698" vert-adv-y="1000"  />

      
      <glyph glyph-name="uni59" unicode="&#x59;" d="M189 0L263 278L107 700L244 700L349 384L626 700L778 700L383 265L312 0L189 0Z"  horiz-adv-x="655" vert-adv-y="1000"  />

      
      <glyph glyph-name="uni5a" unicode="&#x5a;" d="M-19 0L5 91L540 591L153 591L183 700L740 700L715 609L180 109L584 109L555 0L-19 0Z"  horiz-adv-x="681" vert-adv-y="1000"  />

      
      <glyph glyph-name="uni5b" unicode="&#x5b;" d="M-2-130L221 700L529 700L503 605L311 605L139-35L331-35L306-130L-2-130Z"  horiz-adv-x="455" vert-adv-y="1000"  />

      
      <glyph glyph-name="uni5c" unicode="&#x5c;" d="M339-128L127 798L228 798L440-128L339-128Z"  horiz-adv-x="521" vert-adv-y="1000"  />

      
      <glyph glyph-name="uni5d" unicode="&#x5d;" d="M467 700L244-130L-64-130L-38-35L154-35L326 605L134 605L159 700L467 700Z"  horiz-adv-x="455" vert-adv-y="1000"  />

      
      <glyph glyph-name="uni5e" unicode="&#x5e;" d="M98 493L305 701L391 701L486 493L402 493L335 625L198 493L98 493Z"  horiz-adv-x="500" vert-adv-y="1000"  />

      
      <glyph glyph-name="uni5f" unicode="&#x5f;" d="M-115-160L-89-66L515-66L490-160L-115-160Z"  horiz-adv-x="600" vert-adv-y="1000"  />

      
      <glyph glyph-name="uni60" unicode="&#x60;" d="M353 595L262 710L375 759L436 595L353 595Z"  horiz-adv-x="500" vert-adv-y="1000"  />

      
      <glyph glyph-name="uni61" unicode="&#x61;" d="M171-11Q102-11 57 29Q12 69 12 133Q12 208 62 260Q128 324 243 324Q320 324 407 298L410 307Q416 333 416 351Q416 431 299 431Q227 431 155 402L135 500Q225 535 323 535Q426 535 480 492.50Q534 450 534 372Q534 343 523 295L444 0L327 0L345 70Q272-11 171-11M219 76Q274 76 320.50 112.50Q367 149 382 202L389 226Q327 246 261 246Q196 246 159 211Q133 185 133 147Q133 115 156.50 95.50Q180 76 219 76Z"  horiz-adv-x="583" vert-adv-y="1000"  />

      
      <glyph glyph-name="uni62" unicode="&#x62;" d="M330-11Q208-11 151 94L126 0L5 0L200 730L321 730L248 458Q329 539 417 539Q507 539 565 477.50Q623 416 623 313Q623 171 527 75Q441-11 330-11M315 93Q384 93 433 144Q497 206 497 305Q497 365 463 400Q429 435 372 435Q302 435 247 380Q182 315 182 226Q182 168 219.50 130.50Q257 93 315 93Z"  horiz-adv-x="668" vert-adv-y="1000"  />

      
      <glyph glyph-name="uni63" unicode="&#x63;" d="M286-12Q182-12 113 52.50Q44 117 44 223Q44 353 137 446Q230 539 356 539Q502 539 570 419L476 355Q452 393 422.50 413.50Q393 434 346 434Q282 434 230 382Q165 315 165 224Q165 164 201 128Q237 92 290 92Q358 92 425 151L489 72Q397-12 286-12Z"  horiz-adv-x="561" vert-adv-y="1000"  />

      
      <glyph glyph-name="uni64" unicode="&#x64;" d="M400 0L419 70Q340-11 250-11Q160-11 102 50.50Q44 112 44 215Q44 357 140 453Q226 539 338 539Q459 539 516 434L595 730L716 730L521 0L400 0M296 93Q367 93 420 148Q486 214 486 302Q486 360 448.50 397.50Q411 435 352 435Q285 435 234 384Q170 320 170 223Q170 163 204.50 128Q239 93 296 93Z"  horiz-adv-x="668" vert-adv-y="1000"  />

      
      <glyph glyph-name="uni65" unicode="&#x65;" d="M543 222L159 222Q159 160 194.50 123.50Q230 87 296 87Q364 87 431 138L489 61Q402-12 284-12Q174-12 109 50.50Q44 113 44 219Q44 282 69.50 342.50Q95 403 141 449Q231 539 355 539Q454 539 510 481Q566 423 566 334Q566 277 543 222M224 388Q189 353 172 302L446 302Q451 317 451 339Q451 383 424.50 411.50Q398 440 346 440Q276 440 224 388Z"  horiz-adv-x="600" vert-adv-y="1000"  />

      
      <glyph glyph-name="uni66" unicode="&#x66;" d="M33 0L147 424L80 424L108 528L174 528L184 565Q202 640 245 683Q297 735 386 735Q447 735 490 717L463 616Q425 632 389 632Q322 632 302 558L294 528L440 528L412 424L268 424L154 0L33 0Z"  horiz-adv-x="396" vert-adv-y="1000"  />

      
      <glyph glyph-name="uni67" unicode="&#x67;" d="M246-162Q83-162-25-81L42 3Q131-64 239-64Q321-64 368-17Q403 18 423 90L432 122Q346 42 251 42Q168 42 108 93.50Q48 145 48 233Q48 361 140 453Q226 539 340 539Q408 539 448 510Q488 481 514 433L539 528L660 528L544 92Q525 21 505-18.50Q485-58 454-88Q380-162 246-162M296 141Q371 141 426 196Q480 250 480 318Q480 369 445 402.50Q410 436 352 436Q283 436 229 384Q174 329 174 254Q174 200 208.50 170.50Q243 141 296 141Z"  horiz-adv-x="666" vert-adv-y="1000"  />

      
      <glyph glyph-name="uni68" unicode="&#x68;" d="M5 0L200 730L321 730L249 461Q329 539 410 539Q483 539 526.50 496.50Q570 454 570 381Q570 350 554 288L478 0L357 0L435 293Q443 320 443 346Q443 386 419 407.50Q395 429 351 429Q301 429 261.50 392.50Q222 356 206 297L127 0L5 0Z"  horiz-adv-x="618" vert-adv-y="1000"  />

      
      <glyph glyph-name="uni69" unicode="&#x69;" d="M12 0L154 528L275 528L133 0L12 0M171 609L202 724L333 724L301 609L171 609Z"  horiz-adv-x="286" vert-adv-y="1000"  />

      
      <glyph glyph-name="uni6a" unicode="&#x6a;" d="M-48-163Q-90-163-125-154L-99-58Q-73-64-59-64Q-34-64-14.50-45.50Q5-27 14 8L154 528L275 528L131-7Q90-163-48-163M171 609L202 724L332 724L301 609L171 609Z"  horiz-adv-x="285" vert-adv-y="1000"  />

      
      <glyph glyph-name="uni6b" unicode="&#x6b;" d="M5 0L201 730L323 730L208 303L478 528L638 528L372 314L499 0L363 0L269 235L167 153L127 0L5 0Z"  horiz-adv-x="582" vert-adv-y="1000"  />

      
      <glyph glyph-name="uni6c" unicode="&#x6c;" d="M12 0L208 730L329 730L133 0L12 0Z"  horiz-adv-x="286" vert-adv-y="1000"  />

      
      <glyph glyph-name="uni6d" unicode="&#x6d;" d="M5 0L146 528L267 528L249 461Q327 539 404 539Q460 539 497 510Q534 481 548 433Q627 539 746 539Q817 539 860 496Q903 453 903 381Q903 354 886 288L809 0L688 0L767 293Q774 323 774 346Q774 386 751.50 407.50Q729 429 688 429Q639 429 601 392.50Q563 356 548 297L468 0L347 0L426 293Q433 323 433 346Q433 386 410.50 407.50Q388 429 347 429Q298 429 260 393Q222 357 206 297L127 0L5 0Z"  horiz-adv-x="950" vert-adv-y="1000"  />

      
      <glyph glyph-name="uni6e" unicode="&#x6e;" d="M5 0L146 528L267 528L249 461Q329 539 410 539Q483 539 526.50 496.50Q570 454 570 381Q570 350 554 288L478 0L357 0L435 293Q443 320 443 346Q443 386 419 407.50Q395 429 351 429Q301 429 261.50 392.50Q222 356 206 297L127 0L5 0Z"  horiz-adv-x="617" vert-adv-y="1000"  />

      
      <glyph glyph-name="uni6f" unicode="&#x6f;" d="M353 539Q465 539 533 471Q601 403 601 297Q601 171 508 80Q418-12 293-12Q181-12 113 55.50Q45 123 45 229Q45 354 138 447Q228 539 353 539M300 93Q368 93 417 144Q447 173 464 214Q481 255 481 294Q481 360 444 397Q407 434 346 434Q282 434 229 383Q199 354 182 313Q165 272 165 233Q165 167 202 130Q239 93 300 93Z"  horiz-adv-x="646" vert-adv-y="1000"  />

      
      <glyph glyph-name="uni70" unicode="&#x70;" d="M330-11Q208-11 151 94L84-160L-38-160L146 528L267 528L248 458Q329 539 417 539Q507 539 565 477.50Q623 416 623 313Q623 171 527 75Q441-11 330-11M315 93Q384 93 433 144Q497 206 497 305Q497 365 463 400Q429 435 372 435Q302 435 247 380Q182 315 182 226Q182 168 219.50 130.50Q257 93 315 93Z"  horiz-adv-x="668" vert-adv-y="1000"  />

      
      <glyph glyph-name="uni71" unicode="&#x71;" d="M419 70Q340-11 250-11Q160-11 102 50.50Q44 112 44 215Q44 357 140 453Q226 539 338 539Q459 539 516 434L541 528L662 528L479-160L358-160L419 70M296 93Q367 93 420 148Q486 214 486 302Q486 360 448.50 397.50Q411 435 352 435Q285 435 234 384Q170 320 170 223Q170 163 204.50 128Q239 93 296 93Z"  horiz-adv-x="668" vert-adv-y="1000"  />

      
      <glyph glyph-name="uni72" unicode="&#x72;" d="M5 0L146 528L267 528L236 409Q331 546 457 538L423 410L416 410Q333 410 270 356Q207 302 179 196L127 0L5 0Z"  horiz-adv-x="412" vert-adv-y="1000"  />

      
      <glyph glyph-name="uni73" unicode="&#x73;" d="M217-12Q154-12 91 12.50Q28 37-17 83L56 157Q130 83 227 83Q263 83 287 100Q311 117 311 146Q311 165 293 180Q275 195 234 212Q156 244 119 275.50Q82 307 82 363Q82 439 139 489Q196 539 289 539Q347 539 402 517Q457 495 492 464L425 386Q352 444 280 444Q242 444 220.50 427Q199 410 199 384Q199 364 218 349Q237 334 283 315Q354 285 391 252.50Q428 220 428 167Q428 86 368.50 37Q309-12 217-12Z"  horiz-adv-x="499" vert-adv-y="1000"  />

      
      <glyph glyph-name="uni74" unicode="&#x74;" d="M196-9Q133-9 98.50 19.50Q64 48 64 95Q64 126 73 156L144 424L77 424L105 528L172 528L211 673L332 673L293 528L434 528L406 424L265 424L197 169Q193 149 193 139Q193 98 246 98Q283 98 323 115L295 10Q253-9 196-9Z"  horiz-adv-x="409" vert-adv-y="1000"  />

      
      <glyph glyph-name="uni75" unicode="&#x75;" d="M209-11Q135-11 91.50 31.50Q48 74 48 147Q48 178 64 240L141 528L262 528L183 235Q176 207 176 182Q176 142 200 120.50Q224 99 267 99Q317 99 356.50 135.50Q396 172 412 231L492 528L613 528L472 0L351 0L369 68Q290-11 209-11Z"  horiz-adv-x="618" vert-adv-y="1000"  />

      
      <glyph glyph-name="uni76" unicode="&#x76;" d="M159-4L86 528L211 528L249 142L492 528L624 528L268-4L159-4Z"  horiz-adv-x="582" vert-adv-y="1000"  />

      
      <glyph glyph-name="uni77" unicode="&#x77;" d="M121-4L92 528L215 528L225 168L439 530L542 530L562 167L768 528L890 528L574-4L465-4L444 357L228-4L121-4Z"  horiz-adv-x="853" vert-adv-y="1000"  />

      
      <glyph glyph-name="uni78" unicode="&#x78;" d="M233 528L308 359L464 528L610 528L354 264L479 0L349 0L270 180L103 0L-44 0L225 275L103 528L233 528Z"  horiz-adv-x="572" vert-adv-y="1000"  />

      
      <glyph glyph-name="uni79" unicode="&#x79;" d="M168-2L91 528L215 528L259 137L492 528L624 528L283-15Q230-95 180-129Q130-163 66-163Q-2-163-54-127L10-38Q42-61 78-61Q103-61 123-48Q143-35 168-2Z"  horiz-adv-x="585" vert-adv-y="1000"  />

      
      <glyph glyph-name="uni7a" unicode="&#x7a;" d="M-24 0L-1 83L387 429L102 429L128 528L573 528L551 445L162 99L461 99L435 0L-24 0Z"  horiz-adv-x="554" vert-adv-y="1000"  />

      
      <glyph glyph-name="uni7b" unicode="&#x7b;" d="M309-141Q215-122 173.50-83Q132-44 132 16Q132 50 153 112Q166 153 166 179Q166 211 149 226Q132 241 81 241L50 241L75 333L105 333Q176 333 207 364Q239 395 255 492Q273 598 320 646Q386 712 534 715L540 633Q444 624 406 586Q375 555 362 469Q343 359 308 323Q271 286 201 278Q240 271 261 248Q282 225 282 191Q282 164 266 120Q248 62 248 36Q248-1 269.50-24Q291-47 348-67L309-141Z"  horiz-adv-x="487" vert-adv-y="1000"  />

      
      <glyph glyph-name="uni7c" unicode="&#x7c;" d="M12-128L260 798L357 798L108-128L12-128Z"  horiz-adv-x="331" vert-adv-y="1000"  />

      
      <glyph glyph-name="uni7d" unicode="&#x7d;" d="M190 715Q284 696 325.50 657Q367 618 367 558Q367 524 346 462Q333 421 333 395Q333 363 350 348Q367 333 418 333L449 333L424 241L394 241Q323 241 292 210Q260 179 244 82Q226-24 179-72Q113-138-35-141L-41-59Q55-50 93-12Q124 19 137 105Q156 215 191 251Q228 288 298 296Q259 303 238 326Q217 349 217 383Q217 410 233 454Q251 512 251 538Q251 575 229.50 598Q208 621 151 641L190 715Z"  horiz-adv-x="487" vert-adv-y="1000"  />

      
      <glyph glyph-name="uni7e" unicode="&#x7e;" d="M132 228L65 260Q121 382 203 382Q240 382 278 351Q314 324 330 324Q363 324 397 383L464 351Q408 229 326 229Q289 229 250 260Q214 287 199 287Q166 287 132 228Z"  horiz-adv-x="495" vert-adv-y="1000"  />

      
      <glyph glyph-name="unia1" unicode="&#xa1;" d="M242 478L161 35L151 0L9 0L19 35L175 478L242 478M334 700L297 562L164 562L201 700L334 700Z"  horiz-adv-x="303" vert-adv-y="1000"  />

      
      <glyph glyph-name="unia2" unicode="&#xa2;" d="M438 706L526 706L489 612Q568 583 608 509L516 446Q485 494 445 512L317 184L325 184Q401 184 470 240L536 159Q447 79 328 79Q304 79 281 82L247-6L159-6L202 104Q139 132 104 188.50Q69 245 69 319Q69 449 159 539Q250 630 382 630Q386 630 395 629.50Q404 629 408 629L438 706M189 321Q189 244 246 207L371 525Q303 522 250 471Q189 410 189 321Z"  horiz-adv-x="578" vert-adv-y="1000"  />

      
      <glyph glyph-name="unia3" unicode="&#xa3;" d="M-10 0L11 78L97 102L144 278L65 278L93 382L172 382L200 487Q226 585 280 639Q350 709 460 709Q601 709 665 592L566 526Q544 561 517.50 578.50Q491 596 451 596Q402 596 367 561Q335 529 318 466L294 382L546 382L518 278L267 278L222 107L548 107L519 0L-10 0Z"  horiz-adv-x="638" vert-adv-y="1000"  />

      
      <glyph glyph-name="unia5" unicode="&#xa5;" d="M222 0L249 102L57 102L81 191L273 191L292 264L100 264L124 353L281 353L143 700L277 700L384 406L650 700L799 700L471 353L628 353L604 264L411 264L392 191L585 191L561 102L368 102L341 0L222 0Z"  horiz-adv-x="708" vert-adv-y="1000"  />

      
      <glyph glyph-name="unia7" unicode="&#xa7;" d="M601 356Q601 296 555.50 263.50Q510 231 449 224Q495 188 495 138Q495 73 435 32Q375-9 285-9Q212-9 151 15Q90 39 54 80L130 150Q198 84 292 84Q330 84 354 98Q378 112 378 134Q378 154 353.50 169Q329 184 265 203Q169 232 123 262.50Q77 293 77 347Q77 387 102 416.50Q127 446 159 459.50Q191 473 229 478Q183 511 183 564Q183 629 243 670Q303 711 393 711Q466 711 527 687Q588 663 624 622L548 552Q480 618 386 618Q348 618 324 604Q300 590 300 568Q300 548 324.50 533Q349 518 413 499Q508 471 554.50 440.50Q601 410 601 356M192 366Q192 344 215 328.50Q238 313 292 296Q356 275 397 275Q434 275 460 293Q486 311 486 336Q486 358 463 373.50Q440 389 386 406Q322 427 281 427Q244 427 218 409Q192 391 192 366Z"  horiz-adv-x="632" vert-adv-y="1000"  />

      
      <glyph glyph-name="unia8" unicode="&#xa8;" d="M174 595L206 714L329 714L297 595L174 595M373 595L405 714L528 714L495 595L373 595Z"  horiz-adv-x="500" vert-adv-y="1000"  />

      
      <glyph glyph-name="unia9" unicode="&#xa9;" d="M414 159Q339 159 291.50 203Q244 247 244 320Q244 417 313 484Q380 551 472 551Q574 551 621 470L560 428Q524 483 465 483Q409 483 368 442Q320 394 320 324Q320 278 346.50 252.50Q373 227 416 227Q463 227 514 269L561 219Q497 159 414 159M797 394Q797 313 766 237Q735 161 678 104Q562-12 399-12Q255-12 166.50 78.50Q78 169 78 306Q78 387 109 463Q140 539 197 596Q313 712 476 712Q620 712 708.50 621.50Q797 531 797 394M117 307Q117 186 193 105Q269 24 400 24Q545 24 647 126Q758 237 758 394Q758 515 681.50 595.50Q605 676 474 676Q329 676 227 574Q117 464 117 307Z"  horiz-adv-x="830" vert-adv-y="1000"  />

      
      <glyph glyph-name="uniaa" unicode="&#xaa;" d="M189 403Q151 403 127 425Q103 447 103 481Q103 530 139.50 559Q176 588 231 588Q272 588 319 573L321 580Q325 592 325 600Q325 643 261 643Q220 643 183 628L171 684Q221 704 276 704Q333 704 363 680.50Q393 657 393 614Q393 599 387 571L343 409L274 409L285 448Q242 403 189 403M217 453Q246 453 272.50 473.50Q299 494 306 522L308 532Q271 543 243 543Q212 543 193 528Q174 513 174 489Q174 473 186 463Q198 453 217 453M53 282L69 340L328 340L313 282L53 282Z"  horiz-adv-x="390" vert-adv-y="1000"  />

      
      <glyph glyph-name="uniab" unicode="&#xab;" d="M160 36L46 254L48 262L285 486L350 425L176 246L250 77L160 36M410 36L296 254L298 262L536 486L600 425L427 246L500 77L410 36Z"  horiz-adv-x="605" vert-adv-y="1000"  />

      
      <glyph glyph-name="uniae" unicode="&#xae;" d="M282 710Q351 710 394 666Q437 622 437 557Q437 474 380 417Q323 360 245 360Q176 360 133 404Q90 448 90 513Q90 596 147 653Q204 710 282 710M247 379Q315 379 364 428Q417 481 417 555Q417 613 380 652Q343 691 280 691Q212 691 163 642Q110 589 110 515Q110 457 147 418Q184 379 247 379M227 505L213 448L168 448L216 629L286 629Q357 629 357 574Q357 524 302 510L329 448L283 448L259 505L227 505M237 541L270 541Q296 541 305 552Q312 559 312 569Q312 591 282 591L250 591L237 541Z"  horiz-adv-x="382" vert-adv-y="1000"  />

      
      <glyph glyph-name="uniaf" unicode="&#xaf;" d="M170 606L194 694L537 694L513 606L170 606Z"  horiz-adv-x="500" vert-adv-y="1000"  />

      
      <glyph glyph-name="unib0" unicode="&#xb0;" d="M272 706Q339 706 379 665.50Q419 625 419 562Q419 487 364 434Q313 381 239 381Q172 381 131.50 421Q91 461 91 524Q91 598 146 653Q199 706 272 706M243 446Q284 446 314 476Q349 511 349 559Q349 596 326.50 618.50Q304 641 267 641Q226 641 196 611Q161 576 161 528Q161 491 183.50 468.50Q206 446 243 446Z"  horiz-adv-x="421" vert-adv-y="1000"  />

      
      <glyph glyph-name="unib1" unicode="&#xb1;" d="M243 192L292 373L104 373L132 480L320 479L368 660L478 660L429 479L617 480L589 373L401 373L353 192L243 192M5 0L32 103L516 103L489 0L5 0Z"  horiz-adv-x="634" vert-adv-y="1000"  />

      
      <glyph glyph-name="unib2" unicode="&#xb2;" d="M98 421L115 483L320 631Q376 671 376 706Q376 727 360.50 740Q345 753 319 753Q270 753 218 701L173 748Q237 820 322 820Q381 820 416.50 790.50Q452 761 452 713Q452 677 431.50 647Q411 617 356 581L217 485L402 485L385 421L98 421Z"  horiz-adv-x="400" vert-adv-y="1000"  />

      
      <glyph glyph-name="unib3" unicode="&#xb3;" d="M255 411Q157 411 109 477L158 524Q200 477 255 477Q291 477 316 495.50Q341 514 341 541Q341 594 257 594L233 594L225 638L364 744L197 744L215 810L479 810L463 754L315 644Q416 630 416 548Q416 489 369.50 450Q323 411 255 411Z"  horiz-adv-x="400" vert-adv-y="1000"  />

      
      <glyph glyph-name="unib4" unicode="&#xb4;" d="M221 595L371 759L479 710L326 595L221 595Z"  horiz-adv-x="500" vert-adv-y="1000"  />

      
      <glyph glyph-name="unib6" unicode="&#xb6;" d="M281 0L341 227Q205 232 142 295Q92 345 92 431Q92 540 162 609Q251 700 436 700L592 700L404 0L281 0Z"  horiz-adv-x="565" vert-adv-y="1000"  />

      
      <glyph glyph-name="unib7" unicode="&#xb7;" d="M69 238L106 375L240 375L203 238L69 238Z"  horiz-adv-x="293" vert-adv-y="1000"  />

      
      <glyph glyph-name="unib8" unicode="&#xb8;" d="M145-166L52-121L176 10L267 10L145-166Z"  horiz-adv-x="500" vert-adv-y="1000"  />

      
      <glyph glyph-name="unib9" unicode="&#xb9;" d="M192 421L276 735L189 706L184 769L314 815L369 815L264 421L192 421Z"  horiz-adv-x="325" vert-adv-y="1000"  />

      
      <glyph glyph-name="uniba" unicode="&#xba;" d="M54 282L69 340L344 340L329 282L54 282M177 538Q177 504 197 483Q217 462 249 462Q285 462 313 490Q345 522 345 568Q345 602 325 623Q305 644 273 644Q238 644 209 617Q177 583 177 538M415 571Q415 501 363 451Q315 401 246 401Q183 401 145 438.50Q107 476 107 535Q107 604 159 656Q208 705 276 705Q339 705 377 667.50Q415 630 415 571Z"  horiz-adv-x="398" vert-adv-y="1000"  />

      
      <glyph glyph-name="unibb" unicode="&#xbb;" d="M442 485L556 267L554 259L317 35L252 96L426 275L352 444L442 485M192 485L306 267L304 259L66 35L2 96L175 275L102 444L192 485Z"  horiz-adv-x="605" vert-adv-y="1000"  />

      
      <glyph glyph-name="unibc" unicode="&#xbc;" d="M572-1L595 84L406 84L416 153L667 395L746 395L678 143L731 143L715 84L662 84L639-1L572-1M31 0L378 364L692 700L769 700L422 336L108 0L31 0M139 311L223 626L137 596L131 659L261 706L316 706L211 311L139 311M483 142L611 142L656 310L483 142Z"  horiz-adv-x="825" vert-adv-y="1000"  />

      
      <glyph glyph-name="unibd" unicode="&#xbd;" d="M397 0L414 62L619 210Q675 250 675 285Q675 306 659.50 319Q644 332 618 332Q569 332 517 280L472 327Q536 399 621 399Q680 399 715.50 369.50Q751 340 751 292Q751 256 730.50 226Q710 196 655 160L516 64L701 64L684 0L397 0M21 0L368 364L682 700L759 700L412 336L98 0L21 0M139 311L223 626L137 596L131 659L261 706L316 706L211 311L139 311Z"  horiz-adv-x="825" vert-adv-y="1000"  />

      
      <glyph glyph-name="unibe" unicode="&#xbe;" d="M647-1L670 84L481 84L491 153L742 395L821 395L753 143L806 143L790 84L737 84L714-1L647-1M202 301Q104 301 57 368L106 414Q148 367 202 367Q239 367 264 386Q289 405 289 432Q289 484 204 484L180 484L173 528L312 634L144 634L162 700L426 700L411 644L263 534Q364 520 364 438Q364 379 317.50 340Q271 301 202 301M101 0L448 364L762 700L839 700L492 336L178 0L101 0M558 142L686 142L731 310L558 142Z"  horiz-adv-x="900" vert-adv-y="1000"  />

      
      <glyph glyph-name="unibf" unicode="&#xbf;" d="M405 478L382 316L376 311Q274 304 217.50 271.50Q161 239 161 185Q161 146 188 124.50Q215 103 264 103Q350 103 423 171L489 90Q392-9 248-9Q149-9 90.50 43Q32 95 32 171Q32 261 100 317.50Q168 374 291 392L324 478L405 478M488 700L451 562L318 562L355 700L488 700Z"  horiz-adv-x="541" vert-adv-y="1000"  />

      
      <glyph glyph-name="unic0" unicode="&#xc0;" d="M-50 0L447 705L565 705L684 0L558 0L531 169L200 169L84 0L-50 0M275 278L516 278L471 561L275 278M471 768L370 865L482 913L555 768L471 768Z"  horiz-adv-x="763" vert-adv-y="1000"  />

      
      <glyph glyph-name="unic1" unicode="&#xc1;" d="M-50 0L447 705L565 705L684 0L558 0L531 169L200 169L84 0L-50 0M275 278L516 278L471 561L275 278M468 768L620 913L727 865L574 768L468 768Z"  horiz-adv-x="763" vert-adv-y="1000"  />

      
      <glyph glyph-name="unic2" unicode="&#xc2;" d="M-50 0L447 705L565 705L684 0L558 0L531 169L200 169L84 0L-50 0M275 278L516 278L471 561L275 278M336 764L493 899L607 899L692 764L598 764L537 822L444 764L336 764Z"  horiz-adv-x="763" vert-adv-y="1000"  />

      
      <glyph glyph-name="unic3" unicode="&#xc3;" d="M-50 0L447 705L565 705L684 0L558 0L531 169L200 169L84 0L-50 0M275 278L516 278L471 561L275 278M404 758L337 781Q365 844 394 873Q423 902 466 902Q494 902 549 881Q591 863 607 863Q627 863 641 874Q655 885 671 911L738 889Q710 826 681 797Q652 768 609 768Q581 768 526 789Q484 807 468 807Q448 807 434 795.50Q420 784 404 758Z"  horiz-adv-x="763" vert-adv-y="1000"  />

      
      <glyph glyph-name="unic4" unicode="&#xc4;" d="M-50 0L447 705L565 705L684 0L558 0L531 169L200 169L84 0L-50 0M275 278L516 278L471 561L275 278M359 768L390 880L514 880L483 768L359 768M564 768L595 880L719 880L688 768L564 768Z"  horiz-adv-x="763" vert-adv-y="1000"  />

      
      <glyph glyph-name="unic5" unicode="&#xc5;" d="M-50 0L422 670Q397 697 397 732Q397 782 434 816.50Q471 851 530 851Q576 851 606.50 824Q637 797 637 758Q637 689 574 655L684 0L558 0L531 169L200 169L84 0L-50 0M275 278L516 278L471 561L275 278M509 686Q540 686 561.50 706.50Q583 727 583 753Q583 776 567 790Q551 804 526 804Q494 804 473 784Q452 764 452 737Q452 714 467.50 700Q483 686 509 686Z"  horiz-adv-x="763" vert-adv-y="1000"  />

      
      <glyph glyph-name="unic6" unicode="&#xc6;" d="M-52 0L527 700L1117 700L1087 590L713 590L664 407L994 407L964 298L635 298L584 110L964 110L934 0L432 0L478 169L222 169L84 0L-52 0M311 278L507 278L591 593L570 593L311 278Z"  horiz-adv-x="1056" vert-adv-y="1000"  />

      
      <glyph glyph-name="unic7" unicode="&#xc7;" d="M277-166L184-121L297-1Q196 24 135.50 99.50Q75 175 75 286Q75 370 108.50 448.50Q142 527 202 587Q327 712 498 712Q685 712 771 562L669 493Q635 545 592 572Q549 599 484 599Q381 599 297 517Q203 423 203 291Q203 205 256 153.50Q309 102 394 102Q449 102 491.50 121.50Q534 141 579 181L660 99Q546-12 391-12L383-12L277-166Z"  horiz-adv-x="730" vert-adv-y="1000"  />

      
      <glyph glyph-name="unic8" unicode="&#xc8;" d="M424 758L323 855L435 903L508 758L424 758M19 0L207 700L721 700L691 590L300 590L251 407L598 407L568 298L222 298L171 110L568 110L538 0L19 0Z"  horiz-adv-x="660" vert-adv-y="1000"  />

      
      <glyph glyph-name="unic9" unicode="&#xc9;" d="M421 758L573 903L680 855L527 758L421 758M19 0L207 700L721 700L691 590L300 590L251 407L598 407L568 298L222 298L171 110L568 110L538 0L19 0Z"  horiz-adv-x="660" vert-adv-y="1000"  />

      
      <glyph glyph-name="unica" unicode="&#xca;" d="M19 0L207 700L721 700L691 590L300 590L251 407L598 407L568 298L222 298L171 110L568 110L538 0L19 0M291 758L448 893L562 893L647 758L553 758L492 816L399 758L291 758Z"  horiz-adv-x="660" vert-adv-y="1000"  />

      
      <glyph glyph-name="unicb" unicode="&#xcb;" d="M312 758L343 870L467 870L436 758L312 758M517 758L548 870L672 870L641 758L517 758M19 0L207 700L721 700L691 590L300 590L251 407L598 407L568 298L222 298L171 110L568 110L538 0L19 0Z"  horiz-adv-x="660" vert-adv-y="1000"  />

      
      <glyph glyph-name="unicc" unicode="&#xcc;" d="M26 0L214 700L338 700L150 0L26 0M239 758L138 855L250 903L323 758L239 758Z"  horiz-adv-x="317" vert-adv-y="1000"  />

      
      <glyph glyph-name="unicd" unicode="&#xcd;" d="M26 0L214 700L338 700L150 0L26 0M236 758L388 903L495 855L342 758L236 758Z"  horiz-adv-x="317" vert-adv-y="1000"  />

      
      <glyph glyph-name="unice" unicode="&#xce;" d="M26 0L214 700L338 700L150 0L26 0M106 758L263 893L377 893L462 758L368 758L307 816L214 758L106 758Z"  horiz-adv-x="317" vert-adv-y="1000"  />

      
      <glyph glyph-name="unicf" unicode="&#xcf;" d="M26 0L214 700L338 700L150 0L26 0M127 758L158 870L282 870L251 758L127 758M332 758L363 870L487 870L456 758L332 758Z"  horiz-adv-x="317" vert-adv-y="1000"  />

      
      <glyph glyph-name="unid0" unicode="&#xd0;" d="M41 297L71 407L151 407L230 700L420 700Q603 700 694 609Q770 533 770 405Q770 244 657 131Q526 0 293 0L42 0L122 297L41 297M593 529Q534 588 411 588L324 588L275 407L444 407L414 297L245 297L195 112L308 112Q469 112 564 207Q642 285 642 400Q642 480 593 529Z"  horiz-adv-x="798" vert-adv-y="1000"  />

      
      <glyph glyph-name="unid1" unicode="&#xd1;" d="M406 747L339 770Q367 833 396 862Q425 891 468 891Q496 891 551 870Q593 852 609 852Q629 852 643 863Q657 874 673 900L740 878Q712 815 683 786Q654 757 611 757Q583 757 528 778Q486 796 470 796Q450 796 436 784.50Q422 773 406 747M19 0L207 700L321 700L558 205L692 700L813 700L625 0L522 0L277 509L141 0L19 0Z"  horiz-adv-x="786" vert-adv-y="1000"  />

      
      <glyph glyph-name="unid2" unicode="&#xd2;" d="M491 768L390 865L502 913L575 768L491 768M491 712Q631 712 718.50 624.50Q806 537 806 405Q806 323 773 245.50Q740 168 681 109Q562-12 390-12Q251-12 163.50 75.50Q76 163 76 295Q76 377 109 455Q142 533 201 591Q320 712 491 712M403 101Q508 101 587 180Q630 223 654 281Q678 339 678 398Q678 486 624.50 542.50Q571 599 479 599Q374 599 295 520Q252 477 228 419Q204 361 204 302Q204 213 257.50 157Q311 101 403 101Z"  horiz-adv-x="836" vert-adv-y="1000"  />

      
      <glyph glyph-name="unid3" unicode="&#xd3;" d="M482 768L634 913L741 865L588 768L482 768M491 712Q631 712 718.50 624.50Q806 537 806 405Q806 323 773 245.50Q740 168 681 109Q562-12 390-12Q251-12 163.50 75.50Q76 163 76 295Q76 377 109 455Q142 533 201 591Q320 712 491 712M403 101Q508 101 587 180Q630 223 654 281Q678 339 678 398Q678 486 624.50 542.50Q571 599 479 599Q374 599 295 520Q252 477 228 419Q204 361 204 302Q204 213 257.50 157Q311 101 403 101Z"  horiz-adv-x="836" vert-adv-y="1000"  />

      
      <glyph glyph-name="unid4" unicode="&#xd4;" d="M491 712Q631 712 718.50 624.50Q806 537 806 405Q806 323 773 245.50Q740 168 681 109Q562-12 390-12Q251-12 163.50 75.50Q76 163 76 295Q76 377 109 455Q142 533 201 591Q320 712 491 712M403 101Q508 101 587 180Q630 223 654 281Q678 339 678 398Q678 486 624.50 542.50Q571 599 479 599Q374 599 295 520Q252 477 228 419Q204 361 204 302Q204 213 257.50 157Q311 101 403 101M357 768L514 903L628 903L713 768L619 768L558 826L465 768L357 768Z"  horiz-adv-x="836" vert-adv-y="1000"  />

      
      <glyph glyph-name="unid5" unicode="&#xd5;" d="M425 758L358 781Q386 844 415 873Q444 902 487 902Q515 902 570 881Q612 863 628 863Q648 863 662 874Q676 885 692 911L759 889Q731 826 702 797Q673 768 630 768Q602 768 547 789Q505 807 489 807Q469 807 455 795.50Q441 784 425 758M491 712Q631 712 718.50 624.50Q806 537 806 405Q806 323 773 245.50Q740 168 681 109Q562-12 390-12Q251-12 163.50 75.50Q76 163 76 295Q76 377 109 455Q142 533 201 591Q320 712 491 712M403 101Q508 101 587 180Q630 223 654 281Q678 339 678 398Q678 486 624.50 542.50Q571 599 479 599Q374 599 295 520Q252 477 228 419Q204 361 204 302Q204 213 257.50 157Q311 101 403 101Z"  horiz-adv-x="836" vert-adv-y="1000"  />

      
      <glyph glyph-name="unid6" unicode="&#xd6;" d="M378 768L409 880L533 880L502 768L378 768M583 768L614 880L738 880L707 768L583 768M491 712Q631 712 718.50 624.50Q806 537 806 405Q806 323 773 245.50Q740 168 681 109Q562-12 390-12Q251-12 163.50 75.50Q76 163 76 295Q76 377 109 455Q142 533 201 591Q320 712 491 712M403 101Q508 101 587 180Q630 223 654 281Q678 339 678 398Q678 486 624.50 542.50Q571 599 479 599Q374 599 295 520Q252 477 228 419Q204 361 204 302Q204 213 257.50 157Q311 101 403 101Z"  horiz-adv-x="836" vert-adv-y="1000"  />

      
      <glyph glyph-name="unid7" unicode="&#xd7;" d="M122 112L59 196L268 358L148 519L241 592L357 428L564 593L627 508L419 347L539 187L445 114L329 277L122 112Z"  horiz-adv-x="634" vert-adv-y="1000"  />

      
      <glyph glyph-name="unid8" unicode="&#xd8;" d="M491 712Q619 712 706 636L784 705L908 705L760 572Q806 497 806 405Q806 323 773 245.50Q740 168 681 109Q562-12 390-12Q260-12 175 64L97-5L-26-5L122 127Q76 201 76 295Q76 377 109 455Q142 533 201 591Q320 712 491 712M402 96Q508 96 589 177Q632 220 657 279.50Q682 339 682 399Q682 449 663 493L268 140Q320 96 402 96M200 301Q200 248 218 206L613 559Q561 603 479 603Q373 603 293 523Q249 480 224.50 421Q200 362 200 301Z"  horiz-adv-x="836" vert-adv-y="1000"  />

      
      <glyph glyph-name="unid9" unicode="&#xd9;" d="M452 757L351 854L463 902L536 757L452 757M345-11Q223-11 154.50 51Q86 113 86 220Q86 276 102 331L200 700L324 700L220 314Q210 276 210 237Q210 177 248 140Q286 103 357 103Q436 103 488 155Q541 208 565 302L672 700L795 700L683 283Q647 149 574 76Q487-11 345-11Z"  horiz-adv-x="762" vert-adv-y="1000"  />

      
      <glyph glyph-name="unida" unicode="&#xda;" d="M449 757L601 902L708 854L555 757L449 757M345-11Q223-11 154.50 51Q86 113 86 220Q86 276 102 331L200 700L324 700L220 314Q210 276 210 237Q210 177 248 140Q286 103 357 103Q436 103 488 155Q541 208 565 302L672 700L795 700L683 283Q647 149 574 76Q487-11 345-11Z"  horiz-adv-x="762" vert-adv-y="1000"  />

      
      <glyph glyph-name="unidb" unicode="&#xdb;" d="M345-11Q223-11 154.50 51Q86 113 86 220Q86 276 102 331L200 700L324 700L220 314Q210 276 210 237Q210 177 248 140Q286 103 357 103Q436 103 488 155Q541 208 565 302L672 700L795 700L683 283Q647 149 574 76Q487-11 345-11M319 757L476 892L590 892L675 757L581 757L520 815L427 757L319 757Z"  horiz-adv-x="762" vert-adv-y="1000"  />

      
      <glyph glyph-name="unidc" unicode="&#xdc;" d="M340 757L371 869L495 869L464 757L340 757M545 757L576 869L700 869L669 757L545 757M345-11Q223-11 154.50 51Q86 113 86 220Q86 276 102 331L200 700L324 700L220 314Q210 276 210 237Q210 177 248 140Q286 103 357 103Q436 103 488 155Q541 208 565 302L672 700L795 700L683 283Q647 149 574 76Q487-11 345-11Z"  horiz-adv-x="762" vert-adv-y="1000"  />

      
      <glyph glyph-name="unidd" unicode="&#xdd;" d="M189 0L263 278L107 700L244 700L349 384L626 700L778 700L383 265L312 0L189 0M389 757L541 902L648 854L495 757L389 757Z"  horiz-adv-x="655" vert-adv-y="1000"  />

      
      <glyph glyph-name="unide" unicode="&#xde;" d="M19 0L207 700L330 700L302 591L399 591Q542 591 611 522Q663 468 663 384Q663 280 594 211Q501 118 321 118L175 118L143 0L19 0M204 226L327 226Q443 226 498 281Q535 318 535 374Q535 415 508 442Q472 479 394 479L271 479L204 226Z"  horiz-adv-x="683" vert-adv-y="1000"  />

      
      <glyph glyph-name="unidf" unicode="&#xdf;" d="M225-2L251 94Q351 93 398 127.50Q445 162 445 216Q445 299 310 317L332 400Q496 439 496 545Q496 586 469 610Q442 634 399 634Q348 634 311.50 597Q275 560 257 492L126 0L5 0L140 502Q170 611 227 668Q298 737 404 737Q499 737 555.50 686Q612 635 612 556Q612 412 440 359Q561 317 561 213Q561 114 474.50 54Q388-6 225-2Z"  horiz-adv-x="628" vert-adv-y="1000"  />

      
      <glyph glyph-name="unie0" unicode="&#xe0;" d="M171-11Q102-11 57 29Q12 69 12 133Q12 208 62 260Q128 324 243 324Q320 324 407 298L410 307Q416 333 416 351Q416 431 299 431Q227 431 155 402L135 500Q225 535 323 535Q426 535 480 492.50Q534 450 534 372Q534 343 523 295L444 0L327 0L345 70Q272-11 171-11M219 76Q274 76 320.50 112.50Q367 149 382 202L389 226Q327 246 261 246Q196 246 159 211Q133 185 133 147Q133 115 156.50 95.50Q180 76 219 76M320 595L229 710L342 759L403 595L320 595Z"  horiz-adv-x="583" vert-adv-y="1000"  />

      
      <glyph glyph-name="unie1" unicode="&#xe1;" d="M171-11Q102-11 57 29Q12 69 12 133Q12 208 62 260Q128 324 243 324Q320 324 407 298L410 307Q416 333 416 351Q416 431 299 431Q227 431 155 402L135 500Q225 535 323 535Q426 535 480 492.50Q534 450 534 372Q534 343 523 295L444 0L327 0L345 70Q272-11 171-11M219 76Q274 76 320.50 112.50Q367 149 382 202L389 226Q327 246 261 246Q196 246 159 211Q133 185 133 147Q133 115 156.50 95.50Q180 76 219 76M316 595L466 759L574 710L421 595L316 595Z"  horiz-adv-x="583" vert-adv-y="1000"  />

      
      <glyph glyph-name="unie2" unicode="&#xe2;" d="M171-11Q102-11 57 29Q12 69 12 133Q12 208 62 260Q128 324 243 324Q320 324 407 298L410 307Q416 333 416 351Q416 431 299 431Q227 431 155 402L135 500Q225 535 323 535Q426 535 480 492.50Q534 450 534 372Q534 343 523 295L444 0L327 0L345 70Q272-11 171-11M219 76Q274 76 320.50 112.50Q367 149 382 202L389 226Q327 246 261 246Q196 246 159 211Q133 185 133 147Q133 115 156.50 95.50Q180 76 219 76M191 595L346 742L459 742L536 595L446 595L387 662L291 595L191 595Z"  horiz-adv-x="583" vert-adv-y="1000"  />

      
      <glyph glyph-name="unie3" unicode="&#xe3;" d="M171-11Q102-11 57 29Q12 69 12 133Q12 208 62 260Q128 324 243 324Q320 324 407 298L410 307Q416 333 416 351Q416 431 299 431Q227 431 155 402L135 500Q225 535 323 535Q426 535 480 492.50Q534 450 534 372Q534 343 523 295L444 0L327 0L345 70Q272-11 171-11M219 76Q274 76 320.50 112.50Q367 149 382 202L389 226Q327 246 261 246Q196 246 159 211Q133 185 133 147Q133 115 156.50 95.50Q180 76 219 76M515 740L582 718Q553 654 524 624.50Q495 595 452 595Q422 595 372 617Q330 635 316 635Q295 635 281.50 623.50Q268 612 252 585L185 607Q213 671 242 700.50Q271 730 315 730Q344 730 394 708Q438 690 451 690Q472 690 485 701Q498 712 515 740Z"  horiz-adv-x="583" vert-adv-y="1000"  />

      
      <glyph glyph-name="unie4" unicode="&#xe4;" d="M171-11Q102-11 57 29Q12 69 12 133Q12 208 62 260Q128 324 243 324Q320 324 407 298L410 307Q416 333 416 351Q416 431 299 431Q227 431 155 402L135 500Q225 535 323 535Q426 535 480 492.50Q534 450 534 372Q534 343 523 295L444 0L327 0L345 70Q272-11 171-11M219 76Q274 76 320.50 112.50Q367 149 382 202L389 226Q327 246 261 246Q196 246 159 211Q133 185 133 147Q133 115 156.50 95.50Q180 76 219 76M208 595L240 714L363 714L331 595L208 595M407 595L439 714L562 714L529 595L407 595Z"  horiz-adv-x="583" vert-adv-y="1000"  />

      
      <glyph glyph-name="unie5" unicode="&#xe5;" d="M171-11Q102-11 57 29Q12 69 12 133Q12 208 62 260Q128 324 243 324Q320 324 407 298L410 307Q416 333 416 351Q416 431 299 431Q227 431 155 402L135 500Q225 535 323 535Q426 535 480 492.50Q534 450 534 372Q534 343 523 295L444 0L327 0L345 70Q272-11 171-11M219 76Q274 76 320.50 112.50Q367 149 382 202L389 226Q327 246 261 246Q196 246 159 211Q133 185 133 147Q133 115 156.50 95.50Q180 76 219 76M515 718Q515 668 478 630.50Q441 593 389 593Q342 593 312 621.50Q282 650 282 692Q282 742 319 779.50Q356 817 408 817Q456 817 485.50 788.50Q515 760 515 718M334 696Q334 670 349.50 654Q365 638 391 638Q422 638 443 661Q464 684 464 714Q464 740 448 756Q432 772 406 772Q376 772 355 748.50Q334 725 334 696Z"  horiz-adv-x="583" vert-adv-y="1000"  />

      
      <glyph glyph-name="unie6" unicode="&#xe6;" d="M633-12Q562-12 509.50 16.50Q457 45 429 98Q325-11 183-11Q105-11 58.50 28Q12 67 12 133Q12 208 62 260Q128 324 243 324Q320 324 407 298L410 307Q416 333 416 351Q416 431 299 431Q227 431 155 402L135 500Q225 535 323 535Q465 535 504 443Q590 539 707 539Q803 539 858.50 481Q914 423 914 334Q914 277 891 222L507 222Q507 160 542.50 123.50Q578 87 644 87Q711 87 780 138L837 61Q753-12 633-12M227 76Q325 76 407 161Q401 187 403 220Q336 246 261 246Q196 246 159 211Q133 185 133 147Q133 115 158 95.50Q183 76 227 76M572 388Q537 353 520 302L795 302Q799 320 799 339Q799 383 773 411.50Q747 440 694 440Q624 440 572 388Z"  horiz-adv-x="948" vert-adv-y="1000"  />

      
      <glyph glyph-name="unie7" unicode="&#xe7;" d="M181-166L88-121L203 0Q131 23 87.50 81.50Q44 140 44 223Q44 353 137 446Q230 539 356 539Q502 539 570 419L476 355Q452 393 422.50 413.50Q393 434 346 434Q282 434 230 382Q165 315 165 224Q165 164 201 128Q237 92 290 92Q358 92 425 151L489 72Q398-11 287-12L181-166Z"  horiz-adv-x="561" vert-adv-y="1000"  />

      
      <glyph glyph-name="unie8" unicode="&#xe8;" d="M543 222L159 222Q159 160 194.50 123.50Q230 87 296 87Q364 87 431 138L489 61Q402-12 284-12Q174-12 109 50.50Q44 113 44 219Q44 282 69.50 342.50Q95 403 141 449Q231 539 355 539Q454 539 510 481Q566 423 566 334Q566 277 543 222M224 388Q189 353 172 302L446 302Q451 317 451 339Q451 383 424.50 411.50Q398 440 346 440Q276 440 224 388M344 595L253 710L366 759L427 595L344 595Z"  horiz-adv-x="600" vert-adv-y="1000"  />

      
      <glyph glyph-name="unie9" unicode="&#xe9;" d="M543 222L159 222Q159 160 194.50 123.50Q230 87 296 87Q364 87 431 138L489 61Q402-12 284-12Q174-12 109 50.50Q44 113 44 219Q44 282 69.50 342.50Q95 403 141 449Q231 539 355 539Q454 539 510 481Q566 423 566 334Q566 277 543 222M224 388Q189 353 172 302L446 302Q451 317 451 339Q451 383 424.50 411.50Q398 440 346 440Q276 440 224 388M340 595L490 759L598 710L445 595L340 595Z"  horiz-adv-x="600" vert-adv-y="1000"  />

      
      <glyph glyph-name="uniea" unicode="&#xea;" d="M543 222L159 222Q159 160 194.50 123.50Q230 87 296 87Q364 87 431 138L489 61Q402-12 284-12Q174-12 109 50.50Q44 113 44 219Q44 282 69.50 342.50Q95 403 141 449Q231 539 355 539Q454 539 510 481Q566 423 566 334Q566 277 543 222M224 388Q189 353 172 302L446 302Q451 317 451 339Q451 383 424.50 411.50Q398 440 346 440Q276 440 224 388M215 595L370 742L483 742L560 595L470 595L411 662L315 595L215 595Z"  horiz-adv-x="600" vert-adv-y="1000"  />

      
      <glyph glyph-name="unieb" unicode="&#xeb;" d="M543 222L159 222Q159 160 194.50 123.50Q230 87 296 87Q364 87 431 138L489 61Q402-12 284-12Q174-12 109 50.50Q44 113 44 219Q44 282 69.50 342.50Q95 403 141 449Q231 539 355 539Q454 539 510 481Q566 423 566 334Q566 277 543 222M224 388Q189 353 172 302L446 302Q451 317 451 339Q451 383 424.50 411.50Q398 440 346 440Q276 440 224 388M232 595L264 714L387 714L355 595L232 595M431 595L463 714L586 714L553 595L431 595Z"  horiz-adv-x="600" vert-adv-y="1000"  />

      
      <glyph glyph-name="uniec" unicode="&#xec;" d="M12 0L154 528L275 528L133 0L12 0M183 595L92 710L205 759L266 595L183 595Z"  horiz-adv-x="286" vert-adv-y="1000"  />

      
      <glyph glyph-name="unied" unicode="&#xed;" d="M180 595L330 759L438 710L285 595L180 595M12 0L154 528L275 528L133 0L12 0Z"  horiz-adv-x="286" vert-adv-y="1000"  />

      
      <glyph glyph-name="uniee" unicode="&#xee;" d="M55 595L210 742L323 742L400 595L310 595L251 662L155 595L55 595M12 0L154 528L275 528L133 0L12 0Z"  horiz-adv-x="286" vert-adv-y="1000"  />

      
      <glyph glyph-name="unief" unicode="&#xef;" d="M72 595L104 714L227 714L195 595L72 595M271 595L303 714L426 714L393 595L271 595M12 0L154 528L275 528L133 0L12 0Z"  horiz-adv-x="286" vert-adv-y="1000"  />

      
      <glyph glyph-name="unif0" unicode="&#xf0;" d="M255 566L233 632L341 666Q322 688 282 730L432 730L456 701L572 738L596 673L499 642Q601 489 601 342Q601 179 498 76Q410-12 284-12Q176-12 110 53Q44 118 44 226Q44 358 134 446Q213 527 323 527Q414 527 478 452Q452 522 388 608L255 566M294 91Q363 91 416 144Q478 208 478 292Q478 354 440.50 392.50Q403 431 342 431Q273 431 223 381Q163 319 163 232Q163 167 197.50 129Q232 91 294 91Z"  horiz-adv-x="644" vert-adv-y="1000"  />

      
      <glyph glyph-name="unif1" unicode="&#xf1;" d="M5 0L146 528L267 528L249 461Q329 539 410 539Q483 539 526.50 496.50Q570 454 570 381Q570 350 554 288L478 0L357 0L435 293Q443 320 443 346Q443 386 419 407.50Q395 429 351 429Q301 429 261.50 392.50Q222 356 206 297L127 0L5 0M537 740L604 718Q575 654 546 624.50Q517 595 474 595Q444 595 394 617Q352 635 338 635Q317 635 303.50 623.50Q290 612 274 585L207 607Q235 671 264 700.50Q293 730 337 730Q366 730 416 708Q460 690 473 690Q494 690 507 701Q520 712 537 740Z"  horiz-adv-x="617" vert-adv-y="1000"  />

      
      <glyph glyph-name="unif2" unicode="&#xf2;" d="M353 539Q465 539 533 471Q601 403 601 297Q601 171 508 80Q418-12 293-12Q181-12 113 55.50Q45 123 45 229Q45 354 138 447Q228 539 353 539M300 93Q368 93 417 144Q447 173 464 214Q481 255 481 294Q481 360 444 397Q407 434 346 434Q282 434 229 383Q199 354 182 313Q165 272 165 233Q165 167 202 130Q239 93 300 93M357 595L266 710L379 759L440 595L357 595Z"  horiz-adv-x="646" vert-adv-y="1000"  />

      
      <glyph glyph-name="unif3" unicode="&#xf3;" d="M349 595L499 759L607 710L454 595L349 595M353 539Q465 539 533 471Q601 403 601 297Q601 171 508 80Q418-12 293-12Q181-12 113 55.50Q45 123 45 229Q45 354 138 447Q228 539 353 539M300 93Q368 93 417 144Q447 173 464 214Q481 255 481 294Q481 360 444 397Q407 434 346 434Q282 434 229 383Q199 354 182 313Q165 272 165 233Q165 167 202 130Q239 93 300 93Z"  horiz-adv-x="646" vert-adv-y="1000"  />

      
      <glyph glyph-name="unif4" unicode="&#xf4;" d="M229 595L384 742L497 742L574 595L484 595L425 662L329 595L229 595M353 539Q465 539 533 471Q601 403 601 297Q601 171 508 80Q418-12 293-12Q181-12 113 55.50Q45 123 45 229Q45 354 138 447Q228 539 353 539M300 93Q368 93 417 144Q447 173 464 214Q481 255 481 294Q481 360 444 397Q407 434 346 434Q282 434 229 383Q199 354 182 313Q165 272 165 233Q165 167 202 130Q239 93 300 93Z"  horiz-adv-x="646" vert-adv-y="1000"  />

      
      <glyph glyph-name="unif5" unicode="&#xf5;" d="M353 539Q465 539 533 471Q601 403 601 297Q601 171 508 80Q418-12 293-12Q181-12 113 55.50Q45 123 45 229Q45 354 138 447Q228 539 353 539M300 93Q368 93 417 144Q447 173 464 214Q481 255 481 294Q481 360 444 397Q407 434 346 434Q282 434 229 383Q199 354 182 313Q165 272 165 233Q165 167 202 130Q239 93 300 93M554 740L621 718Q592 654 563 624.50Q534 595 491 595Q461 595 411 617Q369 635 355 635Q334 635 320.50 623.50Q307 612 291 585L224 607Q252 671 281 700.50Q310 730 354 730Q383 730 433 708Q477 690 490 690Q511 690 524 701Q537 712 554 740Z"  horiz-adv-x="646" vert-adv-y="1000"  />

      
      <glyph glyph-name="unif6" unicode="&#xf6;" d="M246 595L278 714L401 714L369 595L246 595M445 595L477 714L600 714L567 595L445 595M353 539Q465 539 533 471Q601 403 601 297Q601 171 508 80Q418-12 293-12Q181-12 113 55.50Q45 123 45 229Q45 354 138 447Q228 539 353 539M300 93Q368 93 417 144Q447 173 464 214Q481 255 481 294Q481 360 444 397Q407 434 346 434Q282 434 229 383Q199 354 182 313Q165 272 165 233Q165 167 202 130Q239 93 300 93Z"  horiz-adv-x="646" vert-adv-y="1000"  />

      
      <glyph glyph-name="unif7" unicode="&#xf7;" d="M202 80L235 208L369 208L335 80L202 80M78 300L106 404L604 404L576 300L78 300M313 497L347 624L480 624L446 497L313 497Z"  horiz-adv-x="634" vert-adv-y="1000"  />

      
      <glyph glyph-name="unif8" unicode="&#xf8;" d="M353 539Q453 539 521 482L578 533L691 533L569 424Q601 369 601 297Q601 171 508 80Q418-12 293-12Q190-12 125 44L68-6L-45-6L77 102Q45 157 45 229Q45 354 138 447Q228 539 353 539M349 438Q280 438 226 384Q161 321 161 233Q161 198 168 176L436 412Q401 438 349 438M485 294Q485 324 477 350L210 114Q242 89 297 89Q366 89 420 143Q485 206 485 294Z"  horiz-adv-x="646" vert-adv-y="1000"  />

      
      <glyph glyph-name="unif9" unicode="&#xf9;" d="M209-11Q135-11 91.50 31.50Q48 74 48 147Q48 178 64 240L141 528L262 528L183 235Q176 207 176 182Q176 142 200 120.50Q224 99 267 99Q317 99 356.50 135.50Q396 172 412 231L492 528L613 528L472 0L351 0L369 68Q290-11 209-11M343 595L252 710L365 759L426 595L343 595Z"  horiz-adv-x="618" vert-adv-y="1000"  />

      
      <glyph glyph-name="unifa" unicode="&#xfa;" d="M339 595L489 759L597 710L444 595L339 595M209-11Q135-11 91.50 31.50Q48 74 48 147Q48 178 64 240L141 528L262 528L183 235Q176 207 176 182Q176 142 200 120.50Q224 99 267 99Q317 99 356.50 135.50Q396 172 412 231L492 528L613 528L472 0L351 0L369 68Q290-11 209-11Z"  horiz-adv-x="618" vert-adv-y="1000"  />

      
      <glyph glyph-name="unifb" unicode="&#xfb;" d="M213 595L368 742L481 742L558 595L468 595L409 662L313 595L213 595M209-11Q135-11 91.50 31.50Q48 74 48 147Q48 178 64 240L141 528L262 528L183 235Q176 207 176 182Q176 142 200 120.50Q224 99 267 99Q317 99 356.50 135.50Q396 172 412 231L492 528L613 528L472 0L351 0L369 68Q290-11 209-11Z"  horiz-adv-x="618" vert-adv-y="1000"  />

      
      <glyph glyph-name="unifc" unicode="&#xfc;" d="M230 595L262 714L385 714L353 595L230 595M429 595L461 714L584 714L551 595L429 595M209-11Q135-11 91.50 31.50Q48 74 48 147Q48 178 64 240L141 528L262 528L183 235Q176 207 176 182Q176 142 200 120.50Q224 99 267 99Q317 99 356.50 135.50Q396 172 412 231L492 528L613 528L472 0L351 0L369 68Q290-11 209-11Z"  horiz-adv-x="618" vert-adv-y="1000"  />

      
      <glyph glyph-name="unifd" unicode="&#xfd;" d="M168-2L91 528L215 528L259 137L492 528L624 528L283-15Q230-95 180-129Q130-163 66-163Q-2-163-54-127L10-38Q42-61 78-61Q103-61 123-48Q143-35 168-2M313 595L463 759L571 710L418 595L313 595Z"  horiz-adv-x="585" vert-adv-y="1000"  />

      
      <glyph glyph-name="unife" unicode="&#xfe;" d="M322 730L248 458Q329 539 417 539Q507 539 565 477.50Q623 416 623 313Q623 171 527 75Q441-11 330-11Q208-11 151 94L84-160L-38-160L201 730L322 730M315 93Q384 93 433 144Q497 206 497 305Q497 365 463 400Q429 435 372 435Q302 435 247 380Q182 315 182 226Q182 168 219.50 130.50Q257 93 315 93Z"  horiz-adv-x="668" vert-adv-y="1000"  />

      
      <glyph glyph-name="uniff" unicode="&#xff;" d="M168-2L91 528L215 528L259 137L492 528L624 528L283-15Q230-95 180-129Q130-163 66-163Q-2-163-54-127L10-38Q42-61 78-61Q103-61 123-48Q143-35 168-2M205 595L237 714L360 714L328 595L205 595M404 595L436 714L559 714L526 595L404 595Z"  horiz-adv-x="585" vert-adv-y="1000"  />

      
      <glyph glyph-name="uni0100" unicode="&#x0100;" d="M-50 0L447 705L565 705L684 0L558 0L531 169L200 169L84 0L-50 0M275 278L516 278L471 561L275 278M347 779L371 869L730 869L706 779L347 779Z"  horiz-adv-x="763" vert-adv-y="1000"  />

      
      <glyph glyph-name="uni0101" unicode="&#x0101;" d="M171-11Q102-11 57 29Q12 69 12 133Q12 208 62 260Q128 324 243 324Q320 324 407 298L410 307Q416 333 416 351Q416 431 299 431Q227 431 155 402L135 500Q225 535 323 535Q426 535 480 492.50Q534 450 534 372Q534 343 523 295L444 0L327 0L345 70Q272-11 171-11M219 76Q274 76 320.50 112.50Q367 149 382 202L389 226Q327 246 261 246Q196 246 159 211Q133 185 133 147Q133 115 156.50 95.50Q180 76 219 76M200 606L224 694L567 694L543 606L200 606Z"  horiz-adv-x="583" vert-adv-y="1000"  />

      
      <glyph glyph-name="uni0102" unicode="&#x0102;" d="M-50 0L447 705L565 705L684 0L558 0L531 169L200 169L84 0L-50 0M275 278L516 278L471 561L275 278M523 766Q450 766 412.50 801.50Q375 837 386 900L466 900Q471 850 541 850Q608 850 640 900L732 900Q709 836 653 801Q597 766 523 766Z"  horiz-adv-x="763" vert-adv-y="1000"  />

      
      <glyph glyph-name="uni0103" unicode="&#x0103;" d="M171-11Q102-11 57 29Q12 69 12 133Q12 208 62 260Q128 324 243 324Q320 324 407 298L410 307Q416 333 416 351Q416 431 299 431Q227 431 155 402L135 500Q225 535 323 535Q426 535 480 492.50Q534 450 534 372Q534 343 523 295L444 0L327 0L345 70Q272-11 171-11M219 76Q274 76 320.50 112.50Q367 149 382 202L389 226Q327 246 261 246Q196 246 159 211Q133 185 133 147Q133 115 156.50 95.50Q180 76 219 76M379 593Q302 593 265 633.50Q228 674 232 738L316 738Q317 711 334.50 694Q352 677 386 677Q452 677 491 738L577 738Q555 673 503 633Q451 593 379 593Z"  horiz-adv-x="583" vert-adv-y="1000"  />

      
      <glyph glyph-name="uni0104" unicode="&#x0104;" d="M671-106L656-164Q636-167 619-167Q512-164 512-100Q512-54 580 0L558 0L531 169L200 169L84 0L-50 0L447 705L565 705L684 0L665 0Q610-48 610-75Q610-105 671-106M275 278L516 278L471 561L275 278Z"  horiz-adv-x="763" vert-adv-y="1000"  />

      
      <glyph glyph-name="uni0105" unicode="&#x0105;" d="M435-106L420-164Q400-167 383-167Q276-164 276-100Q276-54 344 0L327 0L345 70Q272-11 171-11Q102-11 57 29Q12 69 12 133Q12 208 62 260Q128 324 243 324Q320 324 407 298L410 307Q416 333 416 351Q416 431 299 431Q227 431 155 402L135 500Q225 535 323 535Q426 535 480 492.50Q534 450 534 372Q534 343 523 295L444 0L429 0Q374-48 374-75Q374-105 435-106M219 76Q274 76 320.50 112.50Q367 149 382 202L389 226Q327 246 261 246Q196 246 159 211Q133 185 133 147Q133 115 156.50 95.50Q180 76 219 76Z"  horiz-adv-x="583" vert-adv-y="1000"  />

      
      <glyph glyph-name="uni0106" unicode="&#x0106;" d="M391-12Q253-12 164 69Q75 150 75 286Q75 370 108.50 448.50Q142 527 202 587Q327 712 498 712Q685 712 771 562L669 493Q635 545 592 572Q549 599 484 599Q381 599 297 517Q203 423 203 291Q203 205 256 153.50Q309 102 394 102Q449 102 491.50 121.50Q534 141 579 181L660 99Q546-12 391-12M470 768L622 913L729 865L576 768L470 768Z"  horiz-adv-x="730" vert-adv-y="1000"  />

      
      <glyph glyph-name="uni0107" unicode="&#x0107;" d="M326 595L476 759L584 710L431 595L326 595M286-12Q182-12 113 52.50Q44 117 44 223Q44 353 137 446Q230 539 356 539Q502 539 570 419L476 355Q452 393 422.50 413.50Q393 434 346 434Q282 434 230 382Q165 315 165 224Q165 164 201 128Q237 92 290 92Q358 92 425 151L489 72Q397-12 286-12Z"  horiz-adv-x="561" vert-adv-y="1000"  />

      
      <glyph glyph-name="uni010A" unicode="&#x010A;" d="M462 768L493 880L621 880L590 768L462 768M391-12Q253-12 164 69Q75 150 75 286Q75 370 108.50 448.50Q142 527 202 587Q327 712 498 712Q685 712 771 562L669 493Q635 545 592 572Q549 599 484 599Q381 599 297 517Q203 423 203 291Q203 205 256 153.50Q309 102 394 102Q449 102 491.50 121.50Q534 141 579 181L660 99Q546-12 391-12Z"  horiz-adv-x="730" vert-adv-y="1000"  />

      
      <glyph glyph-name="uni010B" unicode="&#x010B;" d="M286-12Q182-12 113 52.50Q44 117 44 223Q44 353 137 446Q230 539 356 539Q502 539 570 419L476 355Q452 393 422.50 413.50Q393 434 346 434Q282 434 230 382Q165 315 165 224Q165 164 201 128Q237 92 290 92Q358 92 425 151L489 72Q397-12 286-12M317 594L350 714L475 714L442 594L317 594Z"  horiz-adv-x="561" vert-adv-y="1000"  />

      
      <glyph glyph-name="uni010C" unicode="&#x010C;" d="M391-12Q253-12 164 69Q75 150 75 286Q75 370 108.50 448.50Q142 527 202 587Q327 712 498 712Q685 712 771 562L669 493Q635 545 592 572Q549 599 484 599Q381 599 297 517Q203 423 203 291Q203 205 256 153.50Q309 102 394 102Q449 102 491.50 121.50Q534 141 579 181L660 99Q546-12 391-12M747 903L591 768L476 768L392 903L485 903L547 846L640 903L747 903Z"  horiz-adv-x="730" vert-adv-y="1000"  />

      
      <glyph glyph-name="uni010D" unicode="&#x010D;" d="M303 595L226 742L316 742L374 675L471 742L571 742L416 595L303 595M286-12Q182-12 113 52.50Q44 117 44 223Q44 353 137 446Q230 539 356 539Q502 539 570 419L476 355Q452 393 422.50 413.50Q393 434 346 434Q282 434 230 382Q165 315 165 224Q165 164 201 128Q237 92 290 92Q358 92 425 151L489 72Q397-12 286-12Z"  horiz-adv-x="561" vert-adv-y="1000"  />

      
      <glyph glyph-name="uni010E" unicode="&#x010E;" d="M19 0L207 700L397 700Q580 700 671 609Q747 533 747 405Q747 244 634 131Q503 0 270 0L19 0M570 529Q511 588 388 588L301 588L172 112L285 112Q446 112 541 207Q619 285 619 400Q619 480 570 529M704 893L548 758L433 758L349 893L442 893L504 836L597 893L704 893Z"  horiz-adv-x="775" vert-adv-y="1000"  />

      
      <glyph glyph-name="uni010F" unicode="&#x010F;" d="M738 589L794 779L895 779L895 776L789 589L738 589M400 0L419 70Q340-11 250-11Q160-11 102 50.50Q44 112 44 215Q44 357 140 453Q226 539 338 539Q459 539 516 434L595 730L716 730L521 0L400 0M296 93Q367 93 420 148Q486 214 486 302Q486 360 448.50 397.50Q411 435 352 435Q285 435 234 384Q170 320 170 223Q170 163 204.50 128Q239 93 296 93Z"  horiz-adv-x="668" vert-adv-y="1000"  />

      
      <glyph glyph-name="uni0110" unicode="&#x0110;" d="M41 297L71 407L151 407L230 700L420 700Q603 700 694 609Q770 533 770 405Q770 244 657 131Q526 0 293 0L42 0L122 297L41 297M593 529Q534 588 411 588L324 588L275 407L444 407L414 297L245 297L195 112L308 112Q469 112 564 207Q642 285 642 400Q642 480 593 529Z"  horiz-adv-x="798" vert-adv-y="1000"  />

      
      <glyph glyph-name="uni0111" unicode="&#x0111;" d="M396 601L416 674L580 674L595 730L716 730L701 674L769 674L750 601L681 601L521 0L400 0L419 70Q340-11 250-11Q160-11 102 50.50Q44 112 44 215Q44 357 140 453Q226 539 338 539Q459 539 516 434L560 601L396 601M296 93Q367 93 420 148Q486 214 486 302Q486 360 448.50 397.50Q411 435 352 435Q285 435 234 384Q170 320 170 223Q170 163 204.50 128Q239 93 296 93Z"  horiz-adv-x="668" vert-adv-y="1000"  />

      
      <glyph glyph-name="uni0112" unicode="&#x0112;" d="M301 769L325 859L684 859L660 769L301 769M19 0L207 700L721 700L691 590L300 590L251 407L598 407L568 298L222 298L171 110L568 110L538 0L19 0Z"  horiz-adv-x="660" vert-adv-y="1000"  />

      
      <glyph glyph-name="uni0113" unicode="&#x0113;" d="M543 222L159 222Q159 160 194.50 123.50Q230 87 296 87Q364 87 431 138L489 61Q402-12 284-12Q174-12 109 50.50Q44 113 44 219Q44 282 69.50 342.50Q95 403 141 449Q231 539 355 539Q454 539 510 481Q566 423 566 334Q566 277 543 222M224 606L248 694L591 694L567 606L224 606M224 388Q189 353 172 302L446 302Q451 317 451 339Q451 383 424.50 411.50Q398 440 346 440Q276 440 224 388Z"  horiz-adv-x="600" vert-adv-y="1000"  />

      
      <glyph glyph-name="uni0114" unicode="&#x0114;" d="M477 756Q404 756 366.50 791.50Q329 827 340 890L420 890Q425 840 495 840Q562 840 594 890L686 890Q663 826 607 791Q551 756 477 756M19 0L207 700L721 700L691 590L300 590L251 407L598 407L568 298L222 298L171 110L568 110L538 0L19 0Z"  horiz-adv-x="660" vert-adv-y="1000"  />

      
      <glyph glyph-name="uni0115" unicode="&#x0115;" d="M543 222L159 222Q159 160 194.50 123.50Q230 87 296 87Q364 87 431 138L489 61Q402-12 284-12Q174-12 109 50.50Q44 113 44 219Q44 282 69.50 342.50Q95 403 141 449Q231 539 355 539Q454 539 510 481Q566 423 566 334Q566 277 543 222M403 593Q326 593 289 633.50Q252 674 256 738L340 738Q341 711 358.50 694Q376 677 410 677Q476 677 515 738L601 738Q579 673 527 633Q475 593 403 593M224 388Q189 353 172 302L446 302Q451 317 451 339Q451 383 424.50 411.50Q398 440 346 440Q276 440 224 388Z"  horiz-adv-x="600" vert-adv-y="1000"  />

      
      <glyph glyph-name="uni0116" unicode="&#x0116;" d="M413 758L444 870L572 870L541 758L413 758M19 0L207 700L721 700L691 590L300 590L251 407L598 407L568 298L222 298L171 110L568 110L538 0L19 0Z"  horiz-adv-x="660" vert-adv-y="1000"  />

      
      <glyph glyph-name="uni0117" unicode="&#x0117;" d="M543 222L159 222Q159 160 194.50 123.50Q230 87 296 87Q364 87 431 138L489 61Q402-12 284-12Q174-12 109 50.50Q44 113 44 219Q44 282 69.50 342.50Q95 403 141 449Q231 539 355 539Q454 539 510 481Q566 423 566 334Q566 277 543 222M224 388Q189 353 172 302L446 302Q451 317 451 339Q451 383 424.50 411.50Q398 440 346 440Q276 440 224 388M331 594L364 714L489 714L456 594L331 594Z"  horiz-adv-x="600" vert-adv-y="1000"  />

      
      <glyph glyph-name="uni0118" unicode="&#x0118;" d="M19 0L207 700L721 700L691 590L300 590L251 407L598 407L568 298L222 298L171 110L568 110L538 0L517 0Q462-48 462-75Q462-105 523-106L508-164Q488-167 471-167Q364-164 364-100Q364-54 432 0L19 0Z"  horiz-adv-x="660" vert-adv-y="1000"  />

      
      <glyph glyph-name="uni0119" unicode="&#x0119;" d="M431 138L488 62Q408 2 391-17Q357-50 357-75Q357-105 418-106L403-164Q384-167 366-167Q259-164 259-100Q259-59 311-10Q295-12 284-12Q174-12 109 50.50Q44 113 44 219Q44 282 69.50 342.50Q95 403 141 449Q231 539 355 539Q454 539 510 481Q566 423 566 334Q566 277 543 222L159 222Q159 160 194.50 123.50Q230 87 296 87Q364 87 431 138M224 388Q189 353 172 302L446 302Q451 317 451 339Q451 383 424.50 411.50Q398 440 346 440Q276 440 224 388Z"  horiz-adv-x="600" vert-adv-y="1000"  />

      
      <glyph glyph-name="uni011A" unicode="&#x011A;" d="M698 893L542 758L427 758L343 893L436 893L498 836L591 893L698 893M19 0L207 700L721 700L691 590L300 590L251 407L598 407L568 298L222 298L171 110L568 110L538 0L19 0Z"  horiz-adv-x="660" vert-adv-y="1000"  />

      
      <glyph glyph-name="uni011B" unicode="&#x011B;" d="M543 222L159 222Q159 160 194.50 123.50Q230 87 296 87Q364 87 431 138L489 61Q402-12 284-12Q174-12 109 50.50Q44 113 44 219Q44 282 69.50 342.50Q95 403 141 449Q231 539 355 539Q454 539 510 481Q566 423 566 334Q566 277 543 222M224 388Q189 353 172 302L446 302Q451 317 451 339Q451 383 424.50 411.50Q398 440 346 440Q276 440 224 388M317 595L240 742L330 742L388 675L485 742L585 742L430 595L317 595Z"  horiz-adv-x="600" vert-adv-y="1000"  />

      
      <glyph glyph-name="uni011E" unicode="&#x011E;" d="M535 766Q462 766 424.50 801.50Q387 837 398 900L478 900Q483 850 553 850Q620 850 652 900L744 900Q721 836 665 801Q609 766 535 766M395-12Q263-12 168.50 67.50Q74 147 74 289Q74 371 107.50 448Q141 525 201 585Q328 712 508 712Q697 712 785 588L693 510Q619 599 499 599Q380 599 294 513Q203 422 203 293Q203 203 259 152Q315 101 403 101Q486 101 551 137L594 284L415 284L444 391L742 391L647 56Q532-12 395-12Z"  horiz-adv-x="782" vert-adv-y="1000"  />

      
      <glyph glyph-name="uni011F" unicode="&#x011F;" d="M246-162Q83-162-25-81L42 3Q131-64 239-64Q321-64 368-17Q403 18 423 90L432 122Q346 42 251 42Q168 42 108 93.50Q48 145 48 233Q48 361 140 453Q226 539 340 539Q408 539 448 510Q488 481 514 433L539 528L660 528L544 92Q525 21 505-18.50Q485-58 454-88Q380-162 246-162M296 141Q371 141 426 196Q480 250 480 318Q480 369 445 402.50Q410 436 352 436Q283 436 229 384Q174 329 174 254Q174 200 208.50 170.50Q243 141 296 141M430 593Q353 593 316 633.50Q279 674 283 738L367 738Q368 711 385.50 694Q403 677 437 677Q503 677 542 738L628 738Q606 673 554 633Q502 593 430 593Z"  horiz-adv-x="666" vert-adv-y="1000"  />

      
      <glyph glyph-name="uni0120" unicode="&#x0120;" d="M472 768L503 880L631 880L600 768L472 768M395-12Q263-12 168.50 67.50Q74 147 74 289Q74 371 107.50 448Q141 525 201 585Q328 712 508 712Q697 712 785 588L693 510Q619 599 499 599Q380 599 294 513Q203 422 203 293Q203 203 259 152Q315 101 403 101Q486 101 551 137L594 284L415 284L444 391L742 391L647 56Q532-12 395-12Z"  horiz-adv-x="782" vert-adv-y="1000"  />

      
      <glyph glyph-name="uni0121" unicode="&#x0121;" d="M246-162Q83-162-25-81L42 3Q131-64 239-64Q321-64 368-17Q403 18 423 90L432 122Q346 42 251 42Q168 42 108 93.50Q48 145 48 233Q48 361 140 453Q226 539 340 539Q408 539 448 510Q488 481 514 433L539 528L660 528L544 92Q525 21 505-18.50Q485-58 454-88Q380-162 246-162M296 141Q371 141 426 196Q480 250 480 318Q480 369 445 402.50Q410 436 352 436Q283 436 229 384Q174 329 174 254Q174 200 208.50 170.50Q243 141 296 141M357 594L390 714L515 714L482 594L357 594Z"  horiz-adv-x="666" vert-adv-y="1000"  />

      
      <glyph glyph-name="uni0122" unicode="&#x0122;" d="M220-275L224-236Q299-227 312-168L257-168L285-67L403-67L380-153Q363-215 324.50-243.50Q286-272 220-275M395-12Q263-12 168.50 67.50Q74 147 74 289Q74 371 107.50 448Q141 525 201 585Q328 712 508 712Q697 712 785 588L693 510Q619 599 499 599Q380 599 294 513Q203 422 203 293Q203 203 259 152Q315 101 403 101Q486 101 551 137L594 284L415 284L444 391L742 391L647 56Q532-12 395-12Z"  horiz-adv-x="782" vert-adv-y="1000"  />

      
      <glyph glyph-name="uni0123" unicode="&#x0123;" d="M538 802L534 763Q459 754 446 695L501 695L473 594L355 594L378 680Q395 742 433.50 770.50Q472 799 538 802M246-162Q83-162-25-81L42 3Q131-64 239-64Q321-64 368-17Q403 18 423 90L432 122Q346 42 251 42Q168 42 108 93.50Q48 145 48 233Q48 361 140 453Q226 539 340 539Q408 539 448 510Q488 481 514 433L539 528L660 528L544 92Q525 21 505-18.50Q485-58 454-88Q380-162 246-162M296 141Q371 141 426 196Q480 250 480 318Q480 369 445 402.50Q410 436 352 436Q283 436 229 384Q174 329 174 254Q174 200 208.50 170.50Q243 141 296 141Z"  horiz-adv-x="666" vert-adv-y="1000"  />

      
      <glyph glyph-name="uni0126" unicode="&#x0126;" d="M85 511L109 598L179 598L207 700L331 700L303 598L632 598L660 700L783 700L755 598L827 598L803 511L732 511L595 0L472 0L551 294L222 294L143 0L19 0L156 511L85 511M252 407L581 407L609 513L280 513L252 407Z"  horiz-adv-x="756" vert-adv-y="1000"  />

      
      <glyph glyph-name="uni0127" unicode="&#x0127;" d="M97 601L116 674L185 674L200 730L321 730L306 674L470 674L451 601L286 601L249 461Q329 539 410 539Q483 539 526.50 496.50Q570 454 570 381Q570 350 554 288L478 0L357 0L435 293Q443 320 443 346Q443 386 419 407.50Q395 429 351 429Q301 429 261.50 392.50Q222 356 206 297L127 0L5 0L165 601L97 601Z"  horiz-adv-x="618" vert-adv-y="1000"  />

      
      <glyph glyph-name="uni012A" unicode="&#x012A;" d="M26 0L214 700L338 700L150 0L26 0M115 769L139 859L498 859L474 769L115 769Z"  horiz-adv-x="317" vert-adv-y="1000"  />

      
      <glyph glyph-name="uni012B" unicode="&#x012B;" d="M12 0L154 528L275 528L133 0L12 0M64 606L88 694L431 694L407 606L64 606Z"  horiz-adv-x="286" vert-adv-y="1000"  />

      
      <glyph glyph-name="uni012C" unicode="&#x012C;" d="M26 0L214 700L338 700L150 0L26 0M291 756Q218 756 180.50 791.50Q143 827 154 890L234 890Q239 840 309 840Q376 840 408 890L500 890Q477 826 421 791Q365 756 291 756Z"  horiz-adv-x="317" vert-adv-y="1000"  />

      
      <glyph glyph-name="uni012D" unicode="&#x012D;" d="M12 0L154 528L275 528L133 0L12 0M242 593Q165 593 128 633.50Q91 674 95 738L179 738Q180 711 197.50 694Q215 677 249 677Q315 677 354 738L440 738Q418 673 366 633Q314 593 242 593Z"  horiz-adv-x="286" vert-adv-y="1000"  />

      
      <glyph glyph-name="uni012E" unicode="&#x012E;" d="M26 0L214 700L338 700L150 0L134 0Q79-48 79-75Q79-105 140-106L125-164Q105-167 88-167Q-19-164-19-100Q-19-54 49 0L26 0Z"  horiz-adv-x="317" vert-adv-y="1000"  />

      
      <glyph glyph-name="uni012F" unicode="&#x012F;" d="M12 0L154 528L275 528L133 0L116 0Q61-48 61-75Q61-105 122-106L107-164Q87-167 70-167Q-37-164-37-100Q-37-56 31 0L12 0M171 609L202 724L333 724L301 609L171 609Z"  horiz-adv-x="286" vert-adv-y="1000"  />

      
      <glyph glyph-name="uni0130" unicode="&#x0130;" d="M26 0L214 700L338 700L150 0L26 0M227 758L258 870L386 870L355 758L227 758Z"  horiz-adv-x="317" vert-adv-y="1000"  />

      
      <glyph glyph-name="uni0131" unicode="&#x0131;" d="M12 0L154 528L275 528L133 0L12 0Z"  horiz-adv-x="286" vert-adv-y="1000"  />

      
      <glyph glyph-name="uni0136" unicode="&#x0136;" d="M176-267L180-228Q255-219 268-160L213-160L241-59L359-59L336-145Q319-207 280.50-235.50Q242-264 176-267M19 0L207 700L331 700L236 347L646 700L815 700L459 401L639 0L502 0L361 328L192 186L143 0L19 0Z"  horiz-adv-x="723" vert-adv-y="1000"  />

      
      <glyph glyph-name="uni0137" unicode="&#x0137;" d="M90-272L94-233Q169-224 182-165L127-165L155-64L273-64L250-150Q233-212 194.50-240.50Q156-269 90-272M5 0L201 730L323 730L208 303L478 528L638 528L372 314L499 0L363 0L269 235L167 153L127 0L5 0Z"  horiz-adv-x="582" vert-adv-y="1000"  />

      
      <glyph glyph-name="uni0139" unicode="&#x0139;" d="M246 758L398 903L505 855L352 758L246 758M19 0L207 700L331 700L173 112L541 112L510 0L19 0Z"  horiz-adv-x="618" vert-adv-y="1000"  />

      
      <glyph glyph-name="uni013A" unicode="&#x013A;" d="M232 775L384 920L491 872L338 775L232 775M12 0L208 730L329 730L133 0L12 0Z"  horiz-adv-x="286" vert-adv-y="1000"  />

      
      <glyph glyph-name="uni013B" unicode="&#x013B;" d="M117-272L121-233Q196-224 209-165L154-165L182-64L300-64L277-150Q260-212 221.50-240.50Q183-269 117-272M19 0L207 700L331 700L173 112L541 112L510 0L19 0Z"  horiz-adv-x="618" vert-adv-y="1000"  />

      
      <glyph glyph-name="uni013C" unicode="&#x013C;" d="M-62-272L-58-233Q17-224 30-165L-25-165L3-64L121-64L98-150Q81-212 42.50-240.50Q4-269-62-272M12 0L208 730L329 730L133 0L12 0Z"  horiz-adv-x="286" vert-adv-y="1000"  />

      
      <glyph glyph-name="uni013D" unicode="&#x013D;" d="M356 559L412 749L513 749L513 746L407 559L356 559M19 0L207 700L331 700L173 112L541 112L510 0L19 0Z"  horiz-adv-x="618" vert-adv-y="1000"  />

      
      <glyph glyph-name="uni013E" unicode="&#x013E;" d="M351 589L407 779L508 779L508 776L402 589L351 589M12 0L208 730L329 730L133 0L12 0Z"  horiz-adv-x="286" vert-adv-y="1000"  />

      
      <glyph glyph-name="uni013F" unicode="&#x013F;" d="M429 317L461 436L584 436L551 317L429 317M19 0L207 700L331 700L173 112L541 112L510 0L19 0Z"  horiz-adv-x="624" vert-adv-y="1000"  />

      
      <glyph glyph-name="uni0140" unicode="&#x0140;" d="M289 319L319 431L425 431L395 319L289 319M12 0L208 730L329 730L133 0L12 0Z"  horiz-adv-x="367" vert-adv-y="1000"  />

      
      <glyph glyph-name="uni0141" unicode="&#x0141;" d="M50 256L81 370L160 392L243 700L367 700L294 429L511 490L481 376L263 315L209 112L577 112L546 0L55 0L129 278L50 256Z"  horiz-adv-x="655" vert-adv-y="1000"  />

      
      <glyph glyph-name="uni0142" unicode="&#x0142;" d="M41 274L71 389L152 411L238 730L359 730L283 447L365 470L334 355L252 332L163 0L42 0L121 296L41 274Z"  horiz-adv-x="344" vert-adv-y="1000"  />

      
      <glyph glyph-name="uni0143" unicode="&#x0143;" d="M469 757L621 902L728 854L575 757L469 757M19 0L207 700L321 700L558 205L692 700L813 700L625 0L522 0L277 509L141 0L19 0Z"  horiz-adv-x="786" vert-adv-y="1000"  />

      
      <glyph glyph-name="uni0144" unicode="&#x0144;" d="M338 595L488 759L596 710L443 595L338 595M5 0L146 528L267 528L249 461Q329 539 410 539Q483 539 526.50 496.50Q570 454 570 381Q570 350 554 288L478 0L357 0L435 293Q443 320 443 346Q443 386 419 407.50Q395 429 351 429Q301 429 261.50 392.50Q222 356 206 297L127 0L5 0Z"  horiz-adv-x="617" vert-adv-y="1000"  />

      
      <glyph glyph-name="uni0145" unicode="&#x0145;" d="M188-267L192-228Q267-219 280-160L225-160L253-59L371-59L348-145Q331-207 292.50-235.50Q254-264 188-267M19 0L207 700L321 700L558 205L692 700L813 700L625 0L522 0L277 509L141 0L19 0Z"  horiz-adv-x="786" vert-adv-y="1000"  />

      
      <glyph glyph-name="uni0146" unicode="&#x0146;" d="M97-272L101-233Q176-224 189-165L134-165L162-64L280-64L257-150Q240-212 201.50-240.50Q163-269 97-272M5 0L146 528L267 528L249 461Q329 539 410 539Q483 539 526.50 496.50Q570 454 570 381Q570 350 554 288L478 0L357 0L435 293Q443 320 443 346Q443 386 419 407.50Q395 429 351 429Q301 429 261.50 392.50Q222 356 206 297L127 0L5 0Z"  horiz-adv-x="617" vert-adv-y="1000"  />

      
      <glyph glyph-name="uni0147" unicode="&#x0147;" d="M745 892L589 757L474 757L390 892L483 892L545 835L638 892L745 892M19 0L207 700L321 700L558 205L692 700L813 700L625 0L522 0L277 509L141 0L19 0Z"  horiz-adv-x="786" vert-adv-y="1000"  />

      
      <glyph glyph-name="uni0148" unicode="&#x0148;" d="M315 595L238 742L328 742L386 675L483 742L583 742L428 595L315 595M5 0L146 528L267 528L249 461Q329 539 410 539Q483 539 526.50 496.50Q570 454 570 381Q570 350 554 288L478 0L357 0L435 293Q443 320 443 346Q443 386 419 407.50Q395 429 351 429Q301 429 261.50 392.50Q222 356 206 297L127 0L5 0Z"  horiz-adv-x="617" vert-adv-y="1000"  />

      
      <glyph glyph-name="uni014C" unicode="&#x014C;" d="M367 779L391 869L750 869L726 779L367 779M491 712Q631 712 718.50 624.50Q806 537 806 405Q806 323 773 245.50Q740 168 681 109Q562-12 390-12Q251-12 163.50 75.50Q76 163 76 295Q76 377 109 455Q142 533 201 591Q320 712 491 712M403 101Q508 101 587 180Q630 223 654 281Q678 339 678 398Q678 486 624.50 542.50Q571 599 479 599Q374 599 295 520Q252 477 228 419Q204 361 204 302Q204 213 257.50 157Q311 101 403 101Z"  horiz-adv-x="836" vert-adv-y="1000"  />

      
      <glyph glyph-name="uni014D" unicode="&#x014D;" d="M238 606L262 694L605 694L581 606L238 606M353 539Q465 539 533 471Q601 403 601 297Q601 171 508 80Q418-12 293-12Q181-12 113 55.50Q45 123 45 229Q45 354 138 447Q228 539 353 539M300 93Q368 93 417 144Q447 173 464 214Q481 255 481 294Q481 360 444 397Q407 434 346 434Q282 434 229 383Q199 354 182 313Q165 272 165 233Q165 167 202 130Q239 93 300 93Z"  horiz-adv-x="646" vert-adv-y="1000"  />

      
      <glyph glyph-name="uni014E" unicode="&#x014E;" d="M542 766Q469 766 431.50 801.50Q394 837 405 900L485 900Q490 850 560 850Q627 850 659 900L751 900Q728 836 672 801Q616 766 542 766M491 712Q631 712 718.50 624.50Q806 537 806 405Q806 323 773 245.50Q740 168 681 109Q562-12 390-12Q251-12 163.50 75.50Q76 163 76 295Q76 377 109 455Q142 533 201 591Q320 712 491 712M403 101Q508 101 587 180Q630 223 654 281Q678 339 678 398Q678 486 624.50 542.50Q571 599 479 599Q374 599 295 520Q252 477 228 419Q204 361 204 302Q204 213 257.50 157Q311 101 403 101Z"  horiz-adv-x="836" vert-adv-y="1000"  />

      
      <glyph glyph-name="uni014F" unicode="&#x014F;" d="M353 539Q465 539 533 471Q601 403 601 297Q601 171 508 80Q418-12 293-12Q181-12 113 55.50Q45 123 45 229Q45 354 138 447Q228 539 353 539M300 93Q368 93 417 144Q447 173 464 214Q481 255 481 294Q481 360 444 397Q407 434 346 434Q282 434 229 383Q199 354 182 313Q165 272 165 233Q165 167 202 130Q239 93 300 93M417 593Q340 593 303 633.50Q266 674 270 738L354 738Q355 711 372.50 694Q390 677 424 677Q490 677 529 738L615 738Q593 673 541 633Q489 593 417 593Z"  horiz-adv-x="646" vert-adv-y="1000"  />

      
      <glyph glyph-name="uni0150" unicode="&#x0150;" d="M491 712Q631 712 718.50 624.50Q806 537 806 405Q806 323 773 245.50Q740 168 681 109Q562-12 390-12Q251-12 163.50 75.50Q76 163 76 295Q76 377 109 455Q142 533 201 591Q320 712 491 712M403 101Q508 101 587 180Q630 223 654 281Q678 339 678 398Q678 486 624.50 542.50Q571 599 479 599Q374 599 295 520Q252 477 228 419Q204 361 204 302Q204 213 257.50 157Q311 101 403 101M380 768L532 913L636 865L482 768L380 768M559 768L711 913L815 865L661 768L559 768Z"  horiz-adv-x="836" vert-adv-y="1000"  />

      
      <glyph glyph-name="uni0151" unicode="&#x0151;" d="M226 595L375 759L468 710L316 595L226 595M408 595L558 759L651 710L498 595L408 595M353 539Q465 539 533 471Q601 403 601 297Q601 171 508 80Q418-12 293-12Q181-12 113 55.50Q45 123 45 229Q45 354 138 447Q228 539 353 539M300 93Q368 93 417 144Q447 173 464 214Q481 255 481 294Q481 360 444 397Q407 434 346 434Q282 434 229 383Q199 354 182 313Q165 272 165 233Q165 167 202 130Q239 93 300 93Z"  horiz-adv-x="646" vert-adv-y="1000"  />

      
      <glyph glyph-name="uni0152" unicode="&#x0152;" d="M424 0Q242 0 147 95Q75 167 75 295Q75 458 188 569Q319 700 551 700L1152 700L1122 590L748 590L700 407L1029 407L999 298L670 298L619 110L999 110L969 0L424 0M251 171Q310 112 434 112L497 112L625 588L537 588Q375 588 280 493Q203 416 203 300Q203 219 251 171Z"  horiz-adv-x="1091" vert-adv-y="1000"  />

      
      <glyph glyph-name="uni0153" unicode="&#x0153;" d="M977 222L593 222Q593 160 628.50 123.50Q664 87 730 87Q797 87 866 138L923 61Q839-12 719-12Q645-12 592.50 18Q540 48 516 103Q429-12 293-12Q181-12 113 55.50Q45 123 45 229Q45 354 138 447Q228 539 353 539Q429 539 482.50 505.50Q536 472 560 416Q647 539 789 539Q888 539 944 481Q1000 423 1000 334Q1000 277 977 222M300 93Q368 93 417 144Q447 173 464 214Q481 255 481 294Q481 360 444 397Q407 434 346 434Q282 434 229 383Q199 354 182 313Q165 272 165 233Q165 167 202 130Q239 93 300 93M658 388Q623 353 606 302L880 302Q885 317 885 339Q885 383 858.50 411.50Q832 440 780 440Q710 440 658 388Z"  horiz-adv-x="1034" vert-adv-y="1000"  />

      
      <glyph glyph-name="uni0154" unicode="&#x0154;" d="M474 0L354 244L208 244L143 0L19 0L207 700L461 700Q606 700 673 632Q724 581 724 500Q724 402 660 340Q600 280 485 256L615 0L474 0M238 353L396 353Q510 353 561 406Q596 441 596 490Q596 527 571 554Q535 588 454 588L301 588L238 353M406 758L558 903L665 855L512 758L406 758Z"  horiz-adv-x="723" vert-adv-y="1000"  />

      
      <glyph glyph-name="uni0155" unicode="&#x0155;" d="M243 595L393 759L501 710L348 595L243 595M5 0L146 528L267 528L236 409Q331 546 457 538L423 410L416 410Q333 410 270 356Q207 302 179 196L127 0L5 0Z"  horiz-adv-x="412" vert-adv-y="1000"  />

      
      <glyph glyph-name="uni0156" unicode="&#x0156;" d="M474 0L354 244L208 244L143 0L19 0L207 700L461 700Q606 700 673 632Q724 581 724 500Q724 402 660 340Q600 280 485 256L615 0L474 0M238 353L396 353Q510 353 561 406Q596 441 596 490Q596 527 571 554Q535 588 454 588L301 588L238 353M156-267L160-228Q235-219 248-160L193-160L221-59L339-59L316-145Q299-207 260.50-235.50Q222-264 156-267Z"  horiz-adv-x="723" vert-adv-y="1000"  />

      
      <glyph glyph-name="uni0157" unicode="&#x0157;" d="M-62-272L-58-233Q17-224 30-165L-25-165L3-64L121-64L98-150Q81-212 42.50-240.50Q4-269-62-272M5 0L146 528L267 528L236 409Q331 546 457 538L423 410L416 410Q333 410 270 356Q207 302 179 196L127 0L5 0Z"  horiz-adv-x="412" vert-adv-y="1000"  />

      
      <glyph glyph-name="uni0158" unicode="&#x0158;" d="M474 0L354 244L208 244L143 0L19 0L207 700L461 700Q606 700 673 632Q724 581 724 500Q724 402 660 340Q600 280 485 256L615 0L474 0M238 353L396 353Q510 353 561 406Q596 441 596 490Q596 527 571 554Q535 588 454 588L301 588L238 353M683 893L527 758L412 758L328 893L421 893L483 836L576 893L683 893Z"  horiz-adv-x="723" vert-adv-y="1000"  />

      
      <glyph glyph-name="uni0159" unicode="&#x0159;" d="M220 595L143 742L233 742L291 675L388 742L488 742L333 595L220 595M5 0L146 528L267 528L236 409Q331 546 457 538L423 410L416 410Q333 410 270 356Q207 302 179 196L127 0L5 0Z"  horiz-adv-x="412" vert-adv-y="1000"  />

      
      <glyph glyph-name="uni015A" unicode="&#x015A;" d="M296-10Q98-10-1 121L92 198Q179 99 303 99Q362 99 400 126Q438 153 438 196Q438 228 410.50 250.50Q383 273 309 302Q219 338 174 380Q129 422 129 490Q129 574 187 632Q265 710 398 710Q560 710 655 605L569 521Q487 601 389 601Q330 601 294.50 573.50Q259 546 259 509Q259 476 287.50 454.50Q316 433 395 402Q483 368 526 325.50Q569 283 569 214Q569 130 508 69Q429-10 296-10M381 768L533 913L640 865L487 768L381 768Z"  horiz-adv-x="637" vert-adv-y="1000"  />

      
      <glyph glyph-name="uni015B" unicode="&#x015B;" d="M273 595L423 759L531 710L378 595L273 595M217-12Q154-12 91 12.50Q28 37-17 83L56 157Q130 83 227 83Q263 83 287 100Q311 117 311 146Q311 165 293 180Q275 195 234 212Q156 244 119 275.50Q82 307 82 363Q82 439 139 489Q196 539 289 539Q347 539 402 517Q457 495 492 464L425 386Q352 444 280 444Q242 444 220.50 427Q199 410 199 384Q199 364 218 349Q237 334 283 315Q354 285 391 252.50Q428 220 428 167Q428 86 368.50 37Q309-12 217-12Z"  horiz-adv-x="499" vert-adv-y="1000"  />

      
      <glyph glyph-name="uni015E" unicode="&#x015E;" d="M186-166L93-121L205-2Q72 22-1 121L92 198Q179 99 303 99Q362 99 400 126Q438 153 438 196Q438 228 410.50 250.50Q383 273 309 302Q219 338 174 380Q129 422 129 490Q129 574 187 632Q265 710 398 710Q560 710 655 605L569 521Q487 601 389 601Q330 601 294.50 573.50Q259 546 259 509Q259 476 287.50 454.50Q316 433 395 402Q483 368 526 325.50Q569 283 569 214Q569 130 508 69Q429-10 296-10L294-10L186-166Z"  horiz-adv-x="637" vert-adv-y="1000"  />

      
      <glyph glyph-name="uni015F" unicode="&#x015F;" d="M117-166L24-121L136-2Q46 19-17 83L56 157Q130 83 227 83Q263 83 287 100Q311 117 311 146Q311 165 293 180Q275 195 234 212Q156 244 119 275.50Q82 307 82 363Q82 439 139 489Q196 539 289 539Q347 539 402 517Q457 495 492 464L425 386Q352 444 280 444Q242 444 220.50 427Q199 410 199 384Q199 364 218 349Q237 334 283 315Q354 285 391 252.50Q428 220 428 167Q428 88 370.50 39Q313-10 223-12L117-166Z"  horiz-adv-x="499" vert-adv-y="1000"  />

      
      <glyph glyph-name="uni0160" unicode="&#x0160;" d="M296-10Q98-10-1 121L92 198Q179 99 303 99Q362 99 400 126Q438 153 438 196Q438 228 410.50 250.50Q383 273 309 302Q219 338 174 380Q129 422 129 490Q129 574 187 632Q265 710 398 710Q560 710 655 605L569 521Q487 601 389 601Q330 601 294.50 573.50Q259 546 259 509Q259 476 287.50 454.50Q316 433 395 402Q483 368 526 325.50Q569 283 569 214Q569 130 508 69Q429-10 296-10M658 903L502 768L387 768L303 903L396 903L458 846L551 903L658 903Z"  horiz-adv-x="637" vert-adv-y="1000"  />

      
      <glyph glyph-name="uni0161" unicode="&#x0161;" d="M250 595L173 742L263 742L321 675L418 742L518 742L363 595L250 595M217-12Q154-12 91 12.50Q28 37-17 83L56 157Q130 83 227 83Q263 83 287 100Q311 117 311 146Q311 165 293 180Q275 195 234 212Q156 244 119 275.50Q82 307 82 363Q82 439 139 489Q196 539 289 539Q347 539 402 517Q457 495 492 464L425 386Q352 444 280 444Q242 444 220.50 427Q199 410 199 384Q199 364 218 349Q237 334 283 315Q354 285 391 252.50Q428 220 428 167Q428 86 368.50 37Q309-12 217-12Z"  horiz-adv-x="499" vert-adv-y="1000"  />

      
      <glyph glyph-name="uni0162" unicode="&#x0162;" d="M100-272L104-233Q179-224 192-165L137-165L165-64L283-64L260-150Q243-212 204.50-240.50Q166-269 100-272M174 0L332 586L109 586L140 700L708 700L677 586L455 586L297 0L174 0Z"  horiz-adv-x="619" vert-adv-y="1000"  />

      
      <glyph glyph-name="uni0163" unicode="&#x0163;" d="M26-272L30-233Q105-224 118-165L63-165L91-64L209-64L186-150Q169-212 130.50-240.50Q92-269 26-272M196-9Q133-9 98.50 19.50Q64 48 64 95Q64 126 73 156L144 424L77 424L105 528L172 528L211 673L332 673L293 528L434 528L406 424L265 424L197 169Q193 149 193 139Q193 98 246 98Q283 98 323 115L295 10Q253-9 196-9Z"  horiz-adv-x="409" vert-adv-y="1000"  />

      
      <glyph glyph-name="uni0164" unicode="&#x0164;" d="M659 893L503 758L388 758L304 893L397 893L459 836L552 893L659 893M174 0L332 586L109 586L140 700L708 700L677 586L455 586L297 0L174 0Z"  horiz-adv-x="619" vert-adv-y="1000"  />

      
      <glyph glyph-name="uni0165" unicode="&#x0165;" d="M374 589L430 779L531 779L531 776L425 589L374 589M196-9Q133-9 98.50 19.50Q64 48 64 95Q64 126 73 156L144 424L77 424L105 528L172 528L211 673L332 673L293 528L434 528L406 424L265 424L197 169Q193 149 193 139Q193 98 246 98Q283 98 323 115L295 10Q253-9 196-9Z"  horiz-adv-x="409" vert-adv-y="1000"  />

      
      <glyph glyph-name="uni016A" unicode="&#x016A;" d="M329 768L353 858L712 858L688 768L329 768M345-11Q223-11 154.50 51Q86 113 86 220Q86 276 102 331L200 700L324 700L220 314Q210 276 210 237Q210 177 248 140Q286 103 357 103Q436 103 488 155Q541 208 565 302L672 700L795 700L683 283Q647 149 574 76Q487-11 345-11Z"  horiz-adv-x="762" vert-adv-y="1000"  />

      
      <glyph glyph-name="uni016B" unicode="&#x016B;" d="M209-11Q135-11 91.50 31.50Q48 74 48 147Q48 178 64 240L141 528L262 528L183 235Q176 207 176 182Q176 142 200 120.50Q224 99 267 99Q317 99 356.50 135.50Q396 172 412 231L492 528L613 528L472 0L351 0L369 68Q290-11 209-11M222 606L246 694L589 694L565 606L222 606Z"  horiz-adv-x="618" vert-adv-y="1000"  />

      
      <glyph glyph-name="uni016C" unicode="&#x016C;" d="M502 748Q429 748 391.50 783.50Q354 819 365 882L445 882Q450 832 520 832Q587 832 619 882L711 882Q688 818 632 783Q576 748 502 748M345-11Q223-11 154.50 51Q86 113 86 220Q86 276 102 331L200 700L324 700L220 314Q210 276 210 237Q210 177 248 140Q286 103 357 103Q436 103 488 155Q541 208 565 302L672 700L795 700L683 283Q647 149 574 76Q487-11 345-11Z"  horiz-adv-x="762" vert-adv-y="1000"  />

      
      <glyph glyph-name="uni016D" unicode="&#x016D;" d="M209-11Q135-11 91.50 31.50Q48 74 48 147Q48 178 64 240L141 528L262 528L183 235Q176 207 176 182Q176 142 200 120.50Q224 99 267 99Q317 99 356.50 135.50Q396 172 412 231L492 528L613 528L472 0L351 0L369 68Q290-11 209-11M401 593Q324 593 287 633.50Q250 674 254 738L338 738Q339 711 356.50 694Q374 677 408 677Q474 677 513 738L599 738Q577 673 525 633Q473 593 401 593Z"  horiz-adv-x="618" vert-adv-y="1000"  />

      
      <glyph glyph-name="uni016E" unicode="&#x016E;" d="M345-11Q223-11 154.50 51Q86 113 86 220Q86 276 102 331L200 700L324 700L220 314Q210 276 210 237Q210 177 248 140Q286 103 357 103Q436 103 488 155Q541 208 565 302L672 700L795 700L683 283Q647 149 574 76Q487-11 345-11M538 945Q584 945 614.50 918Q645 891 645 852Q645 802 608.50 767.50Q572 733 513 733Q467 733 436 760Q405 787 405 826Q405 876 442 910.50Q479 945 538 945M517 780Q548 780 569.50 800.50Q591 821 591 847Q591 870 575 884Q559 898 534 898Q502 898 481 878Q460 858 460 831Q460 808 475.50 794Q491 780 517 780Z"  horiz-adv-x="762" vert-adv-y="1000"  />

      
      <glyph glyph-name="uni016F" unicode="&#x016F;" d="M531 706Q531 656 494 618.50Q457 581 405 581Q358 581 328 609.50Q298 638 298 680Q298 730 335 767.50Q372 805 424 805Q472 805 501.50 776.50Q531 748 531 706M350 684Q350 658 365.50 642Q381 626 407 626Q438 626 459 649Q480 672 480 702Q480 728 464 744Q448 760 422 760Q392 760 371 736.50Q350 713 350 684M209-11Q135-11 91.50 31.50Q48 74 48 147Q48 178 64 240L141 528L262 528L183 235Q176 207 176 182Q176 142 200 120.50Q224 99 267 99Q317 99 356.50 135.50Q396 172 412 231L492 528L613 528L472 0L351 0L369 68Q290-11 209-11Z"  horiz-adv-x="618" vert-adv-y="1000"  />

      
      <glyph glyph-name="uni0170" unicode="&#x0170;" d="M345-11Q223-11 154.50 51Q86 113 86 220Q86 276 102 331L200 700L324 700L220 314Q210 276 210 237Q210 177 248 140Q286 103 357 103Q436 103 488 155Q541 208 565 302L672 700L795 700L683 283Q647 149 574 76Q487-11 345-11M342 757L494 902L598 854L444 757L342 757M521 757L673 902L777 854L623 757L521 757Z"  horiz-adv-x="762" vert-adv-y="1000"  />

      
      <glyph glyph-name="uni0171" unicode="&#x0171;" d="M209-11Q135-11 91.50 31.50Q48 74 48 147Q48 178 64 240L141 528L262 528L183 235Q176 207 176 182Q176 142 200 120.50Q224 99 267 99Q317 99 356.50 135.50Q396 172 412 231L492 528L613 528L472 0L351 0L369 68Q290-11 209-11M211 595L360 759L453 710L301 595L211 595M393 595L543 759L636 710L483 595L393 595Z"  horiz-adv-x="618" vert-adv-y="1000"  />

      
      <glyph glyph-name="uni0172" unicode="&#x0172;" d="M371-106L356-164Q336-167 319-167Q212-164 212-100Q212-56 274-4Q184 12 135 71Q86 130 86 220Q86 276 102 331L200 700L324 700L220 314Q210 276 210 237Q210 177 248 140Q286 103 357 103Q436 103 488 155Q541 208 565 302L672 700L795 700L683 283Q647 149 574 76Q490-8 352-11Q310-50 310-75Q310-105 371-106Z"  horiz-adv-x="762" vert-adv-y="1000"  />

      
      <glyph glyph-name="uni0173" unicode="&#x0173;" d="M209-11Q135-11 91.50 31.50Q48 74 48 147Q48 178 64 240L141 528L262 528L183 235Q176 207 176 182Q176 142 200 120.50Q224 99 267 99Q317 99 356.50 135.50Q396 172 412 231L492 528L613 528L472 0L456 0Q401-48 401-75Q401-105 462-106L447-164Q428-167 410-167Q303-164 303-100Q303-54 371 0L351 0L369 68Q290-11 209-11Z"  horiz-adv-x="618" vert-adv-y="1000"  />

      
      <glyph glyph-name="uni0174" unicode="&#x0174;" d="M191-5L136 700L264 700L293 181L602 702L706 702L740 181L1046 700L1186 700L753-5L640-5L604 492L302-5L191-5M483 758L640 893L754 893L839 758L745 758L684 816L591 758L483 758Z"  horiz-adv-x="1098" vert-adv-y="1000"  />

      
      <glyph glyph-name="uni0175" unicode="&#x0175;" d="M330 595L485 742L598 742L675 595L585 595L526 662L430 595L330 595M121-4L92 528L215 528L225 168L439 530L542 530L562 167L768 528L890 528L574-4L465-4L444 357L228-4L121-4Z"  horiz-adv-x="853" vert-adv-y="1000"  />

      
      <glyph glyph-name="uni0176" unicode="&#x0176;" d="M189 0L263 278L107 700L244 700L349 384L626 700L778 700L383 265L312 0L189 0M259 757L416 892L530 892L615 757L521 757L460 815L367 757L259 757Z"  horiz-adv-x="655" vert-adv-y="1000"  />

      
      <glyph glyph-name="uni0177" unicode="&#x0177;" d="M168-2L91 528L215 528L259 137L492 528L624 528L283-15Q230-95 180-129Q130-163 66-163Q-2-163-54-127L10-38Q42-61 78-61Q103-61 123-48Q143-35 168-2M187 595L342 742L455 742L532 595L442 595L383 662L287 595L187 595Z"  horiz-adv-x="585" vert-adv-y="1000"  />

      
      <glyph glyph-name="uni0178" unicode="&#x0178;" d="M189 0L263 278L107 700L244 700L349 384L626 700L778 700L383 265L312 0L189 0M280 757L311 869L435 869L404 757L280 757M485 757L516 869L640 869L609 757L485 757Z"  horiz-adv-x="655" vert-adv-y="1000"  />

      
      <glyph glyph-name="uni0179" unicode="&#x0179;" d="M-19 0L5 91L540 591L153 591L183 700L740 700L715 609L180 109L584 109L555 0L-19 0M401 758L553 903L660 855L507 758L401 758Z"  horiz-adv-x="681" vert-adv-y="1000"  />

      
      <glyph glyph-name="uni017A" unicode="&#x017A;" d="M296 595L446 759L554 710L401 595L296 595M-24 0L-1 83L387 429L102 429L128 528L573 528L551 445L162 99L461 99L435 0L-24 0Z"  horiz-adv-x="554" vert-adv-y="1000"  />

      
      <glyph glyph-name="uni017B" unicode="&#x017B;" d="M393 758L424 870L552 870L521 758L393 758M-19 0L5 91L540 591L153 591L183 700L740 700L715 609L180 109L584 109L555 0L-19 0Z"  horiz-adv-x="681" vert-adv-y="1000"  />

      
      <glyph glyph-name="uni017C" unicode="&#x017C;" d="M-24 0L-1 83L387 429L102 429L128 528L573 528L551 445L162 99L461 99L435 0L-24 0M286 594L319 714L444 714L411 594L286 594Z"  horiz-adv-x="554" vert-adv-y="1000"  />

      
      <glyph glyph-name="uni017D" unicode="&#x017D;" d="M678 893L522 758L407 758L323 893L416 893L478 836L571 893L678 893M-19 0L5 91L540 591L153 591L183 700L740 700L715 609L180 109L584 109L555 0L-19 0Z"  horiz-adv-x="681" vert-adv-y="1000"  />

      
      <glyph glyph-name="uni017E" unicode="&#x017E;" d="M273 595L196 742L286 742L344 675L441 742L541 742L386 595L273 595M-24 0L-1 83L387 429L102 429L128 528L573 528L551 445L162 99L461 99L435 0L-24 0Z"  horiz-adv-x="554" vert-adv-y="1000"  />

      
      </font>
</defs>
</svg>
