<?xml version="1.0" standalone="no"?>
  <!DOCTYPE svg PUBLIC "-//W3C//DTD SVG 1.1//EN" "http://www.w3.org/Graphics/SVG/1.1/DTD/svg11.dtd" >
  <svg>
  <metadata>
  Created by font-carrier
  </metadata>
  <defs>
  <font id="Gotham-ExtraLightItalic" horiz-adv-x="1206" vert-adv-y="1206" >
    <font-face
      
      font-family="Gotham-ExtraLightItalic"
      
      font-weight="400"
      
      font-stretch="normal"
      
      units-per-em="1000"
      
      ascent="800"
      
      descent="-200"
      
    />
      <missing-glyph />

      

      
      <glyph glyph-name="uni21" unicode="&#x21;" d="M81 183L186 607L211 700L247 700L222 607L98 183L81 183M17 0L34 65L82 65L65 0L17 0Z"  horiz-adv-x="217" vert-adv-y="1000"  />

      
      <glyph glyph-name="uni22" unicode="&#x22;" d="M96 446L195 700L235 700L235 697L115 446L96 446M245 446L344 700L384 700L384 697L264 446L245 446Z"  horiz-adv-x="346" vert-adv-y="1000"  />

      
      <glyph glyph-name="uni23" unicode="&#x23;" d="M96 0L164 195L47 195L55 226L174 226L263 480L134 480L142 510L273 510L340 700L371 700L305 510L531 510L597 700L628 700L562 510L679 510L671 480L551 480L463 226L592 226L584 195L452 195L384 0L353 0L421 195L195 195L127 0L96 0M206 226L432 226L521 480L294 480L206 226Z"  horiz-adv-x="667" vert-adv-y="1000"  />

      
      <glyph glyph-name="uni24" unicode="&#x24;" d="M432 758L463 758L445 693Q547 673 616 602L593 579Q527 645 435 663L356 368Q447 334 491 294.50Q535 255 535 189Q535 112 469.50 56Q404 0 291 0Q268 0 257 1L231-98L200-98L227 5Q95 26 13 124L38 146Q112 54 237 34L321 346Q228 380 183.50 418Q139 456 139 519Q139 593 203 646.50Q267 700 372 700Q394 700 415 697L432 758M500 186Q500 241 464.50 273Q429 305 347 337L265 31Q275 30 296 30Q391 30 445.50 77Q500 124 500 186M173 522Q173 469 210 438.50Q247 408 329 377L407 668Q381 670 368 670Q280 670 226.50 625.50Q173 581 173 522Z"  horiz-adv-x="620" vert-adv-y="1000"  />

      
      <glyph glyph-name="uni25" unicode="&#x25;" d="M586-8Q526-8 488 33.50Q450 75 450 138Q450 233 518 301Q571 354 638 354Q698 354 736 312.50Q774 271 774 208Q774 113 706 45Q653-8 586-8M235 346Q175 346 137.50 387.50Q100 429 100 492Q100 586 167 655Q220 708 288 708Q347 708 385 666.50Q423 625 423 562Q423 467 355 399Q302 346 235 346M588 21Q640 21 682 63Q741 122 741 205Q741 258 712.50 291.50Q684 325 636 325Q584 325 542 283Q483 224 483 141Q483 88 511.50 54.50Q540 21 588 21M237 375Q289 375 331 417Q390 476 390 559Q390 612 361.50 645.50Q333 679 285 679Q233 679 191 637Q132 578 132 495Q132 443 161 409Q190 375 237 375M71 0L763 700L802 700L456 350L111 0L71 0Z"  horiz-adv-x="823" vert-adv-y="1000"  />

      
      <glyph glyph-name="uni26" unicode="&#x26;" d="M617 332L644 317Q572 201 513 137L605 6L580-11L491 114Q365-10 229-10Q147-10 90 36.50Q33 83 33 163Q33 334 289 399Q235 478 235 540Q235 614 288 663Q341 712 418 712Q487 712 529.50 673.50Q572 635 572 575Q572 444 337 381L495 159Q556 228 617 332M232 20Q357 20 473 138L306 375Q68 316 68 166Q68 99 114.50 59.50Q161 20 232 20M312 641.50Q312 641.50 290.50 621.25Q269 601 269 541Q269 481 320 404Q429 433 484 474Q539 515 539 574Q539 622 505 652Q471 682 417 682Q355 682 312 641.50Z"  horiz-adv-x="682" vert-adv-y="1000"  />

      
      <glyph glyph-name="uni27" unicode="&#x27;" d="M96 446L195 700L235 700L235 697L115 446L96 446Z"  horiz-adv-x="198" vert-adv-y="1000"  />

      
      <glyph glyph-name="uni28" unicode="&#x28;" d="M270-134Q93 11 93 219Q93 415 243 565Q342 664 490 719L501 693Q362 639 267 546Q127 406 127 220Q127 29 289-113L270-134Z"  horiz-adv-x="406" vert-adv-y="1000"  />

      
      <glyph glyph-name="uni29" unicode="&#x29;" d="M157 717Q334 572 334 364Q334 168 184 18Q85-81-63-136L-74-110Q65-56 160 37Q300 177 300 363Q300 554 138 696L157 717Z"  horiz-adv-x="406" vert-adv-y="1000"  />

      
      <glyph glyph-name="uni2a" unicode="&#x2a;" d="M268 407L239 415L281 544L152 501L144 530L278 558L175 649L198 670L288 569L316 701L345 693L303 564L432 607L440 578L306 550L409 459L386 438L296 539L268 407Z"  horiz-adv-x="431" vert-adv-y="1000"  />

      
      <glyph glyph-name="uni2b" unicode="&#x2b;" d="M249 113L310 337L92 337L100 367L318 367L378 591L410 591L350 367L568 367L560 337L342 337L281 113L249 113Z"  horiz-adv-x="608" vert-adv-y="1000"  />

      
      <glyph glyph-name="uni2c" unicode="&#x2c;" d="M-28-90L-33-73Q12-60 25 0L4 0L21 65L69 65L54 8Q41-38 23-59.50Q5-81-28-90Z"  horiz-adv-x="191" vert-adv-y="1000"  />

      
      <glyph glyph-name="uni2d" unicode="&#x2d;" d="M76 280L86 315L342 315L332 280L76 280Z"  horiz-adv-x="396" vert-adv-y="1000"  />

      
      <glyph glyph-name="uni2e" unicode="&#x2e;" d="M4 0L21 65L69 65L52 0L4 0Z"  horiz-adv-x="191" vert-adv-y="1000"  />

      
      <glyph glyph-name="uni2f" unicode="&#x2f;" d="M-107-128L611 798L647 798L-71-128L-107-128Z"  horiz-adv-x="495" vert-adv-y="1000"  />

      
      <glyph glyph-name="uni30" unicode="&#x30;" d="M442 712Q554 712 614.50 639Q675 566 675 449Q675 346 636.50 248Q598 150 532 83Q437-12 318-12Q206-12 146 61Q86 134 86 251Q86 354 124 452Q162 550 228 617Q323 712 442 712M320 19Q422 19 505 102Q567 164 603.50 257.50Q640 351 640 448Q640 552 588.50 616.50Q537 681 440 681Q340 681 255 598Q193 536 156.50 442.50Q120 349 120 252Q120 148 171.50 83.50Q223 19 320 19Z"  horiz-adv-x="708" vert-adv-y="1000"  />

      
      <glyph glyph-name="uni31" unicode="&#x31;" d="M98 0L277 666L130 612L127 642L294 705L321 705L132 0L98 0Z"  horiz-adv-x="321" vert-adv-y="1000"  />

      
      <glyph glyph-name="uni32" unicode="&#x32;" d="M-20 0L-15 23L402 356Q472 413 501.50 454Q531 495 531 544Q531 602 486.50 640.50Q442 679 365 679Q254 679 158 574L134 594Q239 710 366 710Q457 710 511.50 663Q566 616 566 545Q566 489 533 442Q500 395 422 333L44 32L468 32L459 0L-20 0Z"  horiz-adv-x="571" vert-adv-y="1000"  />

      
      <glyph glyph-name="uni33" unicode="&#x33;" d="M236-11Q151-11 90.50 24Q30 59 0 121L28 136Q90 19 237 19Q337 19 404.50 71.50Q472 124 472 209Q472 275 416.50 313Q361 351 257 351L231 351L224 370L557 668L168 668L178 700L614 700L607 676L278 379Q383 377 445 332.50Q507 288 507 211Q507 130 447 68Q368-11 236-11Z"  horiz-adv-x="575" vert-adv-y="1000"  />

      
      <glyph glyph-name="uni34" unicode="&#x34;" d="M378 0L426 178L27 178L22 202L569 705L599 705L467 208L581 208L573 178L459 178L411 0L378 0M72 208L434 208L552 651L72 208Z"  horiz-adv-x="629" vert-adv-y="1000"  />

      
      <glyph glyph-name="uni35" unicode="&#x35;" d="M248-12Q167-12 107.50 23.50Q48 59 15 115L43 132Q111 18 250 18Q353 18 421.50 79.50Q490 141 490 227Q490 304 439 345.50Q388 387 305 387Q223 387 136 343L116 359L228 700L598 700L589 668L249 668L155 383Q228 418 306 418Q404 418 464.50 367.50Q525 317 525 228Q525 137 457 69Q376-12 248-12Z"  horiz-adv-x="587" vert-adv-y="1000"  />

      
      <glyph glyph-name="uni36" unicode="&#x36;" d="M308-12Q209-12 144 51Q82 113 82 222Q82 341 121.50 444.50Q161 548 230 616Q325 712 449 712Q569 712 646 618L621 597Q549 681 447 681Q339 681 255 597Q139 481 119 292Q146 349 209 390Q272 431 354 431Q456 431 515.50 374.50Q575 318 575 237Q575 138 503 66Q423-12 308-12M310 18Q411 18 477 86Q540 149 540 236Q540 306 491 353Q442 400 352 400Q246 400 176 330Q118 272 118 201Q118 123 169 72Q223 18 310 18Z"  horiz-adv-x="629" vert-adv-y="1000"  />

      
      <glyph glyph-name="uni37" unicode="&#x37;" d="M63 0L555 668L137 668L146 700L604 700L598 677L102 0L63 0Z"  horiz-adv-x="550" vert-adv-y="1000"  />

      
      <glyph glyph-name="uni38" unicode="&#x38;" d="M295-10Q184-10 113.50 40.50Q43 91 43 171Q43 249 105.50 303Q168 357 267 369Q214 388 181.50 427Q149 466 149 519Q149 600 219.50 655Q290 710 394 710Q489 710 553 662.50Q617 615 617 541Q617 469 563 418Q509 367 424 354Q486 335 525 291Q564 247 564 189Q564 103 489 46.50Q414-10 295-10M296 21Q402 21 465.50 68Q529 115 529 189Q529 255 469.50 301Q410 347 317 347Q213 347 145.50 296Q78 245 78 174Q78 105 138.50 63Q199 21 296 21M364 373Q459 373 520.50 421Q582 469 582 539Q582 599 528 639Q474 679 393 679Q302 679 243 633Q184 587 184 518Q184 457 235.50 415Q287 373 364 373Z"  horiz-adv-x="631" vert-adv-y="1000"  />

      
      <glyph glyph-name="uni39" unicode="&#x39;" d="M450 84Q354-12 231-12Q108-12 28 89L53 110Q128 19 233 19Q340 19 424 103Q539 216 561 405Q533 347 470.50 304.50Q408 262 324 262Q222 262 163 319.50Q104 377 104 460Q104 560 177 633Q256 712 372 712Q472 712 535 649Q598 586 598 478Q598 360 558 256Q518 152 450 84M328 293Q431 293 502 364Q561 423 561 498Q561 577 510 628Q456 682 369 682Q271 682 205 616Q141 552 139 461Q139 389 188 341Q237 293 328 293Z"  horiz-adv-x="629" vert-adv-y="1000"  />

      
      <glyph glyph-name="uni3a" unicode="&#x3a;" d="M7 0L25 65L73 65L55 0L7 0M125 439L142 504L190 504L173 439L125 439Z"  horiz-adv-x="197" vert-adv-y="1000"  />

      
      <glyph glyph-name="uni3b" unicode="&#x3b;" d="M-27-83Q-23-82-20-79Q-17-76-14.50-69.50Q-12-63-10.50-59Q-9-55-6.50-45.50Q-4-36-3-33Q2-31 5-29Q8-27 10-25Q12-23 13.50-19.50Q15-16 15.50-14Q16-12 17-7Q18-2 18 0L15 31L46 65L65 38Q57 9 45-15.50Q33-40 21-43Q16-62 6-69Q-4-76-27-83M125 439L142 504L190 504L173 439L125 439Z"  horiz-adv-x="197" vert-adv-y="1000"  />

      
      <glyph glyph-name="uni3c" unicode="&#x3c;" d="M481 104L83 341L89 363L614 600L604 562L129 349L490 136L481 104Z"  horiz-adv-x="608" vert-adv-y="1000"  />

      
      <glyph glyph-name="uni3d" unicode="&#x3d;" d="M79 221L88 253L518 253L509 221L79 221M142 452L150 484L580 484L572 452L142 452Z"  horiz-adv-x="608" vert-adv-y="1000"  />

      
      <glyph glyph-name="uni3e" unicode="&#x3e;" d="M45 104L55 142L530 355L169 568L178 600L576 363L570 341L45 104Z"  horiz-adv-x="608" vert-adv-y="1000"  />

      
      <glyph glyph-name="uni3f" unicode="&#x3f;" d="M197 183L230 342L235 346Q349 356 421.50 404.50Q494 453 494 537Q494 600 448.50 639Q403 678 327 678Q216 678 122 586L101 608Q204 709 329 709Q421 709 475 660.50Q529 612 529 538Q529 444 453.50 389Q378 334 261 318L216 183L197 183M133 0L151 65L199 65L181 0L133 0Z"  horiz-adv-x="514" vert-adv-y="1000"  />

      
      <glyph glyph-name="uni40" unicode="&#x40;" d="M462-160Q282-160 175.50-56Q69 48 69 214Q69 316 109 409Q149 502 215 568Q281 634 370 673Q459 712 553 712Q721 712 821.50 611Q922 510 922 367Q922 231 859.50 154.50Q797 78 725 78Q668 78 643.50 110.50Q619 143 622 191Q592 141 543.50 109Q495 77 435 77Q366 77 323.50 122Q281 167 281 239Q281 335 349 412Q417 489 510 489Q578 489 616.50 453Q655 417 664 363L697 471L727 463L662 252Q650 213 650 183Q650 103 727 103Q789 103 842.50 172.50Q896 242 896 367Q896 500 802 594Q708 688 552 688Q432 688 327 625.50Q222 563 158.50 453.50Q95 344 95 215Q95 61 194-37.50Q293-136 463-136Q584-136 681-89L692-111Q590-160 462-160M440 108Q521 108 583.50 176Q646 244 646 318Q646 383 611 420.50Q576 458 511 458Q428 458 372.50 391.50Q317 325 317 241Q317 180 350 144Q383 108 440 108Z"  horiz-adv-x="961" vert-adv-y="1000"  />

      
      <glyph glyph-name="uni41" unicode="&#x41;" d="M-29 0L493 705L524 705L666 0L632 0L592 204L160 204L10 0L-29 0M183 235L586 235L501 665L183 235Z"  horiz-adv-x="764" vert-adv-y="1000"  />

      
      <glyph glyph-name="uni42" unicode="&#x42;" d="M37 0L225 700L482 700Q575 700 632.50 658Q690 616 690 543Q690 463 634 413.50Q578 364 497 353Q563 338 601 301Q639 264 639 206Q639 116 563 58Q487 0 350 0L37 0M79 31L353 31Q473 31 539 79.50Q605 128 605 207Q605 270 550 304Q495 338 406 338L161 338L79 31M170 369L407 369Q522 369 588.50 415Q655 461 655 540Q655 602 607 635.50Q559 669 477 669L250 669L170 369Z"  horiz-adv-x="722" vert-adv-y="1000"  />

      
      <glyph glyph-name="uni43" unicode="&#x43;" d="M373-12Q255-12 174 65Q93 142 93 270Q93 360 128.50 443.50Q164 527 227 590Q349 712 510 712Q598 712 664 671Q730 630 763 560L733 546Q664 681 509 681Q361 681 254 572Q194 512 160.50 433.50Q127 355 127 271Q127 156 197.50 87.50Q268 19 376 19Q521 19 630 130L652 109Q535-12 373-12Z"  horiz-adv-x="731" vert-adv-y="1000"  />

      
      <glyph glyph-name="uni44" unicode="&#x44;" d="M37 0L225 700L371 700Q554 700 649 605Q726 528 726 406Q726 243 616 133Q553 70 460.50 35Q368 0 260 0L37 0M623 583Q539 669 374 669L250 669L79 31L265 31Q468 31 591 154Q691 254 691 404Q691 515 623 583Z"  horiz-adv-x="766" vert-adv-y="1000"  />

      
      <glyph glyph-name="uni45" unicode="&#x45;" d="M37 0L225 700L715 700L706 669L250 669L169 368L582 368L574 337L161 337L79 31L540 31L532 0L37 0Z"  horiz-adv-x="656" vert-adv-y="1000"  />

      
      <glyph glyph-name="uni46" unicode="&#x46;" d="M37 0L225 700L712 700L703 669L250 669L167 359L577 359L568 328L159 328L71 0L37 0Z"  horiz-adv-x="640" vert-adv-y="1000"  />

      
      <glyph glyph-name="uni47" unicode="&#x47;" d="M392-12Q259-12 177.50 69.50Q96 151 96 281Q96 366 130 446.50Q164 527 225 588Q349 712 520 712Q689 712 772 586L745 568Q668 681 518 681Q363 681 251 569Q194 512 162.50 437Q131 362 131 282Q131 164 202.50 91Q274 18 394 18Q511 18 611 82L680 323L439 323L447 356L722 356L639 63Q523-12 392-12Z"  horiz-adv-x="782" vert-adv-y="1000"  />

      
      <glyph glyph-name="uni48" unicode="&#x48;" d="M37 0L225 700L259 700L169 368L646 368L736 700L770 700L582 0L548 0L638 337L161 337L71 0L37 0Z"  horiz-adv-x="754" vert-adv-y="1000"  />

      
      <glyph glyph-name="uni49" unicode="&#x49;" d="M43 0L231 700L265 700L77 0L43 0Z"  horiz-adv-x="256" vert-adv-y="1000"  />

      
      <glyph glyph-name="uni4a" unicode="&#x4a;" d="M188-11Q110-11 61.50 33Q13 77-5 147L25 157Q65 20 187 20Q265 20 319 74Q370 125 398 231L524 700L558 700L430 224Q400 111 343 54Q278-11 188-11Z"  horiz-adv-x="534" vert-adv-y="1000"  />

      
      <glyph glyph-name="uni4b" unicode="&#x4b;" d="M37 0L225 700L259 700L134 234L723 700L774 700L388 397L597 0L559 0L361 377L121 188L71 0L37 0Z"  horiz-adv-x="709" vert-adv-y="1000"  />

      
      <glyph glyph-name="uni4c" unicode="&#x4c;" d="M37 0L225 700L259 700L79 31L501 31L493 0L37 0Z"  horiz-adv-x="590" vert-adv-y="1000"  />

      
      <glyph glyph-name="uni4d" unicode="&#x4d;" d="M37 0L225 700L253 700L434 275L843 700L879 700L691 0L657 0L829 641L424 221L422 221L242 641L70 0L37 0Z"  horiz-adv-x="864" vert-adv-y="1000"  />

      
      <glyph glyph-name="uni4e" unicode="&#x4e;" d="M37 0L225 700L256 700L593 53L767 700L800 700L612 0L584 0L244 652L69 0L37 0Z"  horiz-adv-x="784" vert-adv-y="1000"  />

      
      <glyph glyph-name="uni4f" unicode="&#x4f;" d="M496 712Q628 712 712.50 625Q797 538 797 410Q797 325 762.50 244.50Q728 164 668 104Q552-12 397-12Q266-12 181.50 75Q97 162 97 290Q97 375 131 455Q165 535 225 595Q342 712 496 712M398 18Q537 18 643 124Q699 180 730.50 254.50Q762 329 762 409Q762 526 687.50 603.50Q613 681 495 681Q354 681 251 576Q194 520 162.50 445Q131 370 131 290Q131 174 205.50 96Q280 18 398 18Z"  horiz-adv-x="841" vert-adv-y="1000"  />

      
      <glyph glyph-name="uni50" unicode="&#x50;" d="M37 0L225 700L440 700Q571 700 634 637Q681 592 681 513Q681 419 619 359Q530 270 345 270L143 270L71 0L37 0M608 615Q554 669 439 669L250 669L151 301L347 301Q515 301 593 379Q647 433 647 511Q647 576 608 615Z"  horiz-adv-x="666" vert-adv-y="1000"  />

      
      <glyph glyph-name="uni51" unicode="&#x51;" d="M496 712Q628 712 712.50 625Q797 538 797 410Q797 325 762.50 244.50Q728 164 669 105L648 85L720 6L696-15L624 66Q519-12 397-12Q266-12 181.50 75Q97 162 97 290Q97 375 131 455Q165 535 225 595Q342 712 496 712M398 18Q510 18 604 89L479 228L504 249L626 109L643 124Q700 181 731 255Q762 329 762 409Q762 526 687.50 603.50Q613 681 495 681Q354 681 251 576Q194 520 162.50 445Q131 370 131 290Q131 174 205.50 96Q280 18 398 18Z"  horiz-adv-x="841" vert-adv-y="1000"  />

      
      <glyph glyph-name="uni52" unicode="&#x52;" d="M550 0L395 299L375 299L151 299L71 0L37 0L225 700L475 700Q599 700 661 640Q705 596 705 525Q705 440 647 382Q577 312 432 301L589 0L550 0M159 330L387 330Q551 330 622 401Q671 450 671 522Q671 580 636 617Q584 669 473 669L250 669L159 330Z"  horiz-adv-x="720" vert-adv-y="1000"  />

      
      <glyph glyph-name="uni53" unicode="&#x53;" d="M301-10Q214-10 141 25Q68 60 22 122L48 141Q140 21 305 21Q401 21 460 70Q519 119 519 185Q519 242 478 275Q437 308 346 343Q247 381 200.50 418.50Q154 456 154 520Q154 588 205 639Q276 710 400 710Q549 710 640 607L614 585Q531 679 397 679Q302 679 245 632.50Q188 586 188 523Q188 470 230.50 438.50Q273 407 362 373Q461 336 507 296.50Q553 257 553 188Q553 116 499 62Q427-10 301-10Z"  horiz-adv-x="639" vert-adv-y="1000"  />

      
      <glyph glyph-name="uni54" unicode="&#x54;" d="M208 0L387 669L138 669L146 700L679 700L671 669L421 669L242 0L208 0Z"  horiz-adv-x="595" vert-adv-y="1000"  />

      
      <glyph glyph-name="uni55" unicode="&#x55;" d="M346-11Q232-11 164.50 47Q97 105 97 211Q97 263 114 328L213 700L247 700L145 316Q131 267 131 214Q131 122 189 71Q247 20 348 20Q458 20 534 97Q602 165 640 303L746 700L780 700L671 295Q633 151 558 76Q471-11 346-11Z"  horiz-adv-x="754" vert-adv-y="1000"  />

      
      <glyph glyph-name="uni56" unicode="&#x56;" d="M269-5L150 700L185 700L292 37L757 700L796 700L297-5L269-5Z"  horiz-adv-x="714" vert-adv-y="1000"  />

      
      <glyph glyph-name="uni57" unicode="&#x57;" d="M216-5L156 700L190 700L243 45L630 702L656 702L699 45L1096 700L1133 700L701-5L673-5L629 642L244-5L216-5Z"  horiz-adv-x="1058" vert-adv-y="1000"  />

      
      <glyph glyph-name="uni58" unicode="&#x58;" d="M-22 0L347 360L157 700L193 700L371 379L699 700L742 700L386 354L583 0L546 0L363 334L21 0L-22 0Z"  horiz-adv-x="680" vert-adv-y="1000"  />

      
      <glyph glyph-name="uni59" unicode="&#x59;" d="M242 0L320 290L137 700L173 700L343 316L720 700L765 700L352 282L276 0L242 0Z"  horiz-adv-x="666" vert-adv-y="1000"  />

      
      <glyph glyph-name="uni5a" unicode="&#x5a;" d="M-11 0L-6 19L658 669L185 669L194 700L720 700L714 681L50 31L539 31L531 0L-11 0Z"  horiz-adv-x="666" vert-adv-y="1000"  />

      
      <glyph glyph-name="uni5b" unicode="&#x5b;" d="M9-130L232 700L499 700L492 675L257 675L48-105L283-105L276-130L9-130Z"  horiz-adv-x="418" vert-adv-y="1000"  />

      
      <glyph glyph-name="uni5c" unicode="&#x5c;" d="M375-128L154 798L184 798L405-128L375-128Z"  horiz-adv-x="483" vert-adv-y="1000"  />

      
      <glyph glyph-name="uni5d" unicode="&#x5d;" d="M426 700L203-130L-64-130L-57-105L178-105L387 675L152 675L159 700L426 700Z"  horiz-adv-x="418" vert-adv-y="1000"  />

      
      <glyph glyph-name="uni5e" unicode="&#x5e;" d="M143 494L356 703L381 703L482 494L454 494L363 670L178 494L143 494Z"  horiz-adv-x="500" vert-adv-y="1000"  />

      
      <glyph glyph-name="uni5f" unicode="&#x5f;" d="M-112-153L-104-124L470-124L462-153L-112-153Z"  horiz-adv-x="569" vert-adv-y="1000"  />

      
      <glyph glyph-name="uni60" unicode="&#x60;" d="M376 595L303 697L343 716L398 595L376 595Z"  horiz-adv-x="500" vert-adv-y="1000"  />

      
      <glyph glyph-name="uni61" unicode="&#x61;" d="M188-12Q122-12 73.50 25.50Q25 63 25 127Q25 196 71 244Q133 306 252 306Q355 306 457 276L463 295Q471 325 471 352Q471 415 426 448.50Q381 482 302 482Q233 482 159 456L151 485Q227 512 305 512Q396 512 449 471.50Q502 431 502 355Q502 324 493 290L415 0L383 0L412 107Q334-12 188-12M194 17Q281 17 349 70Q417 123 438 204L450 249Q352 276 247 276Q146 276 97 225Q59 189 59 132Q59 78 98.50 47.50Q138 17 194 17Z"  horiz-adv-x="568" vert-adv-y="1000"  />

      
      <glyph glyph-name="uni62" unicode="&#x62;" d="M312-12Q223-12 168 37Q113 86 99 154L57 0L25 0L221 730L253 730L161 388Q195 439 255.50 477.50Q316 516 390 516Q480 516 538 455Q596 394 596 302Q596 236 570.50 174.50Q545 113 500 68Q420-12 312-12M311 18Q407 18 475 88Q562 173 562 298Q562 380 513 433Q464 486 387 486Q287 486 206 405Q165 365 141.50 314Q118 263 118 214Q118 129 171.50 73.50Q225 18 311 18Z"  horiz-adv-x="652" vert-adv-y="1000"  />

      
      <glyph glyph-name="uni63" unicode="&#x63;" d="M270-12Q182-12 115.50 47.50Q49 107 49 206Q49 334 143 428Q231 516 346 516Q418 516 468 482Q518 448 544 396L517 381Q459 486 344 486Q245 486 167 408Q83 324 83 207Q83 121 139 69.50Q195 18 271 18Q363 18 445 93L467 73Q377-12 270-12Z"  horiz-adv-x="556" vert-adv-y="1000"  />

      
      <glyph glyph-name="uni64" unicode="&#x64;" d="M457 0L488 115Q456 65 394.50 26.50Q333-12 259-12Q170-12 111.50 49Q53 110 53 201Q53 267 78.50 329Q104 391 149 435Q228 516 337 516Q426 516 481 467Q536 418 550 350L653 730L685 730L489 0L457 0M262 18Q364 18 444 98Q531 187 531 290Q531 375 478 430.50Q425 486 339 486Q244 486 174 416Q87 329 87 206Q87 124 136 71Q185 18 262 18Z"  horiz-adv-x="652" vert-adv-y="1000"  />

      
      <glyph glyph-name="uni65" unicode="&#x65;" d="M523 242L87 242Q84 221 84 200Q84 117 135 67.50Q186 18 272 18Q368 18 453 88L472 65Q381-12 272-12Q172-12 110.50 45.50Q49 103 49 198Q49 333 147 431Q232 516 341 516Q437 516 486 459.50Q535 403 535 320Q533 273 523 242M172 413Q112 353 92 271L497 271Q502 306 502 320Q502 390 461.50 438Q421 486 340 486Q247 486 172 413Z"  horiz-adv-x="585" vert-adv-y="1000"  />

      
      <glyph glyph-name="uni66" unicode="&#x66;" d="M50 0L177 475L100 475L108 504L185 504L206 582Q224 652 262 690Q302 730 365 730Q418 730 458 707L449 678Q408 700 364 700Q269 700 238 580L217 504L400 504L393 475L209 475L82 0L50 0Z"  horiz-adv-x="340" vert-adv-y="1000"  />

      
      <glyph glyph-name="uni67" unicode="&#x67;" d="M237-161Q170-161 107-135.50Q44-110-1-67L22-44Q108-130 239-130Q342-130 403-69Q449-23 475 72L497 154Q409 37 270 37Q184 37 121.50 92Q59 147 59 233Q59 348 142 433Q227 516 342 516Q429 516 482 468.50Q535 421 551 356L591 504L623 504L505 64Q478-36 426-89Q352-161 237-161M275 68Q381 68 461 146Q534 221 534 304Q534 377 480 431Q426 485 341 485Q240 485 168 413Q93 338 93 236Q93 161 146 114.50Q199 68 275 68Z"  horiz-adv-x="650" vert-adv-y="1000"  />

      
      <glyph glyph-name="uni68" unicode="&#x68;" d="M25 0L221 730L253 730L161 389Q242 516 371 516Q451 516 495.50 471.50Q540 427 540 353Q540 318 527 272L455 0L423 0L496 273Q506 310 506 350Q506 413 470 449.50Q434 486 364 486Q289 486 223 429.50Q157 373 132 281L57 0L25 0Z"  horiz-adv-x="607" vert-adv-y="1000"  />

      
      <glyph glyph-name="uni69" unicode="&#x69;" d="M31 0L167 504L199 504L64 0L31 0M198 643L215 704L258 704L241 643L198 643Z"  horiz-adv-x="232" vert-adv-y="1000"  />

      
      <glyph glyph-name="uni6a" unicode="&#x6a;" d="M-72-165Q-99-165-123-157L-114-128Q-93-135-75-135Q-5-135 17-52L167 504L199 504L48-56Q19-165-72-165M198 643L215 704L258 704L241 643L198 643Z"  horiz-adv-x="232" vert-adv-y="1000"  />

      
      <glyph glyph-name="uni6b" unicode="&#x6b;" d="M25 0L221 730L253 730L104 174L522 504L568 504L283 281L440 0L404 0L258 262L93 133L57 0L25 0Z"  horiz-adv-x="550" vert-adv-y="1000"  />

      
      <glyph glyph-name="uni6c" unicode="&#x6c;" d="M31 0L227 730L260 730L64 0L31 0Z"  horiz-adv-x="231" vert-adv-y="1000"  />

      
      <glyph glyph-name="uni6d" unicode="&#x6d;" d="M25 0L160 504L192 504L161 389Q241 516 352 516Q420 516 459.50 476Q499 436 503 372Q538 435 592 475.50Q646 516 714 516Q784 516 826 472.50Q868 429 868 359Q868 328 854 272L781 0L749 0L822 273Q834 316 834 357Q834 416 801 451Q768 486 707 486Q639 486 577.50 426Q516 366 493 277L419 0L387 0L460 273Q473 320 473 357Q473 416 440 451Q407 486 345 486Q277 486 216 426Q155 366 131 277L57 0L25 0Z"  horiz-adv-x="934" vert-adv-y="1000"  />

      
      <glyph glyph-name="uni6e" unicode="&#x6e;" d="M25 0L160 504L192 504L161 389Q242 516 371 516Q451 516 495.50 471.50Q540 427 540 353Q540 318 527 272L455 0L423 0L496 273Q506 310 506 350Q506 413 470 449.50Q434 486 364 486Q289 486 223 429.50Q157 373 132 281L57 0L25 0Z"  horiz-adv-x="607" vert-adv-y="1000"  />

      
      <glyph glyph-name="uni6f" unicode="&#x6f;" d="M347 516Q447 516 511.50 452.50Q576 389 576 292Q576 166 483 75Q398-12 278-12Q178-12 114 51.50Q50 115 50 212Q50 337 142 429Q229 516 347 516M281 18Q382 18 459 95Q541 177 541 290Q541 377 486.50 431.50Q432 486 345 486Q242 486 167 409Q84 326 84 214Q84 127 138.50 72.50Q193 18 281 18Z"  horiz-adv-x="626" vert-adv-y="1000"  />

      
      <glyph glyph-name="uni70" unicode="&#x70;" d="M312-12Q223-12 168 37Q113 86 99 154L14-160L-18-160L160 504L192 504L161 388Q195 439 255.50 477.50Q316 516 390 516Q480 516 538 455Q596 394 596 302Q596 236 570.50 174.50Q545 113 500 68Q420-12 312-12M311 18Q407 18 475 88Q562 173 562 298Q562 380 513 433Q464 486 387 486Q287 486 206 405Q165 365 141.50 314Q118 263 118 214Q118 129 171.50 73.50Q225 18 311 18Z"  horiz-adv-x="652" vert-adv-y="1000"  />

      
      <glyph glyph-name="uni71" unicode="&#x71;" d="M259-12Q170-12 111.50 49Q53 110 53 201Q53 267 78.50 329Q104 391 149 435Q228 516 337 516Q426 516 481 467Q536 418 550 350L592 504L624 504L446-160L414-160L488 115Q456 65 394.50 26.50Q333-12 259-12M262 18Q364 18 444 98Q531 187 531 290Q531 375 478 430.50Q425 486 339 486Q244 486 174 416Q87 329 87 206Q87 124 136 71Q185 18 262 18Z"  horiz-adv-x="652" vert-adv-y="1000"  />

      
      <glyph glyph-name="uni72" unicode="&#x72;" d="M25 0L160 504L192 504L152 352Q201 429 269 472.50Q337 516 407 514L398 481L396 481Q316 481 232 410.50Q148 340 120 236L57 0L25 0Z"  horiz-adv-x="362" vert-adv-y="1000"  />

      
      <glyph glyph-name="uni73" unicode="&#x73;" d="M212-10Q87-10 2 73L25 96Q105 20 215 20Q280 20 323 52.50Q366 85 366 129Q366 168 338 192Q310 216 242 242Q170 269 135 298Q100 327 100 374Q100 431 150.50 472.50Q201 514 283 514Q328 514 377.50 496.50Q427 479 463 448L442 424Q369 484 281 484Q213 484 173.50 452.50Q134 421 134 379Q134 342 162.50 319Q191 296 259 270Q332 241 366 211.50Q400 182 400 133Q400 75 347 32.50Q294-10 212-10Z"  horiz-adv-x="492" vert-adv-y="1000"  />

      
      <glyph glyph-name="uni74" unicode="&#x74;" d="M196-9Q142-9 112 15.50Q82 40 82 87Q82 107 89 137L179 475L102 475L110 504L187 504L232 673L265 673L219 504L401 504L393 475L212 475L121 136Q114 108 114 90Q114 21 202 21Q238 21 275 36L266 3Q234-9 196-9Z"  horiz-adv-x="382" vert-adv-y="1000"  />

      
      <glyph glyph-name="uni75" unicode="&#x75;" d="M236-12Q156-12 111.50 32.50Q67 77 67 151Q67 184 79 232L152 504L184 504L111 231Q100 190 100 154Q100 91 136.50 54.50Q173 18 243 18Q317 18 383.50 74.50Q450 131 474 223L549 504L582 504L447 0L415 0L446 115Q363-12 236-12Z"  horiz-adv-x="607" vert-adv-y="1000"  />

      
      <glyph glyph-name="uni76" unicode="&#x76;" d="M190-4L98 504L132 504L212 36L541 504L579 504L216-4L190-4Z"  horiz-adv-x="559" vert-adv-y="1000"  />

      
      <glyph glyph-name="uni77" unicode="&#x77;" d="M150-4L105 504L138 504L175 44L457 507L484 507L517 44L798 504L834 504L520-4L492-4L457 454L177-4L150-4Z"  horiz-adv-x="821" vert-adv-y="1000"  />

      
      <glyph glyph-name="uni78" unicode="&#x78;" d="M152 504L275 279L517 504L560 504L290 256L433 0L397 0L267 236L13 0L-30 0L253 260L116 504L152 504Z"  horiz-adv-x="539" vert-adv-y="1000"  />

      
      <glyph glyph-name="uni79" unicode="&#x79;" d="M203-1L95 504L129 504L227 31L553 504L591 504L233-10Q170-100 123.50-131.50Q77-163 26-163Q-31-163-75-133L-57-107Q-20-134 28-134Q69-134 109-105.50Q149-77 203-1Z"  horiz-adv-x="571" vert-adv-y="1000"  />

      
      <glyph glyph-name="uni7a" unicode="&#x7a;" d="M-26 0L-21 18L473 476L114 476L122 504L532 504L527 486L33 28L407 28L399 0L-26 0Z"  horiz-adv-x="511" vert-adv-y="1000"  />

      
      <glyph glyph-name="uni7b" unicode="&#x7b;" d="M297-141Q146-104 146 24Q146 66 167 142Q179 183 179 211Q179 273 88 273L60 273L67 300L96 300Q166 300 202 337Q238 373 264 488Q287 600 334 647Q395 708 522 714L520 687Q411 680 360 629Q319 588 296 482Q270 362 231 323Q199 293 145 285Q213 269 213 210Q213 186 200 140Q179 71 179 26Q179-30 209.50-64.50Q240-99 307-117L297-141Z"  horiz-adv-x="456" vert-adv-y="1000"  />

      
      <glyph glyph-name="uni7c" unicode="&#x7c;" d="M18-128L266 798L295 798L46-128L18-128Z"  horiz-adv-x="269" vert-adv-y="1000"  />

      
      <glyph glyph-name="uni7d" unicode="&#x7d;" d="M176 715Q327 678 327 550Q327 508 306 432Q294 392 294 363Q294 301 385 301L413 301L406 274L377 274Q307 274 271 237Q235 201 209 86Q186-26 139-73Q78-134-49-140L-47-113Q62-106 113-55Q154-14 177 92Q203 212 242 251Q274 281 328 289Q260 305 260 364Q260 388 273 434Q294 503 294 548Q294 604 263.50 638.50Q233 673 166 691L176 715Z"  horiz-adv-x="456" vert-adv-y="1000"  />

      
      <glyph glyph-name="uni7e" unicode="&#x7e;" d="M110 250L88 259Q127 348 180 348Q208 348 245 311Q276 280 296 280Q329 280 362 345L384 336Q347 247 292 247Q265 247 227 283Q197 315 176 315Q144 315 110 250Z"  horiz-adv-x="448" vert-adv-y="1000"  />

      
      <glyph glyph-name="unia1" unicode="&#xa1;" d="M188 517L83 93L58 0L22 0L47 93L171 517L188 517M252 700L235 635L187 635L204 700L252 700Z"  horiz-adv-x="217" vert-adv-y="1000"  />

      
      <glyph glyph-name="unia2" unicode="&#xa2;" d="M449 706L481 706L442 610Q534 587 580 498L553 483Q507 564 430 582L251 126Q275 120 302 120Q402 120 482 195L503 175Q415 90 300 90Q268 90 241 97L200-6L168-6L213 106Q154 130 117 183Q80 236 80 306Q80 436 174 530Q262 618 379 618Q391 618 413 616L449 706M114 307Q114 245 144 200Q174 155 225 134L402 587Q394 588 378 588Q276 588 199 511Q114 426 114 307Z"  horiz-adv-x="560" vert-adv-y="1000"  />

      
      <glyph glyph-name="unia3" unicode="&#xa3;" d="M-6 0L-2 18L91 31L167 313L78 313L86 345L175 345L210 474Q242 588 297 643Q362 709 452 709Q574 709 632 596L603 580Q550 678 449 678Q376 678 322 624Q271 573 242 467L209 345L509 345L501 313L200 313L125 31L499 31L491 0L-6 0Z"  horiz-adv-x="609" vert-adv-y="1000"  />

      
      <glyph glyph-name="unia5" unicode="&#xa5;" d="M258 0L290 122L82 122L90 152L298 152L333 281L125 281L134 311L326 311L154 700L191 700L360 317L732 700L776 700L396 311L584 311L575 281L367 281L332 152L540 152L532 122L324 122L292 0L258 0Z"  horiz-adv-x="692" vert-adv-y="1000"  />

      
      <glyph glyph-name="unia7" unicode="&#xa7;" d="M577 333Q577 280 526 246.50Q475 213 389 213L370 213Q458 174 458 109Q458 56 410 23Q362-10 287-10Q221-10 162 13.50Q103 37 68 71L90 95Q171 20 291 20Q350 20 387 44.50Q424 69 424 108Q424 147 385.50 173Q347 199 269 226Q180 256 136 287Q92 318 92 367Q92 420 143.50 453.50Q195 487 281 487Q292 487 299 486Q212 526 212 591Q212 644 260 677Q308 710 382 710Q449 710 508 686.50Q567 663 602 629L579 605Q500 680 379 680Q320 680 283 655.50Q246 631 246 592Q246 553 284.50 527Q323 501 401 474Q489 443 533 412.50Q577 382 577 333M126 370Q126 337 157.50 311.50Q189 286 270 258Q332 237 387 237Q459 237 501 264.50Q543 292 543 330Q543 363 511.50 389Q480 415 400 442Q338 463 283 463Q211 463 168.50 435.50Q126 408 126 370Z"  horiz-adv-x="619" vert-adv-y="1000"  />

      
      <glyph glyph-name="unia8" unicode="&#xa8;" d="M243 606L260 668L309 668L292 606L243 606M386 606L403 668L452 668L435 606L386 606Z"  horiz-adv-x="500" vert-adv-y="1000"  />

      
      <glyph glyph-name="unia9" unicode="&#xa9;" d="M414 164Q351 164 309 204.50Q267 245 267 313Q267 411 337 481Q401 545 483 545Q530 545 565 523.50Q600 502 618 465L593 452Q557 518 482 518Q412 518 359 465Q297 403 297 315Q297 257 331 224Q365 191 417 191Q483 191 541 247L560 228Q494 164 414 164M800 393Q800 313 769 237Q738 161 681 104Q565-12 402-12Q258-12 169.50 79Q81 170 81 307Q81 387 112 463Q143 539 200 596Q316 712 479 712Q623 712 711.50 621Q800 530 800 393M105 305Q105 179 185.50 94Q266 9 404 9Q555 9 663 117Q776 230 776 395Q776 521 695 606Q614 691 477 691Q326 691 218 583Q105 470 105 305Z"  horiz-adv-x="830" vert-adv-y="1000"  />

      
      <glyph glyph-name="uniaa" unicode="&#xaa;" d="M215 412Q179 412 153.50 432.50Q128 453 128 488Q128 534 163 561.50Q198 589 255 589Q307 589 362 573L365 582Q369 600 369 611Q369 678 281 678Q245 678 202 663L197 687Q241 703 285 703Q336 703 366 679.50Q396 656 396 615Q396 600 391 578L348 418L321 418L336 476Q290 412 215 412M221 435Q266 435 303 463Q340 491 352 533L357 552Q305 567 253 567Q209 567 182.50 546.50Q156 526 156 491Q156 464 174.50 449.50Q193 435 221 435M76 308L82 333L328 333L322 308L76 308Z"  horiz-adv-x="408" vert-adv-y="1000"  />

      
      <glyph glyph-name="uniab" unicode="&#xab;" d="M157 45L43 252L45 258L268 464L290 447L82 250L182 59L157 45M340 45L227 252L228 258L452 464L474 447L266 250L365 59L340 45Z"  horiz-adv-x="483" vert-adv-y="1000"  />

      
      <glyph glyph-name="uniae" unicode="&#xae;" d="M302 710Q371 710 414 666Q457 622 457 557Q457 474 400 417Q343 360 265 360Q196 360 153 404Q110 448 110 513Q110 596 167 653Q224 710 302 710M266 377Q336 377 386 427Q439 480 439 556Q439 615 402 654Q365 693 301 693Q231 693 181 643Q128 590 128 514Q128 455 165 416Q202 377 266 377M236 517L219 450L196 450L243 625L306 625Q337 625 353 611.50Q369 598 369 576Q369 554 354 538Q339 522 310 518L342 450L318 450L287 517L236 517M242 536L288 536Q322 536 336 550Q346 560 346 575Q346 605 303 605L260 605L242 536Z"  horiz-adv-x="416" vert-adv-y="1000"  />

      
      <glyph glyph-name="uniaf" unicode="&#xaf;" d="M209 621L217 651L495 651L487 621L209 621Z"  horiz-adv-x="500" vert-adv-y="1000"  />

      
      <glyph glyph-name="unib0" unicode="&#xb0;" d="M273 705Q327 705 361.50 670Q396 635 396 582Q396 511 345 462Q296 413 233 413Q180 413 145 448.50Q110 484 110 536Q110 604 161 657Q209 705 273 705M235 442Q286 442 323 479Q366 522 366 580Q366 623 339.50 650Q313 677 271 677Q221 677 183 639Q141 597 141 538Q141 496 167 469Q193 442 235 442Z"  horiz-adv-x="404" vert-adv-y="1000"  />

      
      <glyph glyph-name="unib1" unicode="&#xb1;" d="M262 158L319 367L105 367L112 397L327 397L382 606L414 606L359 397L573 397L565 367L351 367L294 158L262 158M7 0L15 30L474 30L467 0L7 0Z"  horiz-adv-x="608" vert-adv-y="1000"  />

      
      <glyph glyph-name="unib2" unicode="&#xb2;" d="M109 426L115 450L337 614Q379 645 397.50 670.50Q416 696 416 726Q416 757 392.50 777Q369 797 331 797Q268 797 212 733L192 748Q254 822 334 822Q383 822 413 795.50Q443 769 444 728Q444 692 423 662Q402 632 352 596L157 452L389 452L381 426L109 426Z"  horiz-adv-x="400" vert-adv-y="1000"  />

      
      <glyph glyph-name="unib3" unicode="&#xb3;" d="M254 416Q161 416 121 489L144 503Q180 441 255 441Q306 441 342.50 470Q379 499 379 540Q379 576 351.50 596Q324 616 275 616L253 616L245 632L427 786L213 786L221 812L472 812L465 788L287 638Q341 637 374 612Q407 587 407 543Q407 490 361.50 453Q316 416 254 416Z"  horiz-adv-x="400" vert-adv-y="1000"  />

      
      <glyph glyph-name="unib4" unicode="&#xb4;" d="M261 595L380 716L420 697L291 595L261 595Z"  horiz-adv-x="500" vert-adv-y="1000"  />

      
      <glyph glyph-name="unib6" unicode="&#xb6;" d="M262 0L335 271Q214 274 155 333Q108 380 108 456Q108 552 171 615Q256 700 427 700L485 700L297 0L262 0Z"  horiz-adv-x="469" vert-adv-y="1000"  />

      
      <glyph glyph-name="unib7" unicode="&#xb7;" d="M74 262L91 327L139 327L122 262L74 262Z"  horiz-adv-x="191" vert-adv-y="1000"  />

      
      <glyph glyph-name="unib8" unicode="&#xb8;" d="M110-144L78-126L202 7L228 7L110-144Z"  horiz-adv-x="500" vert-adv-y="1000"  />

      
      <glyph glyph-name="unib9" unicode="&#xb9;" d="M218 426L314 788L208 753L207 778L328 819L351 819L246 426L218 426Z"  horiz-adv-x="325" vert-adv-y="1000"  />

      
      <glyph glyph-name="uniba" unicode="&#xba;" d="M77 308L83 333L357 333L350 308L77 308M162 539Q162 493 189.50 465Q217 437 262 437Q315 437 355 477Q398 520 398 578Q398 624 370 651.50Q342 679 298 679Q245 679 205 639Q162 596 162 539M426 579Q426 511 376 461Q326 411 259 411Q204 411 169 446.50Q134 482 134 537Q134 604 184 656Q235 705 301 705Q356 705 391 669.50Q426 634 426 579Z"  horiz-adv-x="408" vert-adv-y="1000"  />

      
      <glyph glyph-name="unibb" unicode="&#xbb;" d="M325 463L439 256L437 250L214 44L192 61L400 258L300 449L325 463M142 463L255 256L254 250L30 44L8 61L216 258L117 449L142 463Z"  horiz-adv-x="483" vert-adv-y="1000"  />

      
      <glyph glyph-name="unibc" unicode="&#xbc;" d="M596-2L621 94L423 94L419 117L693 392L727 392L654 118L713 118L707 94L647 94L622-2L596-2M51 0L390 355L714 700L749 700L410 345L86 0L51 0M453 118L627 118L691 356L453 118M157 314L254 676L147 641L147 666L267 707L290 707L185 314L157 314Z"  horiz-adv-x="825" vert-adv-y="1000"  />

      
      <glyph glyph-name="unibd" unicode="&#xbd;" d="M405 0L411 24L633 188Q675 219 693.50 244.50Q712 270 712 300Q712 331 688.50 351Q665 371 627 371Q564 371 508 307L488 322Q550 396 630 396Q679 396 709 369.50Q739 343 740 302Q740 266 719 236Q698 206 648 170L453 26L685 26L677 0L405 0M41 0L380 355L704 700L739 700L400 345L76 0L41 0M157 314L254 676L147 641L147 666L267 707L290 707L185 314L157 314Z"  horiz-adv-x="825" vert-adv-y="1000"  />

      
      <glyph glyph-name="unibe" unicode="&#xbe;" d="M671-2L696 94L498 94L494 117L768 392L802 392L729 118L788 118L782 94L722 94L697-2L671-2M198 304Q104 304 64 377L88 391Q124 329 198 329Q249 329 285.50 358Q322 387 322 428Q322 464 294.50 484Q267 504 218 504L196 504L189 520L371 674L157 674L165 700L415 700L409 676L230 526Q285 525 318 500Q351 475 351 431Q351 378 305.50 341Q260 304 198 304M121 0L460 355L784 700L819 700L480 345L156 0L121 0M528 118L702 118L766 356L528 118Z"  horiz-adv-x="900" vert-adv-y="1000"  />

      
      <glyph glyph-name="unibf" unicode="&#xbf;" d="M369 517L336 358L331 354Q217 344 144.50 295.50Q72 247 72 163Q72 100 117.50 61Q163 22 239 22Q350 22 444 114L465 92Q362-9 237-9Q145-9 91 39.50Q37 88 37 162Q37 256 112.50 311Q188 366 305 382L350 517L369 517M433 700L415 635L367 635L385 700L433 700Z"  horiz-adv-x="514" vert-adv-y="1000"  />

      
      <glyph glyph-name="unic0" unicode="&#xc0;" d="M-29 0L493 705L524 705L666 0L632 0L592 204L160 204L10 0L-29 0M183 235L586 235L501 665L183 235M499 772L418 860L455 879L523 772L499 772Z"  horiz-adv-x="764" vert-adv-y="1000"  />

      
      <glyph glyph-name="unic1" unicode="&#xc1;" d="M-29 0L493 705L524 705L666 0L632 0L592 204L160 204L10 0L-29 0M183 235L586 235L501 665L183 235M506 772L631 879L669 860L539 772L506 772Z"  horiz-adv-x="764" vert-adv-y="1000"  />

      
      <glyph glyph-name="unic2" unicode="&#xc2;" d="M-29 0L493 705L524 705L666 0L632 0L592 204L160 204L10 0L-29 0M183 235L586 235L501 665L183 235M401 769L533 870L562 870L640 769L609 769L542 838L437 769L401 769Z"  horiz-adv-x="764" vert-adv-y="1000"  />

      
      <glyph glyph-name="unic3" unicode="&#xc3;" d="M-29 0L493 705L524 705L666 0L632 0L592 204L160 204L10 0L-29 0M183 235L586 235L501 665L183 235M413 772L391 778Q426 857 480 857Q500 857 544 834Q582 811 601 811Q636 811 665 864L686 858Q653 779 598 779Q576 779 534 802Q494 825 477 825Q442 825 413 772Z"  horiz-adv-x="764" vert-adv-y="1000"  />

      
      <glyph glyph-name="unic4" unicode="&#xc4;" d="M-29 0L493 705L524 705L666 0L632 0L592 204L160 204L10 0L-29 0M183 235L586 235L501 665L183 235M428 783L444 844L497 844L481 783L428 783M583 783L599 844L651 844L635 783L583 783Z"  horiz-adv-x="764" vert-adv-y="1000"  />

      
      <glyph glyph-name="unic5" unicode="&#xc5;" d="M-29 0L471 675Q417 694 417 749Q417 792 452.50 821.50Q488 851 534 851Q577 851 602 828.50Q627 806 627 771Q627 733 599 705Q571 677 530 670L666 0L632 0L592 204L160 204L10 0L-29 0M183 235L586 235L501 665L183 235M513 692Q547 692 573.50 714Q600 736 600 769Q600 795 582 812Q564 829 531 829Q497 829 470.50 806.50Q444 784 444 751Q444 724 462.50 708Q481 692 513 692Z"  horiz-adv-x="764" vert-adv-y="1000"  />

      
      <glyph glyph-name="unic6" unicode="&#xc6;" d="M-48 0L578 700L1094 700L1085 669L642 669L561 368L960 368L952 337L552 337L470 31L919 31L911 0L428 0L483 204L176 204L-7 0L-48 0M203 235L491 235L608 669L590 669L203 235Z"  horiz-adv-x="1035" vert-adv-y="1000"  />

      
      <glyph glyph-name="unic7" unicode="&#xc7;" d="M264-144L232-126L340-10Q233 1 163 76.50Q93 152 93 270Q93 360 128.50 443.50Q164 527 227 590Q349 712 510 712Q598 712 664 671Q730 630 763 560L733 546Q664 681 509 681Q361 681 254 572Q194 512 160.50 433.50Q127 355 127 271Q127 156 197.50 87.50Q268 19 376 19Q521 19 630 130L652 109Q535-12 373-12L367-12L264-144Z"  horiz-adv-x="731" vert-adv-y="1000"  />

      
      <glyph glyph-name="unic8" unicode="&#xc8;" d="M452 765L371 853L408 872L476 765L452 765M37 0L225 700L715 700L706 669L250 669L169 368L582 368L574 337L161 337L79 31L540 31L532 0L37 0Z"  horiz-adv-x="656" vert-adv-y="1000"  />

      
      <glyph glyph-name="unic9" unicode="&#xc9;" d="M459 765L584 872L622 853L492 765L459 765M37 0L225 700L715 700L706 669L250 669L169 368L582 368L574 337L161 337L79 31L540 31L532 0L37 0Z"  horiz-adv-x="656" vert-adv-y="1000"  />

      
      <glyph glyph-name="unica" unicode="&#xca;" d="M37 0L225 700L715 700L706 669L250 669L169 368L582 368L574 337L161 337L79 31L540 31L532 0L37 0M354 765L486 866L515 866L593 765L562 765L495 834L390 765L354 765Z"  horiz-adv-x="656" vert-adv-y="1000"  />

      
      <glyph glyph-name="unicb" unicode="&#xcb;" d="M380 776L396 837L449 837L433 776L380 776M535 776L551 837L603 837L587 776L535 776M37 0L225 700L715 700L706 669L250 669L169 368L582 368L574 337L161 337L79 31L540 31L532 0L37 0Z"  horiz-adv-x="656" vert-adv-y="1000"  />

      
      <glyph glyph-name="unicc" unicode="&#xcc;" d="M43 0L231 700L265 700L77 0L43 0M237 765L156 853L193 872L261 765L237 765Z"  horiz-adv-x="256" vert-adv-y="1000"  />

      
      <glyph glyph-name="unicd" unicode="&#xcd;" d="M43 0L231 700L265 700L77 0L43 0M244 765L369 872L407 853L277 765L244 765Z"  horiz-adv-x="256" vert-adv-y="1000"  />

      
      <glyph glyph-name="unice" unicode="&#xce;" d="M43 0L231 700L265 700L77 0L43 0M139 765L271 866L300 866L378 765L347 765L280 834L175 765L139 765Z"  horiz-adv-x="256" vert-adv-y="1000"  />

      
      <glyph glyph-name="unicf" unicode="&#xcf;" d="M43 0L231 700L265 700L77 0L43 0M165 776L181 837L234 837L218 776L165 776M320 776L336 837L388 837L372 776L320 776Z"  horiz-adv-x="256" vert-adv-y="1000"  />

      
      <glyph glyph-name="unid0" unicode="&#xd0;" d="M63 336L71 368L147 368L237 700L383 700Q566 700 661 605Q738 528 738 406Q738 243 628 133Q565 70 472.50 35Q380 0 272 0L49 0L139 336L63 336M635 583Q551 669 386 669L262 669L181 368L424 368L416 336L173 336L91 31L277 31Q480 31 603 154Q703 254 703 404Q703 515 635 583Z"  horiz-adv-x="778" vert-adv-y="1000"  />

      
      <glyph glyph-name="unid1" unicode="&#xd1;" d="M414 760L392 766Q427 845 481 845Q501 845 545 822Q583 799 602 799Q637 799 666 852L687 846Q654 767 599 767Q577 767 535 790Q495 813 478 813Q443 813 414 760M37 0L225 700L256 700L593 53L767 700L800 700L612 0L584 0L244 652L69 0L37 0Z"  horiz-adv-x="784" vert-adv-y="1000"  />

      
      <glyph glyph-name="unid2" unicode="&#xd2;" d="M521 772L440 860L477 879L545 772L521 772M496 712Q628 712 712.50 625Q797 538 797 410Q797 325 762.50 244.50Q728 164 668 104Q552-12 397-12Q266-12 181.50 75Q97 162 97 290Q97 375 131 455Q165 535 225 595Q342 712 496 712M398 18Q537 18 643 124Q699 180 730.50 254.50Q762 329 762 409Q762 526 687.50 603.50Q613 681 495 681Q354 681 251 576Q194 520 162.50 445Q131 370 131 290Q131 174 205.50 96Q280 18 398 18Z"  horiz-adv-x="841" vert-adv-y="1000"  />

      
      <glyph glyph-name="unid3" unicode="&#xd3;" d="M527 772L652 879L690 860L560 772L527 772M496 712Q628 712 712.50 625Q797 538 797 410Q797 325 762.50 244.50Q728 164 668 104Q552-12 397-12Q266-12 181.50 75Q97 162 97 290Q97 375 131 455Q165 535 225 595Q342 712 496 712M398 18Q537 18 643 124Q699 180 730.50 254.50Q762 329 762 409Q762 526 687.50 603.50Q613 681 495 681Q354 681 251 576Q194 520 162.50 445Q131 370 131 290Q131 174 205.50 96Q280 18 398 18Z"  horiz-adv-x="841" vert-adv-y="1000"  />

      
      <glyph glyph-name="unid4" unicode="&#xd4;" d="M496 712Q628 712 712.50 625Q797 538 797 410Q797 325 762.50 244.50Q728 164 668 104Q552-12 397-12Q266-12 181.50 75Q97 162 97 290Q97 375 131 455Q165 535 225 595Q342 712 496 712M398 18Q537 18 643 124Q699 180 730.50 254.50Q762 329 762 409Q762 526 687.50 603.50Q613 681 495 681Q354 681 251 576Q194 520 162.50 445Q131 370 131 290Q131 174 205.50 96Q280 18 398 18M424 772L556 873L585 873L663 772L632 772L565 841L460 772L424 772Z"  horiz-adv-x="841" vert-adv-y="1000"  />

      
      <glyph glyph-name="unid5" unicode="&#xd5;" d="M434 772L412 778Q447 857 501 857Q521 857 565 834Q603 811 622 811Q657 811 686 864L707 858Q674 779 619 779Q597 779 555 802Q515 825 498 825Q463 825 434 772M496 712Q628 712 712.50 625Q797 538 797 410Q797 325 762.50 244.50Q728 164 668 104Q552-12 397-12Q266-12 181.50 75Q97 162 97 290Q97 375 131 455Q165 535 225 595Q342 712 496 712M398 18Q537 18 643 124Q699 180 730.50 254.50Q762 329 762 409Q762 526 687.50 603.50Q613 681 495 681Q354 681 251 576Q194 520 162.50 445Q131 370 131 290Q131 174 205.50 96Q280 18 398 18Z"  horiz-adv-x="841" vert-adv-y="1000"  />

      
      <glyph glyph-name="unid6" unicode="&#xd6;" d="M449 783L465 844L518 844L502 783L449 783M604 783L620 844L672 844L656 783L604 783M496 712Q628 712 712.50 625Q797 538 797 410Q797 325 762.50 244.50Q728 164 668 104Q552-12 397-12Q266-12 181.50 75Q97 162 97 290Q97 375 131 455Q165 535 225 595Q342 712 496 712M398 18Q537 18 643 124Q699 180 730.50 254.50Q762 329 762 409Q762 526 687.50 603.50Q613 681 495 681Q354 681 251 576Q194 520 162.50 445Q131 370 131 290Q131 174 205.50 96Q280 18 398 18Z"  horiz-adv-x="841" vert-adv-y="1000"  />

      
      <glyph glyph-name="unid7" unicode="&#xd7;" d="M87 142L69 166L308 355L170 541L197 562L333 374L572 563L590 538L351 350L488 163L461 143L326 331L87 142Z"  horiz-adv-x="608" vert-adv-y="1000"  />

      
      <glyph glyph-name="unid8" unicode="&#xd8;" d="M496 712Q642 712 730 605L849 705L893 705L747 582Q797 507 797 410Q797 325 762.50 244.50Q728 164 668 104Q552-12 397-12Q249-12 164 94L45-5L0-5L147 117Q97 194 97 290Q97 375 131 455Q165 535 225 595Q342 712 496 712M131 290Q131 203 172 138L705 584Q629 681 495 681Q354 681 251 576Q194 520 162.50 445Q131 370 131 290M398 18Q537 18 643 124Q699 180 730.50 254.50Q762 329 762 409Q762 493 721 561L188 114Q264 18 398 18Z"  horiz-adv-x="841" vert-adv-y="1000"  />

      
      <glyph glyph-name="unid9" unicode="&#xd9;" d="M476 760L395 848L432 867L500 760L476 760M346-11Q232-11 164.50 47Q97 105 97 211Q97 263 114 328L213 700L247 700L145 316Q131 267 131 214Q131 122 189 71Q247 20 348 20Q458 20 534 97Q602 165 640 303L746 700L780 700L671 295Q633 151 558 76Q471-11 346-11Z"  horiz-adv-x="754" vert-adv-y="1000"  />

      
      <glyph glyph-name="unida" unicode="&#xda;" d="M483 760L608 867L646 848L516 760L483 760M346-11Q232-11 164.50 47Q97 105 97 211Q97 263 114 328L213 700L247 700L145 316Q131 267 131 214Q131 122 189 71Q247 20 348 20Q458 20 534 97Q602 165 640 303L746 700L780 700L671 295Q633 151 558 76Q471-11 346-11Z"  horiz-adv-x="754" vert-adv-y="1000"  />

      
      <glyph glyph-name="unidb" unicode="&#xdb;" d="M346-11Q232-11 164.50 47Q97 105 97 211Q97 263 114 328L213 700L247 700L145 316Q131 267 131 214Q131 122 189 71Q247 20 348 20Q458 20 534 97Q602 165 640 303L746 700L780 700L671 295Q633 151 558 76Q471-11 346-11M379 760L511 861L540 861L618 760L587 760L520 829L415 760L379 760Z"  horiz-adv-x="754" vert-adv-y="1000"  />

      
      <glyph glyph-name="unidc" unicode="&#xdc;" d="M405 771L421 832L474 832L458 771L405 771M560 771L576 832L628 832L612 771L560 771M346-11Q232-11 164.50 47Q97 105 97 211Q97 263 114 328L213 700L247 700L145 316Q131 267 131 214Q131 122 189 71Q247 20 348 20Q458 20 534 97Q602 165 640 303L746 700L780 700L671 295Q633 151 558 76Q471-11 346-11Z"  horiz-adv-x="754" vert-adv-y="1000"  />

      
      <glyph glyph-name="unidd" unicode="&#xdd;" d="M242 0L320 290L137 700L173 700L343 316L720 700L765 700L352 282L276 0L242 0M433 760L558 867L596 848L466 760L433 760Z"  horiz-adv-x="666" vert-adv-y="1000"  />

      
      <glyph glyph-name="unide" unicode="&#xde;" d="M37 0L225 700L258 700L223 568L404 568Q536 568 599 505Q646 460 646 381Q646 289 584 227Q495 138 310 138L108 138L71 0L37 0M116 169L312 169Q481 169 558 248Q612 302 612 379Q612 444 573 483Q519 537 403 537L215 537L116 169Z"  horiz-adv-x="669" vert-adv-y="1000"  />

      
      <glyph glyph-name="unidf" unicode="&#xdf;" d="M207-2L215 28Q341 28 413.50 77Q486 126 486 201Q486 319 301 354L309 382Q539 428 539 578Q539 633 501 670Q463 707 397 707Q324 707 270 651Q216 595 191 500L57 0L25 0L161 509Q191 615 247 671Q312 736 398 736Q475 736 524.50 692Q574 648 574 578Q574 420 359 367Q520 327 520 201Q520 111 434.50 54Q349-3 207-2Z"  horiz-adv-x="591" vert-adv-y="1000"  />

      
      <glyph glyph-name="unie0" unicode="&#xe0;" d="M188-12Q122-12 73.50 25.50Q25 63 25 127Q25 196 71 244Q133 306 252 306Q355 306 457 276L463 295Q471 325 471 352Q471 415 426 448.50Q381 482 302 482Q233 482 159 456L151 485Q227 512 305 512Q396 512 449 471.50Q502 431 502 355Q502 324 493 290L415 0L383 0L412 107Q334-12 188-12M194 17Q281 17 349 70Q417 123 438 204L450 249Q352 276 247 276Q146 276 97 225Q59 189 59 132Q59 78 98.50 47.50Q138 17 194 17M340 595L267 697L307 716L362 595L340 595Z"  horiz-adv-x="568" vert-adv-y="1000"  />

      
      <glyph glyph-name="unie1" unicode="&#xe1;" d="M188-12Q122-12 73.50 25.50Q25 63 25 127Q25 196 71 244Q133 306 252 306Q355 306 457 276L463 295Q471 325 471 352Q471 415 426 448.50Q381 482 302 482Q233 482 159 456L151 485Q227 512 305 512Q396 512 449 471.50Q502 431 502 355Q502 324 493 290L415 0L383 0L412 107Q334-12 188-12M194 17Q281 17 349 70Q417 123 438 204L450 249Q352 276 247 276Q146 276 97 225Q59 189 59 132Q59 78 98.50 47.50Q138 17 194 17M341 595L460 716L500 697L371 595L341 595Z"  horiz-adv-x="568" vert-adv-y="1000"  />

      
      <glyph glyph-name="unie2" unicode="&#xe2;" d="M188-12Q122-12 73.50 25.50Q25 63 25 127Q25 196 71 244Q133 306 252 306Q355 306 457 276L463 295Q471 325 471 352Q471 415 426 448.50Q381 482 302 482Q233 482 159 456L151 485Q227 512 305 512Q396 512 449 471.50Q502 431 502 355Q502 324 493 290L415 0L383 0L412 107Q334-12 188-12M194 17Q281 17 349 70Q417 123 438 204L450 249Q352 276 247 276Q146 276 97 225Q59 189 59 132Q59 78 98.50 47.50Q138 17 194 17M242 595L377 711L400 711L472 595L446 595L382 674L273 595L242 595Z"  horiz-adv-x="568" vert-adv-y="1000"  />

      
      <glyph glyph-name="unie3" unicode="&#xe3;" d="M188-12Q122-12 73.50 25.50Q25 63 25 127Q25 196 71 244Q133 306 252 306Q355 306 457 276L463 295Q471 325 471 352Q471 415 426 448.50Q381 482 302 482Q233 482 159 456L151 485Q227 512 305 512Q396 512 449 471.50Q502 431 502 355Q502 324 493 290L415 0L383 0L412 107Q334-12 188-12M194 17Q281 17 349 70Q417 123 438 204L450 249Q352 276 247 276Q146 276 97 225Q59 189 59 132Q59 78 98.50 47.50Q138 17 194 17M499 692L520 687Q485 602 431 602Q410 602 366 629Q322 653 309 653Q273 653 245 595L223 600Q258 686 312 686Q334 686 378 659Q418 634 435 634Q469 634 499 692Z"  horiz-adv-x="568" vert-adv-y="1000"  />

      
      <glyph glyph-name="unie4" unicode="&#xe4;" d="M188-12Q122-12 73.50 25.50Q25 63 25 127Q25 196 71 244Q133 306 252 306Q355 306 457 276L463 295Q471 325 471 352Q471 415 426 448.50Q381 482 302 482Q233 482 159 456L151 485Q227 512 305 512Q396 512 449 471.50Q502 431 502 355Q502 324 493 290L415 0L383 0L412 107Q334-12 188-12M194 17Q281 17 349 70Q417 123 438 204L450 249Q352 276 247 276Q146 276 97 225Q59 189 59 132Q59 78 98.50 47.50Q138 17 194 17M267 606L284 668L333 668L316 606L267 606M410 606L427 668L476 668L459 606L410 606Z"  horiz-adv-x="568" vert-adv-y="1000"  />

      
      <glyph glyph-name="unie5" unicode="&#xe5;" d="M188-12Q122-12 73.50 25.50Q25 63 25 127Q25 196 71 244Q133 306 252 306Q355 306 457 276L463 295Q471 325 471 352Q471 415 426 448.50Q381 482 302 482Q233 482 159 456L151 485Q227 512 305 512Q396 512 449 471.50Q502 431 502 355Q502 324 493 290L415 0L383 0L412 107Q334-12 188-12M194 17Q281 17 349 70Q417 123 438 204L450 249Q352 276 247 276Q146 276 97 225Q59 189 59 132Q59 78 98.50 47.50Q138 17 194 17M488 698Q488 655 454.50 624.50Q421 594 378 594Q337 594 311 618.50Q285 643 285 681Q285 724 318.50 754.50Q352 785 395 785Q436 785 462 760.50Q488 736 488 698M310 682Q310 653 328.50 634.50Q347 616 379 616Q412 616 437.50 639.50Q463 663 463 697Q463 726 444.50 744.50Q426 763 394 763Q361 763 335.50 739Q310 715 310 682Z"  horiz-adv-x="568" vert-adv-y="1000"  />

      
      <glyph glyph-name="unie6" unicode="&#xe6;" d="M668-12Q589-12 534.50 23.50Q480 59 459 122Q347-12 193-12Q124-12 74.50 25.50Q25 63 25 127Q25 196 71 244Q133 306 252 306Q355 306 457 276L463 295Q471 325 471 352Q471 415 426 448.50Q381 482 302 482Q233 482 159 456L151 485Q227 512 305 512Q390 512 442 475.50Q494 439 499 371Q539 436 602 476Q665 516 736 516Q831 516 880.50 459.50Q930 403 930 320Q930 283 918 242L482 242Q479 221 479 200Q479 117 530 67.50Q581 18 667 18Q763 18 847 88L867 65Q776-12 668-12M198 17Q269 17 335 53Q401 89 451 153Q442 196 451 248Q357 276 247 276Q146 276 97 225Q59 189 59 132Q59 78 99 47.50Q139 17 198 17M567 413Q507 353 487 271L891 271Q897 299 897 320Q897 390 856.50 438Q816 486 735 486Q640 486 567 413Z"  horiz-adv-x="980" vert-adv-y="1000"  />

      
      <glyph glyph-name="unie7" unicode="&#xe7;" d="M157-144L125-126L234-9Q156 3 102.50 60Q49 117 49 206Q49 334 143 428Q231 516 346 516Q418 516 468 482Q518 448 544 396L517 381Q459 486 344 486Q245 486 167 408Q83 324 83 207Q83 121 139 69.50Q195 18 271 18Q363 18 445 93L467 73Q377-12 270-12L260-12L157-144Z"  horiz-adv-x="556" vert-adv-y="1000"  />

      
      <glyph glyph-name="unie8" unicode="&#xe8;" d="M523 242L87 242Q84 221 84 200Q84 117 135 67.50Q186 18 272 18Q368 18 453 88L472 65Q381-12 272-12Q172-12 110.50 45.50Q49 103 49 198Q49 333 147 431Q232 516 341 516Q437 516 486 459.50Q535 403 535 320Q533 273 523 242M172 413Q112 353 92 271L497 271Q502 306 502 320Q502 390 461.50 438Q421 486 340 486Q247 486 172 413M363 595L290 697L330 716L385 595L363 595Z"  horiz-adv-x="585" vert-adv-y="1000"  />

      
      <glyph glyph-name="unie9" unicode="&#xe9;" d="M523 242L87 242Q84 221 84 200Q84 117 135 67.50Q186 18 272 18Q368 18 453 88L472 65Q381-12 272-12Q172-12 110.50 45.50Q49 103 49 198Q49 333 147 431Q232 516 341 516Q437 516 486 459.50Q535 403 535 320Q533 273 523 242M172 413Q112 353 92 271L497 271Q502 306 502 320Q502 390 461.50 438Q421 486 340 486Q247 486 172 413M364 595L483 716L523 697L394 595L364 595Z"  horiz-adv-x="585" vert-adv-y="1000"  />

      
      <glyph glyph-name="uniea" unicode="&#xea;" d="M523 242L87 242Q84 221 84 200Q84 117 135 67.50Q186 18 272 18Q368 18 453 88L472 65Q381-12 272-12Q172-12 110.50 45.50Q49 103 49 198Q49 333 147 431Q232 516 341 516Q437 516 486 459.50Q535 403 535 320Q533 273 523 242M172 413Q112 353 92 271L497 271Q502 306 502 320Q502 390 461.50 438Q421 486 340 486Q247 486 172 413M265 595L400 711L423 711L495 595L469 595L405 674L296 595L265 595Z"  horiz-adv-x="585" vert-adv-y="1000"  />

      
      <glyph glyph-name="unieb" unicode="&#xeb;" d="M523 242L87 242Q84 221 84 200Q84 117 135 67.50Q186 18 272 18Q368 18 453 88L472 65Q381-12 272-12Q172-12 110.50 45.50Q49 103 49 198Q49 333 147 431Q232 516 341 516Q437 516 486 459.50Q535 403 535 320Q533 273 523 242M172 413Q112 353 92 271L497 271Q502 306 502 320Q502 390 461.50 438Q421 486 340 486Q247 486 172 413M434 606L451 668L500 668L483 606L434 606M291 606L308 668L357 668L340 606L291 606Z"  horiz-adv-x="585" vert-adv-y="1000"  />

      
      <glyph glyph-name="uniec" unicode="&#xec;" d="M31 0L167 504L199 504L64 0L31 0M186 595L113 697L153 716L208 595L186 595Z"  horiz-adv-x="232" vert-adv-y="1000"  />

      
      <glyph glyph-name="unied" unicode="&#xed;" d="M188 595L307 716L347 697L218 595L188 595M31 0L167 504L199 504L64 0L31 0Z"  horiz-adv-x="232" vert-adv-y="1000"  />

      
      <glyph glyph-name="uniee" unicode="&#xee;" d="M89 595L224 711L247 711L319 595L293 595L229 674L120 595L89 595M31 0L167 504L199 504L64 0L31 0Z"  horiz-adv-x="232" vert-adv-y="1000"  />

      
      <glyph glyph-name="unief" unicode="&#xef;" d="M114 606L131 668L180 668L163 606L114 606M257 606L274 668L323 668L306 606L257 606M31 0L167 504L199 504L64 0L31 0Z"  horiz-adv-x="232" vert-adv-y="1000"  />

      
      <glyph glyph-name="unif0" unicode="&#xf0;" d="M267 578L254 604L393 668Q367 700 340 730L382 730Q396 714 422 682L538 736L551 710L440 658Q569 482 569 313Q569 165 476 72Q392-12 275-12Q173-12 112 51.50Q51 115 51 214Q51 338 141 428Q222 511 335 511Q473 511 536 388Q511 511 411 645L267 578M277 18Q378 18 454 94Q535 175 535 285Q535 370 479.50 425.50Q424 481 334 481Q236 481 166 409Q85 330 85 217Q85 128 136.50 73Q188 18 277 18Z"  horiz-adv-x="618" vert-adv-y="1000"  />

      
      <glyph glyph-name="unif1" unicode="&#xf1;" d="M25 0L160 504L192 504L161 389Q242 516 371 516Q451 516 495.50 471.50Q540 427 540 353Q540 318 527 272L455 0L423 0L496 273Q506 310 506 350Q506 413 470 449.50Q434 486 364 486Q289 486 223 429.50Q157 373 132 281L57 0L25 0M530 692L551 687Q516 602 462 602Q441 602 397 629Q353 653 340 653Q304 653 276 595L254 600Q289 686 343 686Q365 686 409 659Q449 634 466 634Q500 634 530 692Z"  horiz-adv-x="607" vert-adv-y="1000"  />

      
      <glyph glyph-name="unif2" unicode="&#xf2;" d="M347 516Q447 516 511.50 452.50Q576 389 576 292Q576 166 483 75Q398-12 278-12Q178-12 114 51.50Q50 115 50 212Q50 337 142 429Q229 516 347 516M281 18Q382 18 459 95Q541 177 541 290Q541 377 486.50 431.50Q432 486 345 486Q242 486 167 409Q84 326 84 214Q84 127 138.50 72.50Q193 18 281 18M376 595L303 697L343 716L398 595L376 595Z"  horiz-adv-x="626" vert-adv-y="1000"  />

      
      <glyph glyph-name="unif3" unicode="&#xf3;" d="M378 595L497 716L537 697L408 595L378 595M347 516Q447 516 511.50 452.50Q576 389 576 292Q576 166 483 75Q398-12 278-12Q178-12 114 51.50Q50 115 50 212Q50 337 142 429Q229 516 347 516M281 18Q382 18 459 95Q541 177 541 290Q541 377 486.50 431.50Q432 486 345 486Q242 486 167 409Q84 326 84 214Q84 127 138.50 72.50Q193 18 281 18Z"  horiz-adv-x="626" vert-adv-y="1000"  />

      
      <glyph glyph-name="unif4" unicode="&#xf4;" d="M279 595L414 711L437 711L509 595L483 595L419 674L310 595L279 595M347 516Q447 516 511.50 452.50Q576 389 576 292Q576 166 483 75Q398-12 278-12Q178-12 114 51.50Q50 115 50 212Q50 337 142 429Q229 516 347 516M281 18Q382 18 459 95Q541 177 541 290Q541 377 486.50 431.50Q432 486 345 486Q242 486 167 409Q84 326 84 214Q84 127 138.50 72.50Q193 18 281 18Z"  horiz-adv-x="626" vert-adv-y="1000"  />

      
      <glyph glyph-name="unif5" unicode="&#xf5;" d="M347 516Q447 516 511.50 452.50Q576 389 576 292Q576 166 483 75Q398-12 278-12Q178-12 114 51.50Q50 115 50 212Q50 337 142 429Q229 516 347 516M281 18Q382 18 459 95Q541 177 541 290Q541 377 486.50 431.50Q432 486 345 486Q242 486 167 409Q84 326 84 214Q84 127 138.50 72.50Q193 18 281 18M536 692L557 687Q522 602 468 602Q447 602 403 629Q359 653 346 653Q310 653 282 595L260 600Q295 686 349 686Q371 686 415 659Q455 634 472 634Q506 634 536 692Z"  horiz-adv-x="626" vert-adv-y="1000"  />

      
      <glyph glyph-name="unif6" unicode="&#xf6;" d="M304 606L321 668L370 668L353 606L304 606M447 606L464 668L513 668L496 606L447 606M347 516Q447 516 511.50 452.50Q576 389 576 292Q576 166 483 75Q398-12 278-12Q178-12 114 51.50Q50 115 50 212Q50 337 142 429Q229 516 347 516M281 18Q382 18 459 95Q541 177 541 290Q541 377 486.50 431.50Q432 486 345 486Q242 486 167 409Q84 326 84 214Q84 127 138.50 72.50Q193 18 281 18Z"  horiz-adv-x="626" vert-adv-y="1000"  />

      
      <glyph glyph-name="unif7" unicode="&#xf7;" d="M240 115L258 182L312 182L294 115L240 115M92 337L100 367L569 367L561 337L92 337M349 522L367 589L421 589L403 522L349 522Z"  horiz-adv-x="608" vert-adv-y="1000"  />

      
      <glyph glyph-name="unif8" unicode="&#xf8;" d="M347 516Q457 516 522 441L604 509L647 509L538 420Q576 363 576 292Q576 166 483 75Q398-12 278-12Q169-12 103 62L21-5L-22-5L87 84Q50 138 50 212Q50 337 142 429Q229 516 347 516M345 486Q242 486 167 409Q84 326 84 214Q84 151 112 104L497 421Q443 486 345 486M541 290Q541 352 513 399L128 82Q181 18 281 18Q382 18 459 95Q541 177 541 290Z"  horiz-adv-x="626" vert-adv-y="1000"  />

      
      <glyph glyph-name="unif9" unicode="&#xf9;" d="M236-12Q156-12 111.50 32.50Q67 77 67 151Q67 184 79 232L152 504L184 504L111 231Q100 190 100 154Q100 91 136.50 54.50Q173 18 243 18Q317 18 383.50 74.50Q450 131 474 223L549 504L582 504L447 0L415 0L446 115Q363-12 236-12M361 592L288 694L328 713L383 592L361 592Z"  horiz-adv-x="607" vert-adv-y="1000"  />

      
      <glyph glyph-name="unifa" unicode="&#xfa;" d="M362 592L481 713L521 694L392 592L362 592M236-12Q156-12 111.50 32.50Q67 77 67 151Q67 184 79 232L152 504L184 504L111 231Q100 190 100 154Q100 91 136.50 54.50Q173 18 243 18Q317 18 383.50 74.50Q450 131 474 223L549 504L582 504L447 0L415 0L446 115Q363-12 236-12Z"  horiz-adv-x="607" vert-adv-y="1000"  />

      
      <glyph glyph-name="unifb" unicode="&#xfb;" d="M264 592L399 708L422 708L494 592L468 592L404 671L295 592L264 592M236-12Q156-12 111.50 32.50Q67 77 67 151Q67 184 79 232L152 504L184 504L111 231Q100 190 100 154Q100 91 136.50 54.50Q173 18 243 18Q317 18 383.50 74.50Q450 131 474 223L549 504L582 504L447 0L415 0L446 115Q363-12 236-12Z"  horiz-adv-x="607" vert-adv-y="1000"  />

      
      <glyph glyph-name="unifc" unicode="&#xfc;" d="M289 603L306 665L355 665L338 603L289 603M432 603L449 665L498 665L481 603L432 603M236-12Q156-12 111.50 32.50Q67 77 67 151Q67 184 79 232L152 504L184 504L111 231Q100 190 100 154Q100 91 136.50 54.50Q173 18 243 18Q317 18 383.50 74.50Q450 131 474 223L549 504L582 504L447 0L415 0L446 115Q363-12 236-12Z"  horiz-adv-x="607" vert-adv-y="1000"  />

      
      <glyph glyph-name="unifd" unicode="&#xfd;" d="M203-1L95 504L129 504L227 31L553 504L591 504L233-10Q170-100 123.50-131.50Q77-163 26-163Q-31-163-75-133L-57-107Q-20-134 28-134Q69-134 109-105.50Q149-77 203-1M334 592L453 713L493 694L364 592L334 592Z"  horiz-adv-x="571" vert-adv-y="1000"  />

      
      <glyph glyph-name="unife" unicode="&#xfe;" d="M253 730L161 388Q195 439 255.50 477.50Q316 516 390 516Q480 516 538 455Q596 394 596 302Q596 236 570.50 174.50Q545 113 500 68Q420-12 312-12Q223-12 168 37Q113 86 99 154L14-160L-18-160L221 730L253 730M311 18Q407 18 475 88Q562 173 562 298Q562 380 513 433Q464 486 387 486Q287 486 206 405Q165 365 141.50 314Q118 263 118 214Q118 129 171.50 73.50Q225 18 311 18Z"  horiz-adv-x="652" vert-adv-y="1000"  />

      
      <glyph glyph-name="uniff" unicode="&#xff;" d="M203-1L95 504L129 504L227 31L553 504L591 504L233-10Q170-100 123.50-131.50Q77-163 26-163Q-31-163-75-133L-57-107Q-20-134 28-134Q69-134 109-105.50Q149-77 203-1M260 603L277 665L326 665L309 603L260 603M403 603L420 665L469 665L452 603L403 603Z"  horiz-adv-x="571" vert-adv-y="1000"  />

      
      <glyph glyph-name="uni0100" unicode="&#x0100;" d="M-29 0L493 705L524 705L666 0L632 0L592 204L160 204L10 0L-29 0M183 235L586 235L501 665L183 235M392 798L401 830L688 830L680 798L392 798Z"  horiz-adv-x="764" vert-adv-y="1000"  />

      
      <glyph glyph-name="uni0101" unicode="&#x0101;" d="M188-12Q122-12 73.50 25.50Q25 63 25 127Q25 196 71 244Q133 306 252 306Q355 306 457 276L463 295Q471 325 471 352Q471 415 426 448.50Q381 482 302 482Q233 482 159 456L151 485Q227 512 305 512Q396 512 449 471.50Q502 431 502 355Q502 324 493 290L415 0L383 0L412 107Q334-12 188-12M194 17Q281 17 349 70Q417 123 438 204L450 249Q352 276 247 276Q146 276 97 225Q59 189 59 132Q59 78 98.50 47.50Q138 17 194 17M229 621L237 651L515 651L507 621L229 621Z"  horiz-adv-x="568" vert-adv-y="1000"  />

      
      <glyph glyph-name="uni0102" unicode="&#x0102;" d="M-29 0L493 705L524 705L666 0L632 0L592 204L160 204L10 0L-29 0M183 235L586 235L501 665L183 235M532 771Q476 771 448.50 795.50Q421 820 426 861L453 861Q455 802 536 802Q619 802 654 861L683 861Q666 820 626.50 795.50Q587 771 532 771Z"  horiz-adv-x="764" vert-adv-y="1000"  />

      
      <glyph glyph-name="uni0103" unicode="&#x0103;" d="M188-12Q122-12 73.50 25.50Q25 63 25 127Q25 196 71 244Q133 306 252 306Q355 306 457 276L463 295Q471 325 471 352Q471 415 426 448.50Q381 482 302 482Q233 482 159 456L151 485Q227 512 305 512Q396 512 449 471.50Q502 431 502 355Q502 324 493 290L415 0L383 0L412 107Q334-12 188-12M194 17Q281 17 349 70Q417 123 438 204L450 249Q352 276 247 276Q146 276 97 225Q59 189 59 132Q59 78 98.50 47.50Q138 17 194 17M363 594Q308 594 280.50 622.50Q253 651 261 698L285 698Q284 663 304 643.50Q324 624 368 624Q449 624 490 698L517 698Q498 650 458.50 622Q419 594 363 594Z"  horiz-adv-x="568" vert-adv-y="1000"  />

      
      <glyph glyph-name="uni0104" unicode="&#x0104;" d="M648-137L642-161Q594-160 568.50-143.50Q543-127 543-99Q543-49 631 6L592 204L160 204L10 0L-29 0L493 705L524 705L666 0L659 0Q578-52 578-94Q578-131 648-137M183 235L586 235L501 665L183 235Z"  horiz-adv-x="764" vert-adv-y="1000"  />

      
      <glyph glyph-name="uni0105" unicode="&#x0105;" d="M401-137L395-161Q347-160 321.50-143.50Q296-127 296-99Q296-49 384 6L412 107Q334-12 188-12Q122-12 73.50 25.50Q25 63 25 127Q25 196 71 244Q133 306 252 306Q355 306 457 276L463 295Q471 325 471 352Q471 415 426 448.50Q381 482 302 482Q233 482 159 456L151 485Q227 512 305 512Q396 512 449 471.50Q502 431 502 355Q502 324 493 290L415 0L412 0Q331-52 331-94Q331-131 401-137M194 17Q281 17 349 70Q417 123 438 204L450 249Q352 276 247 276Q146 276 97 225Q59 189 59 132Q59 78 98.50 47.50Q138 17 194 17Z"  horiz-adv-x="568" vert-adv-y="1000"  />

      
      <glyph glyph-name="uni0106" unicode="&#x0106;" d="M373-12Q255-12 174 65Q93 142 93 270Q93 360 128.50 443.50Q164 527 227 590Q349 712 510 712Q598 712 664 671Q730 630 763 560L733 546Q664 681 509 681Q361 681 254 572Q194 512 160.50 433.50Q127 355 127 271Q127 156 197.50 87.50Q268 19 376 19Q521 19 630 130L652 109Q535-12 373-12M511 772L636 879L674 860L544 772L511 772Z"  horiz-adv-x="731" vert-adv-y="1000"  />

      
      <glyph glyph-name="uni0107" unicode="&#x0107;" d="M359 595L478 716L518 697L389 595L359 595M270-12Q182-12 115.50 47.50Q49 107 49 206Q49 334 143 428Q231 516 346 516Q418 516 468 482Q518 448 544 396L517 381Q459 486 344 486Q245 486 167 408Q83 324 83 207Q83 121 139 69.50Q195 18 271 18Q363 18 445 93L467 73Q377-12 270-12Z"  horiz-adv-x="556" vert-adv-y="1000"  />

      
      <glyph glyph-name="uni010A" unicode="&#x010A;" d="M510 783L526 844L579 844L563 783L510 783M373-12Q255-12 174 65Q93 142 93 270Q93 360 128.50 443.50Q164 527 227 590Q349 712 510 712Q598 712 664 671Q730 630 763 560L733 546Q664 681 509 681Q361 681 254 572Q194 512 160.50 433.50Q127 355 127 271Q127 156 197.50 87.50Q268 19 376 19Q521 19 630 130L652 109Q535-12 373-12Z"  horiz-adv-x="731" vert-adv-y="1000"  />

      
      <glyph glyph-name="uni010B" unicode="&#x010B;" d="M270-12Q182-12 115.50 47.50Q49 107 49 206Q49 334 143 428Q231 516 346 516Q418 516 468 482Q518 448 544 396L517 381Q459 486 344 486Q245 486 167 408Q83 324 83 207Q83 121 139 69.50Q195 18 271 18Q363 18 445 93L467 73Q377-12 270-12M358 606L375 670L423 670L406 606L358 606Z"  horiz-adv-x="556" vert-adv-y="1000"  />

      
      <glyph glyph-name="uni010C" unicode="&#x010C;" d="M373-12Q255-12 174 65Q93 142 93 270Q93 360 128.50 443.50Q164 527 227 590Q349 712 510 712Q598 712 664 671Q730 630 763 560L733 546Q664 681 509 681Q361 681 254 572Q194 512 160.50 433.50Q127 355 127 271Q127 156 197.50 87.50Q268 19 376 19Q521 19 630 130L652 109Q535-12 373-12M685 873L554 772L525 772L446 873L478 873L545 804L649 873L685 873Z"  horiz-adv-x="731" vert-adv-y="1000"  />

      
      <glyph glyph-name="uni010D" unicode="&#x010D;" d="M360 595L288 711L315 711L378 632L488 711L519 711L383 595L360 595M270-12Q182-12 115.50 47.50Q49 107 49 206Q49 334 143 428Q231 516 346 516Q418 516 468 482Q518 448 544 396L517 381Q459 486 344 486Q245 486 167 408Q83 324 83 207Q83 121 139 69.50Q195 18 271 18Q363 18 445 93L467 73Q377-12 270-12Z"  horiz-adv-x="556" vert-adv-y="1000"  />

      
      <glyph glyph-name="uni010E" unicode="&#x010E;" d="M37 0L225 700L371 700Q554 700 649 605Q726 528 726 406Q726 243 616 133Q553 70 460.50 35Q368 0 260 0L37 0M623 583Q539 669 374 669L250 669L79 31L265 31Q468 31 591 154Q691 254 691 404Q691 515 623 583M639 866L508 765L479 765L400 866L432 866L499 797L603 866L639 866Z"  horiz-adv-x="766" vert-adv-y="1000"  />

      
      <glyph glyph-name="uni010F" unicode="&#x010F;" d="M719 581L775 730L814 730L814 728L738 581L719 581M457 0L488 115Q456 65 394.50 26.50Q333-12 259-12Q170-12 111.50 49Q53 110 53 201Q53 267 78.50 329Q104 391 149 435Q228 516 337 516Q426 516 481 467Q536 418 550 350L653 730L685 730L489 0L457 0M262 18Q364 18 444 98Q531 187 531 290Q531 375 478 430.50Q425 486 339 486Q244 486 174 416Q87 329 87 206Q87 124 136 71Q185 18 262 18Z"  horiz-adv-x="652" vert-adv-y="1000"  />

      
      <glyph glyph-name="uni0110" unicode="&#x0110;" d="M63 336L71 368L147 368L237 700L383 700Q566 700 661 605Q738 528 738 406Q738 243 628 133Q565 70 472.50 35Q380 0 272 0L49 0L139 336L63 336M635 583Q551 669 386 669L262 669L181 368L424 368L416 336L173 336L91 31L277 31Q480 31 603 154Q703 254 703 404Q703 515 635 583Z"  horiz-adv-x="778" vert-adv-y="1000"  />

      
      <glyph glyph-name="uni0111" unicode="&#x0111;" d="M438 618L446 647L630 647L653 730L685 730L662 647L733 647L725 618L654 618L489 0L457 0L488 115Q456 65 394.50 26.50Q333-12 259-12Q170-12 111.50 49Q53 110 53 201Q53 267 78.50 329Q104 391 149 435Q228 516 337 516Q426 516 481 467Q536 418 550 350L622 618L438 618M262 18Q364 18 444 98Q531 187 531 290Q531 375 478 430.50Q425 486 339 486Q244 486 174 416Q87 329 87 206Q87 124 136 71Q185 18 262 18Z"  horiz-adv-x="652" vert-adv-y="1000"  />

      
      <glyph glyph-name="uni0112" unicode="&#x0112;" d="M344 791L353 823L640 823L632 791L344 791M37 0L225 700L715 700L706 669L250 669L169 368L582 368L574 337L161 337L79 31L540 31L532 0L37 0Z"  horiz-adv-x="656" vert-adv-y="1000"  />

      
      <glyph glyph-name="uni0113" unicode="&#x0113;" d="M523 242L87 242Q84 221 84 200Q84 117 135 67.50Q186 18 272 18Q368 18 453 88L472 65Q381-12 272-12Q172-12 110.50 45.50Q49 103 49 198Q49 333 147 431Q232 516 341 516Q437 516 486 459.50Q535 403 535 320Q533 273 523 242M172 413Q112 353 92 271L497 271Q502 306 502 320Q502 390 461.50 438Q421 486 340 486Q247 486 172 413M252 621L260 651L538 651L530 621L252 621Z"  horiz-adv-x="585" vert-adv-y="1000"  />

      
      <glyph glyph-name="uni0114" unicode="&#x0114;" d="M484 764Q428 764 400.50 788.50Q373 813 378 854L405 854Q407 795 488 795Q571 795 606 854L635 854Q618 813 578.50 788.50Q539 764 484 764M37 0L225 700L715 700L706 669L250 669L169 368L582 368L574 337L161 337L79 31L540 31L532 0L37 0Z"  horiz-adv-x="656" vert-adv-y="1000"  />

      
      <glyph glyph-name="uni0115" unicode="&#x0115;" d="M523 242L87 242Q84 221 84 200Q84 117 135 67.50Q186 18 272 18Q368 18 453 88L472 65Q381-12 272-12Q172-12 110.50 45.50Q49 103 49 198Q49 333 147 431Q232 516 341 516Q437 516 486 459.50Q535 403 535 320Q533 273 523 242M172 413Q112 353 92 271L497 271Q502 306 502 320Q502 390 461.50 438Q421 486 340 486Q247 486 172 413M387 594Q332 594 304.50 622.50Q277 651 285 698L309 698Q308 663 328 643.50Q348 624 392 624Q473 624 514 698L541 698Q522 650 482.50 622Q443 594 387 594Z"  horiz-adv-x="585" vert-adv-y="1000"  />

      
      <glyph glyph-name="uni0116" unicode="&#x0116;" d="M457 776L473 837L526 837L510 776L457 776M37 0L225 700L715 700L706 669L250 669L169 368L582 368L574 337L161 337L79 31L540 31L532 0L37 0Z"  horiz-adv-x="656" vert-adv-y="1000"  />

      
      <glyph glyph-name="uni0117" unicode="&#x0117;" d="M523 242L87 242Q84 221 84 200Q84 117 135 67.50Q186 18 272 18Q368 18 453 88L472 65Q381-12 272-12Q172-12 110.50 45.50Q49 103 49 198Q49 333 147 431Q232 516 341 516Q437 516 486 459.50Q535 403 535 320Q533 273 523 242M172 413Q112 353 92 271L497 271Q502 306 502 320Q502 390 461.50 438Q421 486 340 486Q247 486 172 413M363 606L380 670L428 670L411 606L363 606Z"  horiz-adv-x="585" vert-adv-y="1000"  />

      
      <glyph glyph-name="uni0118" unicode="&#x0118;" d="M37 0L225 700L715 700L706 669L250 669L169 368L582 368L574 337L161 337L79 31L540 31L532 0L519 0Q438-52 438-94Q438-131 508-137L502-161Q454-160 428.50-143.50Q403-127 403-99Q403-51 481 0L37 0Z"  horiz-adv-x="656" vert-adv-y="1000"  />

      
      <glyph glyph-name="uni0119" unicode="&#x0119;" d="M453 88L472 65Q445 43 395.50 10Q346-23 327-42Q299-68 299-94Q299-131 369-137L363-161Q316-160 290-143.50Q264-127 264-99Q264-53 335-5Q298-12 272-12Q172-12 110.50 45.50Q49 103 49 198Q49 333 147 431Q232 516 341 516Q437 516 486 459.50Q535 403 535 320Q533 273 523 242L87 242Q84 221 84 200Q84 117 135 67.50Q186 18 272 18Q368 18 453 88M172 413Q112 353 92 271L497 271Q502 306 502 320Q502 390 461.50 438Q421 486 340 486Q247 486 172 413Z"  horiz-adv-x="585" vert-adv-y="1000"  />

      
      <glyph glyph-name="uni011A" unicode="&#x011A;" d="M632 866L501 765L472 765L393 866L425 866L492 797L596 866L632 866M37 0L225 700L715 700L706 669L250 669L169 368L582 368L574 337L161 337L79 31L540 31L532 0L37 0Z"  horiz-adv-x="656" vert-adv-y="1000"  />

      
      <glyph glyph-name="uni011B" unicode="&#x011B;" d="M523 242L87 242Q84 221 84 200Q84 117 135 67.50Q186 18 272 18Q368 18 453 88L472 65Q381-12 272-12Q172-12 110.50 45.50Q49 103 49 198Q49 333 147 431Q232 516 341 516Q437 516 486 459.50Q535 403 535 320Q533 273 523 242M172 413Q112 353 92 271L497 271Q502 306 502 320Q502 390 461.50 438Q421 486 340 486Q247 486 172 413M366 595L294 711L321 711L384 632L494 711L525 711L389 595L366 595Z"  horiz-adv-x="585" vert-adv-y="1000"  />

      
      <glyph glyph-name="uni011E" unicode="&#x011E;" d="M548 771Q492 771 464.50 795.50Q437 820 442 861L469 861Q471 802 552 802Q635 802 670 861L699 861Q682 820 642.50 795.50Q603 771 548 771M392-12Q259-12 177.50 69.50Q96 151 96 281Q96 366 130 446.50Q164 527 225 588Q349 712 520 712Q689 712 772 586L745 568Q668 681 518 681Q363 681 251 569Q194 512 162.50 437Q131 362 131 282Q131 164 202.50 91Q274 18 394 18Q511 18 611 82L680 323L439 323L447 356L722 356L639 63Q523-12 392-12Z"  horiz-adv-x="782" vert-adv-y="1000"  />

      
      <glyph glyph-name="uni011F" unicode="&#x011F;" d="M237-161Q170-161 107-135.50Q44-110-1-67L22-44Q108-130 239-130Q342-130 403-69Q449-23 475 72L497 154Q409 37 270 37Q184 37 121.50 92Q59 147 59 233Q59 348 142 433Q227 516 342 516Q429 516 482 468.50Q535 421 551 356L591 504L623 504L505 64Q478-36 426-89Q352-161 237-161M275 68Q381 68 461 146Q534 221 534 304Q534 377 480 431Q426 485 341 485Q240 485 168 413Q93 338 93 236Q93 161 146 114.50Q199 68 275 68M413 594Q358 594 330.50 622.50Q303 651 311 698L335 698Q334 663 354 643.50Q374 624 418 624Q499 624 540 698L567 698Q548 650 508.50 622Q469 594 413 594Z"  horiz-adv-x="650" vert-adv-y="1000"  />

      
      <glyph glyph-name="uni0120" unicode="&#x0120;" d="M521 783L537 844L590 844L574 783L521 783M392-12Q259-12 177.50 69.50Q96 151 96 281Q96 366 130 446.50Q164 527 225 588Q349 712 520 712Q689 712 772 586L745 568Q668 681 518 681Q363 681 251 569Q194 512 162.50 437Q131 362 131 282Q131 164 202.50 91Q274 18 394 18Q511 18 611 82L680 323L439 323L447 356L722 356L639 63Q523-12 392-12Z"  horiz-adv-x="782" vert-adv-y="1000"  />

      
      <glyph glyph-name="uni0121" unicode="&#x0121;" d="M237-161Q170-161 107-135.50Q44-110-1-67L22-44Q108-130 239-130Q342-130 403-69Q449-23 475 72L497 154Q409 37 270 37Q184 37 121.50 92Q59 147 59 233Q59 348 142 433Q227 516 342 516Q429 516 482 468.50Q535 421 551 356L591 504L623 504L505 64Q478-36 426-89Q352-161 237-161M275 68Q381 68 461 146Q534 221 534 304Q534 377 480 431Q426 485 341 485Q240 485 168 413Q93 338 93 236Q93 161 146 114.50Q199 68 275 68M390 606L407 670L455 670L438 606L390 606Z"  horiz-adv-x="650" vert-adv-y="1000"  />

      
      <glyph glyph-name="uni0122" unicode="&#x0122;" d="M265-202L263-185Q303-174 314-134L290-134L306-77L356-77L345-117Q334-158 316-176.50Q298-195 265-202M392-12Q259-12 177.50 69.50Q96 151 96 281Q96 366 130 446.50Q164 527 225 588Q349 712 520 712Q689 712 772 586L745 568Q668 681 518 681Q363 681 251 569Q194 512 162.50 437Q131 362 131 282Q131 164 202.50 91Q274 18 394 18Q511 18 611 82L680 323L439 323L447 356L722 356L639 63Q523-12 392-12Z"  horiz-adv-x="782" vert-adv-y="1000"  />

      
      <glyph glyph-name="uni0123" unicode="&#x0123;" d="M479 730L481 713Q441 702 430 662L454 662L438 605L388 605L399 645Q410 686 428 704.50Q446 723 479 730M237-161Q170-161 107-135.50Q44-110-1-67L22-44Q108-130 239-130Q342-130 403-69Q449-23 475 72L497 154Q409 37 270 37Q184 37 121.50 92Q59 147 59 233Q59 348 142 433Q227 516 342 516Q429 516 482 468.50Q535 421 551 356L591 504L623 504L505 64Q478-36 426-89Q352-161 237-161M275 68Q381 68 461 146Q534 221 534 304Q534 377 480 431Q426 485 341 485Q240 485 168 413Q93 338 93 236Q93 161 146 114.50Q199 68 275 68Z"  horiz-adv-x="650" vert-adv-y="1000"  />

      
      <glyph glyph-name="uni0126" unicode="&#x0126;" d="M102 521L110 550L185 550L225 700L259 700L219 550L696 550L736 700L770 700L730 550L805 550L797 521L722 521L582 0L548 0L638 335L161 335L71 0L37 0L177 521L102 521M169 366L646 366L688 521L211 521L169 366Z"  horiz-adv-x="754" vert-adv-y="1000"  />

      
      <glyph glyph-name="uni0127" unicode="&#x0127;" d="M120 618L128 647L199 647L221 730L253 730L230 647L415 647L408 618L222 618L161 389Q242 516 371 516Q451 516 495.50 471.50Q540 427 540 353Q540 318 527 272L455 0L423 0L496 273Q506 310 506 350Q506 413 470 449.50Q434 486 364 486Q289 486 223 429.50Q157 373 132 281L57 0L25 0L191 618L120 618Z"  horiz-adv-x="607" vert-adv-y="1000"  />

      
      <glyph glyph-name="uni012A" unicode="&#x012A;" d="M43 0L231 700L265 700L77 0L43 0M129 791L138 823L425 823L417 791L129 791Z"  horiz-adv-x="256" vert-adv-y="1000"  />

      
      <glyph glyph-name="uni012B" unicode="&#x012B;" d="M31 0L167 504L199 504L64 0L31 0M75 621L83 651L361 651L353 621L75 621Z"  horiz-adv-x="232" vert-adv-y="1000"  />

      
      <glyph glyph-name="uni012C" unicode="&#x012C;" d="M43 0L231 700L265 700L77 0L43 0M269 764Q213 764 185.50 788.50Q158 813 163 854L190 854Q192 795 273 795Q356 795 391 854L420 854Q403 813 363.50 788.50Q324 764 269 764Z"  horiz-adv-x="256" vert-adv-y="1000"  />

      
      <glyph glyph-name="uni012D" unicode="&#x012D;" d="M31 0L167 504L199 504L64 0L31 0M210 594Q155 594 127.50 622.50Q100 651 108 698L132 698Q131 663 151 643.50Q171 624 215 624Q296 624 337 698L364 698Q345 650 305.50 622Q266 594 210 594Z"  horiz-adv-x="232" vert-adv-y="1000"  />

      
      <glyph glyph-name="uni012E" unicode="&#x012E;" d="M63-137L57-161Q9-160-16.50-143.50Q-42-127-42-99Q-42-51 44 5L231 700L265 700L77 0L74 0Q-7-52-7-94Q-7-131 63-137Z"  horiz-adv-x="256" vert-adv-y="1000"  />

      
      <glyph glyph-name="uni012F" unicode="&#x012F;" d="M50-137L44-161Q-4-160-29.50-143.50Q-55-127-55-99Q-55-50 32 5L167 504L199 504L64 0L61 0Q-20-52-20-94Q-20-131 50-137M198 643L215 704L258 704L241 643L198 643Z"  horiz-adv-x="232" vert-adv-y="1000"  />

      
      <glyph glyph-name="uni0130" unicode="&#x0130;" d="M43 0L231 700L265 700L77 0L43 0M242 776L258 837L311 837L295 776L242 776Z"  horiz-adv-x="256" vert-adv-y="1000"  />

      
      <glyph glyph-name="uni0131" unicode="&#x0131;" d="M31 0L167 504L199 504L64 0L31 0Z"  horiz-adv-x="232" vert-adv-y="1000"  />

      
      <glyph glyph-name="uni0136" unicode="&#x0136;" d="M212-194L210-177Q250-166 261-126L237-126L253-69L303-69L292-109Q281-150 263-168.50Q245-187 212-194M37 0L225 700L259 700L134 234L723 700L774 700L388 397L597 0L559 0L361 377L121 188L71 0L37 0Z"  horiz-adv-x="709" vert-adv-y="1000"  />

      
      <glyph glyph-name="uni0137" unicode="&#x0137;" d="M126-196L124-179Q164-168 175-128L151-128L167-71L217-71L206-111Q195-152 177-170.50Q159-189 126-196M25 0L221 730L253 730L104 174L522 504L568 504L283 281L440 0L404 0L258 262L93 133L57 0L25 0Z"  horiz-adv-x="550" vert-adv-y="1000"  />

      
      <glyph glyph-name="uni0139" unicode="&#x0139;" d="M250 765L375 872L413 853L283 765L250 765M37 0L225 700L259 700L79 31L501 31L493 0L37 0Z"  horiz-adv-x="590" vert-adv-y="1000"  />

      
      <glyph glyph-name="uni013A" unicode="&#x013A;" d="M244 781L369 888L407 869L277 781L244 781M31 0L227 730L260 730L64 0L31 0Z"  horiz-adv-x="231" vert-adv-y="1000"  />

      
      <glyph glyph-name="uni013B" unicode="&#x013B;" d="M168-199L166-182Q206-171 217-131L193-131L209-74L259-74L248-114Q237-155 219-173.50Q201-192 168-199M37 0L225 700L259 700L79 31L501 31L493 0L37 0Z"  horiz-adv-x="590" vert-adv-y="1000"  />

      
      <glyph glyph-name="uni013C" unicode="&#x013C;" d="M-33-199L-35-182Q5-171 16-131L-8-131L8-74L58-74L47-114Q36-155 18-173.50Q0-192-33-199M31 0L227 730L260 730L64 0L31 0Z"  horiz-adv-x="231" vert-adv-y="1000"  />

      
      <glyph glyph-name="uni013D" unicode="&#x013D;" d="M319 551L375 700L414 700L414 698L338 551L319 551M37 0L225 700L259 700L79 31L501 31L493 0L37 0Z"  horiz-adv-x="590" vert-adv-y="1000"  />

      
      <glyph glyph-name="uni013E" unicode="&#x013E;" d="M294 581L350 730L389 730L389 728L313 581L294 581M31 0L227 730L260 730L64 0L31 0Z"  horiz-adv-x="231" vert-adv-y="1000"  />

      
      <glyph glyph-name="uni013F" unicode="&#x013F;" d="M438 324L457 390L504 390L486 324L438 324M37 0L225 700L259 700L79 31L501 31L493 0L37 0Z"  horiz-adv-x="598" vert-adv-y="1000"  />

      
      <glyph glyph-name="uni0140" unicode="&#x0140;" d="M240 332L258 399L306 399L288 332L240 332M31 0L227 730L260 730L64 0L31 0Z"  horiz-adv-x="255" vert-adv-y="1000"  />

      
      <glyph glyph-name="uni0141" unicode="&#x0141;" d="M64 298L72 330L167 358L259 700L293 700L204 369L459 445L451 413L195 337L113 31L535 31L527 0L71 0L158 326L64 298Z"  horiz-adv-x="625" vert-adv-y="1000"  />

      
      <glyph glyph-name="uni0142" unicode="&#x0142;" d="M64 322L72 354L156 379L251 730L284 730L192 390L277 415L269 383L184 357L88 0L55 0L148 347L64 322Z"  horiz-adv-x="279" vert-adv-y="1000"  />

      
      <glyph glyph-name="uni0143" unicode="&#x0143;" d="M507 760L632 867L670 848L540 760L507 760M37 0L225 700L256 700L593 53L767 700L800 700L612 0L584 0L244 652L69 0L37 0Z"  horiz-adv-x="784" vert-adv-y="1000"  />

      
      <glyph glyph-name="uni0144" unicode="&#x0144;" d="M372 595L491 716L531 697L402 595L372 595M25 0L160 504L192 504L161 389Q242 516 371 516Q451 516 495.50 471.50Q540 427 540 353Q540 318 527 272L455 0L423 0L496 273Q506 310 506 350Q506 413 470 449.50Q434 486 364 486Q289 486 223 429.50Q157 373 132 281L57 0L25 0Z"  horiz-adv-x="607" vert-adv-y="1000"  />

      
      <glyph glyph-name="uni0145" unicode="&#x0145;" d="M246-194L244-177Q284-166 295-126L271-126L287-69L337-69L326-109Q315-150 297-168.50Q279-187 246-194M37 0L225 700L256 700L593 53L767 700L800 700L612 0L584 0L244 652L69 0L37 0Z"  horiz-adv-x="784" vert-adv-y="1000"  />

      
      <glyph glyph-name="uni0146" unicode="&#x0146;" d="M152-196L150-179Q190-168 201-128L177-128L193-71L243-71L232-111Q221-152 203-170.50Q185-189 152-196M25 0L160 504L192 504L161 389Q242 516 371 516Q451 516 495.50 471.50Q540 427 540 353Q540 318 527 272L455 0L423 0L496 273Q506 310 506 350Q506 413 470 449.50Q434 486 364 486Q289 486 223 429.50Q157 373 132 281L57 0L25 0Z"  horiz-adv-x="607" vert-adv-y="1000"  />

      
      <glyph glyph-name="uni0147" unicode="&#x0147;" d="M680 861L549 760L520 760L441 861L473 861L540 792L644 861L680 861M37 0L225 700L256 700L593 53L767 700L800 700L612 0L584 0L244 652L69 0L37 0Z"  horiz-adv-x="784" vert-adv-y="1000"  />

      
      <glyph glyph-name="uni0148" unicode="&#x0148;" d="M374 595L302 711L329 711L392 632L502 711L533 711L397 595L374 595M25 0L160 504L192 504L161 389Q242 516 371 516Q451 516 495.50 471.50Q540 427 540 353Q540 318 527 272L455 0L423 0L496 273Q506 310 506 350Q506 413 470 449.50Q434 486 364 486Q289 486 223 429.50Q157 373 132 281L57 0L25 0Z"  horiz-adv-x="607" vert-adv-y="1000"  />

      
      <glyph glyph-name="uni014C" unicode="&#x014C;" d="M413 798L422 830L709 830L701 798L413 798M496 712Q628 712 712.50 625Q797 538 797 410Q797 325 762.50 244.50Q728 164 668 104Q552-12 397-12Q266-12 181.50 75Q97 162 97 290Q97 375 131 455Q165 535 225 595Q342 712 496 712M398 18Q537 18 643 124Q699 180 730.50 254.50Q762 329 762 409Q762 526 687.50 603.50Q613 681 495 681Q354 681 251 576Q194 520 162.50 445Q131 370 131 290Q131 174 205.50 96Q280 18 398 18Z"  horiz-adv-x="841" vert-adv-y="1000"  />

      
      <glyph glyph-name="uni014D" unicode="&#x014D;" d="M266 621L274 651L552 651L544 621L266 621M347 516Q447 516 511.50 452.50Q576 389 576 292Q576 166 483 75Q398-12 278-12Q178-12 114 51.50Q50 115 50 212Q50 337 142 429Q229 516 347 516M281 18Q382 18 459 95Q541 177 541 290Q541 377 486.50 431.50Q432 486 345 486Q242 486 167 409Q84 326 84 214Q84 127 138.50 72.50Q193 18 281 18Z"  horiz-adv-x="626" vert-adv-y="1000"  />

      
      <glyph glyph-name="uni014E" unicode="&#x014E;" d="M553 771Q497 771 469.50 795.50Q442 820 447 861L474 861Q476 802 557 802Q640 802 675 861L704 861Q687 820 647.50 795.50Q608 771 553 771M496 712Q628 712 712.50 625Q797 538 797 410Q797 325 762.50 244.50Q728 164 668 104Q552-12 397-12Q266-12 181.50 75Q97 162 97 290Q97 375 131 455Q165 535 225 595Q342 712 496 712M398 18Q537 18 643 124Q699 180 730.50 254.50Q762 329 762 409Q762 526 687.50 603.50Q613 681 495 681Q354 681 251 576Q194 520 162.50 445Q131 370 131 290Q131 174 205.50 96Q280 18 398 18Z"  horiz-adv-x="841" vert-adv-y="1000"  />

      
      <glyph glyph-name="uni014F" unicode="&#x014F;" d="M347 516Q447 516 511.50 452.50Q576 389 576 292Q576 166 483 75Q398-12 278-12Q178-12 114 51.50Q50 115 50 212Q50 337 142 429Q229 516 347 516M281 18Q382 18 459 95Q541 177 541 290Q541 377 486.50 431.50Q432 486 345 486Q242 486 167 409Q84 326 84 214Q84 127 138.50 72.50Q193 18 281 18M400 594Q345 594 317.50 622.50Q290 651 298 698L322 698Q321 663 341 643.50Q361 624 405 624Q486 624 527 698L554 698Q535 650 495.50 622Q456 594 400 594Z"  horiz-adv-x="626" vert-adv-y="1000"  />

      
      <glyph glyph-name="uni0150" unicode="&#x0150;" d="M496 712Q628 712 712.50 625Q797 538 797 410Q797 325 762.50 244.50Q728 164 668 104Q552-12 397-12Q266-12 181.50 75Q97 162 97 290Q97 375 131 455Q165 535 225 595Q342 712 496 712M398 18Q537 18 643 124Q699 180 730.50 254.50Q762 329 762 409Q762 526 687.50 603.50Q613 681 495 681Q354 681 251 576Q194 520 162.50 445Q131 370 131 290Q131 174 205.50 96Q280 18 398 18M449 772L574 879L611 860L482 772L449 772M577 772L703 879L740 860L611 772L577 772Z"  horiz-adv-x="841" vert-adv-y="1000"  />

      
      <glyph glyph-name="uni0151" unicode="&#x0151;" d="M302 595L421 716L454 697L328 595L302 595M436 595L555 716L588 697L462 595L436 595M347 516Q447 516 511.50 452.50Q576 389 576 292Q576 166 483 75Q398-12 278-12Q178-12 114 51.50Q50 115 50 212Q50 337 142 429Q229 516 347 516M281 18Q382 18 459 95Q541 177 541 290Q541 377 486.50 431.50Q432 486 345 486Q242 486 167 409Q84 326 84 214Q84 127 138.50 72.50Q193 18 281 18Z"  horiz-adv-x="626" vert-adv-y="1000"  />

      
      <glyph glyph-name="uni0152" unicode="&#x0152;" d="M447 0Q266 0 169 95Q93 173 93 294Q93 458 202 567Q265 630 357.50 665Q450 700 559 700L1213 700L1204 669L762 669L681 368L1080 368L1072 337L672 337L590 31L1038 31L1030 0L447 0M196 117Q280 31 445 31L557 31L728 669L554 669Q350 669 227 546Q127 444 127 296Q127 186 196 117Z"  horiz-adv-x="1154" vert-adv-y="1000"  />

      
      <glyph glyph-name="uni0153" unicode="&#x0153;" d="M1003 242L567 242Q564 221 564 200Q564 117 615.50 67.50Q667 18 753 18Q849 18 933 88L953 65Q862-12 754-12Q665-12 607 34.50Q549 81 538 160Q501 85 431.50 36.50Q362-12 274-12Q176-12 113 51.50Q50 115 50 212Q50 337 142 429Q229 516 347 516Q435 516 494.50 465.50Q554 415 566 336Q602 415 669 465.50Q736 516 821 516Q917 516 966.50 459.50Q1016 403 1016 320Q1014 276 1003 242M279 18Q380 18 458 96Q541 179 541 289Q541 376 486.50 431Q432 486 345 486Q242 486 167 409Q84 326 84 214Q84 127 137.50 72.50Q191 18 279 18M653 413Q594 354 572 271L977 271Q982 294 982 320Q982 390 942 438Q902 486 821 486Q726 486 653 413Z"  horiz-adv-x="1065" vert-adv-y="1000"  />

      
      <glyph glyph-name="uni0154" unicode="&#x0154;" d="M550 0L395 299L375 299L151 299L71 0L37 0L225 700L475 700Q599 700 661 640Q705 596 705 525Q705 440 647 382Q577 312 432 301L589 0L550 0M159 330L387 330Q551 330 622 401Q671 450 671 522Q671 580 636 617Q584 669 473 669L250 669L159 330M435 765L560 872L598 853L468 765L435 765Z"  horiz-adv-x="720" vert-adv-y="1000"  />

      
      <glyph glyph-name="uni0155" unicode="&#x0155;" d="M255 595L374 716L414 697L285 595L255 595M25 0L160 504L192 504L152 352Q201 429 269 472.50Q337 516 407 514L398 481L396 481Q316 481 232 410.50Q148 340 120 236L57 0L25 0Z"  horiz-adv-x="362" vert-adv-y="1000"  />

      
      <glyph glyph-name="uni0156" unicode="&#x0156;" d="M550 0L395 299L375 299L151 299L71 0L37 0L225 700L475 700Q599 700 661 640Q705 596 705 525Q705 440 647 382Q577 312 432 301L589 0L550 0M159 330L387 330Q551 330 622 401Q671 450 671 522Q671 580 636 617Q584 669 473 669L250 669L159 330M186-194L184-177Q224-166 235-126L211-126L227-69L277-69L266-109Q255-150 237-168.50Q219-187 186-194Z"  horiz-adv-x="720" vert-adv-y="1000"  />

      
      <glyph glyph-name="uni0157" unicode="&#x0157;" d="M-32-199L-34-182Q6-171 17-131L-7-131L9-74L59-74L48-114Q37-155 19-173.50Q1-192-32-199M25 0L160 504L192 504L152 352Q201 429 269 472.50Q337 516 407 514L398 481L396 481Q316 481 232 410.50Q148 340 120 236L57 0L25 0Z"  horiz-adv-x="362" vert-adv-y="1000"  />

      
      <glyph glyph-name="uni0158" unicode="&#x0158;" d="M550 0L395 299L375 299L151 299L71 0L37 0L225 700L475 700Q599 700 661 640Q705 596 705 525Q705 440 647 382Q577 312 432 301L589 0L550 0M159 330L387 330Q551 330 622 401Q671 450 671 522Q671 580 636 617Q584 669 473 669L250 669L159 330M608 866L477 765L448 765L369 866L401 866L468 797L572 866L608 866Z"  horiz-adv-x="720" vert-adv-y="1000"  />

      
      <glyph glyph-name="uni0159" unicode="&#x0159;" d="M257 595L185 711L212 711L275 632L385 711L416 711L280 595L257 595M25 0L160 504L192 504L152 352Q201 429 269 472.50Q337 516 407 514L398 481L396 481Q316 481 232 410.50Q148 340 120 236L57 0L25 0Z"  horiz-adv-x="362" vert-adv-y="1000"  />

      
      <glyph glyph-name="uni015A" unicode="&#x015A;" d="M301-10Q214-10 141 25Q68 60 22 122L48 141Q140 21 305 21Q401 21 460 70Q519 119 519 185Q519 242 478 275Q437 308 346 343Q247 381 200.50 418.50Q154 456 154 520Q154 588 205 639Q276 710 400 710Q549 710 640 607L614 585Q531 679 397 679Q302 679 245 632.50Q188 586 188 523Q188 470 230.50 438.50Q273 407 362 373Q461 336 507 296.50Q553 257 553 188Q553 116 499 62Q427-10 301-10M419 772L544 879L582 860L452 772L419 772Z"  horiz-adv-x="639" vert-adv-y="1000"  />

      
      <glyph glyph-name="uni015B" unicode="&#x015B;" d="M307 595L426 716L466 697L337 595L307 595M212-10Q87-10 2 73L25 96Q105 20 215 20Q280 20 323 52.50Q366 85 366 129Q366 168 338 192Q310 216 242 242Q170 269 135 298Q100 327 100 374Q100 431 150.50 472.50Q201 514 283 514Q328 514 377.50 496.50Q427 479 463 448L442 424Q369 484 281 484Q213 484 173.50 452.50Q134 421 134 379Q134 342 162.50 319Q191 296 259 270Q332 241 366 211.50Q400 182 400 133Q400 75 347 32.50Q294-10 212-10Z"  horiz-adv-x="492" vert-adv-y="1000"  />

      
      <glyph glyph-name="uni015E" unicode="&#x015E;" d="M175-144L143-126L254-7Q105 10 22 122L48 141Q140 21 305 21Q401 21 460 70Q519 119 519 185Q519 242 478 275Q437 308 346 343Q247 381 200.50 418.50Q154 456 154 520Q154 588 205 639Q276 710 400 710Q549 710 640 607L614 585Q531 679 397 679Q302 679 245 632.50Q188 586 188 523Q188 470 230.50 438.50Q273 407 362 373Q461 336 507 296.50Q553 257 553 188Q553 116 499 62Q427-10 301-10Q287-10 280-9L175-144Z"  horiz-adv-x="639" vert-adv-y="1000"  />

      
      <glyph glyph-name="uni015F" unicode="&#x015F;" d="M90-144L58-126L169-7Q67 8 2 73L25 96Q105 20 215 20Q280 20 323 52.50Q366 85 366 129Q366 168 338 192Q310 216 242 242Q170 269 135 298Q100 327 100 374Q100 431 150.50 472.50Q201 514 283 514Q328 514 377.50 496.50Q427 479 463 448L442 424Q369 484 281 484Q213 484 173.50 452.50Q134 421 134 379Q134 342 162.50 319Q191 296 259 270Q332 241 366 211.50Q400 182 400 133Q400 75 347 32.50Q294-10 212-10Q200-10 195-9L90-144Z"  horiz-adv-x="492" vert-adv-y="1000"  />

      
      <glyph glyph-name="uni0160" unicode="&#x0160;" d="M301-10Q214-10 141 25Q68 60 22 122L48 141Q140 21 305 21Q401 21 460 70Q519 119 519 185Q519 242 478 275Q437 308 346 343Q247 381 200.50 418.50Q154 456 154 520Q154 588 205 639Q276 710 400 710Q549 710 640 607L614 585Q531 679 397 679Q302 679 245 632.50Q188 586 188 523Q188 470 230.50 438.50Q273 407 362 373Q461 336 507 296.50Q553 257 553 188Q553 116 499 62Q427-10 301-10M593 873L462 772L433 772L354 873L386 873L453 804L557 873L593 873Z"  horiz-adv-x="639" vert-adv-y="1000"  />

      
      <glyph glyph-name="uni0161" unicode="&#x0161;" d="M309 595L237 711L264 711L327 632L437 711L468 711L332 595L309 595M212-10Q87-10 2 73L25 96Q105 20 215 20Q280 20 323 52.50Q366 85 366 129Q366 168 338 192Q310 216 242 242Q170 269 135 298Q100 327 100 374Q100 431 150.50 472.50Q201 514 283 514Q328 514 377.50 496.50Q427 479 463 448L442 424Q369 484 281 484Q213 484 173.50 452.50Q134 421 134 379Q134 342 162.50 319Q191 296 259 270Q332 241 366 211.50Q400 182 400 133Q400 75 347 32.50Q294-10 212-10Z"  horiz-adv-x="492" vert-adv-y="1000"  />

      
      <glyph glyph-name="uni0162" unicode="&#x0162;" d="M143-199L141-182Q181-171 192-131L168-131L184-74L234-74L223-114Q212-155 194-173.50Q176-192 143-199M208 0L387 669L138 669L146 700L679 700L671 669L421 669L242 0L208 0Z"  horiz-adv-x="595" vert-adv-y="1000"  />

      
      <glyph glyph-name="uni0163" unicode="&#x0163;" d="M71-202L69-185Q109-174 120-134L96-134L112-77L162-77L151-117Q140-158 122-176.50Q104-195 71-202M196-9Q142-9 112 15.50Q82 40 82 87Q82 107 89 137L179 475L102 475L110 504L187 504L232 673L265 673L219 504L401 504L393 475L212 475L121 136Q114 108 114 90Q114 21 202 21Q238 21 275 36L266 3Q234-9 196-9Z"  horiz-adv-x="382" vert-adv-y="1000"  />

      
      <glyph glyph-name="uni0164" unicode="&#x0164;" d="M580 866L449 765L420 765L341 866L373 866L440 797L544 866L580 866M208 0L387 669L138 669L146 700L679 700L671 669L421 669L242 0L208 0Z"  horiz-adv-x="595" vert-adv-y="1000"  />

      
      <glyph glyph-name="uni0165" unicode="&#x0165;" d="M344 581L400 730L439 730L439 728L363 581L344 581M196-9Q142-9 112 15.50Q82 40 82 87Q82 107 89 137L179 475L102 475L110 504L187 504L232 673L265 673L219 504L401 504L393 475L212 475L121 136Q114 108 114 90Q114 21 202 21Q238 21 275 36L266 3Q234-9 196-9Z"  horiz-adv-x="382" vert-adv-y="1000"  />

      
      <glyph glyph-name="uni016A" unicode="&#x016A;" d="M368 786L377 818L664 818L656 786L368 786M346-11Q232-11 164.50 47Q97 105 97 211Q97 263 114 328L213 700L247 700L145 316Q131 267 131 214Q131 122 189 71Q247 20 348 20Q458 20 534 97Q602 165 640 303L746 700L780 700L671 295Q633 151 558 76Q471-11 346-11Z"  horiz-adv-x="754" vert-adv-y="1000"  />

      
      <glyph glyph-name="uni016B" unicode="&#x016B;" d="M236-12Q156-12 111.50 32.50Q67 77 67 151Q67 184 79 232L152 504L184 504L111 231Q100 190 100 154Q100 91 136.50 54.50Q173 18 243 18Q317 18 383.50 74.50Q450 131 474 223L549 504L582 504L447 0L415 0L446 115Q363-12 236-12M250 618L258 648L536 648L528 618L250 618Z"  horiz-adv-x="607" vert-adv-y="1000"  />

      
      <glyph glyph-name="uni016C" unicode="&#x016C;" d="M509 759Q453 759 425.50 783.50Q398 808 403 849L430 849Q432 790 513 790Q596 790 631 849L660 849Q643 808 603.50 783.50Q564 759 509 759M346-11Q232-11 164.50 47Q97 105 97 211Q97 263 114 328L213 700L247 700L145 316Q131 267 131 214Q131 122 189 71Q247 20 348 20Q458 20 534 97Q602 165 640 303L746 700L780 700L671 295Q633 151 558 76Q471-11 346-11Z"  horiz-adv-x="754" vert-adv-y="1000"  />

      
      <glyph glyph-name="uni016D" unicode="&#x016D;" d="M236-12Q156-12 111.50 32.50Q67 77 67 151Q67 184 79 232L152 504L184 504L111 231Q100 190 100 154Q100 91 136.50 54.50Q173 18 243 18Q317 18 383.50 74.50Q450 131 474 223L549 504L582 504L447 0L415 0L446 115Q363-12 236-12M385 591Q330 591 302.50 619.50Q275 648 283 695L307 695Q306 660 326 640.50Q346 621 390 621Q471 621 512 695L539 695Q520 647 480.50 619Q441 591 385 591Z"  horiz-adv-x="607" vert-adv-y="1000"  />

      
      <glyph glyph-name="uni016E" unicode="&#x016E;" d="M346-11Q232-11 164.50 47Q97 105 97 211Q97 263 114 328L213 700L247 700L145 316Q131 267 131 214Q131 122 189 71Q247 20 348 20Q458 20 534 97Q602 165 640 303L746 700L780 700L671 295Q633 151 558 76Q471-11 346-11M540 930Q583 930 608.50 907.50Q634 885 634 850Q634 807 598.50 778Q563 749 516 749Q473 749 448 771.50Q423 794 423 829Q423 872 458.50 901Q494 930 540 930M519 771Q553 771 580 793Q607 815 607 848Q607 874 588.50 891Q570 908 537 908Q503 908 476.50 885.50Q450 863 450 830Q450 804 468.50 787.50Q487 771 519 771Z"  horiz-adv-x="754" vert-adv-y="1000"  />

      
      <glyph glyph-name="uni016F" unicode="&#x016F;" d="M506 687Q506 644 472.50 613.50Q439 583 396 583Q355 583 329 607.50Q303 632 303 670Q303 713 336.50 743.50Q370 774 413 774Q454 774 480 749.50Q506 725 506 687M328 671Q328 642 346.50 623.50Q365 605 397 605Q430 605 455.50 628.50Q481 652 481 686Q481 715 462.50 733.50Q444 752 412 752Q379 752 353.50 728Q328 704 328 671M236-12Q156-12 111.50 32.50Q67 77 67 151Q67 184 79 232L152 504L184 504L111 231Q100 190 100 154Q100 91 136.50 54.50Q173 18 243 18Q317 18 383.50 74.50Q450 131 474 223L549 504L582 504L447 0L415 0L446 115Q363-12 236-12Z"  horiz-adv-x="607" vert-adv-y="1000"  />

      
      <glyph glyph-name="uni0170" unicode="&#x0170;" d="M346-11Q232-11 164.50 47Q97 105 97 211Q97 263 114 328L213 700L247 700L145 316Q131 267 131 214Q131 122 189 71Q247 20 348 20Q458 20 534 97Q602 165 640 303L746 700L780 700L671 295Q633 151 558 76Q471-11 346-11M404 760L529 867L566 848L437 760L404 760M532 760L658 867L695 848L566 760L532 760Z"  horiz-adv-x="754" vert-adv-y="1000"  />

      
      <glyph glyph-name="uni0171" unicode="&#x0171;" d="M236-12Q156-12 111.50 32.50Q67 77 67 151Q67 184 79 232L152 504L184 504L111 231Q100 190 100 154Q100 91 136.50 54.50Q173 18 243 18Q317 18 383.50 74.50Q450 131 474 223L549 504L582 504L447 0L415 0L446 115Q363-12 236-12M287 592L406 713L439 694L313 592L287 592M421 592L540 713L573 694L447 592L421 592Z"  horiz-adv-x="607" vert-adv-y="1000"  />

      
      <glyph glyph-name="uni0172" unicode="&#x0172;" d="M346-11Q343-11 337.50-10.50Q332-10 329-10Q264-57 264-94Q264-131 334-137L328-161Q280-160 254.50-143.50Q229-127 229-99Q229-55 296-8Q203 4 150 60.50Q97 117 97 211Q97 263 114 328L213 700L247 700L145 316Q131 267 131 214Q131 122 189 71Q247 20 348 20Q458 20 534 97Q602 165 640 303L746 700L780 700L671 295Q633 151 558 76Q471-11 346-11Z"  horiz-adv-x="754" vert-adv-y="1000"  />

      
      <glyph glyph-name="uni0173" unicode="&#x0173;" d="M236-12Q156-12 111.50 32.50Q67 77 67 151Q67 184 79 232L152 504L184 504L111 231Q100 190 100 154Q100 91 136.50 54.50Q173 18 243 18Q317 18 383.50 74.50Q450 131 474 223L549 504L582 504L447 0L443 0Q362-52 362-94Q362-131 432-137L426-161Q378-160 352.50-143.50Q327-127 327-99Q327-48 417 7L446 115Q363-12 236-12Z"  horiz-adv-x="607" vert-adv-y="1000"  />

      
      <glyph glyph-name="uni0174" unicode="&#x0174;" d="M216-5L156 700L190 700L243 45L630 702L656 702L699 45L1096 700L1133 700L701-5L673-5L629 642L244-5L216-5M533 765L665 866L694 866L772 765L741 765L674 834L569 765L533 765Z"  horiz-adv-x="1058" vert-adv-y="1000"  />

      
      <glyph glyph-name="uni0175" unicode="&#x0175;" d="M375 595L510 711L533 711L605 595L579 595L515 674L406 595L375 595M150-4L105 504L138 504L175 44L457 507L484 507L517 44L798 504L834 504L520-4L492-4L457 454L177-4L150-4Z"  horiz-adv-x="821" vert-adv-y="1000"  />

      
      <glyph glyph-name="uni0176" unicode="&#x0176;" d="M242 0L320 290L137 700L173 700L343 316L720 700L765 700L352 282L276 0L242 0M329 760L461 861L490 861L568 760L537 760L470 829L365 760L329 760Z"  horiz-adv-x="666" vert-adv-y="1000"  />

      
      <glyph glyph-name="uni0177" unicode="&#x0177;" d="M203-1L95 504L129 504L227 31L553 504L591 504L233-10Q170-100 123.50-131.50Q77-163 26-163Q-31-163-75-133L-57-107Q-20-134 28-134Q69-134 109-105.50Q149-77 203-1M235 592L370 708L393 708L465 592L439 592L375 671L266 592L235 592Z"  horiz-adv-x="571" vert-adv-y="1000"  />

      
      <glyph glyph-name="uni0178" unicode="&#x0178;" d="M242 0L320 290L137 700L173 700L343 316L720 700L765 700L352 282L276 0L242 0M355 771L371 832L424 832L408 771L355 771M510 771L526 832L578 832L562 771L510 771Z"  horiz-adv-x="666" vert-adv-y="1000"  />

      
      <glyph glyph-name="uni0179" unicode="&#x0179;" d="M-11 0L-6 19L658 669L185 669L194 700L720 700L714 681L50 31L539 31L531 0L-11 0M429 765L554 872L592 853L462 765L429 765Z"  horiz-adv-x="666" vert-adv-y="1000"  />

      
      <glyph glyph-name="uni017A" unicode="&#x017A;" d="M310 595L429 716L469 697L340 595L310 595M-26 0L-21 18L473 476L114 476L122 504L532 504L527 486L33 28L407 28L399 0L-26 0Z"  horiz-adv-x="511" vert-adv-y="1000"  />

      
      <glyph glyph-name="uni017B" unicode="&#x017B;" d="M427 776L443 837L496 837L480 776L427 776M-11 0L-6 19L658 669L185 669L194 700L720 700L714 681L50 31L539 31L531 0L-11 0Z"  horiz-adv-x="666" vert-adv-y="1000"  />

      
      <glyph glyph-name="uni017C" unicode="&#x017C;" d="M-26 0L-21 18L473 476L114 476L122 504L532 504L527 486L33 28L407 28L399 0L-26 0M309 606L326 670L374 670L357 606L309 606Z"  horiz-adv-x="511" vert-adv-y="1000"  />

      
      </font>
</defs>
</svg>
