<?xml version="1.0" standalone="no"?>
  <!DOCTYPE svg PUBLIC "-//W3C//DTD SVG 1.1//EN" "http://www.w3.org/Graphics/SVG/1.1/DTD/svg11.dtd" >
  <svg>
  <metadata>
  Created by font-carrier
  </metadata>
  <defs>
  <font id="GTSectra-Book" horiz-adv-x="1175" vert-adv-y="1175" >
    <font-face
      
      font-family="GTSectra-Book"
      
      font-weight="400"
      
      font-stretch="normal"
      
      units-per-em="1000"
      
      ascent="980"
      
      descent="-260"
      
    />
      <missing-glyph />

      

      
      <glyph glyph-name="uni21" unicode="&#x21;" d="M94 428L91 710L170 710L167 429L140 235L121 235L94 428M84 0L79 52L84 96L152 100L180 96L184 44L180 0L112-5L84 0Z"  horiz-adv-x="263" vert-adv-y="1000"  />

      
      <glyph glyph-name="uni22" unicode="&#x22;" d="M49 647L54 705L149 705L154 647L115 470L88 470L49 647M198 647L203 705L298 705L303 647L264 470L237 470L198 647Z"  horiz-adv-x="349" vert-adv-y="1000"  />

      
      <glyph glyph-name="uni23" unicode="&#x23;" d="M173 195L40 195L46 241L180 241L200 414L68 414L74 460L206 460L230 655L279 655L255 460L404 460L428 655L477 655L453 460L589 460L583 414L447 414L427 241L561 241L555 195L420 195L397 0L348 0L371 195L222 195L199 0L150 0L173 195M378 241L398 414L249 414L229 241L378 241Z"  horiz-adv-x="629" vert-adv-y="1000"  />

      
      <glyph glyph-name="uni24" unicode="&#x24;" d="M514 204Q514 138 469.50 82Q425 26 324-5L324-80L276-80L276-17L270-18Q202-18 154-1Q106 16 65 50L43 176L108 176L143 93Q164 67 200.50 50Q237 33 276 31L276 324L201 356Q141 381 106.50 419Q72 457 72 518Q72 592 128 640Q184 688 276 712L276 781L324 781L324 717Q365 714 406 699Q447 684 479 660L479 532L436 532L407 623Q390 641 371 652Q352 663 324 667L324 407L368 389Q432 363 473 320Q514 277 514 204M276 427L276 670Q221 666 190 635.50Q159 605 159 553Q159 476 258 434L276 427M324 35Q375 45 402.50 80.50Q430 116 430 166Q430 259 324 304L324 35Z"  horiz-adv-x="562" vert-adv-y="1000"  />

      
      <glyph glyph-name="uni25" unicode="&#x25;" d="M189 360Q119 360 79.50 407Q40 454 40 529Q40 604 78.50 648.50Q117 693 211 707Q281 707 320 659.50Q359 612 359 537Q359 462 320.50 418Q282 374 189 360M621 705L680 705L185-5L126-5L621 705M206 390Q246 390 265.50 429Q285 468 285 529Q285 594 263 635.50Q241 677 194 677Q155 677 135 637.50Q115 598 115 539Q115 473 137 431.50Q159 390 206 390M568-7Q498-7 458 40Q418 87 418 162Q418 238 457 282Q496 326 589 340Q660 340 699 292.50Q738 245 738 170Q738 95 699.50 51Q661 7 568-7M584 23Q624 23 644 62.50Q664 102 664 162Q664 226 641.50 268Q619 310 573 310Q533 310 513 270.50Q493 231 493 172Q493 106 515 64.50Q537 23 584 23Z"  horiz-adv-x="778" vert-adv-y="1000"  />

      
      <glyph glyph-name="uni26" unicode="&#x26;" d="M275-18Q211-18 158.50 5Q106 28 75.50 70.50Q45 113 45 167Q45 218 63.50 256Q82 294 106.50 317Q131 340 165 365Q180 375 191 385Q147 431 126 468.50Q105 506 105 545Q105 606 147.50 646Q190 686 287 718Q332 718 367.50 699Q403 680 423 648.50Q443 617 443 581Q443 546 424 516.50Q405 487 377 463.50Q349 440 295 401L468 207L543 329L501 338L506 367L578 364L678 367L683 338L613 328L503 172L624 41L677 31L673 0L601 1L539 0L449 99Q423 70 379.50 38Q336 6 275-18M268 431Q318 473 336 499.50Q354 526 354 567Q354 612 331.50 641.50Q309 671 272 671Q236 671 212 644Q188 617 188 573Q188 544 209 511.50Q230 479 268 431M274 51Q346 51 415 135L220 355Q175 322 152.50 287Q130 252 130 191Q130 154 149 122Q168 90 201 70.50Q234 51 274 51Z"  horiz-adv-x="714" vert-adv-y="1000"  />

      
      <glyph glyph-name="uni27" unicode="&#x27;" d="M49 642L54 705L149 705L154 642L115 470L88 470L49 642Z"  horiz-adv-x="195" vert-adv-y="1000"  />

      
      <glyph glyph-name="uni28" unicode="&#x28;" d="M228-238Q151-128 116-66Q81-4 64 68Q47 140 47 250Q47 361 64 435Q81 509 118 572Q155 635 228 726L251 705Q180 609 151 507Q122 405 122 252Q122 117 153-4.50Q184-126 251-217L228-238Z"  horiz-adv-x="268" vert-adv-y="1000"  />

      
      <glyph glyph-name="uni29" unicode="&#x29;" d="M17-217Q84-126 115-4.50Q146 117 146 252Q146 405 117 507Q88 609 17 705L40 726Q113 634 150 571Q187 508 204 434.50Q221 361 221 250Q221 140 204 68.50Q187-3 152.50-65Q118-127 40-238L17-217Z"  horiz-adv-x="268" vert-adv-y="1000"  />

      
      <glyph glyph-name="uni2a" unicode="&#x2a;" d="M86 452L172 549L45 577L64 637L180 588L170 715L233 715L224 588L339 637L358 577L235 549L317 452L266 415L201 520L138 415L86 452Z"  horiz-adv-x="403" vert-adv-y="1000"  />

      
      <glyph glyph-name="uni2b" unicode="&#x2b;" d="M279 222L52 222L52 283L279 283L279 515L340 515L340 283L567 283L567 222L340 222L340 0L279 0L279 222Z"  horiz-adv-x="620" vert-adv-y="1000"  />

      
      <glyph glyph-name="uni2c" unicode="&#x2c;" d="M72-127Q85-98 96-60Q107-22 107-4L71 0L66 52L71 95L138 100L167 95L171 44L167 0L105-141L72-127Z"  horiz-adv-x="201" vert-adv-y="1000"  />

      
      <glyph glyph-name="uni2d" unicode="&#x2d;" d="M35 303L335 303L335 242L35 242L35 303Z"  horiz-adv-x="370" vert-adv-y="1000"  />

      
      <glyph glyph-name="uni2e" unicode="&#x2e;" d="M75 0L70 52L75 96L142 100L171 96L175 44L171 0L103-5L75 0Z"  horiz-adv-x="217" vert-adv-y="1000"  />

      
      <glyph glyph-name="uni2f" unicode="&#x2f;" d="M443 718L501 718L50-230L-10-230L443 718Z"  horiz-adv-x="496" vert-adv-y="1000"  />

      
      <glyph glyph-name="uni30" unicode="&#x30;" d="M292-15Q223-15 165.50 16.50Q108 48 74 102Q40 156 40 222Q40 320 103.50 384.50Q167 449 294 482Q362 482 420 450.50Q478 419 512 365Q546 311 546 245Q546 50 292-15M309 35Q353 35 385 62Q417 89 433.50 131Q450 173 450 219Q450 308 406.50 370Q363 432 277 432Q233 432 201.50 405Q170 378 153.50 336Q137 294 137 248Q137 158 180 96.50Q223 35 309 35Z"  horiz-adv-x="586" vert-adv-y="1000"  />

      
      <glyph glyph-name="uni31" unicode="&#x31;" d="M36 30L195 47L195 374L200 392L158 372L43 346L26 379L251 472L280 472L280 47L439 30L434-1L237 2L41-1L36 30Z"  horiz-adv-x="454" vert-adv-y="1000"  />

      
      <glyph glyph-name="uni32" unicode="&#x32;" d="M20 42L199 177Q272 232 304 268.50Q336 305 336 339Q336 378 313 404Q290 430 240 430Q206 430 176 411L139 309L73 309L73 412L255 482Q333 482 380 446.50Q427 411 427 354Q427 308 408 274Q389 240 353.50 212Q318 184 256 146L108 59L197 82L482 82L482 56L458 0L39 0L20 42Z"  horiz-adv-x="512" vert-adv-y="1000"  />

      
      <glyph glyph-name="uni33" unicode="&#x33;" d="M25-148L234-148Q280-127 306.50-88Q333-49 333-3Q333 54 280 88Q227 122 139 122L129 147L178 168Q243 196 273 233Q303 270 303 325Q303 371 277 401Q251 431 211 431Q193 431 173.50 426Q154 421 138 412L101 309L36 309L36 412L219 482Q298 482 344 446Q390 410 390 348Q390 290 356 243Q322 196 258 167Q331 162 377 122Q423 82 423 25Q423-27 403-65Q383-103 338.50-135Q294-167 215-199L139-230L25-230L25-148Z"  horiz-adv-x="463" vert-adv-y="1000"  />

      
      <glyph glyph-name="uni34" unicode="&#x34;" d="M319 11L43 11L10 42L337 467L432 467L432 437L95 53L132 66L319 66L319 174L378 225L403 225L403 66L547 66L547 11L403 11L403-230L319-230L319 11Z"  horiz-adv-x="562" vert-adv-y="1000"  />

      
      <glyph glyph-name="uni35" unicode="&#x35;" d="M45-148L247-148Q296-125 326-82Q356-39 356 6Q356 68 314 107Q272 146 204 146Q175 146 154 142.50Q133 139 110 129L77 116L49 130L89 467L430 467L430 440L409 386L130 386L104 177L213 233Q282 233 335.50 208Q389 183 418 140Q447 97 447 44Q447-42 397-97.50Q347-153 227-200L152-230L45-230L45-148Z"  horiz-adv-x="477" vert-adv-y="1000"  />

      
      <glyph glyph-name="uni36" unicode="&#x36;" d="M292 447Q383 447 437.50 387Q492 327 492 226Q492 36 258-15Q196-15 148.50 20.50Q101 56 75.50 120.50Q50 185 50 270Q50 424 138.50 536Q227 648 405 721L420 683Q321 633 263 585Q205 537 177.50 478Q150 419 146 338L292 447M275 31Q313 31 343 54Q373 77 390 118Q407 159 407 211Q407 284 374.50 328.50Q342 373 289 373Q267 373 245.50 362.50Q224 352 190 326L145 289Q147 163 180 97Q213 31 275 31Z"  horiz-adv-x="537" vert-adv-y="1000"  />

      
      <glyph glyph-name="uni37" unicode="&#x37;" d="M110-206L366 352L403 387L20 387L20 467L458 467L472 450L193-230L110-230L110-206Z"  horiz-adv-x="493" vert-adv-y="1000"  />

      
      <glyph glyph-name="uni38" unicode="&#x38;" d="M342 377Q419 330 460 288Q501 246 501 188Q501 107 442 58Q383 9 265-15Q204-15 155 9Q106 33 78.50 74Q51 115 51 165Q51 224 88 277Q125 330 199 365Q137 402 105.50 443.50Q74 485 74 537Q74 601 128 646Q182 691 287 715Q377 715 431.50 675.50Q486 636 486 572Q486 461 342 377M273 668Q223 668 192.50 638.50Q162 609 162 561Q162 516 202.50 478.50Q243 441 314 396Q359 426 378 458.50Q397 491 397 537Q397 593 365 630.50Q333 668 273 668M277 32Q312 32 344 47Q376 62 395 90Q414 118 414 155Q414 196 388 230Q362 264 329 287Q296 310 246 338Q240 341 235.50 343.50Q231 346 227 348Q177 315 158.50 282.50Q140 250 140 194Q140 152 157 115Q174 78 205.50 55Q237 32 277 32Z"  horiz-adv-x="553" vert-adv-y="1000"  />

      
      <glyph glyph-name="uni39" unicode="&#x39;" d="M273 482Q336 482 383 447Q430 412 455.50 347.50Q481 283 481 199Q481 50 395.50-60.50Q310-171 132-244L117-206Q213-156 268-110Q323-64 350-8Q377 48 383 128L239 22Q180 22 134.50 49Q89 76 64 125.50Q39 175 39 240Q39 336 96.50 396Q154 456 273 482M385 178L385 185Q385 436 257 436Q197 436 160.50 386Q124 336 124 259Q124 185 157.50 141Q191 97 242 97Q262 97 284 107Q306 117 341 144L385 178Z"  horiz-adv-x="531" vert-adv-y="1000"  />

      
      <glyph glyph-name="uni3a" unicode="&#x3a;" d="M80 380L75 432L80 476L147 480L176 476L180 424L176 380L108 375L80 380M80 0L75 52L80 96L147 100L176 96L180 44L176 0L108-5L80 0Z"  horiz-adv-x="230" vert-adv-y="1000"  />

      
      <glyph glyph-name="uni3b" unicode="&#x3b;" d="M80 380L75 432L80 476L147 480L176 476L180 424L176 380L108 375L80 380M80-127Q93-98 104-60Q115-22 115-4L79 0L74 52L79 95L146 100L175 95L179 44L175 0L113-141L80-127Z"  horiz-adv-x="250" vert-adv-y="1000"  />

      
      <glyph glyph-name="uni3c" unicode="&#x3c;" d="M50 256L50 316L570 548L570 472L140 287L570 102L570 25L50 256Z"  horiz-adv-x="620" vert-adv-y="1000"  />

      
      <glyph glyph-name="uni3d" unicode="&#x3d;" d="M52 373L567 373L567 312L52 312L52 373M52 178L567 178L567 117L52 117L52 178Z"  horiz-adv-x="620" vert-adv-y="1000"  />

      
      <glyph glyph-name="uni3e" unicode="&#x3e;" d="M50 102L480 287L50 472L50 548L570 316L570 256L50 25L50 102Z"  horiz-adv-x="620" vert-adv-y="1000"  />

      
      <glyph glyph-name="uni3f" unicode="&#x3f;" d="M120 360L159 382Q205 408 228.50 446.50Q252 485 252 526Q252 584 228.50 619.50Q205 655 152 655L133 574L65 574L65 693L147 704Q247 692 295 642Q343 592 343 523Q343 457 315 417Q287 377 231 350L185 328L178 224L126 224L120 360M112-6L107 46L112 90L180 94L208 90L212 38L208-6L140-11L112-6Z"  horiz-adv-x="393" vert-adv-y="1000"  />

      
      <glyph glyph-name="uni40" unicode="&#x40;" d="M450-114Q332-114 241.50-66Q151-18 100.50 67Q50 152 50 259Q50 354 93 437Q136 520 214.50 581.50Q293 643 396 674L487 700Q608 700 694.50 660Q781 620 825.50 550.50Q870 481 870 393Q870 313 827 243.50Q784 174 714.50 132Q645 90 571 90L512 152L558 277L402 88Q364 88 332.50 106Q301 124 282 156Q263 188 263 230Q263 314 310.50 382.50Q358 451 439 487L548 536L659 471L576 124Q622 122 673.50 154.50Q725 187 760 247Q795 307 795 383Q795 516 724.50 583.50Q654 651 525 651Q428 651 338 608Q248 565 191 481Q134 397 134 279Q134 172 182.50 96Q231 20 312.50-18.50Q394-57 494-57Q545-57 588.50-43Q632-29 673-8L688-36Q634-64 566-86Q498-108 450-114M545 298L581 430L498 483Q414 449 380.50 386.50Q347 324 347 260Q347 220 369 196.50Q391 173 428 173L545 298Z"  horiz-adv-x="915" vert-adv-y="1000"  />

      
      <glyph glyph-name="uni41" unicode="&#x41;" d="M11 30L94 41L348 695L385 709L655 41L736 30L731-1L606 2L470-1L465 30L554 43L482 237L232 237L164 43L254 30L249-1L125 2L16-1L11 30M465 281L366 545L358 598L247 281L465 281Z"  horiz-adv-x="747" vert-adv-y="1000"  />

      
      <glyph glyph-name="uni42" unicode="&#x42;" d="M30 30L124 43L124 657L30 670L35 701L177 698L356 701Q419 701 464 680.50Q509 660 531 625.50Q553 591 553 552Q553 494 510 445Q467 396 401 377Q462 375 506.50 351Q551 327 573.50 289Q596 251 596 206Q596 110 527 64.50Q458 19 324-1L177 2L35-1L30 30M302 389Q348 389 384 410Q420 431 440 466Q460 501 460 543Q460 596 426 627.50Q392 659 330 660L213 656L213 389L302 389M311 40Q410 40 455.50 88Q501 136 501 202Q501 266 457 305.50Q413 345 336 345L213 345L213 44L311 40Z"  horiz-adv-x="641" vert-adv-y="1000"  />

      
      <glyph glyph-name="uni43" unicode="&#x43;" d="M398-18Q304-18 222.50 24.50Q141 67 91.50 149Q42 231 42 343Q42 510 142 603.50Q242 697 412 718Q483 718 548.50 692.50Q614 667 653 636L653 513L602 513L570 605Q545 630 500 650.50Q455 671 400 671Q280 671 210 591.50Q140 512 140 365Q140 283 174.50 206.50Q209 130 275 81.50Q341 33 430 33Q491 33 557 85L613 194L664 194L636 62Q590 39 520 14.50Q450-10 398-18Z"  horiz-adv-x="703" vert-adv-y="1000"  />

      
      <glyph glyph-name="uni44" unicode="&#x44;" d="M30 30L124 43L124 657L30 670L35 701L173 698L364 701Q516 702 603 615.50Q690 529 690 370Q690 205 604.50 112Q519 19 352-1L174 2L35-1L30 30M345 42Q417 43 472.50 81.50Q528 120 559 191Q590 262 590 358Q590 443 559.50 511.50Q529 580 467 620Q405 660 316 661L213 656L213 52L345 42Z"  horiz-adv-x="732" vert-adv-y="1000"  />

      
      <glyph glyph-name="uni45" unicode="&#x45;" d="M30 30L124 43L124 657L30 670L35 701L173 698L562 701L571 525L543 525L488 655L213 658L213 385L361 389L401 494L431 494L421 373L431 240L401 240L361 344L213 348L213 42L498 45L565 180L598 180L562-1L173 2L35-1L30 30Z"  horiz-adv-x="625" vert-adv-y="1000"  />

      
      <glyph glyph-name="uni46" unicode="&#x46;" d="M30 30L124 43L124 657L30 670L35 701L173 698L562 701L571 527L543 527L488 655L213 658L213 372L361 376L401 480L431 480L421 359L431 226L401 226L361 331L213 335L213 43L333 30L328-1L173 2L35-1L30 30Z"  horiz-adv-x="586" vert-adv-y="1000"  />

      
      <glyph glyph-name="uni47" unicode="&#x47;" d="M388-18Q294-18 215 24Q136 66 89 148Q42 230 42 344Q42 509 137 600.50Q232 692 402 718Q475 718 544.50 692Q614 666 649 637L649 513L605 513L573 601Q545 628 498 649.50Q451 671 389 671Q314 671 258 634.50Q202 598 171 529Q140 460 140 365Q140 281 175 204.50Q210 128 273.50 80.50Q337 33 418 33Q462 33 499 51.50Q536 70 558 92L558 284L468 297L473 327L603 324L711 327L715 297L647 284L647 60Q571 33 505.50 12Q440-9 388-18Z"  horiz-adv-x="742" vert-adv-y="1000"  />

      
      <glyph glyph-name="uni48" unicode="&#x48;" d="M30 30L124 43L124 657L30 670L35 701L169 698L298 701L303 670L213 657L213 386L549 386L549 657L453 670L458 701L594 698L721 701L726 670L638 657L638 43L726 30L721-1L594 2L458-1L453 30L549 43L549 340L213 340L213 43L303 30L298-1L169 2L35-1L30 30Z"  horiz-adv-x="756" vert-adv-y="1000"  />

      
      <glyph glyph-name="uni49" unicode="&#x49;" d="M30 31L124 44L124 657L30 670L35 701L169 698L302 701L307 670L213 657L213 44L307 31L302-1L169 2L35-1L30 31Z"  horiz-adv-x="337" vert-adv-y="1000"  />

      
      <glyph glyph-name="uni4a" unicode="&#x4a;" d="M-1-95L101-95L110-74Q121-48 124-17Q127 14 127 95L127 657L17 670L22 701L172 698L300 701L305 670L216 657L216 87L217 20Q217-6 212-23Q207-40 192-57L86-175L-1-175L-1-95Z"  horiz-adv-x="330" vert-adv-y="1000"  />

      
      <glyph glyph-name="uni4b" unicode="&#x4b;" d="M30 30L124 43L124 657L30 670L35 701L169 698L285 701L290 670L213 657L213 372L240 387L521 657L448 670L453 701L557 698L651 701L656 670L578 654L297 377L316 364L628 39L681 30L676-1L591 2L525-1L227 328L213 354L213 43L290 30L285-1L169 2L35-1L30 30Z"  horiz-adv-x="692" vert-adv-y="1000"  />

      
      <glyph glyph-name="uni4c" unicode="&#x4c;" d="M30 30L124 43L124 657L30 670L35 701L173 698L302 701L307 670L213 657L213 42L472 45L535 178L570 178L536-1L173 2L35-1L30 30Z"  horiz-adv-x="584" vert-adv-y="1000"  />

      
      <glyph glyph-name="uni4d" unicode="&#x4d;" d="M36 30L118 43L118 654L30 670L35 701L141 698L233 701L451 162L462 114L707 701L809 698L896 701L901 670L813 657L813 43L895 30L890-1L777 2L633-1L628 30L722 43L722 499L735 615L474 0L423 0L219 503L179 617L179 43L271 30L262-1L156 2L41-1L36 30Z"  horiz-adv-x="931" vert-adv-y="1000"  />

      
      <glyph glyph-name="uni4e" unicode="&#x4e;" d="M200 561L185 622L185 43L274 30L268-1L162 2L35-1L30 30L124 43L124 648L35 670L40 701L136 698L201 701L560 178L579 128L579 657L491 670L496 701L603 698L729 701L734 670L640 657L640-2L581-2L200 561Z"  horiz-adv-x="744" vert-adv-y="1000"  />

      
      <glyph glyph-name="uni4f" unicode="&#x4f;" d="M376-18Q279-18 203 28Q127 74 84.50 154.50Q42 235 42 336Q42 501 129 595Q216 689 395 718Q492 718 568 672Q644 626 686.50 545.50Q729 465 729 364Q729 199 642 105Q555 11 376-18M401 33Q515 33 573 117.50Q631 202 631 332Q631 412 605 488.50Q579 565 520.50 616Q462 667 371 667Q256 667 198 582.50Q140 498 140 368Q140 287 166.50 210.50Q193 134 251.50 83.50Q310 33 401 33Z"  horiz-adv-x="771" vert-adv-y="1000"  />

      
      <glyph glyph-name="uni50" unicode="&#x50;" d="M30 30L124 43L124 657L30 670L35 701L166 698L350 701Q449 702 510.50 655.50Q572 609 572 525Q572 432 502 376.50Q432 321 329 302L213 302L213 43L333 30L328-1L169 2L35-1L30 30M304 348Q380 348 426.50 393.50Q473 439 473 511Q473 580 436 620.50Q399 661 318 661L213 656L213 348L304 348Z"  horiz-adv-x="583" vert-adv-y="1000"  />

      
      <glyph glyph-name="uni51" unicode="&#x51;" d="M634-126L687-142L683-171L541-171L376-18Q279-18 203 28Q127 74 84.50 154.50Q42 235 42 336Q42 501 129 595Q216 689 395 718Q492 718 568 672Q644 626 686.50 545.50Q729 465 729 364Q729 211 654.50 119Q580 27 427-8L527-49L634-126M140 368Q140 287 166.50 210.50Q193 134 251.50 83.50Q310 33 401 33Q515 33 573 117.50Q631 202 631 332Q631 412 605 488.50Q579 565 520.50 616Q462 667 371 667Q256 667 198 582.50Q140 498 140 368Z"  horiz-adv-x="771" vert-adv-y="1000"  />

      
      <glyph glyph-name="uni52" unicode="&#x52;" d="M665 28L661-1L588 2L522-1L304 311L293 322L213 322L213 43L301 30L296-1L169 2L35-1L30 30L124 43L124 657L30 670L35 701L170 698L338 701Q444 702 509 658.50Q574 615 574 527Q574 382 373 328L430 290L609 42L665 28M213 363L285 363Q342 363 384.50 383.50Q427 404 450 439.50Q473 475 473 520Q473 588 430.50 624Q388 660 321 661L213 656L213 363Z"  horiz-adv-x="670" vert-adv-y="1000"  />

      
      <glyph glyph-name="uni53" unicode="&#x53;" d="M270-18Q202-18 154-1Q106 16 65 50L43 176L108 176L143 93Q166 65 205.50 48Q245 31 287 31Q354 31 392 69Q430 107 430 166Q430 218 400.50 251Q371 284 321 305L201 356Q141 381 106.50 419Q72 457 72 518Q72 598 136.50 647.50Q201 697 304 718Q350 718 396.50 702.50Q443 687 479 660L479 532L436 532L407 623Q385 646 358.50 658Q332 670 289 670Q228 670 193.50 639Q159 608 159 553Q159 476 258 434L368 389Q432 363 473 320Q514 277 514 204Q514 129 457.50 68.50Q401 8 270-18Z"  horiz-adv-x="563" vert-adv-y="1000"  />

      
      <glyph glyph-name="uni54" unicode="&#x54;" d="M130 30L254 43L254 656L95 655L50 532L15 532L15 701L296 698L582 701L582 532L547 532L502 655L343 656L343 43L461 30L456-1L299 2L135-1L130 30Z"  horiz-adv-x="597" vert-adv-y="1000"  />

      
      <glyph glyph-name="uni55" unicode="&#x55;" d="M363-18Q229-18 169 51.50Q109 121 109 247L109 657L15 670L20 701L159 698L288 701L293 670L204 657L204 227Q204 30 374 30Q453 30 495.50 81.50Q538 133 538 230L538 657L446 670L451 701L579 698L697 701L702 670L615 657L615 243Q615 174 592.50 125Q570 76 515 40Q460 4 363-18Z"  horiz-adv-x="717" vert-adv-y="1000"  />

      
      <glyph glyph-name="uni56" unicode="&#x56;" d="M87 659L5 670L10 701L140 698L277 701L282 670L193 657L379 159L386 112L588 657L498 670L503 701L623 698L732 701L737 670L654 659L394 3L361-14L87 659Z"  horiz-adv-x="742" vert-adv-y="1000"  />

      
      <glyph glyph-name="uni57" unicode="&#x57;" d="M68 659L11 670L16 701L123 698L246 701L251 670L162 657L317 145L320 94L453 539L413 659L346 670L351 701L467 698L591 701L596 670L507 657L662 145L664 95L836 659L748 670L753 701L872 698L953 701L958 670L902 659L693 10L632-14L493 408L490 464L348 10L287-14L68 659Z"  horiz-adv-x="969" vert-adv-y="1000"  />

      
      <glyph glyph-name="uni58" unicode="&#x58;" d="M10 31L88 42L307 344L99 660L17 671L22 702L171 698L301 702L306 671L217 658L341 447L354 410L522 657L431 670L436 701L549 698L672 701L677 670L597 659L388 372L610 42L687 31L682-1L541 2L409-1L404 31L493 44L358 266L340 306L161 43L247 31L242-1L129 2L15-1L10 31Z"  horiz-adv-x="697" vert-adv-y="1000"  />

      
      <glyph glyph-name="uni59" unicode="&#x59;" d="M190 30L313 43L313 275L87 660L5 671L10 701L145 698L272 701L277 671L188 658L364 361L374 326L546 658L455 671L460 701L582 698L697 701L702 672L620 662L400 270L402 43L519 30L514-1L358 2L195-1L190 30Z"  horiz-adv-x="707" vert-adv-y="1000"  />

      
      <glyph glyph-name="uni5a" unicode="&#x5a;" d="M21 49L411 624L448 659L140 654L95 530L55 530L55 700L523 700L533 656L141 78L104 41L447 46L511 178L555 178L521 0L30 0L21 49Z"  horiz-adv-x="570" vert-adv-y="1000"  />

      
      <glyph glyph-name="uni5b" unicode="&#x5b;" d="M89 715L172 712L298 715L298 684L161 674Q159 564 159 519Q156 389 156 287Q156 154 159-14L161-190L298-200L298-231L172-228L89-231L89 715Z"  horiz-adv-x="333" vert-adv-y="1000"  />

      
      <glyph glyph-name="uni5c" unicode="&#x5c;" d="M-40 718L18 718L471-230L411-230L-40 718Z"  horiz-adv-x="431" vert-adv-y="1000"  />

      
      <glyph glyph-name="uni5d" unicode="&#x5d;" d="M35-200L172-190Q177-48 177 156L177 287Q177 485 172 674L35 684L35 715L161 712L244 715L244-231L161-228L35-231L35-200Z"  horiz-adv-x="333" vert-adv-y="1000"  />

      
      <glyph glyph-name="uni5e" unicode="&#x5e;" d="M173 705L218 705L341 460L266 460L196 629L125 460L50 460L173 705Z"  horiz-adv-x="391" vert-adv-y="1000"  />

      
      <glyph glyph-name="uni5f" unicode="&#x5f;" d="M50-77L605-77L605-128L50-128L50-77Z"  horiz-adv-x="655" vert-adv-y="1000"  />

      
      <glyph glyph-name="uni60" unicode="&#x60;" d="M136 710L238 710L286 549L256 549L136 710Z"  horiz-adv-x="600" vert-adv-y="1000"  />

      
      <glyph glyph-name="uni61" unicode="&#x61;" d="M173-15Q109-15 69.50 19Q30 53 30 111Q30 135 37.50 154.50Q45 174 62 200L288 276L288 324Q288 360 284.50 380.50Q281 401 267.50 413Q254 425 226 425Q188 425 137 406L119 334L46 334L46 404L218 482Q281 482 312 469Q343 456 355 422.50Q367 389 367 321L367 125Q367 95 371.50 79.50Q376 64 385 50L436 50L439 19L324-3L294 73L173-15M171 50Q190 50 206 58Q222 66 240 78L288 111L288 238L129 172Q110 152 110 119Q110 83 127.50 66.50Q145 50 171 50Z"  horiz-adv-x="444" vert-adv-y="1000"  />

      
      <glyph glyph-name="uni62" unicode="&#x62;" d="M255-15Q198-15 168.50-6Q139 3 108 21Q104 23 99.50 25.50Q95 28 89 31L89 650L15 648L10 678L123 710L169 714L169 387L292 482Q350 482 397.50 454Q445 426 472.50 374.50Q500 323 500 253Q500 20 255-15M277 32Q341 32 378.50 84.50Q416 137 416 226Q416 308 385 359.50Q354 411 305 411Q283 411 256 400Q229 389 202 367L169 340L169 74Q186 54 214.50 43Q243 32 277 32Z"  horiz-adv-x="543" vert-adv-y="1000"  />

      
      <glyph glyph-name="uni63" unicode="&#x63;" d="M260-15Q197-15 148 12Q99 39 71 93Q43 147 43 223Q43 332 108.50 395Q174 458 275 482Q305 482 345 467Q385 452 407 432L407 341L347 341L323 415Q309 425 294.50 429Q280 433 258 433Q221 433 191.50 408Q162 383 145 339.50Q128 296 128 241Q128 157 170.50 104Q213 51 286 51Q334 51 404 95L416 60Q349 14 260-15Z"  horiz-adv-x="441" vert-adv-y="1000"  />

      
      <glyph glyph-name="uni64" unicode="&#x64;" d="M243-15Q181-15 134 14Q87 43 61.50 95.50Q36 148 36 217Q36 334 102 401Q168 468 283 482Q308 482 367 455L367 651L293 649L288 679L404 710L447 714L447 129Q447 81 465 54L525 54L529 21L405-3L374 72L243-15M229 57Q278 57 334 102L367 129L367 395Q349 416 321.50 427Q294 438 260 438Q196 438 158 385Q120 332 120 242Q120 158 150.50 107.50Q181 57 229 57Z"  horiz-adv-x="550" vert-adv-y="1000"  />

      
      <glyph glyph-name="uni65" unicode="&#x65;" d="M433 58Q399 36 353 16.50Q307-3 263-15Q203-15 151.50 13Q100 41 68.50 96.50Q37 152 37 229Q37 339 97.50 400.50Q158 462 258 482Q350 482 390 431.50Q430 381 430 295L430 257L120 257Q122 159 167 105Q212 51 294 51Q320 51 353.50 63Q387 75 419 94L433 58M238 436Q192 436 160 398.50Q128 361 121 297L338 305Q338 370 317.50 403Q297 436 238 436Z"  horiz-adv-x="469" vert-adv-y="1000"  />

      
      <glyph glyph-name="uni66" unicode="&#x66;" d="M42 30L116 39L116 416L26 416L26 432L54 465L116 465L116 474Q116 518 129 551Q142 584 170 617L247 710L369 710L369 636L239 636L219 608Q208 593 202 567Q196 541 196 492L196 460L320 460L320 416L196 416L196 39L315 34L310-1L166 2L47-1L42 30Z"  horiz-adv-x="342" vert-adv-y="1000"  />

      
      <glyph glyph-name="uni67" unicode="&#x67;" d="M235-245Q125-245 73-209.50Q21-174 21-103L21-88L127 0Q94 13 79 27.50Q64 42 61 57.50Q58 73 58 101L58 103L156 173Q108 189 80 222.50Q52 256 52 301Q52 365 97 411Q142 457 240 482Q283 482 322 468Q361 454 384 428L441 482L498 482L498 409L445 409L407 391Q418 367 418 341Q418 209 230 162Q207 162 197 163L136 94Q136 79 145.50 69Q155 59 171 59L354 59Q420 59 451.50 33Q483 7 483-40Q483-78 452-117.50Q421-157 364.50-190.50Q308-224 235-245M245 207Q287 207 311 232Q335 257 335 300Q335 349 310 394Q285 439 226 439Q183 439 159 410.50Q135 382 135 332Q135 307 145 278Q155 249 179.50 228Q204 207 245 207M238-191Q279-191 315.50-174Q352-157 375-127Q398-97 398-61Q398-33 374.50-21.50Q351-10 296-10L160-10Q121-54 110-73.50Q99-93 99-107Q99-144 138.50-167.50Q178-191 238-191Z"  horiz-adv-x="503" vert-adv-y="1000"  />

      
      <glyph glyph-name="uni68" unicode="&#x68;" d="M35 30L109 39L109 651L36 649L31 678L143 710L189 714L189 387L334 482Q398 482 429.50 464Q461 446 471 409Q481 372 481 302L481 39L561 30L556-1L444 2L354-1L349 30L401 39L401 329Q401 410 334 410Q313 410 286 397.50Q259 385 222 362L189 342L189 39L248 30L243-1L152 2L40-1L35 30Z"  horiz-adv-x="578" vert-adv-y="1000"  />

      
      <glyph glyph-name="uni69" unicode="&#x69;" d="M35 30L109 39L109 409L35 403L30 434L143 466L189 470L189 39L269 30L264-1L152 2L40-1L35 30M98 591L92 643L101 688L166 693L192 688L197 636L187 591L123 585L98 591Z"  horiz-adv-x="289" vert-adv-y="1000"  />

      
      <glyph glyph-name="uni6a" unicode="&#x6a;" d="M-17-156L76-156L87-134Q97-115 102.50-93Q108-71 108-29L108 409L34 403L29 434L142 466L188 470L188-15Q188-52 179-79.50Q170-107 146-137L62-235L-17-235L-17-156M101 591L95 643L104 688L169 693L195 688L200 636L190 591L126 585L101 591Z"  horiz-adv-x="261" vert-adv-y="1000"  />

      
      <glyph glyph-name="uni6b" unicode="&#x6b;" d="M34 30L108 39L108 649L35 647L30 678L142 710L188 714L188 271L215 282L378 428L357 437L357 468L433 465L503 468L508 437L456 428L263 269L281 258L480 39L526 30L522-1L447 2L390-1L198 233L188 253L188 39L248 30L243-1L155 2L39-1L34 30Z"  horiz-adv-x="531" vert-adv-y="1000"  />

      
      <glyph glyph-name="uni6c" unicode="&#x6c;" d="M35 30L109 39L109 649L36 647L31 678L143 710L189 714L189 39L269 30L264-1L152 2L40-1L35 30Z"  horiz-adv-x="284" vert-adv-y="1000"  />

      
      <glyph glyph-name="uni6d" unicode="&#x6d;" d="M34 30L108 39L108 410L35 403L30 434L144 466L182 469L186 385L325 482Q395 482 425.50 459Q456 436 465 383L605 482Q669 482 700 464Q731 446 741 409.50Q751 373 751 302L751 39L831 30L826-1L712 2L622-1L617 30L671 39L671 329Q671 409 610 409Q568 409 502 361L470 339L470 39L517 30L512-1L434 2L347-1L342 30L390 39L390 329Q390 409 329 409Q287 409 221 361L188 339L188 39L242 30L237-1L154 2L39-1L34 30Z"  horiz-adv-x="848" vert-adv-y="1000"  />

      
      <glyph glyph-name="uni6e" unicode="&#x6e;" d="M34 30L108 39L108 410L35 403L30 434L142 466L180 469L186 384L333 482Q398 482 429 466Q460 450 470 416Q480 382 480 316L480 39L561 30L556-1L444 2L352-1L347 30L400 39L400 329Q400 410 330 410Q305 410 281 398Q257 386 221 362L188 341L188 39L247 30L242-1L151 2L39-1L34 30Z"  horiz-adv-x="578" vert-adv-y="1000"  />

      
      <glyph glyph-name="uni6f" unicode="&#x6f;" d="M260-15Q194-15 143.50 16.50Q93 48 65 102.50Q37 157 37 223Q37 332 98 397.50Q159 463 277 482Q342 482 392.50 450.50Q443 419 471 364Q499 309 499 243Q499 135 438 68.50Q377 2 260-15M283 31Q347 31 381.50 88Q416 145 416 229Q416 288 395.50 335Q375 382 338.50 409Q302 436 254 436Q190 436 155.50 379Q121 322 121 236Q121 184 141 137Q161 90 198 60.50Q235 31 283 31Z"  horiz-adv-x="536" vert-adv-y="1000"  />

      
      <glyph glyph-name="uni70" unicode="&#x70;" d="M20-200L94-190L94 411L20 404L15 434L129 466L167 469L172 386L298 482Q400 482 452.50 420Q505 358 505 246Q505 126 439 63Q373 0 259-15Q212-15 174 9L174-190L283-200L278-231L138-228L25-231L20-200M293 32Q351 32 386 83Q421 134 421 219Q421 306 391 361Q361 416 312 416Q273 416 207 366L174 341L174 92Q192 64 224 48Q256 32 293 32Z"  horiz-adv-x="543" vert-adv-y="1000"  />

      
      <glyph glyph-name="uni71" unicode="&#x71;" d="M259-200L368-190L368 66L249-15Q152-15 94 49Q36 113 36 223Q36 337 102.50 402.50Q169 468 290 482Q312 482 343 469Q374 456 402 439L436 477L448 477L448-190L522-200L517-231L404-228L264-231L259-200M244 51Q274 51 304 70L368 115L368 364Q345 437 266 437Q198 437 159 386Q120 335 120 247Q120 188 137 143Q154 98 182.50 74.50Q211 51 244 51Z"  horiz-adv-x="527" vert-adv-y="1000"  />

      
      <glyph glyph-name="uni72" unicode="&#x72;" d="M35 30L109 39L109 410L35 403L30 434L146 466L182 469L181 344L297 477L373 477L373 389L308 389Q291 387 261.50 365Q232 343 211 317L189 290L189 43L289 34L284-1L148 2L40-1L35 30Z"  horiz-adv-x="389" vert-adv-y="1000"  />

      
      <glyph glyph-name="uni73" unicode="&#x73;" d="M197-15Q154-15 112 1Q70 17 48 32L29 135L92 135L129 50Q164 31 208 31Q249 31 270.50 54.50Q292 78 292 113Q292 143 275.50 160.50Q259 178 216 201L135 243Q102 259 79 288Q56 317 56 355Q56 404 101.50 434.50Q147 465 230 482Q262 482 302.50 467Q343 452 368 434L368 343L316 343L293 418Q291 419 269.50 428Q248 437 217 437Q186 437 162.50 420.50Q139 404 139 374Q139 351 156 333.50Q173 316 208 298L286 258Q337 232 358 202.50Q379 173 379 130Q379 68 333.50 36.50Q288 5 197-15Z"  horiz-adv-x="419" vert-adv-y="1000"  />

      
      <glyph glyph-name="uni74" unicode="&#x74;" d="M221-15Q163-15 133.50 17Q104 49 104 112L104 415L5 415L5 432L39 465L108 465L108 529L164 591L183 591L183 457L339 457L339 415L184 415L184 114Q184 87 200.50 71Q217 55 238 55Q256 55 273 60Q290 65 317 78L332 48L221-15Z"  horiz-adv-x="341" vert-adv-y="1000"  />

      
      <glyph glyph-name="uni75" unicode="&#x75;" d="M240-15Q174-15 141.50 2Q109 19 99 53Q89 87 89 151L89 410L14 405L9 441L125 466L169 470L169 135Q169 94 186.50 75.50Q204 57 242 57Q266 57 294.50 71.50Q323 86 363 113L384 126L384 410L321 405L316 441L421 466L464 470L464 129Q464 99 466.50 83Q469 67 475 52L528 52L532 21L415-3L387 76L240-15Z"  horiz-adv-x="558" vert-adv-y="1000"  />

      
      <glyph glyph-name="uni76" unicode="&#x76;" d="M71 427L5 437L10 468L119 465L221 468L226 437L156 427L270 123L278 58L403 427L357 437L362 468L448 465L533 468L538 437L472 427L305 16L243-15L71 427Z"  horiz-adv-x="543" vert-adv-y="1000"  />

      
      <glyph glyph-name="uni77" unicode="&#x77;" d="M71 427L5 437L10 468L114 465L205 468L210 437L151 427L254 117L262 64L381 391L368 427L326 437L331 468L411 465L501 468L506 437L448 427L551 117L559 64L689 427L643 437L648 468L715 465L817 468L822 437L756 427L592 17L521-14L420 277L415 342L295 17L224-14L71 427Z"  horiz-adv-x="827" vert-adv-y="1000"  />

      
      <glyph glyph-name="uni78" unicode="&#x78;" d="M10 30L85 40L232 227L87 426L23 436L28 468L142 465L223 468L228 436L190 426L268 308L276 285L369 426L316 436L321 468L395 465L503 468L508 436L432 426L302 264L458 40L524 30L519-1L401 2L321-1L316 30L357 40L264 179L258 198L152 40L199 30L194-1L124 2L15-1L10 30Z"  horiz-adv-x="529" vert-adv-y="1000"  />

      
      <glyph glyph-name="uni79" unicode="&#x79;" d="M84-146L160-146L258 10L235 3L71 427L5 437L10 468L119 465L221 468L226 437L156 427L265 123L272 59L396 427L350 437L355 468L441 465L524 468L529 437L463 427L303 14L192-235L84-235L84-146Z"  horiz-adv-x="534" vert-adv-y="1000"  />

      
      <glyph glyph-name="uni7a" unicode="&#x7a;" d="M38 29L306 400L343 430L134 426L102 339L66 339L66 467L415 467L429 438L157 61L125 37L343 40L398 133L437 133L409 0L49 0L38 29Z"  horiz-adv-x="462" vert-adv-y="1000"  />

      
      <glyph glyph-name="uni7b" unicode="&#x7b;" d="M260-230Q196-230 156.50-191.50Q117-153 117-90L118 195L52 255L52 269Q83 279 97 295Q111 311 114.50 331Q118 351 118 385L117 575Q117 639 155.50 677Q194 715 258 715L306 715L306 684L254 684Q223 684 201.50 659Q180 634 182 579L188 385Q189 346 171.50 315.50Q154 285 105 262L188 210L182-94Q181-149 202-174Q223-199 254-199L306-199L306-230L260-230Z"  horiz-adv-x="348" vert-adv-y="1000"  />

      
      <glyph glyph-name="uni7c" unicode="&#x7c;" d="M110 718L166 718L166-245L110-245L110 718Z"  horiz-adv-x="276" vert-adv-y="1000"  />

      
      <glyph glyph-name="uni7d" unicode="&#x7d;" d="M42-199L94-199Q125-199 146-174Q167-149 166-95L160 126Q159 165 176.50 195.50Q194 226 243 249L160 301L166 579Q167 634 146 659Q125 684 94 684L42 684L42 715L90 715Q154 715 192.50 677Q231 639 231 575L230 316L296 256L296 242Q265 232 251 216Q237 200 233.50 180Q230 160 230 126L231-90Q231-153 191.50-191.50Q152-230 88-230L42-230L42-199Z"  horiz-adv-x="348" vert-adv-y="1000"  />

      
      <glyph glyph-name="uni7e" unicode="&#x7e;" d="M87 291L185 314L545 258L588 321L619 321L580 218L487 200L124 256L81 193L50 193L87 291Z"  horiz-adv-x="669" vert-adv-y="1000"  />

      
      <glyph glyph-name="unia1" unicode="&#xa1;" d="M78 372L74 424L78 468L146 473L174 468L179 416L174 372L106 368L78 372M91 39L118 233L137 233L164 40L167-242L88-242L91 39Z"  horiz-adv-x="253" vert-adv-y="1000"  />

      
      <glyph glyph-name="unia2" unicode="&#xa2;" d="M421 60Q367 22 295-5L295-80L253-80L253-15Q161-11 104.50 51Q48 113 48 223Q48 328 109 390Q170 452 266 478L266 550L308 550L308 479Q336 474 365.50 460.50Q395 447 412 432L412 341L352 341L328 415Q314 425 299.50 429Q285 433 263 433Q226 433 196.50 408Q167 383 150 339.50Q133 296 133 241Q133 157 175.50 104Q218 51 291 51Q339 51 409 95L421 60Z"  horiz-adv-x="456" vert-adv-y="1000"  />

      
      <glyph glyph-name="unia3" unicode="&#xa3;" d="M538 155L513 0L181 3L43 0L38 35L142 80L142 320L54 320L54 337L77 368L142 368L142 484Q142 558 155 597Q168 636 212.50 663.50Q257 691 354 715Q448 715 484 666L484 579L424 579L409 642Q392 659 375 666.50Q358 674 335 674Q303 674 277 655.50Q251 637 236 608Q221 579 221 549L221 368L419 368L419 319L221 320L221 180Q221 136 213 105.50Q205 75 195.50 57.50Q186 40 186 43L447 46L494 155L538 155Z"  horiz-adv-x="578" vert-adv-y="1000"  />

      
      <glyph glyph-name="unia4" unicode="&#xa4;" d="M76 170L133 226Q90 285 90 357Q90 429 133 488L76 544L123 591L179 534Q238 577 310 577Q382 577 441 534L497 591L544 544L487 488Q530 429 530 357Q530 285 487 226L544 170L497 123L441 180Q382 137 310 137Q238 137 179 180L123 123L76 170M310 187Q357 187 395.50 209.50Q434 232 455.50 271Q477 310 477 357Q477 404 455.50 443Q434 482 395.50 504.50Q357 527 310 527Q263 527 224.50 504.50Q186 482 164.50 443Q143 404 143 357Q143 310 164.50 271Q186 232 224.50 209.50Q263 187 310 187Z"  horiz-adv-x="620" vert-adv-y="1000"  />

      
      <glyph glyph-name="unia5" unicode="&#xa5;" d="M387 272L387 268L538 268L538 225L387 225L387 175L538 175L538 132L386 132L386 43L503 30L498-1L341 2L177-1L172 30L295 43L295 132L141 132L141 175L295 175L295 225L141 225L141 268L295 268L295 271L102 659L20 670L25 701L160 698L287 701L292 670L203 657L345 340L354 308L487 656L396 670L401 701L523 698L638 702L643 671L561 660L387 272Z"  horiz-adv-x="663" vert-adv-y="1000"  />

      
      <glyph glyph-name="unia6" unicode="&#xa6;" d="M110 718L165 718L165 288L110 288L110 718M110 185L165 185L165-245L110-245L110 185Z"  horiz-adv-x="275" vert-adv-y="1000"  />

      
      <glyph glyph-name="unia7" unicode="&#xa7;" d="M482 244Q482 106 369 44L445-8L445-40Q445-122 395.50-172.50Q346-223 244-245Q198-245 149-225Q100-205 80-178L80-75L132-75L148-144Q195-203 269-203Q377-203 377-80L377-65L186 63Q112 113 77 162.50Q42 212 42 266Q42 315 69.50 349.50Q97 384 159 418Q122 455 106 485Q90 515 90 546Q90 606 142 652Q194 698 280 714Q392 707 431 665L431 560L379 560L366 629Q347 651 323 661.50Q299 672 267 672Q214 672 185 647Q156 622 156 578Q156 550 170 526Q184 502 218.50 472Q253 442 322 392L482 276L482 244M414 219L275 322Q220 362 182 396Q111 359 111 290Q111 250 138.50 216.50Q166 183 237 134L342 62Q380 89 397 123Q414 157 414 204L414 219Z"  horiz-adv-x="528" vert-adv-y="1000"  />

      
      <glyph glyph-name="unia8" unicode="&#xa8;" d="M116 585L112 630L120 668L176 672L199 668L204 623L195 585L140 580L116 585M292 585L288 630L296 668L352 672L375 668L380 623L370 585L316 580L292 585Z"  horiz-adv-x="600" vert-adv-y="1000"  />

      
      <glyph glyph-name="unia9" unicode="&#xa9;" d="M417-15Q317-14 233.50 30.50Q150 75 100 159Q50 243 50 356Q50 509 147.50 599.50Q245 690 415 715Q515 714 598.50 669.50Q682 625 732 541Q782 457 782 344Q782 191 684.50 100.50Q587 10 417-15M415 21Q498 21 569 60Q640 99 682.50 172.50Q725 246 725 344Q725 452 676.50 527.50Q628 603 556 641Q484 679 417 679Q334 679 263 640Q192 601 149.50 527.50Q107 454 107 356Q107 248 155.50 172.50Q204 97 276 59Q348 21 415 21M426 141Q371 141 324 165Q277 189 248 235.50Q219 282 219 345Q219 440 276.50 492.50Q334 545 432 559Q475 559 514.50 544Q554 529 575 513L575 440L541 440L523 490Q510 505 485 516.50Q460 528 428 528Q362 528 323.50 484.50Q285 441 285 359Q285 313 304 270Q323 227 359 200.50Q395 174 443 174Q483 174 516 202L548 265L582 265L566 186Q552 180 547 179Q469 147 426 141Z"  horiz-adv-x="832" vert-adv-y="1000"  />

      
      <glyph glyph-name="uniaa" unicode="&#xaa;" d="M165 313Q111 313 78 340.50Q45 368 45 415Q45 436 51.50 452.50Q58 469 73 489L258 549L258 589Q258 630 249 648Q240 666 209 666Q181 666 140 651L126 591L58 591L58 649L205 713Q257 713 284 702Q311 691 322 664Q333 637 333 585L333 429Q333 405 336.50 392.50Q340 380 347 369L388 369L391 341L288 321L263 383L165 313M168 369Q192 369 222 390L258 413L258 517L136 469Q120 452 120 424Q120 396 134 382.50Q148 369 168 369Z"  horiz-adv-x="415" vert-adv-y="1000"  />

      
      <glyph glyph-name="uniab" unicode="&#xab;" d="M15 235L197 455L233 455L106 234L233 15L196 15L15 235M187 235L369 455L405 455L278 234L405 15L368 15L187 235Z"  horiz-adv-x="435" vert-adv-y="1000"  />

      
      <glyph glyph-name="uniac" unicode="&#xac;" d="M506 314L52 314L52 375L567 375L567 180L506 180L506 314Z"  horiz-adv-x="620" vert-adv-y="1000"  />

      
      <glyph glyph-name="uniad" unicode="&#xad;" d="M35 303L335 303L335 242L35 242L35 303Z"  horiz-adv-x="370" vert-adv-y="1000"  />

      
      <glyph glyph-name="uniae" unicode="&#xae;" d="M294 685Q362 684 419.50 654Q477 624 511 566.50Q545 509 545 431Q545 326 478.50 264Q412 202 296 185Q228 186 170.50 216.50Q113 247 79 304.50Q45 362 45 439Q45 544 111.50 606Q178 668 294 685M294 211Q350 211 398.50 237.50Q447 264 476 314Q505 364 505 431Q505 504 472 556Q439 608 390.50 633.50Q342 659 296 659Q240 659 191.50 632.50Q143 606 114 556Q85 506 85 439Q85 366 118 314.50Q151 263 200 237Q249 211 294 211M446 321L445 301L399 302L365 301L282 420L276 424L255 424L255 326L288 321L286 301L224 302L160 301L158 321L193 326L193 548L158 552L160 572L223 571L316 572Q357 572 383 554Q409 536 409 505Q409 477 383.50 459Q358 441 316 433L361 414L426 327L446 321M255 448L283 448Q309 448 326 462.50Q343 477 343 502Q343 526 328 539Q313 552 289 552L255 549L255 448Z"  horiz-adv-x="590" vert-adv-y="1000"  />

      
      <glyph glyph-name="uniaf" unicode="&#xaf;" d="M112 666L388 666L388 612L112 612L112 666Z"  horiz-adv-x="600" vert-adv-y="1000"  />

      
      <glyph glyph-name="unib0" unicode="&#xb0;" d="M202 449Q162 449 127 469.50Q92 490 71 525Q50 560 50 601Q50 662 87 697Q124 732 202 753Q242 753 277 732.50Q312 712 333 677Q354 642 354 601Q354 540 317 505Q280 470 202 449M202 504Q243 504 272.50 533Q302 562 302 601Q302 640 272.50 669Q243 698 202 698Q161 698 131.50 669Q102 640 102 601Q102 562 131.50 533Q161 504 202 504Z"  horiz-adv-x="404" vert-adv-y="1000"  />

      
      <glyph glyph-name="unib1" unicode="&#xb1;" d="M273 365L46 365L46 426L273 426L273 658L334 658L334 426L561 426L561 365L334 365L334 143L273 143L273 365M46 61L575 61L575 0L46 0L46 61Z"  horiz-adv-x="620" vert-adv-y="1000"  />

      
      <glyph glyph-name="unib2" unicode="&#xb2;" d="M26 426L137 538Q184 586 205 621Q226 656 226 690Q226 721 211.50 739.50Q197 758 171 758Q154 758 134 750L115 683L55 683L55 753L182 793Q240 793 275 765.50Q310 738 310 693Q310 644 280 604.50Q250 565 185 518L85 444L138 463L324 463L324 440L306 400L39 400L26 426Z"  horiz-adv-x="373" vert-adv-y="1000"  />

      
      <glyph glyph-name="unib3" unicode="&#xb3;" d="M42 466L181 466Q217 489 217 527Q217 556 192.50 574Q168 592 120 592L114 613L138 622Q170 634 185.50 653Q201 672 201 701Q201 727 188 742Q175 757 156 757Q138 757 122 749L103 683L43 683L43 753L170 793Q226 793 252.50 772Q279 751 279 719Q279 658 191 627Q243 623 271.50 599.50Q300 576 300 543Q300 502 271.50 479.50Q243 457 186 432L164 423L112 400L42 400L42 466Z"  horiz-adv-x="351" vert-adv-y="1000"  />

      
      <glyph glyph-name="unib4" unicode="&#xb4;" d="M184 710L286 710L166 549L136 549L184 710Z"  horiz-adv-x="600" vert-adv-y="1000"  />

      
      <glyph glyph-name="unib5" unicode="&#xb5;" d="M465 102Q465 69 483.50 52Q502 35 543 26L539 0L427 0L385 74L266-15Q207-15 172 0.50Q137 16 129 45L129-28L172-230L76-230L76 467L156 467L156 172Q156 117 180 87Q204 57 247 57Q267 57 290.50 69Q314 81 336 95Q358 109 364 113L385 126L385 467L465 467L465 102Z"  horiz-adv-x="620" vert-adv-y="1000"  />

      
      <glyph glyph-name="unib6" unicode="&#xb6;" d="M169 420Q110 420 70 454Q30 488 30 544Q30 587 65 622Q100 657 170 700L439 700L439 652L389 642L389-159L337-159L337 642L222 642L222-159L169-159L169 420Z"  horiz-adv-x="479" vert-adv-y="1000"  />

      
      <glyph glyph-name="unib7" unicode="&#xb7;" d="M60 354L55 407L60 452L129 456L158 452L162 399L158 354L88 349L60 354Z"  horiz-adv-x="217" vert-adv-y="1000"  />

      
      <glyph glyph-name="unib8" unicode="&#xb8;" d="M196-207L272-207Q287-198 295-180.50Q303-163 303-145Q303-113 277.50-97.50Q252-82 219-82L289 13L315 2L281-47Q314-49 338-70.50Q362-92 362-127Q362-166 335-192.50Q308-219 275-229L224-245L167-245L196-207Z"  horiz-adv-x="600" vert-adv-y="1000"  />

      
      <glyph glyph-name="unib9" unicode="&#xb9;" d="M41 425L129 435L129 719L134 733L107 717L47 707L35 732L170 788L208 788L208 435L296 425L293 399L169 401L44 399L41 425Z"  horiz-adv-x="322" vert-adv-y="1000"  />

      
      <glyph glyph-name="uniba" unicode="&#xba;" d="M232 313Q178 313 136.50 338Q95 363 72 406.50Q49 450 49 504Q49 593 100.50 645Q152 697 250 713Q303 713 344.50 688Q386 663 409 619Q432 575 432 521Q432 433 380.50 380.50Q329 328 232 313M252 352Q301 352 327.50 394.50Q354 437 354 504Q354 580 319.50 627Q285 674 229 674Q180 674 154 631.50Q128 589 128 520Q128 450 162.50 401Q197 352 252 352Z"  horiz-adv-x="481" vert-adv-y="1000"  />

      
      <glyph glyph-name="unibb" unicode="&#xbb;" d="M157 234L30 455L66 455L248 235L67 15L30 15L157 234M329 234L202 455L238 455L420 235L239 15L202 15L329 234Z"  horiz-adv-x="435" vert-adv-y="1000"  />

      
      <glyph glyph-name="unibc" unicode="&#xbc;" d="M41 340L129 350L129 634L134 648L107 632L47 622L35 647L170 703L208 703L208 350L296 340L293 314L169 316L44 314L41 340M549 710L601 710L216-50L162-50L549 710M646 99L492 99L468 133L664 385L733 385L733 355L523 140L553 151L646 151L646 216L700 261L717 261L717 151L794 151L794 99L717 99L717 0L646 0L646 99Z"  horiz-adv-x="821" vert-adv-y="1000"  />

      
      <glyph glyph-name="unibd" unicode="&#xbd;" d="M41 340L129 350L129 634L134 648L107 632L47 622L35 647L170 703L208 703L208 350L296 340L293 314L169 316L44 314L41 340M549 710L601 710L216-50L162-50L549 710M467 26L578 138Q625 186 646 221Q667 256 667 290Q667 321 652.50 339.50Q638 358 612 358Q595 358 575 350L556 283L496 283L496 353L623 393Q681 393 716 365.50Q751 338 751 293Q751 244 721 204.50Q691 165 626 118L526 44L579 63L765 63L765 40L747 0L480 0L467 26Z"  horiz-adv-x="814" vert-adv-y="1000"  />

      
      <glyph glyph-name="unibe" unicode="&#xbe;" d="M42 381L181 381Q217 404 217 442Q217 471 192.50 489Q168 507 120 507L114 528L138 537Q170 549 185.50 568Q201 587 201 616Q201 642 188 657Q175 672 156 672Q138 672 122 664L103 598L43 598L43 668L170 708Q226 708 252.50 687Q279 666 279 634Q279 573 191 542Q243 538 271.50 514.50Q300 491 300 458Q300 417 271.50 394.50Q243 372 186 347L164 338L112 315L42 315L42 381M578 710L630 710L245-50L191-50L578 710M675 99L521 99L497 133L693 385L762 385L762 355L552 140L582 151L675 151L675 216L729 261L746 261L746 151L823 151L823 99L746 99L746 0L675 0L675 99Z"  horiz-adv-x="850" vert-adv-y="1000"  />

      
      <glyph glyph-name="unibf" unicode="&#xbf;" d="M251 467L256 415L251 371L183 367L155 371L151 423L155 467L223 472L251 467M243 101L204 79Q158 53 134.50 14.50Q111-24 111-65Q111-123 134.50-158.50Q158-194 211-194L230-113L298-113L298-232L216-243Q116-231 68-181Q20-131 20-62Q20 4 48 44Q76 84 132 111L178 133L185 237L237 237L243 101Z"  horiz-adv-x="358" vert-adv-y="1000"  />

      
      <glyph glyph-name="unic0" unicode="&#xc0;" d="M238 898L338 898L410 766L358 766L238 898M11 30L94 41L348 695L385 709L655 41L736 30L731-1L606 2L470-1L465 30L554 43L482 237L232 237L164 43L254 30L249-1L125 2L16-1L11 30M465 281L366 545L358 598L247 281L465 281Z"  horiz-adv-x="747" vert-adv-y="1000"  />

      
      <glyph glyph-name="unic1" unicode="&#xc1;" d="M416 898L516 898L395 766L343 766L416 898M11 30L94 41L348 695L385 709L655 41L736 30L731-1L606 2L470-1L465 30L554 43L482 237L232 237L164 43L254 30L249-1L125 2L16-1L11 30M465 281L366 545L358 598L247 281L465 281Z"  horiz-adv-x="747" vert-adv-y="1000"  />

      
      <glyph glyph-name="unic2" unicode="&#xc2;" d="M333 898L411 898L516 766L466 766L383 833L371 845L361 833L278 766L228 766L333 898M11 30L94 41L348 695L385 709L655 41L736 30L731-1L606 2L470-1L465 30L554 43L482 237L232 237L164 43L254 30L249-1L125 2L16-1L11 30M465 281L366 545L358 598L247 281L465 281Z"  horiz-adv-x="747" vert-adv-y="1000"  />

      
      <glyph glyph-name="unic3" unicode="&#xc3;" d="M246 860L321 882L470 832L507 886L529 886L507 797L431 774L283 824L245 770L223 770L246 860M11 30L94 41L348 695L385 709L655 41L736 30L731-1L606 2L470-1L465 30L554 43L482 237L232 237L164 43L254 30L249-1L125 2L16-1L11 30M465 281L366 545L358 598L247 281L465 281Z"  horiz-adv-x="747" vert-adv-y="1000"  />

      
      <glyph glyph-name="unic4" unicode="&#xc4;" d="M223 784L218 830L226 867L282 872L306 867L310 823L301 784L246 780L223 784M438 784L434 830L442 867L498 872L521 867L526 823L517 784L462 780L438 784M11 30L94 41L348 695L385 709L655 41L736 30L731-1L606 2L470-1L465 30L554 43L482 237L232 237L164 43L254 30L249-1L125 2L16-1L11 30M465 281L366 545L358 598L247 281L465 281Z"  horiz-adv-x="747" vert-adv-y="1000"  />

      
      <glyph glyph-name="unic5" unicode="&#xc5;" d="M371 727Q332 727 302.50 749Q273 771 273 814Q273 854 298.50 873Q324 892 372 905Q410 905 440.50 883Q471 861 471 819Q471 780 445 761Q419 742 371 727M371 759Q397 759 413 775Q429 791 429 816Q429 842 413 857.50Q397 873 371 873Q345 873 329.50 857.50Q314 842 314 816Q314 791 330 775Q346 759 371 759M11 30L94 41L348 695L385 709L655 41L736 30L731-1L606 2L470-1L465 30L554 43L482 237L232 237L164 43L254 30L249-1L125 2L16-1L11 30M465 281L366 545L358 598L247 281L465 281Z"  horiz-adv-x="747" vert-adv-y="1000"  />

      
      <glyph glyph-name="unic6" unicode="&#xc6;" d="M5 30L87 41L513 701L570 698L941 701L951 522L920 522L866 655L614 658L614 355L737 359L777 464L809 464L799 343L809 210L777 210L737 314L614 318L614 42L876 45L942 183L977 183L942-1L572 2L434-1L429 30L523 43L523 316L324 316L157 43L236 30L231-1L119 2L10-1L5 30M523 354L523 652L346 354L523 354Z"  horiz-adv-x="1002" vert-adv-y="1000"  />

      
      <glyph glyph-name="unic7" unicode="&#xc7;" d="M636 62Q590 39 522.50 15Q455-9 404-17L383-47Q416-49 440-70.50Q464-92 464-127Q464-166 437-192.50Q410-219 377-229L326-245L269-245L298-207L374-207Q389-198 397-180.50Q405-163 405-145Q405-113 379.50-97.50Q354-82 321-82L369-17Q281-10 206.50 34Q132 78 87 157Q42 236 42 343Q42 510 142 603.50Q242 697 412 718Q483 718 548.50 692.50Q614 667 653 636L653 513L602 513L570 605Q545 630 500 650.50Q455 671 400 671Q280 671 210 591.50Q140 512 140 365Q140 283 174.50 206.50Q209 130 275 81.50Q341 33 430 33Q491 33 557 85L613 194L664 194L636 62Z"  horiz-adv-x="703" vert-adv-y="1000"  />

      
      <glyph glyph-name="unic8" unicode="&#xc8;" d="M205 898L305 898L377 766L325 766L205 898M30 30L124 43L124 657L30 670L35 701L173 698L562 701L571 525L543 525L488 655L213 658L213 385L361 389L401 494L431 494L421 373L431 240L401 240L361 344L213 348L213 42L498 45L565 180L598 180L562-1L173 2L35-1L30 30Z"  horiz-adv-x="625" vert-adv-y="1000"  />

      
      <glyph glyph-name="unic9" unicode="&#xc9;" d="M383 898L483 898L362 766L310 766L383 898M30 30L124 43L124 657L30 670L35 701L173 698L562 701L571 525L543 525L488 655L213 658L213 385L361 389L401 494L431 494L421 373L431 240L401 240L361 344L213 348L213 42L498 45L565 180L598 180L562-1L173 2L35-1L30 30Z"  horiz-adv-x="625" vert-adv-y="1000"  />

      
      <glyph glyph-name="unica" unicode="&#xca;" d="M300 898L378 898L483 766L433 766L350 833L338 845L328 833L245 766L195 766L300 898M30 30L124 43L124 657L30 670L35 701L173 698L562 701L571 525L543 525L488 655L213 658L213 385L361 389L401 494L431 494L421 373L431 240L401 240L361 344L213 348L213 42L498 45L565 180L598 180L562-1L173 2L35-1L30 30Z"  horiz-adv-x="625" vert-adv-y="1000"  />

      
      <glyph glyph-name="unicb" unicode="&#xcb;" d="M190 784L185 830L193 867L249 872L273 867L277 823L268 784L213 780L190 784M405 784L401 830L409 867L465 872L488 867L493 823L484 784L429 780L405 784M30 30L124 43L124 657L30 670L35 701L173 698L562 701L571 525L543 525L488 655L213 658L213 385L361 389L401 494L431 494L421 373L431 240L401 240L361 344L213 348L213 42L498 45L565 180L598 180L562-1L173 2L35-1L30 30Z"  horiz-adv-x="625" vert-adv-y="1000"  />

      
      <glyph glyph-name="unicc" unicode="&#xcc;" d="M35 898L135 898L207 766L155 766L35 898M30 31L124 44L124 657L30 670L35 701L169 698L302 701L307 670L213 657L213 44L307 31L302-1L169 2L35-1L30 31Z"  horiz-adv-x="337" vert-adv-y="1000"  />

      
      <glyph glyph-name="unicd" unicode="&#xcd;" d="M213 898L313 898L192 766L140 766L213 898M30 31L124 44L124 657L30 670L35 701L169 698L302 701L307 670L213 657L213 44L307 31L302-1L169 2L35-1L30 31Z"  horiz-adv-x="337" vert-adv-y="1000"  />

      
      <glyph glyph-name="unice" unicode="&#xce;" d="M130 898L208 898L313 766L263 766L180 833L168 845L158 833L75 766L25 766L130 898M30 31L124 44L124 657L30 670L35 701L169 698L302 701L307 670L213 657L213 44L307 31L302-1L169 2L35-1L30 31Z"  horiz-adv-x="337" vert-adv-y="1000"  />

      
      <glyph glyph-name="unicf" unicode="&#xcf;" d="M20 784L15 830L23 867L79 872L103 867L107 823L98 784L43 780L20 784M235 784L231 830L239 867L295 872L318 867L323 823L314 784L259 780L235 784M30 31L124 44L124 657L30 670L35 701L169 698L302 701L307 670L213 657L213 44L307 31L302-1L169 2L35-1L30 31Z"  horiz-adv-x="337" vert-adv-y="1000"  />

      
      <glyph glyph-name="unid0" unicode="&#xd0;" d="M364 701Q516 702 603 615.50Q690 529 690 370Q690 205 604.50 112Q519 19 352-1L174 2L35-1L30 30L124 43L124 345L41 345L41 381L124 381L124 657L30 670L35 701L173 698L364 701M345 42Q417 43 472.50 81.50Q528 120 559 191Q590 262 590 358Q590 443 559.50 511.50Q529 580 467 620Q405 660 316 661L213 656L213 381L343 381L343 345L213 345L213 52L345 42Z"  horiz-adv-x="732" vert-adv-y="1000"  />

      
      <glyph glyph-name="unid1" unicode="&#xd1;" d="M246 860L321 882L470 832L507 886L529 886L507 797L431 774L283 824L245 770L223 770L246 860M200 561L185 622L185 43L274 30L268-1L162 2L35-1L30 30L124 43L124 648L35 670L40 701L136 698L201 701L560 178L579 128L579 657L491 670L496 701L603 698L729 701L734 670L640 657L640-2L581-2L200 561Z"  horiz-adv-x="744" vert-adv-y="1000"  />

      
      <glyph glyph-name="unid2" unicode="&#xd2;" d="M252 898L352 898L424 766L372 766L252 898M376-18Q279-18 203 28Q127 74 84.50 154.50Q42 235 42 336Q42 501 129 595Q216 689 395 718Q492 718 568 672Q644 626 686.50 545.50Q729 465 729 364Q729 199 642 105Q555 11 376-18M401 33Q515 33 573 117.50Q631 202 631 332Q631 412 605 488.50Q579 565 520.50 616Q462 667 371 667Q256 667 198 582.50Q140 498 140 368Q140 287 166.50 210.50Q193 134 251.50 83.50Q310 33 401 33Z"  horiz-adv-x="771" vert-adv-y="1000"  />

      
      <glyph glyph-name="unid3" unicode="&#xd3;" d="M430 898L530 898L409 766L357 766L430 898M376-18Q279-18 203 28Q127 74 84.50 154.50Q42 235 42 336Q42 501 129 595Q216 689 395 718Q492 718 568 672Q644 626 686.50 545.50Q729 465 729 364Q729 199 642 105Q555 11 376-18M401 33Q515 33 573 117.50Q631 202 631 332Q631 412 605 488.50Q579 565 520.50 616Q462 667 371 667Q256 667 198 582.50Q140 498 140 368Q140 287 166.50 210.50Q193 134 251.50 83.50Q310 33 401 33Z"  horiz-adv-x="771" vert-adv-y="1000"  />

      
      <glyph glyph-name="unid4" unicode="&#xd4;" d="M347 898L425 898L530 766L480 766L397 833L385 845L375 833L292 766L242 766L347 898M376-18Q279-18 203 28Q127 74 84.50 154.50Q42 235 42 336Q42 501 129 595Q216 689 395 718Q492 718 568 672Q644 626 686.50 545.50Q729 465 729 364Q729 199 642 105Q555 11 376-18M401 33Q515 33 573 117.50Q631 202 631 332Q631 412 605 488.50Q579 565 520.50 616Q462 667 371 667Q256 667 198 582.50Q140 498 140 368Q140 287 166.50 210.50Q193 134 251.50 83.50Q310 33 401 33Z"  horiz-adv-x="771" vert-adv-y="1000"  />

      
      <glyph glyph-name="unid5" unicode="&#xd5;" d="M260 860L335 882L484 832L521 886L543 886L521 797L445 774L297 824L259 770L237 770L260 860M376-18Q279-18 203 28Q127 74 84.50 154.50Q42 235 42 336Q42 501 129 595Q216 689 395 718Q492 718 568 672Q644 626 686.50 545.50Q729 465 729 364Q729 199 642 105Q555 11 376-18M401 33Q515 33 573 117.50Q631 202 631 332Q631 412 605 488.50Q579 565 520.50 616Q462 667 371 667Q256 667 198 582.50Q140 498 140 368Q140 287 166.50 210.50Q193 134 251.50 83.50Q310 33 401 33Z"  horiz-adv-x="771" vert-adv-y="1000"  />

      
      <glyph glyph-name="unid6" unicode="&#xd6;" d="M237 784L232 830L240 867L296 872L320 867L324 823L315 784L260 780L237 784M452 784L448 830L456 867L512 872L535 867L540 823L531 784L476 780L452 784M376-18Q279-18 203 28Q127 74 84.50 154.50Q42 235 42 336Q42 501 129 595Q216 689 395 718Q492 718 568 672Q644 626 686.50 545.50Q729 465 729 364Q729 199 642 105Q555 11 376-18M401 33Q515 33 573 117.50Q631 202 631 332Q631 412 605 488.50Q579 565 520.50 616Q462 667 371 667Q256 667 198 582.50Q140 498 140 368Q140 287 166.50 210.50Q193 134 251.50 83.50Q310 33 401 33Z"  horiz-adv-x="771" vert-adv-y="1000"  />

      
      <glyph glyph-name="unid7" unicode="&#xd7;" d="M97 63L267 232L97 401L140 444L309 275L479 445L522 402L352 232L522 62L479 19L309 190L140 20L97 63Z"  horiz-adv-x="620" vert-adv-y="1000"  />

      
      <glyph glyph-name="unid8" unicode="&#xd8;" d="M623 630Q674 582 701.50 513Q729 444 729 364Q729 199 642 105Q555 11 376-18Q263-18 179 44L135-15L83-15L148 70Q97 119 69.50 187Q42 255 42 336Q42 501 129 595Q216 689 395 718Q507 718 593 656L638 715L688 715L623 630M140 368Q140 307 155 247Q170 187 201 140L545 592Q477 667 371 667Q256 667 198 582.50Q140 498 140 368M401 33Q515 33 573 117.50Q631 202 631 332Q631 393 616 452.50Q601 512 570 559L227 107Q294 33 401 33Z"  horiz-adv-x="771" vert-adv-y="1000"  />

      
      <glyph glyph-name="unid9" unicode="&#xd9;" d="M235 898L335 898L407 766L355 766L235 898M363-18Q229-18 169 51.50Q109 121 109 247L109 657L15 670L20 701L159 698L288 701L293 670L204 657L204 227Q204 30 374 30Q453 30 495.50 81.50Q538 133 538 230L538 657L446 670L451 701L579 698L697 701L702 670L615 657L615 243Q615 174 592.50 125Q570 76 515 40Q460 4 363-18Z"  horiz-adv-x="717" vert-adv-y="1000"  />

      
      <glyph glyph-name="unida" unicode="&#xda;" d="M413 898L513 898L392 766L340 766L413 898M363-18Q229-18 169 51.50Q109 121 109 247L109 657L15 670L20 701L159 698L288 701L293 670L204 657L204 227Q204 30 374 30Q453 30 495.50 81.50Q538 133 538 230L538 657L446 670L451 701L579 698L697 701L702 670L615 657L615 243Q615 174 592.50 125Q570 76 515 40Q460 4 363-18Z"  horiz-adv-x="717" vert-adv-y="1000"  />

      
      <glyph glyph-name="unidb" unicode="&#xdb;" d="M330 898L408 898L513 766L463 766L380 833L368 845L358 833L275 766L225 766L330 898M363-18Q229-18 169 51.50Q109 121 109 247L109 657L15 670L20 701L159 698L288 701L293 670L204 657L204 227Q204 30 374 30Q453 30 495.50 81.50Q538 133 538 230L538 657L446 670L451 701L579 698L697 701L702 670L615 657L615 243Q615 174 592.50 125Q570 76 515 40Q460 4 363-18Z"  horiz-adv-x="717" vert-adv-y="1000"  />

      
      <glyph glyph-name="unidc" unicode="&#xdc;" d="M220 784L215 830L223 867L279 872L303 867L307 823L298 784L243 780L220 784M435 784L431 830L439 867L495 872L518 867L523 823L514 784L459 780L435 784M363-18Q229-18 169 51.50Q109 121 109 247L109 657L15 670L20 701L159 698L288 701L293 670L204 657L204 227Q204 30 374 30Q453 30 495.50 81.50Q538 133 538 230L538 657L446 670L451 701L579 698L697 701L702 670L615 657L615 243Q615 174 592.50 125Q570 76 515 40Q460 4 363-18Z"  horiz-adv-x="717" vert-adv-y="1000"  />

      
      <glyph glyph-name="unidd" unicode="&#xdd;" d="M418 898L518 898L397 766L345 766L418 898M190 30L313 43L313 275L87 660L5 671L10 701L145 698L272 701L277 671L188 658L364 361L374 326L546 658L455 671L460 701L582 698L697 701L702 672L620 662L400 270L402 43L519 30L514-1L358 2L195-1L190 30Z"  horiz-adv-x="707" vert-adv-y="1000"  />

      
      <glyph glyph-name="unide" unicode="&#xde;" d="M35 31L129 44L129 657L35 670L40 701L174 698L291 701L296 670L218 657L218 555L355 557Q453 558 515 511.50Q577 465 577 380Q577 287 507 231.50Q437 176 334 157L218 157L218 44L332 31L327-1L174 2L40-1L35 31M309 203Q385 203 431.50 248.50Q478 294 478 366Q478 435 440.50 476.50Q403 518 323 518L218 512L218 203L309 203Z"  horiz-adv-x="598" vert-adv-y="1000"  />

      
      <glyph glyph-name="unidf" unicode="&#xdf;" d="M395-18Q354-18 315-1Q276 16 260 32L254 129L304 129L328 55Q350 42 367 35Q384 28 409 28Q441 28 463.50 51.50Q486 75 486 105Q486 136 469.50 160.50Q453 185 415 208L356 243Q316 267 296.50 307Q277 347 277 397L341 438Q372 459 392.50 493.50Q413 528 413 577Q413 599 401.50 622Q390 645 366 661Q342 677 308 677Q251 677 223 632Q195 587 195 501L195 0L166 2L47-1L42 24L116 34L116 416L26 416L26 432L54 465L116 465L116 514Q116 563 149 609.50Q182 656 243 687L304 718Q391 718 444.50 683.50Q498 649 498 588Q498 547 480.50 517.50Q463 488 435 466Q407 444 347 406Q347 375 361 350.50Q375 326 416 304L479 269Q528 243 547.50 211.50Q567 180 567 141Q567 84 517 41.50Q467-1 395-18Z"  horiz-adv-x="587" vert-adv-y="1000"  />

      
      <glyph glyph-name="unie0" unicode="&#xe0;" d="M173-15Q109-15 69.50 19Q30 53 30 111Q30 135 37.50 154.50Q45 174 62 200L288 276L288 324Q288 360 284.50 380.50Q281 401 267.50 413Q254 425 226 425Q188 425 137 406L119 334L46 334L46 404L218 482Q281 482 312 469Q343 456 355 422.50Q367 389 367 321L367 125Q367 95 371.50 79.50Q376 64 385 50L436 50L439 19L324-3L294 73L173-15M171 50Q190 50 206 58Q222 66 240 78L288 111L288 238L129 172Q110 152 110 119Q110 83 127.50 66.50Q145 50 171 50M93 710L195 710L243 549L213 549L93 710Z"  horiz-adv-x="444" vert-adv-y="1000"  />

      
      <glyph glyph-name="unie1" unicode="&#xe1;" d="M173-15Q109-15 69.50 19Q30 53 30 111Q30 135 37.50 154.50Q45 174 62 200L288 276L288 324Q288 360 284.50 380.50Q281 401 267.50 413Q254 425 226 425Q188 425 137 406L119 334L46 334L46 404L218 482Q281 482 312 469Q343 456 355 422.50Q367 389 367 321L367 125Q367 95 371.50 79.50Q376 64 385 50L436 50L439 19L324-3L294 73L173-15M171 50Q190 50 206 58Q222 66 240 78L288 111L288 238L129 172Q110 152 110 119Q110 83 127.50 66.50Q145 50 171 50M254 710L356 710L236 549L206 549L254 710Z"  horiz-adv-x="444" vert-adv-y="1000"  />

      
      <glyph glyph-name="unie2" unicode="&#xe2;" d="M173-15Q109-15 69.50 19Q30 53 30 111Q30 135 37.50 154.50Q45 174 62 200L288 276L288 324Q288 360 284.50 380.50Q281 401 267.50 413Q254 425 226 425Q188 425 137 406L119 334L46 334L46 404L218 482Q281 482 312 469Q343 456 355 422.50Q367 389 367 321L367 125Q367 95 371.50 79.50Q376 64 385 50L436 50L439 19L324-3L294 73L173-15M171 50Q190 50 206 58Q222 66 240 78L288 111L288 238L129 172Q110 152 110 119Q110 83 127.50 66.50Q145 50 171 50M179 710L247 710L352 549L314 549L232 626L213 652L194 626L112 549L74 549L179 710Z"  horiz-adv-x="444" vert-adv-y="1000"  />

      
      <glyph glyph-name="unie3" unicode="&#xe3;" d="M173-15Q109-15 69.50 19Q30 53 30 111Q30 135 37.50 154.50Q45 174 62 200L288 276L288 324Q288 360 284.50 380.50Q281 401 267.50 413Q254 425 226 425Q188 425 137 406L119 334L46 334L46 404L218 482Q281 482 312 469Q343 456 355 422.50Q367 389 367 321L367 125Q367 95 371.50 79.50Q376 64 385 50L436 50L439 19L324-3L294 73L173-15M171 50Q190 50 206 58Q222 66 240 78L288 111L288 238L129 172Q110 152 110 119Q110 83 127.50 66.50Q145 50 171 50M117 635L88 578L61 578L82 665L159 687L307 628L337 685L363 685L341 593L266 576L117 635Z"  horiz-adv-x="444" vert-adv-y="1000"  />

      
      <glyph glyph-name="unie4" unicode="&#xe4;" d="M173-15Q109-15 69.50 19Q30 53 30 111Q30 135 37.50 154.50Q45 174 62 200L288 276L288 324Q288 360 284.50 380.50Q281 401 267.50 413Q254 425 226 425Q188 425 137 406L119 334L46 334L46 404L218 482Q281 482 312 469Q343 456 355 422.50Q367 389 367 321L367 125Q367 95 371.50 79.50Q376 64 385 50L436 50L439 19L324-3L294 73L173-15M171 50Q190 50 206 58Q222 66 240 78L288 111L288 238L129 172Q110 152 110 119Q110 83 127.50 66.50Q145 50 171 50M83 585L79 630L87 668L143 672L166 668L171 623L162 585L107 580L83 585M259 585L255 630L263 668L319 672L342 668L347 623L337 585L283 580L259 585Z"  horiz-adv-x="444" vert-adv-y="1000"  />

      
      <glyph glyph-name="unie5" unicode="&#xe5;" d="M173-15Q109-15 69.50 19Q30 53 30 111Q30 135 37.50 154.50Q45 174 62 200L288 276L288 324Q288 360 284.50 380.50Q281 401 267.50 413Q254 425 226 425Q188 425 137 406L119 334L46 334L46 404L218 482Q281 482 312 469Q343 456 355 422.50Q367 389 367 321L367 125Q367 95 371.50 79.50Q376 64 385 50L436 50L439 19L324-3L294 73L173-15M171 50Q190 50 206 58Q222 66 240 78L288 111L288 238L129 172Q110 152 110 119Q110 83 127.50 66.50Q145 50 171 50M215 537Q172 537 143 557.50Q114 578 114 624Q114 664 139 683Q164 702 212 715Q311 715 311 624Q311 598 302 583.50Q293 569 278.50 561.50Q264 554 238 545L215 537M213 573Q236 573 252 587.50Q268 602 268 624Q268 647 252 663Q236 679 213 679Q190 679 174 663Q158 647 158 624Q158 602 174 587.50Q190 573 213 573Z"  horiz-adv-x="444" vert-adv-y="1000"  />

      
      <glyph glyph-name="unie6" unicode="&#xe6;" d="M659 60Q624 37 578 17.50Q532-2 486-15Q431-15 382 10Q333 35 302 81L175-15Q112-15 71 18.50Q30 52 30 106Q30 134 37.50 154Q45 174 62 200L279 276L279 324Q279 375 269 400Q259 425 224 425Q182 425 138 406L120 330L45 330L45 404L217 482Q274 482 304 469Q334 456 347 423Q400 463 484 482Q575 482 616 432.50Q657 383 657 298L657 257L357 257Q360 165 406 108.50Q452 52 532 52Q579 52 646 96L659 60M470 437Q422 437 392.50 398.50Q363 360 358 293L562 304Q562 370 543.50 403.50Q525 437 470 437M280 240L129 174Q118 163 114 149.50Q110 136 110 115Q110 82 128.50 65Q147 48 172 48Q197 48 237 77L280 109L280 177L280 240Z"  horiz-adv-x="696" vert-adv-y="1000"  />

      
      <glyph glyph-name="unie7" unicode="&#xe7;" d="M232-47Q265-49 289-70.50Q313-92 313-127Q313-166 286-192.50Q259-219 226-229L175-245L118-245L147-207L223-207Q238-198 246-180.50Q254-163 254-145Q254-113 228.50-97.50Q203-82 170-82L221-12Q140 0 91.50 60.50Q43 121 43 223Q43 332 108.50 395Q174 458 275 482Q305 482 345 467Q385 452 407 432L407 341L347 341L323 415Q309 425 294.50 429Q280 433 258 433Q221 433 191.50 408Q162 383 145 339.50Q128 296 128 241Q128 157 170.50 104Q213 51 286 51Q334 51 404 95L416 60Q349 14 260-15L254-15L232-47Z"  horiz-adv-x="441" vert-adv-y="1000"  />

      
      <glyph glyph-name="unie8" unicode="&#xe8;" d="M433 58Q399 36 353 16.50Q307-3 263-15Q203-15 151.50 13Q100 41 68.50 96.50Q37 152 37 229Q37 339 97.50 400.50Q158 462 258 482Q350 482 390 431.50Q430 381 430 295L430 257L120 257Q122 159 167 105Q212 51 294 51Q320 51 353.50 63Q387 75 419 94L433 58M238 436Q192 436 160 398.50Q128 361 121 297L338 305Q338 370 317.50 403Q297 436 238 436M140 710L242 710L290 549L260 549L140 710Z"  horiz-adv-x="469" vert-adv-y="1000"  />

      
      <glyph glyph-name="unie9" unicode="&#xe9;" d="M433 58Q399 36 353 16.50Q307-3 263-15Q203-15 151.50 13Q100 41 68.50 96.50Q37 152 37 229Q37 339 97.50 400.50Q158 462 258 482Q350 482 390 431.50Q430 381 430 295L430 257L120 257Q122 159 167 105Q212 51 294 51Q320 51 353.50 63Q387 75 419 94L433 58M238 436Q192 436 160 398.50Q128 361 121 297L338 305Q338 370 317.50 403Q297 436 238 436M301 710L403 710L283 549L253 549L301 710Z"  horiz-adv-x="469" vert-adv-y="1000"  />

      
      <glyph glyph-name="uniea" unicode="&#xea;" d="M433 58Q399 36 353 16.50Q307-3 263-15Q203-15 151.50 13Q100 41 68.50 96.50Q37 152 37 229Q37 339 97.50 400.50Q158 462 258 482Q350 482 390 431.50Q430 381 430 295L430 257L120 257Q122 159 167 105Q212 51 294 51Q320 51 353.50 63Q387 75 419 94L433 58M238 436Q192 436 160 398.50Q128 361 121 297L338 305Q338 370 317.50 403Q297 436 238 436M226 710L294 710L399 549L361 549L279 626L260 652L241 626L159 549L121 549L226 710Z"  horiz-adv-x="469" vert-adv-y="1000"  />

      
      <glyph glyph-name="unieb" unicode="&#xeb;" d="M433 58Q399 36 353 16.50Q307-3 263-15Q203-15 151.50 13Q100 41 68.50 96.50Q37 152 37 229Q37 339 97.50 400.50Q158 462 258 482Q350 482 390 431.50Q430 381 430 295L430 257L120 257Q122 159 167 105Q212 51 294 51Q320 51 353.50 63Q387 75 419 94L433 58M238 436Q192 436 160 398.50Q128 361 121 297L338 305Q338 370 317.50 403Q297 436 238 436M130 585L126 630L134 668L190 672L213 668L218 623L209 585L154 580L130 585M306 585L302 630L310 668L366 672L389 668L394 623L384 585L330 580L306 585Z"  horiz-adv-x="469" vert-adv-y="1000"  />

      
      <glyph glyph-name="uniec" unicode="&#xec;" d="M35 30L109 39L109 409L35 403L30 434L143 466L189 470L189 39L269 30L264-1L152 2L40-1L35 30M25 710L127 710L175 549L145 549L25 710Z"  horiz-adv-x="289" vert-adv-y="1000"  />

      
      <glyph glyph-name="unied" unicode="&#xed;" d="M35 30L109 39L109 409L35 403L30 434L143 466L189 470L189 39L269 30L264-1L152 2L40-1L35 30M186 710L288 710L168 549L138 549L186 710Z"  horiz-adv-x="289" vert-adv-y="1000"  />

      
      <glyph glyph-name="uniee" unicode="&#xee;" d="M35 30L109 39L109 409L35 403L30 434L143 466L189 470L189 39L269 30L264-1L152 2L40-1L35 30M111 710L179 710L284 549L246 549L164 626L145 652L126 626L44 549L6 549L111 710Z"  horiz-adv-x="289" vert-adv-y="1000"  />

      
      <glyph glyph-name="unief" unicode="&#xef;" d="M35 30L109 39L109 409L35 403L30 434L143 466L189 470L189 39L269 30L264-1L152 2L40-1L35 30M15 585L11 630L19 668L75 672L98 668L103 623L94 585L39 580L15 585M191 585L187 630L195 668L251 672L274 668L279 623L269 585L215 580L191 585Z"  horiz-adv-x="289" vert-adv-y="1000"  />

      
      <glyph glyph-name="unif0" unicode="&#xf0;" d="M320 624Q409 564 451 485Q493 406 493 293Q493 159 437 86Q381 13 267-15Q202-15 149 17Q96 49 65.50 108.50Q35 168 35 246Q35 345 87 408Q139 471 234 475L390 400Q363 521 265 597L148 540L148 595L219 630Q174 658 112 684L132 720Q215 687 271 655L400 718L400 663L320 624M269 22Q330 22 366 91Q402 160 402 285Q402 326 398 355L363 374Q327 393 298.50 403.50Q270 414 245 414Q191 414 158 366Q125 318 125 246Q125 180 145 129Q165 78 198 50Q231 22 269 22Z"  horiz-adv-x="528" vert-adv-y="1000"  />

      
      <glyph glyph-name="unif1" unicode="&#xf1;" d="M34 30L108 39L108 410L35 403L30 434L142 466L180 469L186 384L333 482Q398 482 429 466Q460 450 470 416Q480 382 480 316L480 39L561 30L556-1L444 2L352-1L347 30L400 39L400 329Q400 410 330 410Q305 410 281 398Q257 386 221 362L188 341L188 39L247 30L242-1L151 2L39-1L34 30M193 635L164 578L137 578L158 665L235 687L383 628L413 685L439 685L417 593L342 576L193 635Z"  horiz-adv-x="578" vert-adv-y="1000"  />

      
      <glyph glyph-name="unif2" unicode="&#xf2;" d="M260-15Q194-15 143.50 16.50Q93 48 65 102.50Q37 157 37 223Q37 332 98 397.50Q159 463 277 482Q342 482 392.50 450.50Q443 419 471 364Q499 309 499 243Q499 135 438 68.50Q377 2 260-15M283 31Q347 31 381.50 88Q416 145 416 229Q416 288 395.50 335Q375 382 338.50 409Q302 436 254 436Q190 436 155.50 379Q121 322 121 236Q121 184 141 137Q161 90 198 60.50Q235 31 283 31M148 710L250 710L298 549L268 549L148 710Z"  horiz-adv-x="536" vert-adv-y="1000"  />

      
      <glyph glyph-name="unif3" unicode="&#xf3;" d="M260-15Q194-15 143.50 16.50Q93 48 65 102.50Q37 157 37 223Q37 332 98 397.50Q159 463 277 482Q342 482 392.50 450.50Q443 419 471 364Q499 309 499 243Q499 135 438 68.50Q377 2 260-15M283 31Q347 31 381.50 88Q416 145 416 229Q416 288 395.50 335Q375 382 338.50 409Q302 436 254 436Q190 436 155.50 379Q121 322 121 236Q121 184 141 137Q161 90 198 60.50Q235 31 283 31M309 710L411 710L291 549L261 549L309 710Z"  horiz-adv-x="536" vert-adv-y="1000"  />

      
      <glyph glyph-name="unif4" unicode="&#xf4;" d="M260-15Q194-15 143.50 16.50Q93 48 65 102.50Q37 157 37 223Q37 332 98 397.50Q159 463 277 482Q342 482 392.50 450.50Q443 419 471 364Q499 309 499 243Q499 135 438 68.50Q377 2 260-15M283 31Q347 31 381.50 88Q416 145 416 229Q416 288 395.50 335Q375 382 338.50 409Q302 436 254 436Q190 436 155.50 379Q121 322 121 236Q121 184 141 137Q161 90 198 60.50Q235 31 283 31M234 710L302 710L407 549L369 549L287 626L268 652L249 626L167 549L129 549L234 710Z"  horiz-adv-x="536" vert-adv-y="1000"  />

      
      <glyph glyph-name="unif5" unicode="&#xf5;" d="M260-15Q194-15 143.50 16.50Q93 48 65 102.50Q37 157 37 223Q37 332 98 397.50Q159 463 277 482Q342 482 392.50 450.50Q443 419 471 364Q499 309 499 243Q499 135 438 68.50Q377 2 260-15M283 31Q347 31 381.50 88Q416 145 416 229Q416 288 395.50 335Q375 382 338.50 409Q302 436 254 436Q190 436 155.50 379Q121 322 121 236Q121 184 141 137Q161 90 198 60.50Q235 31 283 31M172 635L143 578L116 578L137 665L214 687L362 628L392 685L418 685L396 593L321 576L172 635Z"  horiz-adv-x="536" vert-adv-y="1000"  />

      
      <glyph glyph-name="unif6" unicode="&#xf6;" d="M260-15Q194-15 143.50 16.50Q93 48 65 102.50Q37 157 37 223Q37 332 98 397.50Q159 463 277 482Q342 482 392.50 450.50Q443 419 471 364Q499 309 499 243Q499 135 438 68.50Q377 2 260-15M283 31Q347 31 381.50 88Q416 145 416 229Q416 288 395.50 335Q375 382 338.50 409Q302 436 254 436Q190 436 155.50 379Q121 322 121 236Q121 184 141 137Q161 90 198 60.50Q235 31 283 31M138 585L134 630L142 668L198 672L221 668L226 623L217 585L162 580L138 585M314 585L310 630L318 668L374 672L397 668L402 623L392 585L338 580L314 585Z"  horiz-adv-x="536" vert-adv-y="1000"  />

      
      <glyph glyph-name="unif7" unicode="&#xf7;" d="M263 369L258 422L263 467L333 471L361 467L365 415L361 369L291 364L263 369M47 271L572 271L572 210L47 210L47 271M263 0L258 53L263 98L333 102L361 98L365 46L361 0L291-5L263 0Z"  horiz-adv-x="620" vert-adv-y="1000"  />

      
      <glyph glyph-name="unif8" unicode="&#xf8;" d="M436 415Q466 383 482.50 338.50Q499 294 499 243Q499 135 438 68.50Q377 2 260-15Q179-15 122 31L88-10L39-10L95 58Q67 90 52 132.50Q37 175 37 223Q37 332 98 397.50Q159 463 277 482Q351 482 409 440L440 478L487 478L436 415M121 236Q121 173 148 122L364 386Q319 436 254 436Q190 436 155.50 379Q121 322 121 236M283 31Q347 31 381.50 88Q416 145 416 229Q416 300 386 354L169 89Q191 62 220 46.50Q249 31 283 31Z"  horiz-adv-x="536" vert-adv-y="1000"  />

      
      <glyph glyph-name="unif9" unicode="&#xf9;" d="M240-15Q174-15 141.50 2Q109 19 99 53Q89 87 89 151L89 410L14 405L9 441L125 466L169 470L169 135Q169 94 186.50 75.50Q204 57 242 57Q266 57 294.50 71.50Q323 86 363 113L384 126L384 410L321 405L316 441L421 466L464 470L464 129Q464 99 466.50 83Q469 67 475 52L528 52L532 21L415-3L387 76L240-15M141 710L243 710L291 549L261 549L141 710Z"  horiz-adv-x="558" vert-adv-y="1000"  />

      
      <glyph glyph-name="unifa" unicode="&#xfa;" d="M240-15Q174-15 141.50 2Q109 19 99 53Q89 87 89 151L89 410L14 405L9 441L125 466L169 470L169 135Q169 94 186.50 75.50Q204 57 242 57Q266 57 294.50 71.50Q323 86 363 113L384 126L384 410L321 405L316 441L421 466L464 470L464 129Q464 99 466.50 83Q469 67 475 52L528 52L532 21L415-3L387 76L240-15M302 710L404 710L284 549L254 549L302 710Z"  horiz-adv-x="558" vert-adv-y="1000"  />

      
      <glyph glyph-name="unifb" unicode="&#xfb;" d="M240-15Q174-15 141.50 2Q109 19 99 53Q89 87 89 151L89 410L14 405L9 441L125 466L169 470L169 135Q169 94 186.50 75.50Q204 57 242 57Q266 57 294.50 71.50Q323 86 363 113L384 126L384 410L321 405L316 441L421 466L464 470L464 129Q464 99 466.50 83Q469 67 475 52L528 52L532 21L415-3L387 76L240-15M227 710L295 710L400 549L362 549L280 626L261 652L242 626L160 549L122 549L227 710Z"  horiz-adv-x="558" vert-adv-y="1000"  />

      
      <glyph glyph-name="unifc" unicode="&#xfc;" d="M240-15Q174-15 141.50 2Q109 19 99 53Q89 87 89 151L89 410L14 405L9 441L125 466L169 470L169 135Q169 94 186.50 75.50Q204 57 242 57Q266 57 294.50 71.50Q323 86 363 113L384 126L384 410L321 405L316 441L421 466L464 470L464 129Q464 99 466.50 83Q469 67 475 52L528 52L532 21L415-3L387 76L240-15M131 585L127 630L135 668L191 672L214 668L219 623L210 585L155 580L131 585M307 585L303 630L311 668L367 672L390 668L395 623L385 585L331 580L307 585Z"  horiz-adv-x="558" vert-adv-y="1000"  />

      
      <glyph glyph-name="unifd" unicode="&#xfd;" d="M84-146L160-146L258 10L235 3L71 427L5 437L10 468L119 465L221 468L226 437L156 427L265 123L272 59L396 427L350 437L355 468L441 465L524 468L529 437L463 427L303 14L192-235L84-235L84-146M319 710L421 710L301 549L271 549L319 710Z"  horiz-adv-x="534" vert-adv-y="1000"  />

      
      <glyph glyph-name="unife" unicode="&#xfe;" d="M20-200L94-190L94 654L20 648L15 678L128 710L174 714L174 387L298 482Q400 482 452.50 420Q505 358 505 246Q505 126 439 63Q373 0 259-15Q212-15 174 9L174-190L283-200L278-231L138-228L25-231L20-200M293 32Q351 32 386 83Q421 134 421 219Q421 306 391 361Q361 416 312 416Q273 416 207 366L174 341L174 92Q192 64 224 48Q256 32 293 32Z"  horiz-adv-x="549" vert-adv-y="1000"  />

      
      <glyph glyph-name="uniff" unicode="&#xff;" d="M84-146L160-146L258 10L235 3L71 427L5 437L10 468L119 465L221 468L226 437L156 427L265 123L272 59L396 427L350 437L355 468L441 465L524 468L529 437L463 427L303 14L192-235L84-235L84-146M148 585L144 630L152 668L208 672L231 668L236 623L227 585L172 580L148 585M324 585L320 630L328 668L384 672L407 668L412 623L402 585L348 580L324 585Z"  horiz-adv-x="534" vert-adv-y="1000"  />

      
      <glyph glyph-name="uni0100" unicode="&#x0100;" d="M234 852L510 852L510 802L234 802L234 852M11 30L94 41L348 695L385 709L655 41L736 30L731-1L606 2L470-1L465 30L554 43L482 237L232 237L164 43L254 30L249-1L125 2L16-1L11 30M465 281L366 545L358 598L247 281L465 281Z"  horiz-adv-x="747" vert-adv-y="1000"  />

      
      <glyph glyph-name="uni0101" unicode="&#x0101;" d="M173-15Q109-15 69.50 19Q30 53 30 111Q30 135 37.50 154.50Q45 174 62 200L288 276L288 324Q288 360 284.50 380.50Q281 401 267.50 413Q254 425 226 425Q188 425 137 406L119 334L46 334L46 404L218 482Q281 482 312 469Q343 456 355 422.50Q367 389 367 321L367 125Q367 95 371.50 79.50Q376 64 385 50L436 50L439 19L324-3L294 73L173-15M171 50Q190 50 206 58Q222 66 240 78L288 111L288 238L129 172Q110 152 110 119Q110 83 127.50 66.50Q145 50 171 50M75 666L351 666L351 612L75 612L75 666Z"  horiz-adv-x="444" vert-adv-y="1000"  />

      
      <glyph glyph-name="uni0102" unicode="&#x0102;" d="M387 752Q349 752 320.50 769.50Q292 787 275.50 808.50Q259 830 239 863L264 881Q287 849 310 829.50Q333 810 372 810Q411 810 437 830.50Q463 851 484 881L505 863Q501 857 488.50 834.50Q476 812 451.50 790Q427 768 387 752M11 30L94 41L348 695L385 709L655 41L736 30L731-1L606 2L470-1L465 30L554 43L482 237L232 237L164 43L254 30L249-1L125 2L16-1L11 30M465 281L366 545L358 598L247 281L465 281Z"  horiz-adv-x="747" vert-adv-y="1000"  />

      
      <glyph glyph-name="uni0103" unicode="&#x0103;" d="M173-15Q109-15 69.50 19Q30 53 30 111Q30 135 37.50 154.50Q45 174 62 200L288 276L288 324Q288 360 284.50 380.50Q281 401 267.50 413Q254 425 226 425Q188 425 137 406L119 334L46 334L46 404L218 482Q281 482 312 469Q343 456 355 422.50Q367 389 367 321L367 125Q367 95 371.50 79.50Q376 64 385 50L436 50L439 19L324-3L294 73L173-15M171 50Q190 50 206 58Q222 66 240 78L288 111L288 238L129 172Q110 152 110 119Q110 83 127.50 66.50Q145 50 171 50M231 555Q183 555 138 591.50Q93 628 77 680L105 699Q131 659 157 641.50Q183 624 217 624Q242 624 260.50 634.50Q279 645 290.50 659Q302 673 320 699L352 680Q330 640 301 609.50Q272 579 231 555Z"  horiz-adv-x="444" vert-adv-y="1000"  />

      
      <glyph glyph-name="uni0104" unicode="&#x0104;" d="M521-100L521-145Q521-185 549-200Q577-215 624-215L624-245Q526-245 482.50-218.50Q439-192 439-137L439-99L562 19L482 237L232 237L164 43L254 30L249-1L125 2L16-1L11 30L94 41L348 695L385 709L655 41L736 30L731-1L588 2L521-100M465 281L366 545L358 598L247 281L465 281Z"  horiz-adv-x="747" vert-adv-y="1000"  />

      
      <glyph glyph-name="uni0105" unicode="&#x0105;" d="M295-145Q295-185 323-200Q351-215 398-215L398-245Q300-245 256.50-218.50Q213-192 213-137L213-99L321 5L294 73L173-15Q109-15 69.50 19Q30 53 30 111Q30 135 37.50 154.50Q45 174 62 200L288 276L288 324Q288 360 284.50 380.50Q281 401 267.50 413Q254 425 226 425Q188 425 137 406L119 334L46 334L46 404L218 482Q281 482 312 469Q343 456 355 422.50Q367 389 367 321L367 125Q367 95 371.50 79.50Q376 64 385 50L436 50L439 19L364 5L295-100L295-145M288 238L129 172Q110 152 110 119Q110 83 127.50 66.50Q145 50 171 50Q190 50 206 58Q222 66 240 78L288 111L288 238Z"  horiz-adv-x="444" vert-adv-y="1000"  />

      
      <glyph glyph-name="uni0106" unicode="&#x0106;" d="M447 898L547 898L426 766L374 766L447 898M398-18Q304-18 222.50 24.50Q141 67 91.50 149Q42 231 42 343Q42 510 142 603.50Q242 697 412 718Q483 718 548.50 692.50Q614 667 653 636L653 513L602 513L570 605Q545 630 500 650.50Q455 671 400 671Q280 671 210 591.50Q140 512 140 365Q140 283 174.50 206.50Q209 130 275 81.50Q341 33 430 33Q491 33 557 85L613 194L664 194L636 62Q590 39 520 14.50Q450-10 398-18Z"  horiz-adv-x="703" vert-adv-y="1000"  />

      
      <glyph glyph-name="uni0107" unicode="&#x0107;" d="M260-15Q197-15 148 12Q99 39 71 93Q43 147 43 223Q43 332 108.50 395Q174 458 275 482Q305 482 345 467Q385 452 407 432L407 341L347 341L323 415Q309 425 294.50 429Q280 433 258 433Q221 433 191.50 408Q162 383 145 339.50Q128 296 128 241Q128 157 170.50 104Q213 51 286 51Q334 51 404 95L416 60Q349 14 260-15M306 710L408 710L288 549L258 549L306 710Z"  horiz-adv-x="441" vert-adv-y="1000"  />

      
      <glyph glyph-name="uni0108" unicode="&#x0108;" d="M364 898L442 898L547 766L497 766L414 833L402 845L392 833L309 766L259 766L364 898M398-18Q304-18 222.50 24.50Q141 67 91.50 149Q42 231 42 343Q42 510 142 603.50Q242 697 412 718Q483 718 548.50 692.50Q614 667 653 636L653 513L602 513L570 605Q545 630 500 650.50Q455 671 400 671Q280 671 210 591.50Q140 512 140 365Q140 283 174.50 206.50Q209 130 275 81.50Q341 33 430 33Q491 33 557 85L613 194L664 194L636 62Q590 39 520 14.50Q450-10 398-18Z"  horiz-adv-x="703" vert-adv-y="1000"  />

      
      <glyph glyph-name="uni0109" unicode="&#x0109;" d="M260-15Q197-15 148 12Q99 39 71 93Q43 147 43 223Q43 332 108.50 395Q174 458 275 482Q305 482 345 467Q385 452 407 432L407 341L347 341L323 415Q309 425 294.50 429Q280 433 258 433Q221 433 191.50 408Q162 383 145 339.50Q128 296 128 241Q128 157 170.50 104Q213 51 286 51Q334 51 404 95L416 60Q349 14 260-15M231 710L299 710L404 549L366 549L284 626L265 652L246 626L164 549L126 549L231 710Z"  horiz-adv-x="441" vert-adv-y="1000"  />

      
      <glyph glyph-name="uni010A" unicode="&#x010A;" d="M351 775L346 828L355 874L427 879L450 874L455 821L444 775L372 770L351 775M398-18Q304-18 222.50 24.50Q141 67 91.50 149Q42 231 42 343Q42 510 142 603.50Q242 697 412 718Q483 718 548.50 692.50Q614 667 653 636L653 513L602 513L570 605Q545 630 500 650.50Q455 671 400 671Q280 671 210 591.50Q140 512 140 365Q140 283 174.50 206.50Q209 130 275 81.50Q341 33 430 33Q491 33 557 85L613 194L664 194L636 62Q590 39 520 14.50Q450-10 398-18Z"  horiz-adv-x="703" vert-adv-y="1000"  />

      
      <glyph glyph-name="uni010B" unicode="&#x010B;" d="M260-15Q197-15 148 12Q99 39 71 93Q43 147 43 223Q43 332 108.50 395Q174 458 275 482Q305 482 345 467Q385 452 407 432L407 341L347 341L323 415Q309 425 294.50 429Q280 433 258 433Q221 433 191.50 408Q162 383 145 339.50Q128 296 128 241Q128 157 170.50 104Q213 51 286 51Q334 51 404 95L416 60Q349 14 260-15M214 586L208 642L217 688L293 694L316 688L321 633L310 586L235 580L214 586Z"  horiz-adv-x="441" vert-adv-y="1000"  />

      
      <glyph glyph-name="uni010C" unicode="&#x010C;" d="M259 898L309 898L392 832L402 819L413 832L496 898L546 898L442 766L363 766L259 898M398-18Q304-18 222.50 24.50Q141 67 91.50 149Q42 231 42 343Q42 510 142 603.50Q242 697 412 718Q483 718 548.50 692.50Q614 667 653 636L653 513L602 513L570 605Q545 630 500 650.50Q455 671 400 671Q280 671 210 591.50Q140 512 140 365Q140 283 174.50 206.50Q209 130 275 81.50Q341 33 430 33Q491 33 557 85L613 194L664 194L636 62Q590 39 520 14.50Q450-10 398-18Z"  horiz-adv-x="703" vert-adv-y="1000"  />

      
      <glyph glyph-name="uni010D" unicode="&#x010D;" d="M260-15Q197-15 148 12Q99 39 71 93Q43 147 43 223Q43 332 108.50 395Q174 458 275 482Q305 482 345 467Q385 452 407 432L407 341L347 341L323 415Q309 425 294.50 429Q280 433 258 433Q221 433 191.50 408Q162 383 145 339.50Q128 296 128 241Q128 157 170.50 104Q213 51 286 51Q334 51 404 95L416 60Q349 14 260-15M126 710L164 710L246 633L265 607L284 633L366 710L404 710L299 549L231 549L126 710Z"  horiz-adv-x="441" vert-adv-y="1000"  />

      
      <glyph glyph-name="uni010E" unicode="&#x010E;" d="M182 898L232 898L315 832L325 819L336 832L419 898L469 898L365 766L286 766L182 898M30 30L124 43L124 657L30 670L35 701L173 698L364 701Q516 702 603 615.50Q690 529 690 370Q690 205 604.50 112Q519 19 352-1L174 2L35-1L30 30M345 42Q417 43 472.50 81.50Q528 120 559 191Q590 262 590 358Q590 443 559.50 511.50Q529 580 467 620Q405 660 316 661L213 656L213 52L345 42Z"  horiz-adv-x="732" vert-adv-y="1000"  />

      
      <glyph glyph-name="uni010F" unicode="&#x010F;" d="M243-15Q181-15 134 14Q87 43 61.50 95.50Q36 148 36 217Q36 334 102 401Q168 468 283 482Q308 482 367 455L367 651L293 649L288 679L404 710L447 714L447 129Q447 81 465 54L525 54L529 21L405-3L374 72L243-15M229 57Q278 57 334 102L367 129L367 395Q349 416 321.50 427Q294 438 260 438Q196 438 158 385Q120 332 120 242Q120 158 150.50 107.50Q181 57 229 57M489 483Q502 512 513 550Q524 588 524 606L488 610L483 662L488 706L555 710L584 706L588 655L584 610L522 470L489 483Z"  horiz-adv-x="550" vert-adv-y="1000"  />

      
      <glyph glyph-name="uni0110" unicode="&#x0110;" d="M364 701Q516 702 603 615.50Q690 529 690 370Q690 205 604.50 112Q519 19 352-1L174 2L35-1L30 30L124 43L124 345L41 345L41 381L124 381L124 657L30 670L35 701L173 698L364 701M345 42Q417 43 472.50 81.50Q528 120 559 191Q590 262 590 358Q590 443 559.50 511.50Q529 580 467 620Q405 660 316 661L213 656L213 381L343 381L343 345L213 345L213 52L345 42Z"  horiz-adv-x="732" vert-adv-y="1000"  />

      
      <glyph glyph-name="uni0111" unicode="&#x0111;" d="M529 21L405-3L374 72L243-15Q181-15 134 14Q87 43 61.50 95.50Q36 148 36 217Q36 334 102 401Q168 468 283 482Q308 482 367 455L367 560L229 560L229 598L367 598L367 651L293 649L288 679L404 710L447 714L447 598L528 598L528 560L447 560L447 129Q447 81 465 54L525 54L529 21M367 395Q349 416 321.50 427Q294 438 260 438Q196 438 158 385Q120 332 120 242Q120 158 150.50 107.50Q181 57 229 57Q278 57 334 102L367 129L367 395Z"  horiz-adv-x="550" vert-adv-y="1000"  />

      
      <glyph glyph-name="uni0112" unicode="&#x0112;" d="M201 852L477 852L477 802L201 802L201 852M30 30L124 43L124 657L30 670L35 701L173 698L562 701L571 525L543 525L488 655L213 658L213 385L361 389L401 494L431 494L421 373L431 240L401 240L361 344L213 348L213 42L498 45L565 180L598 180L562-1L173 2L35-1L30 30Z"  horiz-adv-x="625" vert-adv-y="1000"  />

      
      <glyph glyph-name="uni0113" unicode="&#x0113;" d="M433 58Q399 36 353 16.50Q307-3 263-15Q203-15 151.50 13Q100 41 68.50 96.50Q37 152 37 229Q37 339 97.50 400.50Q158 462 258 482Q350 482 390 431.50Q430 381 430 295L430 257L120 257Q122 159 167 105Q212 51 294 51Q320 51 353.50 63Q387 75 419 94L433 58M238 436Q192 436 160 398.50Q128 361 121 297L338 305Q338 370 317.50 403Q297 436 238 436M122 666L398 666L398 612L122 612L122 666Z"  horiz-adv-x="469" vert-adv-y="1000"  />

      
      <glyph glyph-name="uni0114" unicode="&#x0114;" d="M354 752Q316 752 287.50 769.50Q259 787 242.50 808.50Q226 830 206 863L231 881Q254 849 277 829.50Q300 810 339 810Q378 810 404 830.50Q430 851 451 881L472 863Q468 857 455.50 834.50Q443 812 418.50 790Q394 768 354 752M30 30L124 43L124 657L30 670L35 701L173 698L562 701L571 525L543 525L488 655L213 658L213 385L361 389L401 494L431 494L421 373L431 240L401 240L361 344L213 348L213 42L498 45L565 180L598 180L562-1L173 2L35-1L30 30Z"  horiz-adv-x="625" vert-adv-y="1000"  />

      
      <glyph glyph-name="uni0115" unicode="&#x0115;" d="M433 58Q399 36 353 16.50Q307-3 263-15Q203-15 151.50 13Q100 41 68.50 96.50Q37 152 37 229Q37 339 97.50 400.50Q158 462 258 482Q350 482 390 431.50Q430 381 430 295L430 257L120 257Q122 159 167 105Q212 51 294 51Q320 51 353.50 63Q387 75 419 94L433 58M238 436Q192 436 160 398.50Q128 361 121 297L338 305Q338 370 317.50 403Q297 436 238 436M278 555Q230 555 185 591.50Q140 628 124 680L152 699Q178 659 204 641.50Q230 624 264 624Q289 624 307.50 634.50Q326 645 337.50 659Q349 673 367 699L399 680Q377 640 348 609.50Q319 579 278 555Z"  horiz-adv-x="469" vert-adv-y="1000"  />

      
      <glyph glyph-name="uni0116" unicode="&#x0116;" d="M289 775L284 828L293 874L365 879L388 874L393 821L382 775L310 770L289 775M30 30L124 43L124 657L30 670L35 701L173 698L562 701L571 525L543 525L488 655L213 658L213 385L361 389L401 494L431 494L421 373L431 240L401 240L361 344L213 348L213 42L498 45L565 180L598 180L562-1L173 2L35-1L30 30Z"  horiz-adv-x="625" vert-adv-y="1000"  />

      
      <glyph glyph-name="uni0117" unicode="&#x0117;" d="M433 58Q399 36 353 16.50Q307-3 263-15Q203-15 151.50 13Q100 41 68.50 96.50Q37 152 37 229Q37 339 97.50 400.50Q158 462 258 482Q350 482 390 431.50Q430 381 430 295L430 257L120 257Q122 159 167 105Q212 51 294 51Q320 51 353.50 63Q387 75 419 94L433 58M238 436Q192 436 160 398.50Q128 361 121 297L338 305Q338 370 317.50 403Q297 436 238 436M209 586L203 642L212 688L288 694L311 688L316 633L305 586L230 580L209 586Z"  horiz-adv-x="469" vert-adv-y="1000"  />

      
      <glyph glyph-name="uni0118" unicode="&#x0118;" d="M437-100L437-145Q437-185 465-200Q493-215 540-215L540-245Q441-245 398-218.50Q355-192 355-137L355-99L458 0L173 2L35-1L30 30L124 43L124 657L30 670L35 701L173 698L562 701L571 525L543 525L488 655L213 658L213 385L361 389L401 494L431 494L421 373L431 240L401 240L361 344L213 348L213 42L498 45L565 180L598 180L562-1L502-1L437-100Z"  horiz-adv-x="625" vert-adv-y="1000"  />

      
      <glyph glyph-name="uni0119" unicode="&#x0119;" d="M250-145Q250-185 278-200Q306-215 353-215L353-245Q255-245 211.50-218.50Q168-192 168-137L168-99L256-15Q197-13 147 15.50Q97 44 67 98.50Q37 153 37 229Q37 339 97.50 400.50Q158 462 258 482Q350 482 390 431.50Q430 381 430 295L430 257L120 257Q122 159 167 105Q212 51 294 51Q320 51 353.50 63Q387 75 419 94L433 58Q382 26 317 3L250-100L250-145M238 436Q192 436 160 398.50Q128 361 121 297L338 305Q338 370 317.50 403Q297 436 238 436Z"  horiz-adv-x="469" vert-adv-y="1000"  />

      
      <glyph glyph-name="uni011A" unicode="&#x011A;" d="M195 898L245 898L328 832L338 819L349 832L432 898L482 898L378 766L299 766L195 898M30 30L124 43L124 657L30 670L35 701L173 698L562 701L571 525L543 525L488 655L213 658L213 385L361 389L401 494L431 494L421 373L431 240L401 240L361 344L213 348L213 42L498 45L565 180L598 180L562-1L173 2L35-1L30 30Z"  horiz-adv-x="625" vert-adv-y="1000"  />

      
      <glyph glyph-name="uni011B" unicode="&#x011B;" d="M433 58Q399 36 353 16.50Q307-3 263-15Q203-15 151.50 13Q100 41 68.50 96.50Q37 152 37 229Q37 339 97.50 400.50Q158 462 258 482Q350 482 390 431.50Q430 381 430 295L430 257L120 257Q122 159 167 105Q212 51 294 51Q320 51 353.50 63Q387 75 419 94L433 58M238 436Q192 436 160 398.50Q128 361 121 297L338 305Q338 370 317.50 403Q297 436 238 436M121 710L159 710L241 633L260 607L279 633L361 710L399 710L294 549L226 549L121 710Z"  horiz-adv-x="469" vert-adv-y="1000"  />

      
      <glyph glyph-name="uni011C" unicode="&#x011C;" d="M372 898L450 898L555 766L505 766L422 833L410 845L400 833L317 766L267 766L372 898M388-18Q294-18 215 24Q136 66 89 148Q42 230 42 344Q42 509 137 600.50Q232 692 402 718Q475 718 544.50 692Q614 666 649 637L649 513L605 513L573 601Q545 628 498 649.50Q451 671 389 671Q314 671 258 634.50Q202 598 171 529Q140 460 140 365Q140 281 175 204.50Q210 128 273.50 80.50Q337 33 418 33Q462 33 499 51.50Q536 70 558 92L558 284L468 297L473 327L603 324L711 327L715 297L647 284L647 60Q571 33 505.50 12Q440-9 388-18Z"  horiz-adv-x="742" vert-adv-y="1000"  />

      
      <glyph glyph-name="uni011D" unicode="&#x011D;" d="M235-245Q125-245 73-209.50Q21-174 21-103L21-88L127 0Q94 13 79 27.50Q64 42 61 57.50Q58 73 58 101L58 103L156 173Q108 189 80 222.50Q52 256 52 301Q52 365 97 411Q142 457 240 482Q283 482 322 468Q361 454 384 428L441 482L498 482L498 409L445 409L407 391Q418 367 418 341Q418 209 230 162Q207 162 197 163L136 94Q136 79 145.50 69Q155 59 171 59L354 59Q420 59 451.50 33Q483 7 483-40Q483-78 452-117.50Q421-157 364.50-190.50Q308-224 235-245M245 207Q287 207 311 232Q335 257 335 300Q335 349 310 394Q285 439 226 439Q183 439 159 410.50Q135 382 135 332Q135 307 145 278Q155 249 179.50 228Q204 207 245 207M238-191Q279-191 315.50-174Q352-157 375-127Q398-97 398-61Q398-33 374.50-21.50Q351-10 296-10L160-10Q121-54 110-73.50Q99-93 99-107Q99-144 138.50-167.50Q178-191 238-191M218 710L286 710L391 549L353 549L271 626L252 652L233 626L151 549L113 549L218 710Z"  horiz-adv-x="503" vert-adv-y="1000"  />

      
      <glyph glyph-name="uni011E" unicode="&#x011E;" d="M426 752Q388 752 359.50 769.50Q331 787 314.50 808.50Q298 830 278 863L303 881Q326 849 349 829.50Q372 810 411 810Q450 810 476 830.50Q502 851 523 881L544 863Q540 857 527.50 834.50Q515 812 490.50 790Q466 768 426 752M388-18Q294-18 215 24Q136 66 89 148Q42 230 42 344Q42 509 137 600.50Q232 692 402 718Q475 718 544.50 692Q614 666 649 637L649 513L605 513L573 601Q545 628 498 649.50Q451 671 389 671Q314 671 258 634.50Q202 598 171 529Q140 460 140 365Q140 281 175 204.50Q210 128 273.50 80.50Q337 33 418 33Q462 33 499 51.50Q536 70 558 92L558 284L468 297L473 327L603 324L711 327L715 297L647 284L647 60Q571 33 505.50 12Q440-9 388-18Z"  horiz-adv-x="742" vert-adv-y="1000"  />

      
      <glyph glyph-name="uni011F" unicode="&#x011F;" d="M235-245Q125-245 73-209.50Q21-174 21-103L21-88L127 0Q94 13 79 27.50Q64 42 61 57.50Q58 73 58 101L58 103L156 173Q108 189 80 222.50Q52 256 52 301Q52 365 97 411Q142 457 240 482Q283 482 322 468Q361 454 384 428L441 482L498 482L498 409L445 409L407 391Q418 367 418 341Q418 209 230 162Q207 162 197 163L136 94Q136 79 145.50 69Q155 59 171 59L354 59Q420 59 451.50 33Q483 7 483-40Q483-78 452-117.50Q421-157 364.50-190.50Q308-224 235-245M245 207Q287 207 311 232Q335 257 335 300Q335 349 310 394Q285 439 226 439Q183 439 159 410.50Q135 382 135 332Q135 307 145 278Q155 249 179.50 228Q204 207 245 207M238-191Q279-191 315.50-174Q352-157 375-127Q398-97 398-61Q398-33 374.50-21.50Q351-10 296-10L160-10Q121-54 110-73.50Q99-93 99-107Q99-144 138.50-167.50Q178-191 238-191M270 555Q222 555 177 591.50Q132 628 116 680L144 699Q170 659 196 641.50Q222 624 256 624Q281 624 299.50 634.50Q318 645 329.50 659Q341 673 359 699L391 680Q369 640 340 609.50Q311 579 270 555Z"  horiz-adv-x="503" vert-adv-y="1000"  />

      
      <glyph glyph-name="uni0120" unicode="&#x0120;" d="M361 775L356 828L365 874L437 879L460 874L465 821L454 775L382 770L361 775M388-18Q294-18 215 24Q136 66 89 148Q42 230 42 344Q42 509 137 600.50Q232 692 402 718Q475 718 544.50 692Q614 666 649 637L649 513L605 513L573 601Q545 628 498 649.50Q451 671 389 671Q314 671 258 634.50Q202 598 171 529Q140 460 140 365Q140 281 175 204.50Q210 128 273.50 80.50Q337 33 418 33Q462 33 499 51.50Q536 70 558 92L558 284L468 297L473 327L603 324L711 327L715 297L647 284L647 60Q571 33 505.50 12Q440-9 388-18Z"  horiz-adv-x="742" vert-adv-y="1000"  />

      
      <glyph glyph-name="uni0121" unicode="&#x0121;" d="M235-245Q125-245 73-209.50Q21-174 21-103L21-88L127 0Q94 13 79 27.50Q64 42 61 57.50Q58 73 58 101L58 103L156 173Q108 189 80 222.50Q52 256 52 301Q52 365 97 411Q142 457 240 482Q283 482 322 468Q361 454 384 428L441 482L498 482L498 409L445 409L407 391Q418 367 418 341Q418 209 230 162Q207 162 197 163L136 94Q136 79 145.50 69Q155 59 171 59L354 59Q420 59 451.50 33Q483 7 483-40Q483-78 452-117.50Q421-157 364.50-190.50Q308-224 235-245M245 207Q287 207 311 232Q335 257 335 300Q335 349 310 394Q285 439 226 439Q183 439 159 410.50Q135 382 135 332Q135 307 145 278Q155 249 179.50 228Q204 207 245 207M238-191Q279-191 315.50-174Q352-157 375-127Q398-97 398-61Q398-33 374.50-21.50Q351-10 296-10L160-10Q121-54 110-73.50Q99-93 99-107Q99-144 138.50-167.50Q178-191 238-191M201 586L195 642L204 688L280 694L303 688L308 633L297 586L222 580L201 586Z"  horiz-adv-x="503" vert-adv-y="1000"  />

      
      <glyph glyph-name="uni0122" unicode="&#x0122;" d="M388-18Q294-18 215 24Q136 66 89 148Q42 230 42 344Q42 509 137 600.50Q232 692 402 718Q475 718 544.50 692Q614 666 649 637L649 513L605 513L573 601Q545 628 498 649.50Q451 671 389 671Q314 671 258 634.50Q202 598 171 529Q140 460 140 365Q140 281 175 204.50Q210 128 273.50 80.50Q337 33 418 33Q462 33 499 51.50Q536 70 558 92L558 284L468 297L473 327L603 324L711 327L715 297L647 284L647 60Q571 33 505.50 12Q440-9 388-18M359-226L382-125L359-90L359-50L448-50L448-130L382-236L359-226Z"  horiz-adv-x="742" vert-adv-y="1000"  />

      
      <glyph glyph-name="uni0123" unicode="&#x0123;" d="M235-245Q125-245 73-209.50Q21-174 21-103L21-88L127 0Q94 13 79 27.50Q64 42 61 57.50Q58 73 58 101L58 103L156 173Q108 189 80 222.50Q52 256 52 301Q52 365 97 411Q142 457 240 482Q283 482 322 468Q361 454 384 428L441 482L498 482L498 409L445 409L407 391Q418 367 418 341Q418 209 230 162Q207 162 197 163L136 94Q136 79 145.50 69Q155 59 171 59L354 59Q420 59 451.50 33Q483 7 483-40Q483-78 452-117.50Q421-157 364.50-190.50Q308-224 235-245M245 207Q287 207 311 232Q335 257 335 300Q335 349 310 394Q285 439 226 439Q183 439 159 410.50Q135 382 135 332Q135 307 145 278Q155 249 179.50 228Q204 207 245 207M238-191Q279-191 315.50-174Q352-157 375-127Q398-97 398-61Q398-33 374.50-21.50Q351-10 296-10L160-10Q121-54 110-73.50Q99-93 99-107Q99-144 138.50-167.50Q178-191 238-191M206 619L265 715L298 705L275 624L298 589L298 549L206 549L206 619Z"  horiz-adv-x="503" vert-adv-y="1000"  />

      
      <glyph glyph-name="uni0124" unicode="&#x0124;" d="M339 898L417 898L522 766L472 766L389 833L377 845L367 833L284 766L234 766L339 898M30 30L124 43L124 657L30 670L35 701L169 698L298 701L303 670L213 657L213 386L549 386L549 657L453 670L458 701L594 698L721 701L726 670L638 657L638 43L726 30L721-1L594 2L458-1L453 30L549 43L549 340L213 340L213 43L303 30L298-1L169 2L35-1L30 30Z"  horiz-adv-x="756" vert-adv-y="1000"  />

      
      <glyph glyph-name="uni0125" unicode="&#x0125;" d="M104 898L182 898L287 766L237 766L154 833L142 845L132 833L49 766L-1 766L104 898M35 30L109 39L109 651L36 649L31 678L143 710L189 714L189 387L334 482Q398 482 429.50 464Q461 446 471 409Q481 372 481 302L481 39L561 30L556-1L444 2L354-1L349 30L401 39L401 329Q401 410 334 410Q313 410 286 397.50Q259 385 222 362L189 342L189 39L248 30L243-1L152 2L40-1L35 30Z"  horiz-adv-x="578" vert-adv-y="1000"  />

      
      <glyph glyph-name="uni0126" unicode="&#x0126;" d="M638 43L726 30L721-1L594 2L458-1L453 30L549 43L549 340L213 340L213 43L303 30L298-1L169 2L35-1L30 30L124 43L124 657L30 670L35 701L169 698L298 701L303 670L213 657L213 508L549 508L549 657L453 670L458 701L594 698L721 701L726 670L638 657L638 43M549 386L549 470L213 470L213 386L549 386Z"  horiz-adv-x="756" vert-adv-y="1000"  />

      
      <glyph glyph-name="uni0127" unicode="&#x0127;" d="M561 30L556-1L444 2L354-1L349 30L401 39L401 329Q401 410 334 410Q313 410 286 397.50Q259 385 222 362L189 342L189 39L248 30L243-1L152 2L40-1L35 30L109 39L109 561L28 561L28 599L109 599L109 651L36 649L31 678L143 710L189 714L189 599L333 599L333 561L189 561L189 387L334 482Q398 482 429.50 464Q461 446 471 409Q481 372 481 302L481 39L561 30Z"  horiz-adv-x="578" vert-adv-y="1000"  />

      
      <glyph glyph-name="uni0128" unicode="&#x0128;" d="M43 860L118 882L267 832L304 886L326 886L304 797L228 774L80 824L42 770L20 770L43 860M30 31L124 44L124 657L30 670L35 701L169 698L302 701L307 670L213 657L213 44L307 31L302-1L169 2L35-1L30 31Z"  horiz-adv-x="337" vert-adv-y="1000"  />

      
      <glyph glyph-name="uni0129" unicode="&#x0129;" d="M35 30L109 39L109 409L35 403L30 434L143 466L189 470L189 39L269 30L264-1L152 2L40-1L35 30M49 635L20 578L-7 578L14 665L91 687L239 628L269 685L295 685L273 593L198 576L49 635Z"  horiz-adv-x="289" vert-adv-y="1000"  />

      
      <glyph glyph-name="uni012A" unicode="&#x012A;" d="M31 852L307 852L307 802L31 802L31 852M30 31L124 44L124 657L30 670L35 701L169 698L302 701L307 670L213 657L213 44L307 31L302-1L169 2L35-1L30 31Z"  horiz-adv-x="337" vert-adv-y="1000"  />

      
      <glyph glyph-name="uni012B" unicode="&#x012B;" d="M35 30L109 39L109 409L35 403L30 434L143 466L189 470L189 39L269 30L264-1L152 2L40-1L35 30M7 666L283 666L283 612L7 612L7 666Z"  horiz-adv-x="289" vert-adv-y="1000"  />

      
      <glyph glyph-name="uni012C" unicode="&#x012C;" d="M184 752Q146 752 117.50 769.50Q89 787 72.50 808.50Q56 830 36 863L61 881Q84 849 107 829.50Q130 810 169 810Q208 810 234 830.50Q260 851 281 881L302 863Q298 857 285.50 834.50Q273 812 248.50 790Q224 768 184 752M30 31L124 44L124 657L30 670L35 701L169 698L302 701L307 670L213 657L213 44L307 31L302-1L169 2L35-1L30 31Z"  horiz-adv-x="337" vert-adv-y="1000"  />

      
      <glyph glyph-name="uni012D" unicode="&#x012D;" d="M35 30L109 39L109 409L35 403L30 434L143 466L189 470L189 39L269 30L264-1L152 2L40-1L35 30M163 555Q115 555 70 591.50Q25 628 9 680L37 699Q63 659 89 641.50Q115 624 149 624Q174 624 192.50 634.50Q211 645 222.50 659Q234 673 252 699L284 680Q262 640 233 609.50Q204 579 163 555Z"  horiz-adv-x="289" vert-adv-y="1000"  />

      
      <glyph glyph-name="uni012E" unicode="&#x012E;" d="M213 44L307 31L302-1L182 2L115-100L115-145Q115-185 143-200Q171-215 218-215L218-245Q120-245 76.50-218.50Q33-192 33-137L33-99L137 1L35-1L30 31L124 44L124 657L30 670L35 701L169 698L302 701L307 670L213 657L213 44Z"  horiz-adv-x="337" vert-adv-y="1000"  />

      
      <glyph glyph-name="uni012F" unicode="&#x012F;" d="M98 591L92 643L101 688L166 693L192 688L197 636L187 591L123 585L98 591M99-100L99-145Q99-185 127-200Q155-215 202-215L202-245Q104-245 60.50-218.50Q17-192 17-137L17-99L121 1L40-1L35 30L109 39L109 409L35 403L30 434L143 466L189 470L189 39L269 30L264-1L166 2L99-100Z"  horiz-adv-x="289" vert-adv-y="1000"  />

      
      <glyph glyph-name="uni0130" unicode="&#x0130;" d="M119 775L114 828L123 874L195 879L218 874L223 821L212 775L140 770L119 775M30 31L124 44L124 657L30 670L35 701L169 698L302 701L307 670L213 657L213 44L307 31L302-1L169 2L35-1L30 31Z"  horiz-adv-x="337" vert-adv-y="1000"  />

      
      <glyph glyph-name="uni0131" unicode="&#x0131;" d="M35 30L109 39L109 409L35 403L30 434L143 466L189 470L189 39L269 30L264-1L152 2L40-1L35 30Z"  horiz-adv-x="289" vert-adv-y="1000"  />

      
      <glyph glyph-name="uni0132" unicode="&#x0132;" d="M30 31L124 44L124 657L30 670L35 701L169 698L302 701L307 670L213 657L213 44L307 31L302-1L169 2L35-1L30 31M336-95L438-95L447-74Q458-48 461-17Q464 14 464 95L464 657L354 670L359 701L509 698L637 701L642 670L553 657L553 87L554 20Q554-6 549-23Q544-40 529-57L423-175L336-175L336-95Z"  horiz-adv-x="667" vert-adv-y="1000"  />

      
      <glyph glyph-name="uni0133" unicode="&#x0133;" d="M35 30L109 39L109 409L35 403L30 434L143 466L189 470L189 39L269 30L264-1L152 2L40-1L35 30M98 591L92 643L101 688L166 693L192 688L197 636L187 591L123 585L98 591M272-156L365-156L376-134Q386-115 391.50-93Q397-71 397-29L397 409L323 403L318 434L431 466L477 470L477-15Q477-52 468-79.50Q459-107 435-137L351-235L272-235L272-156M390 591L384 643L393 688L458 693L484 688L489 636L479 591L415 585L390 591Z"  horiz-adv-x="550" vert-adv-y="1000"  />

      
      <glyph glyph-name="uni0134" unicode="&#x0134;" d="M126 898L204 898L309 766L259 766L176 833L164 845L154 833L71 766L21 766L126 898M-1-95L101-95L110-74Q121-48 124-17Q127 14 127 95L127 657L17 670L22 701L172 698L300 701L305 670L216 657L216 87L217 20Q217-6 212-23Q207-40 192-57L86-175L-1-175L-1-95Z"  horiz-adv-x="330" vert-adv-y="1000"  />

      
      </font>
</defs>
</svg>
