<?xml version="1.0" standalone="no"?>
  <!DOCTYPE svg PUBLIC "-//W3C//DTD SVG 1.1//EN" "http://www.w3.org/Graphics/SVG/1.1/DTD/svg11.dtd" >
  <svg>
  <metadata>
  Created by font-carrier
  </metadata>
  <defs>
  <font id="GTSectra-Regular" horiz-adv-x="1205" vert-adv-y="1205" >
    <font-face
      
      font-family="GTSectra-Regular"
      
      font-weight="400"
      
      font-stretch="normal"
      
      units-per-em="1000"
      
      ascent="980"
      
      descent="-260"
      
    />
      <missing-glyph />

      

      
      <glyph glyph-name="uni21" unicode="&#x21;" d="M94 420L89 710L184 710L179 421L154 235L119 235L94 420M85 0L80 57L85 105L160 110L190 105L195 49L190 0L115-5L85 0Z"  horiz-adv-x="275" vert-adv-y="1000"  />

      
      <glyph glyph-name="uni22" unicode="&#x22;" d="M49 641L54 705L159 705L164 641L121 456L92 456L49 641M209 641L214 705L319 705L324 641L281 456L252 456L209 641Z"  horiz-adv-x="370" vert-adv-y="1000"  />

      
      <glyph glyph-name="uni23" unicode="&#x23;" d="M169 195L40 195L46 245L176 245L196 410L68 410L74 460L202 460L226 655L281 655L257 460L402 460L426 655L481 655L457 460L589 460L583 410L451 410L431 245L561 245L555 195L424 195L401 0L346 0L369 195L224 195L201 0L146 0L169 195M376 245L396 410L251 410L231 245L376 245Z"  horiz-adv-x="629" vert-adv-y="1000"  />

      
      <glyph glyph-name="uni24" unicode="&#x24;" d="M525 206Q525 138 477.50 82.50Q430 27 327-4L327-80L277-80L277-17L273-18Q207-18 157.50-0.50Q108 17 66 50L44 185L114 185L149 100Q170 74 204.50 57Q239 40 277 37L277 317L201 350Q139 377 104.50 415.50Q70 454 70 516Q70 588 125.50 637Q181 686 277 711L277 781L327 781L327 717Q371 715 415 700Q459 685 492 660L492 525L442 525L413 616Q376 654 327 663L327 414L378 392Q446 363 485.50 319.50Q525 276 525 206M277 436L277 664Q226 660 197.50 631Q169 602 169 555Q169 516 193.50 488.50Q218 461 263 442L277 436M327 41Q374 51 400 84Q426 117 426 164Q426 250 327 295L327 41Z"  horiz-adv-x="572" vert-adv-y="1000"  />

      
      <glyph glyph-name="uni25" unicode="&#x25;" d="M190 358Q121 358 80.50 405Q40 452 40 527Q40 603 81 647.50Q122 692 214 706Q284 706 324 659Q364 612 364 537Q364 461 323 417Q282 373 190 358M619 705L686 705L191-5L124-5L619 705M208 391Q245 391 263 427.50Q281 464 281 523Q281 591 260 632.50Q239 674 196 674Q160 674 141.50 637Q123 600 123 542Q123 474 144 432.50Q165 391 208 391M572-6Q503-6 462.50 41Q422 88 422 163Q422 239 463 283.50Q504 328 596 342Q666 342 706 295Q746 248 746 173Q746 97 705 53Q664 9 572-6M590 27Q627 27 645 63.50Q663 100 663 159Q663 227 642 268.50Q621 310 578 310Q542 310 523.50 273Q505 236 505 178Q505 110 526 68.50Q547 27 590 27Z"  horiz-adv-x="786" vert-adv-y="1000"  />

      
      <glyph glyph-name="uni26" unicode="&#x26;" d="M278-18Q213-18 159.50 5Q106 28 75.50 70.50Q45 113 45 167Q45 217 63.50 254Q82 291 106.50 314.50Q131 338 167 364L193 383Q146 433 124.50 469.50Q103 506 103 545Q103 606 148 646Q193 686 295 718Q341 718 378 699.50Q415 681 435.50 650.50Q456 620 456 585Q456 548 436.50 518Q417 488 388.50 464Q360 440 306 402L476 213L546 326L503 334L508 367L586 364L682 367L687 334L618 324L513 175L634 45L685 35L680 0L605 1L540 0L453 95Q427 66 383.50 35.50Q340 5 278-18M277 435Q323 473 340.50 500.50Q358 528 358 570Q358 612 337 640Q316 668 280 668Q245 668 221.50 643Q198 618 198 575Q198 545 219 512.50Q240 480 277 435M285 56Q353 56 418 133L225 349Q185 317 165 283Q145 249 145 193Q145 157 163.50 125.50Q182 94 214 75Q246 56 285 56Z"  horiz-adv-x="722" vert-adv-y="1000"  />

      
      <glyph glyph-name="uni27" unicode="&#x27;" d="M49 637L54 705L159 705L164 637L121 456L92 456L49 637Z"  horiz-adv-x="205" vert-adv-y="1000"  />

      
      <glyph glyph-name="uni28" unicode="&#x28;" d="M234-238Q155-133 118-69.50Q81-6 63 67Q45 140 45 249Q45 359 63 433.50Q81 508 120 572Q159 636 234 726L259 703Q188 605 159 503Q130 401 130 251Q130-37 259-215L234-238Z"  horiz-adv-x="274" vert-adv-y="1000"  />

      
      <glyph glyph-name="uni29" unicode="&#x29;" d="M15-215Q144-37 144 251Q144 401 115 503Q86 605 15 703L40 726Q115 636 154 572Q193 508 211 433.50Q229 359 229 249Q229 140 211 67Q193-6 156-69.50Q119-133 40-238L15-215Z"  horiz-adv-x="274" vert-adv-y="1000"  />

      
      <glyph glyph-name="uni2a" unicode="&#x2a;" d="M84 451L170 545L45 570L68 641L182 590L169 715L244 715L232 590L345 641L368 570L245 545L329 451L268 407L206 513L145 407L84 451Z"  horiz-adv-x="413" vert-adv-y="1000"  />

      
      <glyph glyph-name="uni2b" unicode="&#x2b;" d="M277 220L52 220L52 285L277 285L277 515L342 515L342 285L567 285L567 220L342 220L342 0L277 0L277 220Z"  horiz-adv-x="620" vert-adv-y="1000"  />

      
      <glyph glyph-name="uni2c" unicode="&#x2c;" d="M73-130Q86-100 98-61Q110-22 110-4L70 0L65 57L70 105L145 110L175 105L180 49L175 0L110-145L73-130Z"  horiz-adv-x="210" vert-adv-y="1000"  />

      
      <glyph glyph-name="uni2d" unicode="&#x2d;" d="M35 307L335 307L335 242L35 242L35 307Z"  horiz-adv-x="370" vert-adv-y="1000"  />

      
      <glyph glyph-name="uni2e" unicode="&#x2e;" d="M75 0L70 57L75 105L150 110L180 105L185 49L180 0L105-5L75 0Z"  horiz-adv-x="225" vert-adv-y="1000"  />

      
      <glyph glyph-name="uni2f" unicode="&#x2f;" d="M443 718L504 718L53-230L-10-230L443 718Z"  horiz-adv-x="498" vert-adv-y="1000"  />

      
      <glyph glyph-name="uni30" unicode="&#x30;" d="M290-15Q222-15 164.50 16.50Q107 48 73.50 102.50Q40 157 40 225Q40 422 300 485Q368 485 425.50 453.50Q483 422 516.50 367.50Q550 313 550 245Q550 48 290-15M310 40Q370 40 405 91.50Q440 143 440 215Q440 309 399.50 369.50Q359 430 280 430Q220 430 185 378.50Q150 327 150 255Q150 161 190.50 100.50Q231 40 310 40Z"  horiz-adv-x="590" vert-adv-y="1000"  />

      
      <glyph glyph-name="uni31" unicode="&#x31;" d="M35 34L190 51L190 370L195 388L153 368L43 344L25 380L250 475L290 475L290 51L445 34L440-1L240 2L40-1L35 34Z"  horiz-adv-x="460" vert-adv-y="1000"  />

      
      <glyph glyph-name="uni32" unicode="&#x32;" d="M20 43L197 177Q271 233 303.50 269.50Q336 306 336 345Q336 382 314 406Q292 430 246 430Q214 430 183 412L147 305L73 305L73 414L262 485Q345 485 393 449.50Q441 414 441 355Q441 310 420.50 276Q400 242 362.50 213.50Q325 185 261 148L113 64L218 90L492 90L492 60L466 0L40 0L20 43Z"  horiz-adv-x="522" vert-adv-y="1000"  />

      
      <glyph glyph-name="uni33" unicode="&#x33;" d="M25-140L239-140Q281-119 304.50-82.50Q328-46 328-2Q328 55 278 88.50Q228 122 144 122L134 150L180 170Q242 197 270.50 234Q299 271 299 325Q299 371 274.50 400.50Q250 430 213 430Q175 430 145 412L109 305L35 305L35 414L224 485Q305 485 352 448.50Q399 412 399 350Q399 292 364 246Q329 200 263 172Q338 167 385.50 125.50Q433 84 433 25Q433-27 413.50-63.50Q394-100 348.50-131Q303-162 220-197L140-230L25-230L25-140Z"  horiz-adv-x="473" vert-adv-y="1000"  />

      
      <glyph glyph-name="uni34" unicode="&#x34;" d="M315 0L45 0L10 39L337 470L438 470L438 434L99 50L138 65L315 65L315 171L384 230L410 230L410 65L549 65L549 0L410 0L410-230L315-230L315 0Z"  horiz-adv-x="564" vert-adv-y="1000"  />

      
      <glyph glyph-name="uni35" unicode="&#x35;" d="M45-140L252-140Q295-118 321.50-77.50Q348-37 348 6Q348 68 308 106.50Q268 145 204 145Q176 145 155 141Q134 137 109 126L76 113L48 129L90 470L438 470L438 439L414 381L132 381L106 176L219 235Q289 235 342 210.50Q395 186 424.50 142.50Q454 99 454 46Q454-11 432.50-53Q411-95 364-129.50Q317-164 235-197L155-230L45-230L45-140Z"  horiz-adv-x="484" vert-adv-y="1000"  />

      
      <glyph glyph-name="uni36" unicode="&#x36;" d="M304 448Q364 448 409 421Q454 394 479 344Q504 294 504 229Q504 134 444 73.50Q384 13 262-15Q198-15 150 20Q102 55 76 119.50Q50 184 50 269Q50 578 416 721L431 680Q334 633 277 586Q220 539 192.50 480.50Q165 422 161 340L304 448M282 34Q335 34 369 82.50Q403 131 403 209Q403 279 373.50 322.50Q344 366 296 366Q275 366 254.50 356Q234 346 202 321L160 287Q162 163 192.50 98.50Q223 34 282 34Z"  horiz-adv-x="549" vert-adv-y="1000"  />

      
      <glyph glyph-name="uni37" unicode="&#x37;" d="M101-198L368 355L391 380L20 380L20 470L460 470L478 449L193-230L101-230L101-198Z"  horiz-adv-x="498" vert-adv-y="1000"  />

      
      <glyph glyph-name="uni38" unicode="&#x38;" d="M349 381Q426 335 467.50 291Q509 247 509 190Q509 109 449 60Q389 11 269-15Q207-15 157 9.50Q107 34 78.50 75.50Q50 117 50 167Q50 225 86 275Q122 325 198 360Q136 397 103.50 440Q71 483 71 535Q71 599 126 644.50Q181 690 289 715Q350 715 396.50 696.50Q443 678 468 644.50Q493 611 493 568Q493 457 349 381M276 665Q230 665 202 636.50Q174 608 174 562Q174 518 212 480Q250 442 314 402Q355 431 372.50 462.50Q390 494 390 539Q390 592 360.50 628.50Q331 665 276 665M281 35Q332 35 369 68Q406 101 406 155Q406 198 378 232.50Q350 267 321.50 285.50Q293 304 232 340Q188 311 170.50 277.50Q153 244 153 190Q153 149 169.50 113.50Q186 78 215 56.50Q244 35 281 35Z"  horiz-adv-x="560" vert-adv-y="1000"  />

      
      <glyph glyph-name="uni39" unicode="&#x39;" d="M282 485Q346 485 394 450Q442 415 468 351Q494 287 494 203Q494 52 405.50-58.50Q317-169 133-243L118-202Q212-155 266.50-110Q321-65 348-8Q375 49 381 130L240 24Q181 24 135.50 51Q90 78 65 127Q40 176 40 241Q40 338 99 397.50Q158 457 282 485M383 183L383 189Q383 436 263 436Q207 436 174 388Q141 340 141 264Q141 192 171.50 149Q202 106 249 106Q267 106 288 115.50Q309 125 342 151L383 183Z"  horiz-adv-x="544" vert-adv-y="1000"  />

      
      <glyph glyph-name="uni3a" unicode="&#x3a;" d="M80 370L75 427L80 475L155 480L185 475L190 419L185 370L110 365L80 370M80 0L75 57L80 105L155 110L185 105L190 49L185 0L110-5L80 0Z"  horiz-adv-x="240" vert-adv-y="1000"  />

      
      <glyph glyph-name="uni3b" unicode="&#x3b;" d="M80 370L75 427L80 475L155 480L185 475L190 419L185 370L110 365L80 370M82-130Q95-100 107-61Q119-22 119-4L79 0L74 57L79 105L154 110L184 105L189 49L184 0L119-145L82-130Z"  horiz-adv-x="260" vert-adv-y="1000"  />

      
      <glyph glyph-name="uni3c" unicode="&#x3c;" d="M50 256L50 316L570 548L570 469L143 287L570 105L570 25L50 256Z"  horiz-adv-x="620" vert-adv-y="1000"  />

      
      <glyph glyph-name="uni3d" unicode="&#x3d;" d="M52 375L567 375L567 310L52 310L52 375M52 180L567 180L567 115L52 115L52 180Z"  horiz-adv-x="620" vert-adv-y="1000"  />

      
      <glyph glyph-name="uni3e" unicode="&#x3e;" d="M50 105L477 287L50 469L50 548L570 316L570 256L50 25L50 105Z"  horiz-adv-x="620" vert-adv-y="1000"  />

      
      <glyph glyph-name="uni3f" unicode="&#x3f;" d="M124 361L163 383Q205 407 228.50 446Q252 485 252 527Q252 585 229 619.50Q206 654 156 654L137 575L65 575L65 694L156 705Q258 693 308.50 643.50Q359 594 359 523Q359 457 327 417Q295 377 235 349L192 329L185 225L130 225L124 361M111-5L106 52L111 100L186 105L216 100L221 44L216-5L141-10L111-5Z"  horiz-adv-x="409" vert-adv-y="1000"  />

      
      <glyph glyph-name="uni40" unicode="&#x40;" d="M452-114Q334-114 242.50-66Q151-18 100.50 66.50Q50 151 50 258Q50 353 93.50 436Q137 519 215.50 580.50Q294 642 398 673L489 700Q610 700 696.50 660.50Q783 621 827.50 552Q872 483 872 395Q872 314 829 244Q786 174 716.50 132Q647 90 573 90L514 152L559 274L406 88Q368 88 335.50 106Q303 124 283.50 156Q264 188 264 230Q264 314 312 382.50Q360 451 441 487L550 536L665 470L582 126Q627 126 676.50 159Q726 192 759.50 251Q793 310 793 385Q793 514 721 582Q649 650 522 650Q428 650 339.50 606.50Q251 563 195.50 478.50Q140 394 140 278Q140 170 188.50 95Q237 20 318-17.50Q399-55 496-55Q547-55 589-41.50Q631-28 674-7L690-36Q636-64 568-86Q500-108 452-114M546 300L580 427L500 480Q419 446 386 384.50Q353 323 353 260Q353 220 374 197Q395 174 430 174L546 300Z"  horiz-adv-x="917" vert-adv-y="1000"  />

      
      <glyph glyph-name="uni41" unicode="&#x41;" d="M10 34L88 45L336 693L396 710L657 45L735 34L730-1L592 2L460-1L455 34L540 47L472 234L225 234L160 47L247 34L242-1L122 2L15-1L10 34M454 281L358 545L351 599L241 281L454 281Z"  horiz-adv-x="745" vert-adv-y="1000"  />

      
      <glyph glyph-name="uni42" unicode="&#x42;" d="M30 34L120 47L120 653L30 666L35 701L173 698L370 701Q432 701 476 680Q520 659 541.50 624.50Q563 590 563 550Q563 491 518.50 443Q474 395 405 377Q468 374 513.50 350.50Q559 327 582 289Q605 251 605 205Q605 110 535.50 64Q466 18 335-1L173 2L35-1L30 34M308 390Q351 390 384.50 410Q418 430 436.50 464.50Q455 499 455 540Q455 594 422.50 625.50Q390 657 330 658L225 653L225 390L308 390M315 42Q409 42 452 89.50Q495 137 495 201Q495 265 452.50 305Q410 345 337 345L225 345L225 47L315 42Z"  horiz-adv-x="645" vert-adv-y="1000"  />

      
      <glyph glyph-name="uni43" unicode="&#x43;" d="M400-18Q305-18 222.50 24Q140 66 90 147.50Q40 229 40 341Q40 509 141 601.50Q242 694 418 718Q488 718 552 694Q616 670 657 640L657 505L602 505L570 598Q545 625 502 645.50Q459 666 404 666Q329 666 273 631.50Q217 597 186 529Q155 461 155 365Q155 282 188 206.50Q221 131 283 84Q345 37 429 37Q469 37 500.50 53Q532 69 560 93L614 204L669 204L643 60Q595 37 526 13.50Q457-10 400-18Z"  horiz-adv-x="704" vert-adv-y="1000"  />

      
      <glyph glyph-name="uni44" unicode="&#x44;" d="M30 34L120 47L120 653L30 666L35 701L170 698L369 701Q524 702 611.50 615.50Q699 529 699 370Q699 207 613.50 112.50Q528 18 359-1L170 2L35-1L30 34M350 44Q419 44 472 83Q525 122 554 193Q583 264 583 357Q583 443 553.50 511Q524 579 465 618.50Q406 658 322 658L225 653L225 54L350 44Z"  horiz-adv-x="739" vert-adv-y="1000"  />

      
      <glyph glyph-name="uni45" unicode="&#x45;" d="M30 34L120 47L120 653L30 666L35 701L173 698L570 701L580 521L546 521L490 651L225 654L225 388L365 392L405 497L440 497L430 372L440 237L405 237L365 342L225 346L225 46L500 49L567 184L605 184L570-1L173 2L35-1L30 34Z"  horiz-adv-x="630" vert-adv-y="1000"  />

      
      <glyph glyph-name="uni46" unicode="&#x46;" d="M30 34L120 47L120 653L30 666L35 701L173 698L570 701L580 521L546 521L490 651L225 654L225 374L365 378L405 483L440 483L430 358L440 223L405 223L365 328L225 332L225 47L345 34L340-1L173 2L35-1L30 34Z"  horiz-adv-x="595" vert-adv-y="1000"  />

      
      <glyph glyph-name="uni47" unicode="&#x47;" d="M390-18Q295-18 215.50 24Q136 66 88 147Q40 228 40 340Q40 660 410 718Q482 718 549.50 693.50Q617 669 655 640L655 505L605 505L573 595Q546 623 500.50 644.50Q455 666 396 666Q323 666 269 630.50Q215 595 185 527Q155 459 155 365Q155 280 188 204.50Q221 129 281.50 83Q342 37 420 37Q461 37 495 53.50Q529 70 550 90L550 280L460 293L465 328L603 325L715 328L720 293L655 280L655 60Q601 39 526 15.50Q451-8 390-18Z"  horiz-adv-x="745" vert-adv-y="1000"  />

      
      <glyph glyph-name="uni48" unicode="&#x48;" d="M30 34L120 47L120 653L30 666L35 701L173 698L305 701L310 666L225 653L225 388L545 388L545 653L455 666L460 701L598 698L730 701L735 666L650 653L650 47L735 34L730-1L598 2L460-1L455 34L545 47L545 338L225 338L225 47L310 34L305-1L173 2L35-1L30 34Z"  horiz-adv-x="765" vert-adv-y="1000"  />

      
      <glyph glyph-name="uni49" unicode="&#x49;" d="M30 35L120 48L120 653L30 666L35 701L173 698L310 701L315 666L225 653L225 48L315 35L310-1L173 2L35-1L30 35Z"  horiz-adv-x="345" vert-adv-y="1000"  />

      
      <glyph glyph-name="uni4a" unicode="&#x4a;" d="M0-85L105-85L114-64Q125-39 127.50-9Q130 21 130 95L130 653L20 666L25 701L183 698L315 701L320 666L235 653L235 100Q235 35 225.50-0.50Q216-36 190-65L90-175L0-175L0-85Z"  horiz-adv-x="345" vert-adv-y="1000"  />

      
      <glyph glyph-name="uni4b" unicode="&#x4b;" d="M30 34L120 47L120 653L30 666L35 701L173 698L295 701L300 666L225 653L225 373L253 388L529 653L456 666L461 701L567 698L667 701L672 666L595 651L315 378L340 364L643 44L696 34L691-1L606 2L528-1L240 325L225 354L225 47L300 34L295-1L173 2L35-1L30 34Z"  horiz-adv-x="706" vert-adv-y="1000"  />

      
      <glyph glyph-name="uni4c" unicode="&#x4c;" d="M30 34L120 47L120 653L30 666L35 701L173 698L310 701L315 666L225 653L225 46L475 49L542 184L580 184L545-1L173 2L35-1L30 34Z"  horiz-adv-x="590" vert-adv-y="1000"  />

      
      <glyph glyph-name="uni4d" unicode="&#x4d;" d="M35 34L115 47L115 651L30 666L35 701L138 698L248 701L458 172L466 116L701 701L812 698L905 701L910 666L825 653L825 47L905 34L900-1L780 2L635-1L630 34L720 47L720 504L733 621L480 0L418 0L217 505L180 621L180 47L268 34L260-1L153 2L40-1L35 34Z"  horiz-adv-x="940" vert-adv-y="1000"  />

      
      <glyph glyph-name="uni4e" unicode="&#x4e;" d="M202 542L185 611L185 47L270 34L265-1L158 2L35-1L30 34L120 47L120 646L34 666L39 701L132 698L207 701L557 206L578 147L578 653L493 666L498 701L605 698L728 701L733 666L643 653L643-2L580-2L202 542Z"  horiz-adv-x="743" vert-adv-y="1000"  />

      
      <glyph glyph-name="uni4f" unicode="&#x4f;" d="M380-18Q281-18 203.50 28Q126 74 83 154.50Q40 235 40 335Q40 501 127.50 594Q215 687 400 718Q499 718 576.50 672Q654 626 697 545.50Q740 465 740 365Q740 199 652.50 106Q565 13 380-18M405 37Q515 37 570 119.50Q625 202 625 332Q625 412 599.50 487.50Q574 563 518 613Q462 663 376 663Q266 663 210.50 580.50Q155 498 155 368Q155 287 181 211.50Q207 136 263 86.50Q319 37 405 37Z"  horiz-adv-x="780" vert-adv-y="1000"  />

      
      <glyph glyph-name="uni50" unicode="&#x50;" d="M30 34L120 47L120 653L30 666L35 701L170 698L365 701Q462 702 523.50 655.50Q585 609 585 524Q585 432 514 378Q443 324 335 301L225 301L225 47L345 34L340-1L173 2L35-1L30 34M310 351Q381 351 425.50 395.50Q470 440 470 511Q470 579 432.50 619Q395 659 320 659L225 653L225 351L310 351Z"  horiz-adv-x="595" vert-adv-y="1000"  />

      
      <glyph glyph-name="uni51" unicode="&#x51;" d="M642-121L699-137L695-170L543-170L380-18Q281-18 203.50 28Q126 74 83 154.50Q40 235 40 335Q40 501 127.50 594Q215 687 400 718Q499 718 576.50 672Q654 626 697 545.50Q740 465 740 365Q740 213 666.50 122Q593 31 438-6L537-45L642-121M155 368Q155 287 181 211.50Q207 136 263 86.50Q319 37 405 37Q515 37 570 119.50Q625 202 625 332Q625 412 599.50 487.50Q574 563 518 613Q462 663 376 663Q266 663 210.50 580.50Q155 498 155 368Z"  horiz-adv-x="780" vert-adv-y="1000"  />

      
      <glyph glyph-name="uni52" unicode="&#x52;" d="M676 32L672-1L590 2L520-1L308 310L297 321L225 321L225 47L310 34L305-1L173 2L35-1L30 34L120 47L120 653L30 666L35 701L173 698L355 701Q458 702 522 657.50Q586 613 586 527Q586 384 381 331L450 290L622 47L676 32M225 366L295 366Q374 366 422 409Q470 452 470 520Q470 587 429.50 622.50Q389 658 325 659L225 653L225 366Z"  horiz-adv-x="681" vert-adv-y="1000"  />

      
      <glyph glyph-name="uni53" unicode="&#x53;" d="M269-18Q203-18 153.50-0.50Q104 17 62 50L40 185L110 185L145 100Q168 72 206.50 54.50Q245 37 286 37Q349 37 385.50 72.50Q422 108 422 164Q422 212 394.50 244Q367 276 318 297L197 350Q135 377 100.50 415.50Q66 454 66 516Q66 594 130 644.50Q194 695 305 718Q353 718 402 702.50Q451 687 488 660L488 525L438 525L409 616Q386 639 359 652Q332 665 291 665Q232 665 198.50 635.50Q165 606 165 555Q165 516 189.50 488.50Q214 461 259 442L374 392Q442 363 481.50 319.50Q521 276 521 206Q521 129 461 69Q401 9 269-18Z"  horiz-adv-x="567" vert-adv-y="1000"  />

      
      <glyph glyph-name="uni54" unicode="&#x54;" d="M130 34L250 47L250 653L100 651L54 524L15 524L15 701L302 698L590 701L590 524L551 524L505 651L355 653L355 47L470 34L465-1L303 2L135-1L130 34Z"  horiz-adv-x="605" vert-adv-y="1000"  />

      
      <glyph glyph-name="uni55" unicode="&#x55;" d="M372-18Q231-18 168 51.50Q105 121 105 247L105 653L15 666L20 701L158 698L295 701L300 666L215 653L215 232Q215 137 256.50 87Q298 37 382 37Q460 37 502 88Q544 139 544 235L544 653L454 666L459 701L587 698L704 701L709 666L624 653L624 245Q624 176 601.50 126.50Q579 77 524 40.50Q469 4 372-18Z"  horiz-adv-x="724" vert-adv-y="1000"  />

      
      <glyph glyph-name="uni56" unicode="&#x56;" d="M83 655L5 666L10 701L151 698L283 701L288 666L203 653L383 164L388 112L585 653L498 666L503 701L620 698L727 701L732 666L654 655L401 5L348-15L83 655Z"  horiz-adv-x="737" vert-adv-y="1000"  />

      
      <glyph glyph-name="uni57" unicode="&#x57;" d="M68 655L10 666L15 701L136 698L258 701L263 666L178 653L328 164L330 108L460 540L422 655L359 666L364 701L490 698L612 701L617 666L532 653L682 164L684 108L849 655L763 666L768 701L883 698L970 701L975 666L917 655L710 10L641-15L502 408L499 467L356 10L287-15L68 655Z"  horiz-adv-x="985" vert-adv-y="1000"  />

      
      <glyph glyph-name="uni58" unicode="&#x58;" d="M10 35L88 46L304 343L97 656L19 667L24 702L167 698L309 702L314 667L229 654L352 450L365 412L529 653L442 666L447 701L564 698L681 701L686 666L608 655L403 373L625 46L698 35L693-1L556 2L413-1L408 35L493 48L359 262L342 303L167 47L249 35L244-1L127 2L15-1L10 35Z"  horiz-adv-x="708" vert-adv-y="1000"  />

      
      <glyph glyph-name="uni59" unicode="&#x59;" d="M187 34L307 47L307 275L83 656L5 667L10 701L148 698L280 701L285 667L200 654L372 364L380 325L553 654L466 667L471 701L590 698L701 701L706 668L628 657L410 271L412 47L527 34L522-1L360 2L192-1L187 34Z"  horiz-adv-x="711" vert-adv-y="1000"  />

      
      <glyph glyph-name="uni5a" unicode="&#x5a;" d="M20 50L400 620L440 655L144 650L98 525L54 525L54 700L530 700L540 655L158 81L118 45L446 50L513 184L561 184L526 0L30 0L20 50Z"  horiz-adv-x="576" vert-adv-y="1000"  />

      
      <glyph glyph-name="uni5b" unicode="&#x5b;" d="M85 715L168 712L298 715L298 680L165 670L163 554Q162 503 161 435Q160 367 160 287Q160 184 161 97.50Q162 11 163-53L165-186L298-196L298-231L168-228L85-231L85 715Z"  horiz-adv-x="333" vert-adv-y="1000"  />

      
      <glyph glyph-name="uni5c" unicode="&#x5c;" d="M-40 718L21 718L474-230L411-230L-40 718Z"  horiz-adv-x="434" vert-adv-y="1000"  />

      
      <glyph glyph-name="uni5d" unicode="&#x5d;" d="M35-196L168-186Q173-59 173 154L173 287Q173 503 168 670L35 680L35 715L165 712L248 715L248-231L165-228L35-231L35-196Z"  horiz-adv-x="333" vert-adv-y="1000"  />

      
      <glyph glyph-name="uni5e" unicode="&#x5e;" d="M173 705L218 705L341 460L261 460L196 617L130 460L50 460L173 705Z"  horiz-adv-x="391" vert-adv-y="1000"  />

      
      <glyph glyph-name="uni5f" unicode="&#x5f;" d="M43-75L598-75L598-130L43-130L43-75Z"  horiz-adv-x="640" vert-adv-y="1000"  />

      
      <glyph glyph-name="uni60" unicode="&#x60;" d="M139 710L249 710L296 551L258 551L139 710Z"  horiz-adv-x="600" vert-adv-y="1000"  />

      
      <glyph glyph-name="uni61" unicode="&#x61;" d="M177-15Q111-15 70.50 19.50Q30 54 30 113Q30 139 38.50 160Q47 181 65 205L290 280L290 330Q290 381 279 403.50Q268 426 231 426Q193 426 149 408L132 332L46 332L46 405L227 485Q292 485 325 471.50Q358 458 371.50 424.50Q385 391 385 326L385 130Q385 100 389 84.50Q393 69 402 55L452 55L456 20L327-5L296 72L177-15M183 55Q201 55 216.50 62.50Q232 70 248 81L290 110L290 240L145 180Q125 160 125 124Q125 89 142 72Q159 55 183 55Z"  horiz-adv-x="461" vert-adv-y="1000"  />

      
      <glyph glyph-name="uni62" unicode="&#x62;" d="M259-15Q200-15 167-5.50Q134 4 112.50 15.50Q91 27 85 30L85 647L15 645L10 679L130 710L180 714L180 390L306 485Q362 485 408.50 457Q455 429 482.50 377.50Q510 326 510 257Q510 22 259-15M279 35Q339 35 374.50 86.50Q410 138 410 226Q410 308 381 356.50Q352 405 306 405Q261 405 210 364L180 340L180 75Q197 56 222.50 45.50Q248 35 279 35Z"  horiz-adv-x="550" vert-adv-y="1000"  />

      
      <glyph glyph-name="uni63" unicode="&#x63;" d="M263-15Q198-15 147.50 12.50Q97 40 68.50 94Q40 148 40 223Q40 332 107 396Q174 460 278 485Q312 485 352.50 470Q393 455 416 435L416 335L342 335L319 416Q307 425 294 428.50Q281 432 261 432Q227 432 199.50 408.50Q172 385 156.50 343Q141 301 141 247Q141 165 183 112.50Q225 60 297 60Q346 60 410 102L426 64Q358 15 263-15Z"  horiz-adv-x="451" vert-adv-y="1000"  />

      
      <glyph glyph-name="uni64" unicode="&#x64;" d="M243-15Q180-15 133 14.50Q86 44 60.50 96.50Q35 149 35 218Q35 335 100.50 402Q166 469 280 485Q294 485 319.50 476.50Q345 468 365 458L365 647L295 645L290 679L410 710L460 714L460 130Q460 102 464.50 86Q469 70 477 57L533 57L537 20L403-5L372 72L243-15M239 65Q284 65 335 106L365 130L365 395Q348 414 322.50 424.50Q297 435 266 435Q206 435 170.50 383.50Q135 332 135 244Q135 162 164 113.50Q193 65 239 65Z"  horiz-adv-x="557" vert-adv-y="1000"  />

      
      <glyph glyph-name="uni65" unicode="&#x65;" d="M440 64Q367 14 265-15Q203-15 150.50 13.50Q98 42 66.50 97Q35 152 35 228Q35 335 94.50 398Q154 461 261 485Q354 485 396 434Q438 383 438 297L438 255L133 255Q136 163 179 111.50Q222 60 299 60Q328 60 361 72Q394 84 424 102L440 64M242 435Q198 435 169 398Q140 361 134 297L334 305Q334 370 315 402.50Q296 435 242 435Z"  horiz-adv-x="475" vert-adv-y="1000"  />

      
      <glyph glyph-name="uni66" unicode="&#x66;" d="M43 34L113 44L113 413L25 413L25 430L55 465L113 465L113 475Q113 518 126.50 550.50Q140 583 168 615L252 710L378 710L378 630L248 630L229 603Q218 588 213 562.50Q208 537 208 490L208 460L333 460L333 413L208 413L208 44L323 37L318-1L163 2L48-1L43 34Z"  horiz-adv-x="353" vert-adv-y="1000"  />

      
      <glyph glyph-name="uni67" unicode="&#x67;" d="M238-245Q20-245 20-107L20-90L129-6Q96 6 79.50 21Q63 36 58.50 53.50Q54 71 54 98L54 104L154 173Q106 190 78 224.50Q50 259 50 305Q50 370 97 414.50Q144 459 245 485Q293 485 333 469Q373 453 397 424L451 485L511 485L511 404L451 404L418 388Q428 363 428 340Q428 275 380.50 230.50Q333 186 233 160Q206 160 194 162L140 100Q140 84 150.50 74.50Q161 65 179 65L362 65Q428 65 460.50 37.50Q493 10 493-38Q493-99 423-155Q353-211 238-245M248 207Q288 207 310.50 232.50Q333 258 333 302Q333 353 309 396Q285 439 230 439Q190 439 167.50 410.50Q145 382 145 333Q145 286 169 246.50Q193 207 248 207M246-186Q287-186 321.50-170Q356-154 377-126.50Q398-99 398-66Q398-39 376-27Q354-15 303-15L165-15Q131-53 120.50-71.50Q110-90 110-103Q110-139 147.50-162.50Q185-186 246-186Z"  horiz-adv-x="516" vert-adv-y="1000"  />

      
      <glyph glyph-name="uni68" unicode="&#x68;" d="M35 34L105 44L105 647L35 645L30 679L150 710L200 714L200 390L346 485Q409 485 441 468Q473 451 484 414.50Q495 378 495 310L495 44L570 34L565-1L450 2L355-1L350 34L400 44L400 330Q400 405 336 405Q316 405 290 393Q264 381 230 360L200 341L200 44L255 34L250-1L155 2L40-1L35 34Z"  horiz-adv-x="587" vert-adv-y="1000"  />

      
      <glyph glyph-name="uni69" unicode="&#x69;" d="M35 34L105 44L105 409L35 403L30 438L150 469L200 473L200 44L275 34L270-1L155 2L40-1L35 34M96 586L90 642L100 690L172 695L200 690L206 634L195 586L123 580L96 586Z"  horiz-adv-x="295" vert-adv-y="1000"  />

      
      <glyph glyph-name="uni6a" unicode="&#x6a;" d="M-20-147L76-147L86-125Q95-105 100-81.50Q105-58 105-15L105 409L35 403L30 438L150 469L200 473L200 0Q200-43 186.50-75.50Q173-108 145-140L61-235L-20-235L-20-147M101 586L95 642L105 690L177 695L205 690L211 634L200 586L128 580L101 586Z"  horiz-adv-x="270" vert-adv-y="1000"  />

      
      <glyph glyph-name="uni6b" unicode="&#x6b;" d="M35 34L105 44L105 646L35 644L30 679L150 710L200 714L200 272L227 284L389 426L360 436L360 471L443 468L518 471L523 436L470 426L281 273L303 260L496 44L541 34L536-1L456 2L396-1L211 230L200 255L200 44L255 34L250-1L155 2L40-1L35 34Z"  horiz-adv-x="546" vert-adv-y="1000"  />

      
      <glyph glyph-name="uni6c" unicode="&#x6c;" d="M35 34L105 44L105 646L35 644L30 679L150 710L200 714L200 44L275 34L270-1L155 2L40-1L35 34Z"  horiz-adv-x="290" vert-adv-y="1000"  />

      
      <glyph glyph-name="uni6d" unicode="&#x6d;" d="M35 34L105 44L105 409L35 403L30 438L150 469L193 472L198 389L336 485Q407 485 439.50 462.50Q472 440 480 387L621 485Q684 485 716 468Q748 451 759 414.50Q770 378 770 310L770 44L845 34L840-1L725 2L629-1L624 34L674 44L674 330Q674 405 617 405Q578 405 515 360L485 339L485 44L530 34L525-1L440 2L349-1L344 34L390 44L390 330Q390 405 332 405Q293 405 230 360L200 339L200 44L250 34L245-1L155 2L40-1L35 34Z"  horiz-adv-x="862" vert-adv-y="1000"  />

      
      <glyph glyph-name="uni6e" unicode="&#x6e;" d="M35 34L105 44L105 409L35 403L30 438L150 469L193 472L198 388L346 485Q410 485 441.50 469.50Q473 454 484 420Q495 386 495 322L495 44L571 34L566-1L451 2L355-1L350 34L400 44L400 330Q400 405 334 405Q310 405 286 393.50Q262 382 230 360L200 340L200 44L255 34L250-1L155 2L40-1L35 34Z"  horiz-adv-x="588" vert-adv-y="1000"  />

      
      <glyph glyph-name="uni6f" unicode="&#x6f;" d="M258-15Q193-15 142 16Q91 47 63 101.50Q35 156 35 224Q35 334 98.50 399.50Q162 465 281 485Q346 485 397 453.50Q448 422 476 367.50Q504 313 504 245Q504 135 440 69.50Q376 4 258-15M283 34Q341 34 372.50 87Q404 140 404 224Q404 287 385 335Q366 383 332.50 409.50Q299 436 256 436Q197 436 166 383Q135 330 135 245Q135 188 153.50 139.50Q172 91 206 62.50Q240 34 283 34Z"  horiz-adv-x="539" vert-adv-y="1000"  />

      
      <glyph glyph-name="uni70" unicode="&#x70;" d="M20-196L90-186L90 410L20 404L15 438L135 469L178 472L183 389L311 485Q407 485 461 423Q515 361 515 252Q515 130 448.50 65.50Q382 1 264-15Q222-15 185 6L185-186L290-196L285-231L140-228L25-231L20-196M294 35Q349 35 382 85.50Q415 136 415 221Q415 307 386 358.50Q357 410 311 410Q276 410 215 364L185 341L185 90Q202 64 231 49.50Q260 35 294 35Z"  horiz-adv-x="550" vert-adv-y="1000"  />

      
      <glyph glyph-name="uni71" unicode="&#x71;" d="M261-196L366-186L366 67L249-15Q184-15 136 14Q88 43 61.50 97Q35 151 35 223Q35 337 101 403.50Q167 470 286 485Q335 485 409 443L444 480L461 480L461-186L531-196L526-231L411-228L266-231L261-196M252 60Q282 60 310 79L366 118L366 370Q343 435 272 435Q208 435 171.50 385Q135 335 135 249Q135 192 151 149Q167 106 193.50 83Q220 60 252 60Z"  horiz-adv-x="536" vert-adv-y="1000"  />

      
      <glyph glyph-name="uni72" unicode="&#x72;" d="M35 34L105 44L105 409L35 403L30 438L150 469L190 472L192 340L306 480L386 480L386 380L312 380Q295 376 268.50 355.50Q242 335 220 309L200 285L200 47L302 37L297-1L152 2L40-1L35 34Z"  horiz-adv-x="401" vert-adv-y="1000"  />

      
      <glyph glyph-name="uni73" unicode="&#x73;" d="M201-15Q161-15 119-0.50Q77 14 49 30L30 143L94 143L128 60Q165 35 210 35Q248 35 269 56.50Q290 78 290 111Q290 139 274 155.50Q258 172 217 194L138 235Q101 254 77.50 283Q54 312 54 351Q54 402 99.50 434Q145 466 235 485Q273 485 312.50 471.50Q352 458 376 440L376 340L323 340L300 414Q263 436 224 436Q193 436 170.50 420Q148 404 148 377Q148 354 165 337.50Q182 321 218 302L295 263Q345 238 367 207.50Q389 177 389 134Q389 71 342.50 38.50Q296 6 201-15Z"  horiz-adv-x="426" vert-adv-y="1000"  />

      
      <glyph glyph-name="uni74" unicode="&#x74;" d="M229-15Q102-15 102 120L102 413L5 413L5 430L40 465L105 465L105 530L170 595L196 595L196 458L347 458L347 413L197 413L197 120Q197 93 213 76.50Q229 60 250 60Q267 60 284.50 65.50Q302 71 329 84L346 50L229-15Z"  horiz-adv-x="354" vert-adv-y="1000"  />

      
      <glyph glyph-name="uni75" unicode="&#x75;" d="M239-15Q174-15 141 1Q108 17 96.50 51.50Q85 86 85 148L85 409L15 404L10 443L130 469L181 473L181 140Q181 101 197.50 83Q214 65 251 65Q272 65 298 78Q324 91 360 115L380 128L380 409L320 404L315 443L425 469L475 473L475 130Q475 100 478 84.50Q481 69 487 55L537 55L541 20L412-5L384 76L239-15Z"  horiz-adv-x="566" vert-adv-y="1000"  />

      
      <glyph glyph-name="uni76" unicode="&#x76;" d="M67 426L5 436L10 471L125 468L230 471L235 436L169 426L278 133L286 64L407 426L361 436L366 471L454 468L537 471L542 436L478 426L314 15L241-15L67 426Z"  horiz-adv-x="547" vert-adv-y="1000"  />

      
      <glyph glyph-name="uni77" unicode="&#x77;" d="M67 426L5 436L10 471L120 468L215 471L220 436L164 426L263 128L271 69L386 386L371 426L329 436L334 471L424 468L519 471L524 436L468 426L567 128L575 69L701 426L655 436L660 471L731 468L828 471L833 436L769 426L608 16L528-14L427 270L422 336L304 16L224-14L67 426Z"  horiz-adv-x="838" vert-adv-y="1000"  />

      
      <glyph glyph-name="uni78" unicode="&#x78;" d="M10 34L80 44L228 226L83 425L21 435L26 471L141 468L236 471L241 435L202 425L276 314L284 288L379 425L330 435L335 471L413 468L516 471L521 435L449 425L317 265L474 44L536 34L531-1L416 2L321-1L316 34L357 44L268 173L260 196L154 44L201 34L196-1L118 2L15-1L10 34Z"  horiz-adv-x="541" vert-adv-y="1000"  />

      
      <glyph glyph-name="uni79" unicode="&#x79;" d="M85-135L171-135L270 16L230 4L67 426L5 436L10 471L125 468L230 471L235 436L169 426L275 133L283 64L402 426L356 436L361 471L449 468L532 471L537 436L473 426L316 17L204-235L85-235L85-135Z"  horiz-adv-x="542" vert-adv-y="1000"  />

      
      <glyph glyph-name="uni7a" unicode="&#x7a;" d="M35 31L298 400L336 430L136 425L104 335L64 335L64 470L424 470L439 440L173 66L139 40L348 45L402 143L445 143L417 0L47 0L35 31Z"  horiz-adv-x="470" vert-adv-y="1000"  />

      
      <glyph glyph-name="uni7b" unicode="&#x7b;" d="M260-230Q196-230 155.50-191.50Q115-153 115-90L116 195L50 255L50 269Q81 279 95 295Q109 311 112.50 331Q116 351 116 385L115 575Q115 638 155.50 676.50Q196 715 260 715L308 715L308 680L260 680Q229 680 208.50 655Q188 630 190 575L196 385Q197 345 180 315Q163 285 115 262L196 210L190-90Q189-145 209.50-170Q230-195 260-195L308-195L308-230L260-230Z"  horiz-adv-x="348" vert-adv-y="1000"  />

      
      <glyph glyph-name="uni7c" unicode="&#x7c;" d="M110 718L169 718L169-245L110-245L110 718Z"  horiz-adv-x="279" vert-adv-y="1000"  />

      
      <glyph glyph-name="uni7d" unicode="&#x7d;" d="M40-195L88-195Q118-195 138.50-170Q159-145 158-91L152 128Q151 168 168 198Q185 228 233 251L152 303L158 575Q159 630 138.50 655Q118 680 88 680L40 680L40 715L88 715Q152 715 192.50 676.50Q233 638 233 575L232 318L298 258L298 244Q267 234 253 218Q239 202 235.50 182Q232 162 232 128L233-90Q233-153 192.50-191.50Q152-230 88-230L40-230L40-195Z"  horiz-adv-x="348" vert-adv-y="1000"  />

      
      <glyph glyph-name="uni7e" unicode="&#x7e;" d="M87 290L185 317L541 261L584 320L619 320L580 220L487 198L128 254L85 195L50 195L87 290Z"  horiz-adv-x="669" vert-adv-y="1000"  />

      
      <glyph glyph-name="unia1" unicode="&#xa1;" d="M80 365L75 421L80 470L155 475L185 470L190 413L185 365L110 360L80 365M91 49L116 235L151 235L176 50L181-240L86-240L91 49Z"  horiz-adv-x="265" vert-adv-y="1000"  />

      
      <glyph glyph-name="unia2" unicode="&#xa2;" d="M433 64Q373 21 298-6L298-80L248-80L248-14Q158-7 102.50 55Q47 117 47 223Q47 324 105.50 387Q164 450 258 478L258 550L308 550L308 483Q340 479 372 465.50Q404 452 423 435L423 335L349 335L326 416Q314 425 301 428.50Q288 432 268 432Q234 432 206.50 408.50Q179 385 163.50 343Q148 301 148 247Q148 165 190 112.50Q232 60 304 60Q353 60 417 102L433 64Z"  horiz-adv-x="466" vert-adv-y="1000"  />

      
      <glyph glyph-name="unia3" unicode="&#xa3;" d="M540 155L515 0L183 3L45 0L40 35L140 80L140 318L52 318L52 335L82 370L140 370L140 490Q140 558 158 598Q176 638 222.50 665Q269 692 360 715Q454 715 492 666L492 575L428 575L413 640Q397 656 381 663Q365 670 342 670Q309 670 284.50 650.50Q260 631 247.50 601Q235 571 235 540L235 370L421 370L421 317L235 318L235 180Q235 136 227 106.50Q219 77 209.50 60.50Q200 44 200 47L445 50L492 155L540 155Z"  horiz-adv-x="580" vert-adv-y="1000"  />

      
      <glyph glyph-name="unia4" unicode="&#xa4;" d="M76 170L133 226Q90 285 90 357Q90 429 133 488L76 544L123 591L179 534Q238 577 310 577Q382 577 441 534L497 591L544 544L487 488Q530 429 530 357Q530 285 487 226L544 170L497 123L441 180Q382 137 310 137Q238 137 179 180L123 123L76 170M310 190Q357 190 394.50 212Q432 234 453 272.50Q474 311 474 357Q474 403 453 441.50Q432 480 394.50 502Q357 524 310 524Q263 524 225.50 502Q188 480 167 441.50Q146 403 146 357Q146 311 167 272.50Q188 234 225.50 212Q263 190 310 190Z"  horiz-adv-x="620" vert-adv-y="1000"  />

      
      <glyph glyph-name="unia5" unicode="&#xa5;" d="M398 271L398 270L547 270L547 225L398 225L398 175L547 175L547 130L397 130L397 47L512 34L507-1L345 2L177-1L172 34L292 47L292 130L142 130L142 175L292 175L292 225L142 225L142 270L292 270L292 271L98 655L20 666L25 701L163 698L295 701L300 666L215 653L354 347L362 308L498 653L411 666L416 701L535 698L646 702L651 667L573 656L398 271Z"  horiz-adv-x="671" vert-adv-y="1000"  />

      
      <glyph glyph-name="unia6" unicode="&#xa6;" d="M110 718L168 718L168 288L110 288L110 718M110 185L168 185L168-245L110-245L110 185Z"  horiz-adv-x="278" vert-adv-y="1000"  />

      
      <glyph glyph-name="unia7" unicode="&#xa7;" d="M492 244Q492 176 463.50 126.50Q435 77 382 46L457-4L457-39Q457-119 408-170Q359-221 254-245Q205-245 155-226Q105-207 83-181L83-75L140-75L155-145Q199-200 274-200Q324-200 351.50-169.50Q379-139 379-83L379-68L188 58Q115 106 79 155.50Q43 205 43 260Q43 309 71 344.50Q99 380 157 411Q121 447 105.50 477.50Q90 508 90 540Q90 604 143.50 651Q197 698 288 715Q399 709 439 666L439 560L382 560L369 630Q335 670 276 670Q226 670 198 645Q170 620 170 576Q170 548 183.50 523.50Q197 499 230.50 469.50Q264 440 327 396L492 280L492 244M414 214L267 320Q215 358 183 387Q122 352 122 289Q122 250 149.50 217Q177 184 248 136L350 68Q383 93 398.50 124.50Q414 156 414 199L414 214Z"  horiz-adv-x="537" vert-adv-y="1000"  />

      
      <glyph glyph-name="unia8" unicode="&#xa8;" d="M112 583L107 632L116 672L176 677L201 672L206 624L196 583L137 578L112 583M292 583L287 632L296 672L356 677L381 672L386 624L376 583L317 578L292 583Z"  horiz-adv-x="600" vert-adv-y="1000"  />

      
      <glyph glyph-name="unia9" unicode="&#xa9;" d="M417-15Q317-14 233.50 30.50Q150 75 100 159Q50 243 50 356Q50 509 147.50 599.50Q245 690 415 715Q515 714 598.50 669.50Q682 625 732 541Q782 457 782 344Q782 191 684.50 100.50Q587 10 417-15M415 25Q497 25 567 63.50Q637 102 679 174.50Q721 247 721 344Q721 450 673 525Q625 600 554.50 637.50Q484 675 417 675Q335 675 265 636.50Q195 598 153 525.50Q111 453 111 356Q111 250 159 175Q207 100 277.50 62.50Q348 25 415 25M426 141Q371 141 323.50 165Q276 189 247 235Q218 281 218 344Q218 439 275.50 492Q333 545 435 559Q477 559 515 545Q553 531 576 515L576 436L540 436L522 487Q509 503 485 514.50Q461 526 429 526Q367 526 329.50 483Q292 440 292 359Q292 312 310 270Q328 228 362 202Q396 176 442 176Q482 176 517 206L548 270L583 270L569 185Q528 169 493 157.50Q458 146 426 141Z"  horiz-adv-x="832" vert-adv-y="1000"  />

      
      <glyph glyph-name="uniaa" unicode="&#xaa;" d="M167 313Q112 313 78.50 341Q45 369 45 416Q45 438 52.50 455.50Q60 473 75 492L259 551L259 592Q259 631 250 648Q241 665 212 665Q184 665 148 651L134 588L58 588L58 649L211 713Q265 713 293.50 702Q322 691 333.50 664.50Q345 638 345 587L345 432Q345 408 348 395.50Q351 383 358 372L399 372L402 342L290 320L265 382L167 313M176 372Q198 372 227 392L259 412L259 518L146 474Q130 457 130 427Q130 399 143.50 385.50Q157 372 176 372Z"  horiz-adv-x="426" vert-adv-y="1000"  />

      
      <glyph glyph-name="uniab" unicode="&#xab;" d="M15 235L197 455L245 455L118 234L245 15L196 15L15 235M199 235L381 455L429 455L302 234L429 15L380 15L199 235Z"  horiz-adv-x="459" vert-adv-y="1000"  />

      
      <glyph glyph-name="uniac" unicode="&#xac;" d="M502 310L52 310L52 375L567 375L567 180L502 180L502 310Z"  horiz-adv-x="620" vert-adv-y="1000"  />

      
      <glyph glyph-name="uniad" unicode="&#xad;" d="M35 307L335 307L335 242L35 242L35 307Z"  horiz-adv-x="370" vert-adv-y="1000"  />

      
      <glyph glyph-name="uniae" unicode="&#xae;" d="M295 685Q364 684 421.50 654Q479 624 513 566.50Q547 509 547 431Q547 326 480.50 264Q414 202 297 185Q229 186 171 216.50Q113 247 79 304.50Q45 362 45 439Q45 544 111.50 606Q178 668 295 685M295 212Q351 212 399 238.50Q447 265 476 314.50Q505 364 505 431Q505 504 472 555.50Q439 607 391 632.50Q343 658 297 658Q241 658 193 631.50Q145 605 116 555.50Q87 506 87 439Q87 366 120 315Q153 264 201.50 238Q250 212 295 212M446 321L445 301L398 302L364 301L283 420L277 424L258 424L258 326L290 321L288 301L226 302L163 301L161 321L194 326L194 548L161 552L163 572L225 571L319 572Q359 572 384.50 554Q410 536 410 505Q410 477 384.50 459Q359 441 317 433L363 414L426 327L446 321M258 448L285 448Q310 448 326 462.50Q342 477 342 502Q342 526 327.50 539Q313 552 290 552L258 549L258 448Z"  horiz-adv-x="592" vert-adv-y="1000"  />

      
      <glyph glyph-name="uniaf" unicode="&#xaf;" d="M110 667L390 667L390 608L110 608L110 667Z"  horiz-adv-x="600" vert-adv-y="1000"  />

      
      <glyph glyph-name="unib0" unicode="&#xb0;" d="M203 446Q162 446 126.50 466.50Q91 487 70.50 522.50Q50 558 50 600Q50 661 87 696.50Q124 732 204 753Q245 753 280.50 732.50Q316 712 336.50 676.50Q357 641 357 600Q357 538 320 502.50Q283 467 203 446M203 502Q244 502 272.50 531Q301 560 301 600Q301 640 272.50 668.50Q244 697 204 697Q164 697 135 668.50Q106 640 106 600Q106 560 134.50 531Q163 502 203 502Z"  horiz-adv-x="407" vert-adv-y="1000"  />

      
      <glyph glyph-name="unib1" unicode="&#xb1;" d="M272 361L47 361L47 426L272 426L272 656L337 656L337 426L562 426L562 361L337 361L337 141L272 141L272 361M47 65L572 65L572 0L47 0L47 65Z"  horiz-adv-x="620" vert-adv-y="1000"  />

      
      <glyph glyph-name="unib2" unicode="&#xb2;" d="M25 427L136 538Q183 585 204 621Q225 657 225 691Q225 721 211 739Q197 757 173 757Q156 757 136 749L118 680L52 680L52 753L184 793Q243 793 279 765.50Q315 738 315 692Q315 643 284 604.50Q253 566 187 518L86 445L146 466L327 466L327 442L308 400L39 400L25 427Z"  horiz-adv-x="376" vert-adv-y="1000"  />

      
      <glyph glyph-name="unib3" unicode="&#xb3;" d="M43 470L185 470Q215 493 215 527Q215 556 191.50 574Q168 592 123 592L117 614L139 622Q171 634 185.50 652.50Q200 671 200 700Q200 726 188 740.50Q176 755 157 755Q139 755 125 748L107 680L42 680L42 753L173 793Q230 793 256.50 772Q283 751 283 719Q283 687 260.50 665.50Q238 644 193 629Q247 625 276 601Q305 577 305 544Q305 505 277 483Q249 461 193 436L166 424L113 400L43 400L43 470Z"  horiz-adv-x="354" vert-adv-y="1000"  />

      
      <glyph glyph-name="unib4" unicode="&#xb4;" d="M186 710L296 710L177 551L139 551L186 710Z"  horiz-adv-x="600" vert-adv-y="1000"  />

      
      <glyph glyph-name="unib5" unicode="&#xb5;" d="M472 110Q472 75 489.50 57Q507 39 547 30L542 0L422 0L379 73L263-15Q155-15 132 40L132-30L182-230L72-230L72 470L167 470L167 170Q167 120 189 92.50Q211 65 251 65Q271 65 294.50 77.50Q318 90 357 115L377 128L377 470L472 470L472 110Z"  horiz-adv-x="620" vert-adv-y="1000"  />

      
      <glyph glyph-name="unib6" unicode="&#xb6;" d="M174 410Q112 410 71 445Q30 480 30 539Q30 583 66 619Q102 655 175 700L451 700L451 650L400 640L400-159L342-159L342 640L232 640L232-159L174-159L174 410Z"  horiz-adv-x="491" vert-adv-y="1000"  />

      
      <glyph glyph-name="unib7" unicode="&#xb7;" d="M60 350L55 407L60 455L135 460L165 455L170 399L165 350L90 345L60 350Z"  horiz-adv-x="225" vert-adv-y="1000"  />

      
      <glyph glyph-name="unib8" unicode="&#xb8;" d="M191-205L265-205Q279-196 287-178.50Q295-161 295-143Q295-111 271-96.50Q247-82 215-82L285 14L316 4L281-47Q315-49 338.50-69.50Q362-90 362-124Q362-164 334-190.50Q306-217 271-228L220-245L162-245L191-205Z"  horiz-adv-x="600" vert-adv-y="1000"  />

      
      <glyph glyph-name="unib9" unicode="&#xb9;" d="M40 427L126 437L126 716L132 731L104 714L47 705L34 731L169 788L212 788L212 437L298 427L295 399L170 401L43 399L40 427Z"  horiz-adv-x="325" vert-adv-y="1000"  />

      
      <glyph glyph-name="uniba" unicode="&#xba;" d="M231 313Q177 313 135.50 338Q94 363 71 406.50Q48 450 48 504Q48 594 101 645.50Q154 697 253 713Q306 713 347.50 688.50Q389 664 412.50 620.50Q436 577 436 522Q436 433 382.50 381Q329 329 231 313M252 354Q297 354 321.50 393.50Q346 433 346 500Q346 579 314 625.50Q282 672 230 672Q185 672 161 632.50Q137 593 137 525Q137 452 169 403Q201 354 252 354Z"  horiz-adv-x="483" vert-adv-y="1000"  />

      
      <glyph glyph-name="unibb" unicode="&#xbb;" d="M157 234L30 455L78 455L260 235L79 15L30 15L157 234M341 234L214 455L262 455L444 235L263 15L214 15L341 234Z"  horiz-adv-x="459" vert-adv-y="1000"  />

      
      <glyph glyph-name="unibc" unicode="&#xbc;" d="M40 342L126 352L126 631L132 646L104 629L47 620L34 646L169 703L212 703L212 352L298 342L295 314L170 316L43 314L40 342M552 710L608 710L223-50L165-50L552 710M652 96L500 96L476 134L672 385L743 385L743 353L533 141L563 152L652 152L652 213L710 261L728 261L728 152L802 152L802 96L728 96L728 0L652 0L652 96Z"  horiz-adv-x="830" vert-adv-y="1000"  />

      
      <glyph glyph-name="unibd" unicode="&#xbd;" d="M40 342L126 352L126 631L132 646L104 629L47 620L34 646L169 703L212 703L212 352L298 342L295 314L170 316L43 314L40 342M552 710L608 710L223-50L165-50L552 710M473 27L584 138Q631 185 652 221Q673 257 673 291Q673 321 659 339Q645 357 621 357Q604 357 584 349L566 280L500 280L500 353L632 393Q691 393 727 365.50Q763 338 763 292Q763 243 732 204.50Q701 166 635 118L534 45L594 66L775 66L775 42L756 0L487 0L473 27Z"  horiz-adv-x="824" vert-adv-y="1000"  />

      
      <glyph glyph-name="unibe" unicode="&#xbe;" d="M43 385L185 385Q215 408 215 442Q215 471 191.50 489Q168 507 123 507L117 529L139 537Q171 549 185.50 567.50Q200 586 200 615Q200 641 188 655.50Q176 670 157 670Q139 670 125 663L107 595L42 595L42 668L173 708Q230 708 256.50 687Q283 666 283 634Q283 602 260.50 580.50Q238 559 193 544Q247 540 276 516Q305 492 305 459Q305 420 277 398Q249 376 193 351L166 339L113 315L43 315L43 385M581 710L637 710L252-50L194-50L581 710M681 96L529 96L505 134L701 385L772 385L772 353L562 141L592 152L681 152L681 213L739 261L757 261L757 152L831 152L831 96L757 96L757 0L681 0L681 96Z"  horiz-adv-x="859" vert-adv-y="1000"  />

      
      <glyph glyph-name="unibf" unicode="&#xbf;" d="M268 469L273 412L268 364L193 359L163 364L158 420L163 469L238 474L268 469M255 103L216 81Q174 57 150.50 18Q127-21 127-63Q127-121 150-155.50Q173-190 223-190L242-111L314-111L314-230L223-241Q121-229 70.50-179.50Q20-130 20-59Q20 7 52 47Q84 87 144 115L187 135L194 239L249 239L255 103Z"  horiz-adv-x="374" vert-adv-y="1000"  />

      
      <glyph glyph-name="unic0" unicode="&#xc0;" d="M234 900L344 900L411 767L353 767L234 900M10 34L88 45L336 693L396 710L657 45L735 34L730-1L592 2L460-1L455 34L540 47L472 234L225 234L160 47L247 34L242-1L122 2L15-1L10 34M454 281L358 545L351 599L241 281L454 281Z"  horiz-adv-x="745" vert-adv-y="1000"  />

      
      <glyph glyph-name="unic1" unicode="&#xc1;" d="M406 900L516 900L397 767L339 767L406 900M10 34L88 45L336 693L396 710L657 45L735 34L730-1L592 2L460-1L455 34L540 47L472 234L225 234L160 47L247 34L242-1L122 2L15-1L10 34M454 281L358 545L351 599L241 281L454 281Z"  horiz-adv-x="745" vert-adv-y="1000"  />

      
      <glyph glyph-name="unic2" unicode="&#xc2;" d="M330 900L413 900L520 767L462 767L384 830L371 845L359 830L281 767L223 767L330 900M10 34L88 45L336 693L396 710L657 45L735 34L730-1L592 2L460-1L455 34L540 47L472 234L225 234L160 47L247 34L242-1L122 2L15-1L10 34M454 281L358 545L351 599L241 281L454 281Z"  horiz-adv-x="745" vert-adv-y="1000"  />

      
      <glyph glyph-name="unic3" unicode="&#xc3;" d="M241 865L316 887L471 837L507 890L532 890L508 795L433 773L278 823L242 770L217 770L241 865M10 34L88 45L336 693L396 710L657 45L735 34L730-1L592 2L460-1L455 34L540 47L472 234L225 234L160 47L247 34L242-1L122 2L15-1L10 34M454 281L358 545L351 599L241 281L454 281Z"  horiz-adv-x="745" vert-adv-y="1000"  />

      
      <glyph glyph-name="unic4" unicode="&#xc4;" d="M216 782L211 831L220 871L280 876L305 871L310 823L300 782L241 777L216 782M436 782L431 831L440 871L500 876L525 871L530 823L520 782L461 777L436 782M10 34L88 45L336 693L396 710L657 45L735 34L730-1L592 2L460-1L455 34L540 47L472 234L225 234L160 47L247 34L242-1L122 2L15-1L10 34M454 281L358 545L351 599L241 281L454 281Z"  horiz-adv-x="745" vert-adv-y="1000"  />

      
      <glyph glyph-name="unic5" unicode="&#xc5;" d="M371 729Q329 729 298.50 752Q268 775 268 820Q268 862 294.50 881.50Q321 901 371 915Q413 915 443.50 892Q474 869 474 824Q474 782 447.50 762.50Q421 743 371 729M371 765Q397 765 413 781Q429 797 429 822Q429 847 413 863Q397 879 371 879Q345 879 329 863Q313 847 313 822Q313 797 329 781Q345 765 371 765M10 34L88 45L336 693L396 710L657 45L735 34L730-1L592 2L460-1L455 34L540 47L472 234L225 234L160 47L247 34L242-1L122 2L15-1L10 34M454 281L358 545L351 599L241 281L454 281Z"  horiz-adv-x="745" vert-adv-y="1000"  />

      
      <glyph glyph-name="unic6" unicode="&#xc6;" d="M5 34L83 45L507 701L574 698L951 701L961 521L927 521L871 651L626 654L626 358L746 362L786 467L821 467L811 342L821 207L786 207L746 312L626 316L626 46L881 49L948 184L986 184L951-1L574 2L436-1L431 34L521 47L521 314L321 314L157 47L234 34L229-1L117 2L10-1L5 34M521 356L521 651L345 356L521 356Z"  horiz-adv-x="1011" vert-adv-y="1000"  />

      
      <glyph glyph-name="unic7" unicode="&#xc7;" d="M643 60Q596 37 529 14Q462-9 404-17L384-47Q418-49 441.50-69.50Q465-90 465-124Q465-164 437-190.50Q409-217 374-228L323-245L265-245L294-205L368-205Q382-196 390-178.50Q398-161 398-143Q398-111 374-96.50Q350-82 318-82L366-17Q277-9 203 35Q129 79 84.50 157.50Q40 236 40 341Q40 509 141 601.50Q242 694 418 718Q488 718 552 694Q616 670 657 640L657 505L602 505L570 598Q545 625 502 645.50Q459 666 404 666Q329 666 273 631.50Q217 597 186 529Q155 461 155 365Q155 282 188 206.50Q221 131 283 84Q345 37 429 37Q469 37 500.50 53Q532 69 560 93L614 204L669 204L643 60Z"  horiz-adv-x="704" vert-adv-y="1000"  />

      
      <glyph glyph-name="unic8" unicode="&#xc8;" d="M206 900L316 900L383 767L325 767L206 900M30 34L120 47L120 653L30 666L35 701L173 698L570 701L580 521L546 521L490 651L225 654L225 388L365 392L405 497L440 497L430 372L440 237L405 237L365 342L225 346L225 46L500 49L567 184L605 184L570-1L173 2L35-1L30 34Z"  horiz-adv-x="630" vert-adv-y="1000"  />

      
      <glyph glyph-name="unic9" unicode="&#xc9;" d="M378 900L488 900L369 767L311 767L378 900M30 34L120 47L120 653L30 666L35 701L173 698L570 701L580 521L546 521L490 651L225 654L225 388L365 392L405 497L440 497L430 372L440 237L405 237L365 342L225 346L225 46L500 49L567 184L605 184L570-1L173 2L35-1L30 34Z"  horiz-adv-x="630" vert-adv-y="1000"  />

      
      <glyph glyph-name="unica" unicode="&#xca;" d="M301 900L384 900L491 767L433 767L355 830L342 845L330 830L252 767L194 767L301 900M30 34L120 47L120 653L30 666L35 701L173 698L570 701L580 521L546 521L490 651L225 654L225 388L365 392L405 497L440 497L430 372L440 237L405 237L365 342L225 346L225 46L500 49L567 184L605 184L570-1L173 2L35-1L30 34Z"  horiz-adv-x="630" vert-adv-y="1000"  />

      
      <glyph glyph-name="unicb" unicode="&#xcb;" d="M188 782L183 831L192 871L252 876L277 871L282 823L272 782L213 777L188 782M408 782L403 831L412 871L472 876L497 871L502 823L492 782L433 777L408 782M30 34L120 47L120 653L30 666L35 701L173 698L570 701L580 521L546 521L490 651L225 654L225 388L365 392L405 497L440 497L430 372L440 237L405 237L365 342L225 346L225 46L500 49L567 184L605 184L570-1L173 2L35-1L30 34Z"  horiz-adv-x="630" vert-adv-y="1000"  />

      
      <glyph glyph-name="unicc" unicode="&#xcc;" d="M36 900L146 900L213 767L155 767L36 900M30 35L120 48L120 653L30 666L35 701L173 698L310 701L315 666L225 653L225 48L315 35L310-1L173 2L35-1L30 35Z"  horiz-adv-x="345" vert-adv-y="1000"  />

      
      <glyph glyph-name="unicd" unicode="&#xcd;" d="M208 900L318 900L199 767L141 767L208 900M30 35L120 48L120 653L30 666L35 701L173 698L310 701L315 666L225 653L225 48L315 35L310-1L173 2L35-1L30 35Z"  horiz-adv-x="345" vert-adv-y="1000"  />

      
      <glyph glyph-name="unice" unicode="&#xce;" d="M131 900L214 900L321 767L263 767L185 830L172 845L160 830L82 767L24 767L131 900M30 35L120 48L120 653L30 666L35 701L173 698L310 701L315 666L225 653L225 48L315 35L310-1L173 2L35-1L30 35Z"  horiz-adv-x="345" vert-adv-y="1000"  />

      
      <glyph glyph-name="unicf" unicode="&#xcf;" d="M18 782L13 831L22 871L82 876L107 871L112 823L102 782L43 777L18 782M238 782L233 831L242 871L302 876L327 871L332 823L322 782L263 777L238 782M30 35L120 48L120 653L30 666L35 701L173 698L310 701L315 666L225 653L225 48L315 35L310-1L173 2L35-1L30 35Z"  horiz-adv-x="345" vert-adv-y="1000"  />

      
      <glyph glyph-name="unid0" unicode="&#xd0;" d="M369 701Q524 702 611.50 615.50Q699 529 699 370Q699 207 613.50 112.50Q528 18 359-1L170 2L35-1L30 34L120 47L120 343L40 343L40 383L120 383L120 653L30 666L35 701L170 698L369 701M350 44Q419 44 472 83Q525 122 554 193Q583 264 583 357Q583 443 553.50 511Q524 579 465 618.50Q406 658 322 658L225 653L225 383L350 383L350 343L225 343L225 54L350 44Z"  horiz-adv-x="739" vert-adv-y="1000"  />

      
      <glyph glyph-name="unid1" unicode="&#xd1;" d="M241 865L316 887L471 837L507 890L532 890L508 795L433 773L278 823L242 770L217 770L241 865M202 542L185 611L185 47L270 34L265-1L158 2L35-1L30 34L120 47L120 646L34 666L39 701L132 698L207 701L557 206L578 147L578 653L493 666L498 701L605 698L728 701L733 666L643 653L643-2L580-2L202 542Z"  horiz-adv-x="743" vert-adv-y="1000"  />

      
      <glyph glyph-name="unid2" unicode="&#xd2;" d="M254 900L364 900L431 767L373 767L254 900M380-18Q281-18 203.50 28Q126 74 83 154.50Q40 235 40 335Q40 501 127.50 594Q215 687 400 718Q499 718 576.50 672Q654 626 697 545.50Q740 465 740 365Q740 199 652.50 106Q565 13 380-18M405 37Q515 37 570 119.50Q625 202 625 332Q625 412 599.50 487.50Q574 563 518 613Q462 663 376 663Q266 663 210.50 580.50Q155 498 155 368Q155 287 181 211.50Q207 136 263 86.50Q319 37 405 37Z"  horiz-adv-x="780" vert-adv-y="1000"  />

      
      <glyph glyph-name="unid3" unicode="&#xd3;" d="M426 900L536 900L417 767L359 767L426 900M380-18Q281-18 203.50 28Q126 74 83 154.50Q40 235 40 335Q40 501 127.50 594Q215 687 400 718Q499 718 576.50 672Q654 626 697 545.50Q740 465 740 365Q740 199 652.50 106Q565 13 380-18M405 37Q515 37 570 119.50Q625 202 625 332Q625 412 599.50 487.50Q574 563 518 613Q462 663 376 663Q266 663 210.50 580.50Q155 498 155 368Q155 287 181 211.50Q207 136 263 86.50Q319 37 405 37Z"  horiz-adv-x="780" vert-adv-y="1000"  />

      
      <glyph glyph-name="unid4" unicode="&#xd4;" d="M350 900L433 900L540 767L482 767L404 830L391 845L379 830L301 767L243 767L350 900M380-18Q281-18 203.50 28Q126 74 83 154.50Q40 235 40 335Q40 501 127.50 594Q215 687 400 718Q499 718 576.50 672Q654 626 697 545.50Q740 465 740 365Q740 199 652.50 106Q565 13 380-18M405 37Q515 37 570 119.50Q625 202 625 332Q625 412 599.50 487.50Q574 563 518 613Q462 663 376 663Q266 663 210.50 580.50Q155 498 155 368Q155 287 181 211.50Q207 136 263 86.50Q319 37 405 37Z"  horiz-adv-x="780" vert-adv-y="1000"  />

      
      <glyph glyph-name="unid5" unicode="&#xd5;" d="M261 865L336 887L491 837L527 890L552 890L528 795L453 773L298 823L262 770L237 770L261 865M380-18Q281-18 203.50 28Q126 74 83 154.50Q40 235 40 335Q40 501 127.50 594Q215 687 400 718Q499 718 576.50 672Q654 626 697 545.50Q740 465 740 365Q740 199 652.50 106Q565 13 380-18M405 37Q515 37 570 119.50Q625 202 625 332Q625 412 599.50 487.50Q574 563 518 613Q462 663 376 663Q266 663 210.50 580.50Q155 498 155 368Q155 287 181 211.50Q207 136 263 86.50Q319 37 405 37Z"  horiz-adv-x="780" vert-adv-y="1000"  />

      
      <glyph glyph-name="unid6" unicode="&#xd6;" d="M236 782L231 831L240 871L300 876L325 871L330 823L320 782L261 777L236 782M456 782L451 831L460 871L520 876L545 871L550 823L540 782L481 777L456 782M380-18Q281-18 203.50 28Q126 74 83 154.50Q40 235 40 335Q40 501 127.50 594Q215 687 400 718Q499 718 576.50 672Q654 626 697 545.50Q740 465 740 365Q740 199 652.50 106Q565 13 380-18M405 37Q515 37 570 119.50Q625 202 625 332Q625 412 599.50 487.50Q574 563 518 613Q462 663 376 663Q266 663 210.50 580.50Q155 498 155 368Q155 287 181 211.50Q207 136 263 86.50Q319 37 405 37Z"  horiz-adv-x="780" vert-adv-y="1000"  />

      
      <glyph glyph-name="unid7" unicode="&#xd7;" d="M97 62L264 228L97 395L143 441L309 274L476 441L522 395L355 228L522 62L476 16L309 183L143 16L97 62Z"  horiz-adv-x="620" vert-adv-y="1000"  />

      
      <glyph glyph-name="unid8" unicode="&#xd8;" d="M634 629Q685 581 712.50 512.50Q740 444 740 365Q740 199 652.50 106Q565 13 380-18Q265-18 181 43L136-15L78-15L145 72Q95 120 67.50 188Q40 256 40 335Q40 501 127.50 594Q215 687 400 718Q516 718 600 657L645 715L701 715L634 629M155 368Q155 311 168 254.50Q181 198 208 152L545 586Q480 663 376 663Q266 663 210.50 580.50Q155 498 155 368M405 37Q515 37 570 119.50Q625 202 625 332Q625 388 612 445Q599 502 572 548L235 113Q301 37 405 37Z"  horiz-adv-x="780" vert-adv-y="1000"  />

      
      <glyph glyph-name="unid9" unicode="&#xd9;" d="M241 900L351 900L418 767L360 767L241 900M372-18Q231-18 168 51.50Q105 121 105 247L105 653L15 666L20 701L158 698L295 701L300 666L215 653L215 232Q215 137 256.50 87Q298 37 382 37Q460 37 502 88Q544 139 544 235L544 653L454 666L459 701L587 698L704 701L709 666L624 653L624 245Q624 176 601.50 126.50Q579 77 524 40.50Q469 4 372-18Z"  horiz-adv-x="724" vert-adv-y="1000"  />

      
      <glyph glyph-name="unida" unicode="&#xda;" d="M413 900L523 900L404 767L346 767L413 900M372-18Q231-18 168 51.50Q105 121 105 247L105 653L15 666L20 701L158 698L295 701L300 666L215 653L215 232Q215 137 256.50 87Q298 37 382 37Q460 37 502 88Q544 139 544 235L544 653L454 666L459 701L587 698L704 701L709 666L624 653L624 245Q624 176 601.50 126.50Q579 77 524 40.50Q469 4 372-18Z"  horiz-adv-x="724" vert-adv-y="1000"  />

      
      <glyph glyph-name="unidb" unicode="&#xdb;" d="M337 900L420 900L527 767L469 767L391 830L378 845L366 830L288 767L230 767L337 900M372-18Q231-18 168 51.50Q105 121 105 247L105 653L15 666L20 701L158 698L295 701L300 666L215 653L215 232Q215 137 256.50 87Q298 37 382 37Q460 37 502 88Q544 139 544 235L544 653L454 666L459 701L587 698L704 701L709 666L624 653L624 245Q624 176 601.50 126.50Q579 77 524 40.50Q469 4 372-18Z"  horiz-adv-x="724" vert-adv-y="1000"  />

      
      <glyph glyph-name="unidc" unicode="&#xdc;" d="M223 782L218 831L227 871L287 876L312 871L317 823L307 782L248 777L223 782M443 782L438 831L447 871L507 876L532 871L537 823L527 782L468 777L443 782M372-18Q231-18 168 51.50Q105 121 105 247L105 653L15 666L20 701L158 698L295 701L300 666L215 653L215 232Q215 137 256.50 87Q298 37 382 37Q460 37 502 88Q544 139 544 235L544 653L454 666L459 701L587 698L704 701L709 666L624 653L624 245Q624 176 601.50 126.50Q579 77 524 40.50Q469 4 372-18Z"  horiz-adv-x="724" vert-adv-y="1000"  />

      
      <glyph glyph-name="unidd" unicode="&#xdd;" d="M416 900L526 900L407 767L349 767L416 900M187 34L307 47L307 275L83 656L5 667L10 701L148 698L280 701L285 667L200 654L372 364L380 325L553 654L466 667L471 701L590 698L701 701L706 668L628 657L410 271L412 47L527 34L522-1L360 2L192-1L187 34Z"  horiz-adv-x="711" vert-adv-y="1000"  />

      
      <glyph glyph-name="unide" unicode="&#xde;" d="M30 35L120 48L120 653L30 666L35 701L173 698L305 701L310 666L225 653L225 556L365 558Q462 559 523.50 512Q585 465 585 380Q585 288 514 234Q443 180 335 157L225 157L225 48L340 35L335-1L173 2L35-1L30 35M310 207Q381 207 425.50 251.50Q470 296 470 367Q470 435 432.50 475.50Q395 516 320 516L225 510L225 207L310 207Z"  horiz-adv-x="595" vert-adv-y="1000"  />

      
      <glyph glyph-name="unidf" unicode="&#xdf;" d="M408-18Q369-18 331-2.50Q293 13 271 30L265 133L316 133L340 60Q359 47 376.50 39.50Q394 32 417 32Q449 32 470.50 54Q492 76 492 106Q492 135 476.50 158.50Q461 182 425 204L364 241Q284 289 284 396L349 438Q380 458 399.50 492.50Q419 527 419 575Q419 597 407.50 620Q396 643 373.50 658Q351 673 319 673Q263 673 236 628.50Q209 584 209 500L209 0L164 2L49-1L44 29L114 39L114 413L26 413L26 430L56 465L114 465L114 510Q114 560 148 607Q182 654 246 685L314 718Q406 718 462.50 682.50Q519 647 519 585Q519 545 500.50 515Q482 485 451 462.50Q420 440 364 407Q364 376 378.50 352.50Q393 329 434 307L498 272Q545 246 565.50 214.50Q586 183 586 144Q586 84 536.50 43Q487 2 408-18Z"  horiz-adv-x="606" vert-adv-y="1000"  />

      
      <glyph glyph-name="unie0" unicode="&#xe0;" d="M177-15Q111-15 70.50 19.50Q30 54 30 113Q30 139 38.50 160Q47 181 65 205L290 280L290 330Q290 381 279 403.50Q268 426 231 426Q193 426 149 408L132 332L46 332L46 405L227 485Q292 485 325 471.50Q358 458 371.50 424.50Q385 391 385 326L385 130Q385 100 389 84.50Q393 69 402 55L452 55L456 20L327-5L296 72L177-15M183 55Q201 55 216.50 62.50Q232 70 248 81L290 110L290 240L145 180Q125 160 125 124Q125 89 142 72Q159 55 183 55M98 710L208 710L255 551L217 551L98 710Z"  horiz-adv-x="461" vert-adv-y="1000"  />

      
      <glyph glyph-name="unie1" unicode="&#xe1;" d="M177-15Q111-15 70.50 19.50Q30 54 30 113Q30 139 38.50 160Q47 181 65 205L290 280L290 330Q290 381 279 403.50Q268 426 231 426Q193 426 149 408L132 332L46 332L46 405L227 485Q292 485 325 471.50Q358 458 371.50 424.50Q385 391 385 326L385 130Q385 100 389 84.50Q393 69 402 55L452 55L456 20L327-5L296 72L177-15M183 55Q201 55 216.50 62.50Q232 70 248 81L290 110L290 240L145 180Q125 160 125 124Q125 89 142 72Q159 55 183 55M258 710L368 710L249 551L211 551L258 710Z"  horiz-adv-x="461" vert-adv-y="1000"  />

      
      <glyph glyph-name="unie2" unicode="&#xe2;" d="M177-15Q111-15 70.50 19.50Q30 54 30 113Q30 139 38.50 160Q47 181 65 205L290 280L290 330Q290 381 279 403.50Q268 426 231 426Q193 426 149 408L132 332L46 332L46 405L227 485Q292 485 325 471.50Q358 458 371.50 424.50Q385 391 385 326L385 130Q385 100 389 84.50Q393 69 402 55L452 55L456 20L327-5L296 72L177-15M183 55Q201 55 216.50 62.50Q232 70 248 81L290 110L290 240L145 180Q125 160 125 124Q125 89 142 72Q159 55 183 55M188 710L259 710L366 551L320 551L242 624L223 650L205 624L127 551L81 551L188 710Z"  horiz-adv-x="461" vert-adv-y="1000"  />

      
      <glyph glyph-name="unie3" unicode="&#xe3;" d="M177-15Q111-15 70.50 19.50Q30 54 30 113Q30 139 38.50 160Q47 181 65 205L290 280L290 330Q290 381 279 403.50Q268 426 231 426Q193 426 149 408L132 332L46 332L46 405L227 485Q292 485 325 471.50Q358 458 371.50 424.50Q385 391 385 326L385 130Q385 100 389 84.50Q393 69 402 55L452 55L456 20L327-5L296 72L177-15M183 55Q201 55 216.50 62.50Q232 70 248 81L290 110L290 240L145 180Q125 160 125 124Q125 89 142 72Q159 55 183 55M125 633L96 577L67 577L89 669L166 691L320 633L349 689L377 689L354 592L279 575L125 633Z"  horiz-adv-x="461" vert-adv-y="1000"  />

      
      <glyph glyph-name="unie4" unicode="&#xe4;" d="M177-15Q111-15 70.50 19.50Q30 54 30 113Q30 139 38.50 160Q47 181 65 205L290 280L290 330Q290 381 279 403.50Q268 426 231 426Q193 426 149 408L132 332L46 332L46 405L227 485Q292 485 325 471.50Q358 458 371.50 424.50Q385 391 385 326L385 130Q385 100 389 84.50Q393 69 402 55L452 55L456 20L327-5L296 72L177-15M183 55Q201 55 216.50 62.50Q232 70 248 81L290 110L290 240L145 180Q125 160 125 124Q125 89 142 72Q159 55 183 55M88 583L83 632L92 672L152 677L177 672L182 624L172 583L113 578L88 583M268 583L263 632L272 672L332 677L357 672L362 624L352 583L293 578L268 583Z"  horiz-adv-x="461" vert-adv-y="1000"  />

      
      <glyph glyph-name="unie5" unicode="&#xe5;" d="M177-15Q111-15 70.50 19.50Q30 54 30 113Q30 139 38.50 160Q47 181 65 205L290 280L290 330Q290 381 279 403.50Q268 426 231 426Q193 426 149 408L132 332L46 332L46 405L227 485Q292 485 325 471.50Q358 458 371.50 424.50Q385 391 385 326L385 130Q385 100 389 84.50Q393 69 402 55L452 55L456 20L327-5L296 72L177-15M183 55Q201 55 216.50 62.50Q232 70 248 81L290 110L290 240L145 180Q125 160 125 124Q125 89 142 72Q159 55 183 55M225 539Q181 539 150.50 560.50Q120 582 120 630Q120 672 146 691.50Q172 711 222 725Q325 725 325 630Q325 603 316 587.50Q307 572 292 564.50Q277 557 250 548L225 539M223 578Q247 578 263 592.50Q279 607 279 630Q279 653 262.50 669.50Q246 686 223 686Q200 686 183.50 669.50Q167 653 167 630Q167 607 183 592.50Q199 578 223 578Z"  horiz-adv-x="461" vert-adv-y="1000"  />

      
      <glyph glyph-name="unie6" unicode="&#xe6;" d="M673 64Q600 14 498-15Q440-15 390 10Q340 35 309 81L178-15Q113-15 71.50 19Q30 53 30 109Q30 138 38.50 159Q47 180 65 205L283 280L283 330Q283 380 273 403Q263 426 231 426Q193 426 149 408L132 329L46 329L46 405L224 485Q283 485 315 472.50Q347 460 362 429Q414 467 494 485Q587 485 629 434Q671 383 671 297L671 255L373 255Q376 167 420.50 113.50Q465 60 542 60Q593 60 657 102L673 64M480 435Q434 435 406.50 397Q379 359 374 294L567 305Q567 370 549 402.50Q531 435 480 435M283 240L145 180Q125 160 125 120Q125 88 142.50 71.50Q160 55 184 55Q208 55 245 82L283 110L283 179L283 240Z"  horiz-adv-x="708" vert-adv-y="1000"  />

      
      <glyph glyph-name="unie7" unicode="&#xe7;" d="M236-47Q270-49 293.50-69.50Q317-90 317-124Q317-164 289-190.50Q261-217 226-228L175-245L117-245L146-205L220-205Q234-196 242-178.50Q250-161 250-143Q250-111 226-96.50Q202-82 170-82L221-12Q139 1 89.50 62Q40 123 40 223Q40 332 107 396Q174 460 278 485Q312 485 352.50 470Q393 455 416 435L416 335L342 335L319 416Q307 425 294 428.50Q281 432 261 432Q227 432 199.50 408.50Q172 385 156.50 343Q141 301 141 247Q141 165 183 112.50Q225 60 297 60Q346 60 410 102L426 64Q358 15 263-15L258-15L236-47Z"  horiz-adv-x="451" vert-adv-y="1000"  />

      
      <glyph glyph-name="unie8" unicode="&#xe8;" d="M440 64Q367 14 265-15Q203-15 150.50 13.50Q98 42 66.50 97Q35 152 35 228Q35 335 94.50 398Q154 461 261 485Q354 485 396 434Q438 383 438 297L438 255L133 255Q136 163 179 111.50Q222 60 299 60Q328 60 361 72Q394 84 424 102L440 64M242 435Q198 435 169 398Q140 361 134 297L334 305Q334 370 315 402.50Q296 435 242 435M137 710L247 710L294 551L256 551L137 710Z"  horiz-adv-x="475" vert-adv-y="1000"  />

      
      <glyph glyph-name="unie9" unicode="&#xe9;" d="M440 64Q367 14 265-15Q203-15 150.50 13.50Q98 42 66.50 97Q35 152 35 228Q35 335 94.50 398Q154 461 261 485Q354 485 396 434Q438 383 438 297L438 255L133 255Q136 163 179 111.50Q222 60 299 60Q328 60 361 72Q394 84 424 102L440 64M242 435Q198 435 169 398Q140 361 134 297L334 305Q334 370 315 402.50Q296 435 242 435M297 710L407 710L288 551L250 551L297 710Z"  horiz-adv-x="475" vert-adv-y="1000"  />

      
      <glyph glyph-name="uniea" unicode="&#xea;" d="M440 64Q367 14 265-15Q203-15 150.50 13.50Q98 42 66.50 97Q35 152 35 228Q35 335 94.50 398Q154 461 261 485Q354 485 396 434Q438 383 438 297L438 255L133 255Q136 163 179 111.50Q222 60 299 60Q328 60 361 72Q394 84 424 102L440 64M242 435Q198 435 169 398Q140 361 134 297L334 305Q334 370 315 402.50Q296 435 242 435M227 710L298 710L405 551L359 551L281 624L262 650L244 624L166 551L120 551L227 710Z"  horiz-adv-x="475" vert-adv-y="1000"  />

      
      <glyph glyph-name="unieb" unicode="&#xeb;" d="M440 64Q367 14 265-15Q203-15 150.50 13.50Q98 42 66.50 97Q35 152 35 228Q35 335 94.50 398Q154 461 261 485Q354 485 396 434Q438 383 438 297L438 255L133 255Q136 163 179 111.50Q222 60 299 60Q328 60 361 72Q394 84 424 102L440 64M242 435Q198 435 169 398Q140 361 134 297L334 305Q334 370 315 402.50Q296 435 242 435M127 583L122 632L131 672L191 677L216 672L221 624L211 583L152 578L127 583M307 583L302 632L311 672L371 677L396 672L401 624L391 583L332 578L307 583Z"  horiz-adv-x="475" vert-adv-y="1000"  />

      
      <glyph glyph-name="uniec" unicode="&#xec;" d="M35 34L105 44L105 409L35 403L30 438L150 469L200 473L200 44L275 34L270-1L155 2L40-1L35 34M24 710L134 710L181 551L143 551L24 710Z"  horiz-adv-x="295" vert-adv-y="1000"  />

      
      <glyph glyph-name="unied" unicode="&#xed;" d="M35 34L105 44L105 409L35 403L30 438L150 469L200 473L200 44L275 34L270-1L155 2L40-1L35 34M183 710L293 710L174 551L136 551L183 710Z"  horiz-adv-x="295" vert-adv-y="1000"  />

      
      <glyph glyph-name="uniee" unicode="&#xee;" d="M35 34L105 44L105 409L35 403L30 438L150 469L200 473L200 44L275 34L270-1L155 2L40-1L35 34M113 710L184 710L291 551L245 551L167 624L148 650L130 624L52 551L6 551L113 710Z"  horiz-adv-x="295" vert-adv-y="1000"  />

      
      <glyph glyph-name="unief" unicode="&#xef;" d="M35 34L105 44L105 409L35 403L30 438L150 469L200 473L200 44L275 34L270-1L155 2L40-1L35 34M14 583L9 632L18 672L78 677L103 672L108 624L98 583L39 578L14 583M194 583L189 632L198 672L258 677L283 672L288 624L278 583L219 578L194 583Z"  horiz-adv-x="295" vert-adv-y="1000"  />

      
      <glyph glyph-name="unif0" unicode="&#xf0;" d="M332 623Q418 562 459 481Q500 400 500 289Q500 154 443 82.50Q386 11 271-15Q205-13 151.50 19.50Q98 52 66.50 110.50Q35 169 35 247Q35 347 88 409Q141 471 236 475L386 405Q358 518 270 593L156 537L156 592L225 626Q179 657 122 680L144 720Q233 684 283 654L408 715L408 660L332 623M273 27Q330 27 364.50 92Q399 157 399 279Q399 318 394 358L363 375Q294 412 254 412Q202 412 171 366.50Q140 321 140 248Q140 182 158.50 131.50Q177 81 207.50 54Q238 27 273 27Z"  horiz-adv-x="535" vert-adv-y="1000"  />

      
      <glyph glyph-name="unif1" unicode="&#xf1;" d="M35 34L105 44L105 409L35 403L30 438L150 469L193 472L198 388L346 485Q410 485 441.50 469.50Q473 454 484 420Q495 386 495 322L495 44L571 34L566-1L451 2L355-1L350 34L400 44L400 330Q400 405 334 405Q310 405 286 393.50Q262 382 230 360L200 340L200 44L255 34L250-1L155 2L40-1L35 34M196 633L167 577L138 577L160 669L237 691L391 633L420 689L448 689L425 592L350 575L196 633Z"  horiz-adv-x="588" vert-adv-y="1000"  />

      
      <glyph glyph-name="unif2" unicode="&#xf2;" d="M258-15Q193-15 142 16Q91 47 63 101.50Q35 156 35 224Q35 334 98.50 399.50Q162 465 281 485Q346 485 397 453.50Q448 422 476 367.50Q504 313 504 245Q504 135 440 69.50Q376 4 258-15M283 34Q341 34 372.50 87Q404 140 404 224Q404 287 385 335Q366 383 332.50 409.50Q299 436 256 436Q197 436 166 383Q135 330 135 245Q135 188 153.50 139.50Q172 91 206 62.50Q240 34 283 34M146 710L256 710L303 551L265 551L146 710Z"  horiz-adv-x="539" vert-adv-y="1000"  />

      
      <glyph glyph-name="unif3" unicode="&#xf3;" d="M258-15Q193-15 142 16Q91 47 63 101.50Q35 156 35 224Q35 334 98.50 399.50Q162 465 281 485Q346 485 397 453.50Q448 422 476 367.50Q504 313 504 245Q504 135 440 69.50Q376 4 258-15M283 34Q341 34 372.50 87Q404 140 404 224Q404 287 385 335Q366 383 332.50 409.50Q299 436 256 436Q197 436 166 383Q135 330 135 245Q135 188 153.50 139.50Q172 91 206 62.50Q240 34 283 34M306 710L416 710L297 551L259 551L306 710Z"  horiz-adv-x="539" vert-adv-y="1000"  />

      
      <glyph glyph-name="unif4" unicode="&#xf4;" d="M258-15Q193-15 142 16Q91 47 63 101.50Q35 156 35 224Q35 334 98.50 399.50Q162 465 281 485Q346 485 397 453.50Q448 422 476 367.50Q504 313 504 245Q504 135 440 69.50Q376 4 258-15M283 34Q341 34 372.50 87Q404 140 404 224Q404 287 385 335Q366 383 332.50 409.50Q299 436 256 436Q197 436 166 383Q135 330 135 245Q135 188 153.50 139.50Q172 91 206 62.50Q240 34 283 34M236 710L307 710L414 551L368 551L290 624L271 650L253 624L175 551L129 551L236 710Z"  horiz-adv-x="539" vert-adv-y="1000"  />

      
      <glyph glyph-name="unif5" unicode="&#xf5;" d="M258-15Q193-15 142 16Q91 47 63 101.50Q35 156 35 224Q35 334 98.50 399.50Q162 465 281 485Q346 485 397 453.50Q448 422 476 367.50Q504 313 504 245Q504 135 440 69.50Q376 4 258-15M283 34Q341 34 372.50 87Q404 140 404 224Q404 287 385 335Q366 383 332.50 409.50Q299 436 256 436Q197 436 166 383Q135 330 135 245Q135 188 153.50 139.50Q172 91 206 62.50Q240 34 283 34M173 633L144 577L115 577L137 669L214 691L368 633L397 689L425 689L402 592L327 575L173 633Z"  horiz-adv-x="539" vert-adv-y="1000"  />

      
      <glyph glyph-name="unif6" unicode="&#xf6;" d="M258-15Q193-15 142 16Q91 47 63 101.50Q35 156 35 224Q35 334 98.50 399.50Q162 465 281 485Q346 485 397 453.50Q448 422 476 367.50Q504 313 504 245Q504 135 440 69.50Q376 4 258-15M283 34Q341 34 372.50 87Q404 140 404 224Q404 287 385 335Q366 383 332.50 409.50Q299 436 256 436Q197 436 166 383Q135 330 135 245Q135 188 153.50 139.50Q172 91 206 62.50Q240 34 283 34M136 583L131 632L140 672L200 677L225 672L230 624L220 583L161 578L136 583M316 583L311 632L320 672L380 677L405 672L410 624L400 583L341 578L316 583Z"  horiz-adv-x="539" vert-adv-y="1000"  />

      
      <glyph glyph-name="unif7" unicode="&#xf7;" d="M259 370L254 427L259 475L334 480L364 475L369 419L364 370L289 365L259 370M47 277L572 277L572 212L47 212L47 277M259 0L254 57L259 105L334 110L364 105L369 49L364 0L289-5L259 0Z"  horiz-adv-x="620" vert-adv-y="1000"  />

      
      <glyph glyph-name="unif8" unicode="&#xf8;" d="M444 414Q473 381 488.50 338Q504 295 504 245Q504 135 440 69.50Q376 4 258-15Q180-15 123 29L90-10L37-10L93 57Q65 90 50 132.50Q35 175 35 224Q35 334 98.50 399.50Q162 465 281 485Q358 485 415 441L448 480L499 480L444 414M135 245Q135 185 156 132L362 378Q342 406 315 421Q288 436 256 436Q197 436 166 383Q135 330 135 245M283 34Q341 34 372.50 87Q404 140 404 224Q404 288 383 341L177 94Q219 34 283 34Z"  horiz-adv-x="544" vert-adv-y="1000"  />

      
      <glyph glyph-name="unif9" unicode="&#xf9;" d="M239-15Q174-15 141 1Q108 17 96.50 51.50Q85 86 85 148L85 409L15 404L10 443L130 469L181 473L181 140Q181 101 197.50 83Q214 65 251 65Q272 65 298 78Q324 91 360 115L380 128L380 409L320 404L315 443L425 469L475 473L475 130Q475 100 478 84.50Q481 69 487 55L537 55L541 20L412-5L384 76L239-15M143 710L253 710L300 551L262 551L143 710Z"  horiz-adv-x="566" vert-adv-y="1000"  />

      
      <glyph glyph-name="unifa" unicode="&#xfa;" d="M239-15Q174-15 141 1Q108 17 96.50 51.50Q85 86 85 148L85 409L15 404L10 443L130 469L181 473L181 140Q181 101 197.50 83Q214 65 251 65Q272 65 298 78Q324 91 360 115L380 128L380 409L320 404L315 443L425 469L475 473L475 130Q475 100 478 84.50Q481 69 487 55L537 55L541 20L412-5L384 76L239-15M303 710L413 710L294 551L256 551L303 710Z"  horiz-adv-x="566" vert-adv-y="1000"  />

      
      <glyph glyph-name="unifb" unicode="&#xfb;" d="M239-15Q174-15 141 1Q108 17 96.50 51.50Q85 86 85 148L85 409L15 404L10 443L130 469L181 473L181 140Q181 101 197.50 83Q214 65 251 65Q272 65 298 78Q324 91 360 115L380 128L380 409L320 404L315 443L425 469L475 473L475 130Q475 100 478 84.50Q481 69 487 55L537 55L541 20L412-5L384 76L239-15M233 710L304 710L411 551L365 551L287 624L268 650L250 624L172 551L126 551L233 710Z"  horiz-adv-x="566" vert-adv-y="1000"  />

      
      <glyph glyph-name="unifc" unicode="&#xfc;" d="M239-15Q174-15 141 1Q108 17 96.50 51.50Q85 86 85 148L85 409L15 404L10 443L130 469L181 473L181 140Q181 101 197.50 83Q214 65 251 65Q272 65 298 78Q324 91 360 115L380 128L380 409L320 404L315 443L425 469L475 473L475 130Q475 100 478 84.50Q481 69 487 55L537 55L541 20L412-5L384 76L239-15M133 583L128 632L137 672L197 677L222 672L227 624L217 583L158 578L133 583M313 583L308 632L317 672L377 677L402 672L407 624L397 583L338 578L313 583Z"  horiz-adv-x="566" vert-adv-y="1000"  />

      
      <glyph glyph-name="unifd" unicode="&#xfd;" d="M85-135L171-135L270 16L230 4L67 426L5 436L10 471L125 468L230 471L235 436L169 426L275 133L283 64L402 426L356 436L361 471L449 468L532 471L537 436L473 426L316 17L204-235L85-235L85-135M315 710L425 710L306 551L268 551L315 710Z"  horiz-adv-x="542" vert-adv-y="1000"  />

      
      <glyph glyph-name="unife" unicode="&#xfe;" d="M20-196L90-186L90 650L20 645L15 679L135 710L185 714L185 390L311 485Q407 485 461 423Q515 361 515 252Q515 130 448.50 65.50Q382 1 264-15Q222-15 185 6L185-186L290-196L285-231L140-228L25-231L20-196M294 35Q349 35 382 85.50Q415 136 415 221Q415 307 386 358.50Q357 410 311 410Q276 410 215 364L185 341L185 90Q202 64 231 49.50Q260 35 294 35Z"  horiz-adv-x="555" vert-adv-y="1000"  />

      
      <glyph glyph-name="uniff" unicode="&#xff;" d="M85-135L171-135L270 16L230 4L67 426L5 436L10 471L125 468L230 471L235 436L169 426L275 133L283 64L402 426L356 436L361 471L449 468L532 471L537 436L473 426L316 17L204-235L85-235L85-135M145 583L140 632L149 672L209 677L234 672L239 624L229 583L170 578L145 583M325 583L320 632L329 672L389 677L414 672L419 624L409 583L350 578L325 583Z"  horiz-adv-x="542" vert-adv-y="1000"  />

      
      <glyph glyph-name="uni0100" unicode="&#x0100;" d="M231 855L511 855L511 800L231 800L231 855M10 34L88 45L336 693L396 710L657 45L735 34L730-1L592 2L460-1L455 34L540 47L472 234L225 234L160 47L247 34L242-1L122 2L15-1L10 34M454 281L358 545L351 599L241 281L454 281Z"  horiz-adv-x="745" vert-adv-y="1000"  />

      
      <glyph glyph-name="uni0101" unicode="&#x0101;" d="M177-15Q111-15 70.50 19.50Q30 54 30 113Q30 139 38.50 160Q47 181 65 205L290 280L290 330Q290 381 279 403.50Q268 426 231 426Q193 426 149 408L132 332L46 332L46 405L227 485Q292 485 325 471.50Q358 458 371.50 424.50Q385 391 385 326L385 130Q385 100 389 84.50Q393 69 402 55L452 55L456 20L327-5L296 72L177-15M183 55Q201 55 216.50 62.50Q232 70 248 81L290 110L290 240L145 180Q125 160 125 124Q125 89 142 72Q159 55 183 55M83 667L363 667L363 608L83 608L83 667Z"  horiz-adv-x="461" vert-adv-y="1000"  />

      
      <glyph glyph-name="uni0102" unicode="&#x0102;" d="M386 754Q331 754 296 786Q261 818 234 865L261 885Q283 855 307.50 835.50Q332 816 371 816Q410 816 436.50 836Q463 856 484 885L508 865Q504 859 491 836.50Q478 814 452 792Q426 770 386 754M10 34L88 45L336 693L396 710L657 45L735 34L730-1L592 2L460-1L455 34L540 47L472 234L225 234L160 47L247 34L242-1L122 2L15-1L10 34M454 281L358 545L351 599L241 281L454 281Z"  horiz-adv-x="745" vert-adv-y="1000"  />

      
      <glyph glyph-name="uni0103" unicode="&#x0103;" d="M177-15Q111-15 70.50 19.50Q30 54 30 113Q30 139 38.50 160Q47 181 65 205L290 280L290 330Q290 381 279 403.50Q268 426 231 426Q193 426 149 408L132 332L46 332L46 405L227 485Q292 485 325 471.50Q358 458 371.50 424.50Q385 391 385 326L385 130Q385 100 389 84.50Q393 69 402 55L452 55L456 20L327-5L296 72L177-15M183 55Q201 55 216.50 62.50Q232 70 248 81L290 110L290 240L145 180Q125 160 125 124Q125 89 142 72Q159 55 183 55M240 556Q190 556 145 592Q100 628 83 679L113 700Q138 662 164.50 644.50Q191 627 226 627Q262 627 284 646Q306 665 331 700L365 679Q343 638 313 608.50Q283 579 240 556Z"  horiz-adv-x="461" vert-adv-y="1000"  />

      
      <glyph glyph-name="uni0104" unicode="&#x0104;" d="M514-100L514-143Q514-212 617-212L617-245Q516-245 471.50-219Q427-193 427-139L427-95L548 23L472 234L225 234L160 47L247 34L242-1L122 2L15-1L10 34L88 45L336 693L396 710L657 45L735 34L730-1L575 2L514-100M454 281L358 545L351 599L241 281L454 281Z"  horiz-adv-x="745" vert-adv-y="1000"  />

      
      <glyph glyph-name="uni0105" unicode="&#x0105;" d="M307-143Q307-212 410-212L410-245Q309-245 264.50-219Q220-193 220-139L220-95L323 5L296 72L177-15Q111-15 70.50 19.50Q30 54 30 113Q30 139 38.50 160Q47 181 65 205L290 280L290 330Q290 381 279 403.50Q268 426 231 426Q193 426 149 408L132 332L46 332L46 405L227 485Q292 485 325 471.50Q358 458 371.50 424.50Q385 391 385 326L385 130Q385 100 389 84.50Q393 69 402 55L452 55L456 20L368 3L307-100L307-143M290 240L145 180Q125 160 125 124Q125 89 142 72Q159 55 183 55Q201 55 216.50 62.50Q232 70 248 81L290 110L290 240Z"  horiz-adv-x="461" vert-adv-y="1000"  />

      
      <glyph glyph-name="uni0106" unicode="&#x0106;" d="M443 900L553 900L434 767L376 767L443 900M400-18Q305-18 222.50 24Q140 66 90 147.50Q40 229 40 341Q40 509 141 601.50Q242 694 418 718Q488 718 552 694Q616 670 657 640L657 505L602 505L570 598Q545 625 502 645.50Q459 666 404 666Q329 666 273 631.50Q217 597 186 529Q155 461 155 365Q155 282 188 206.50Q221 131 283 84Q345 37 429 37Q469 37 500.50 53Q532 69 560 93L614 204L669 204L643 60Q595 37 526 13.50Q457-10 400-18Z"  horiz-adv-x="704" vert-adv-y="1000"  />

      
      <glyph glyph-name="uni0107" unicode="&#x0107;" d="M263-15Q198-15 147.50 12.50Q97 40 68.50 94Q40 148 40 223Q40 332 107 396Q174 460 278 485Q312 485 352.50 470Q393 455 416 435L416 335L342 335L319 416Q307 425 294 428.50Q281 432 261 432Q227 432 199.50 408.50Q172 385 156.50 343Q141 301 141 247Q141 165 183 112.50Q225 60 297 60Q346 60 410 102L426 64Q358 15 263-15M303 710L413 710L294 551L256 551L303 710Z"  horiz-adv-x="451" vert-adv-y="1000"  />

      
      <glyph glyph-name="uni0108" unicode="&#x0108;" d="M367 900L450 900L557 767L499 767L421 830L408 845L396 830L318 767L260 767L367 900M400-18Q305-18 222.50 24Q140 66 90 147.50Q40 229 40 341Q40 509 141 601.50Q242 694 418 718Q488 718 552 694Q616 670 657 640L657 505L602 505L570 598Q545 625 502 645.50Q459 666 404 666Q329 666 273 631.50Q217 597 186 529Q155 461 155 365Q155 282 188 206.50Q221 131 283 84Q345 37 429 37Q469 37 500.50 53Q532 69 560 93L614 204L669 204L643 60Q595 37 526 13.50Q457-10 400-18Z"  horiz-adv-x="704" vert-adv-y="1000"  />

      
      <glyph glyph-name="uni0109" unicode="&#x0109;" d="M263-15Q198-15 147.50 12.50Q97 40 68.50 94Q40 148 40 223Q40 332 107 396Q174 460 278 485Q312 485 352.50 470Q393 455 416 435L416 335L342 335L319 416Q307 425 294 428.50Q281 432 261 432Q227 432 199.50 408.50Q172 385 156.50 343Q141 301 141 247Q141 165 183 112.50Q225 60 297 60Q346 60 410 102L426 64Q358 15 263-15M233 710L304 710L411 551L365 551L287 624L268 650L250 624L172 551L126 551L233 710Z"  horiz-adv-x="451" vert-adv-y="1000"  />

      
      <glyph glyph-name="uni010A" unicode="&#x010A;" d="M354 776L348 832L358 880L430 885L458 880L463 824L452 776L381 770L354 776M400-18Q305-18 222.50 24Q140 66 90 147.50Q40 229 40 341Q40 509 141 601.50Q242 694 418 718Q488 718 552 694Q616 670 657 640L657 505L602 505L570 598Q545 625 502 645.50Q459 666 404 666Q329 666 273 631.50Q217 597 186 529Q155 461 155 365Q155 282 188 206.50Q221 131 283 84Q345 37 429 37Q469 37 500.50 53Q532 69 560 93L614 204L669 204L643 60Q595 37 526 13.50Q457-10 400-18Z"  horiz-adv-x="704" vert-adv-y="1000"  />

      
      <glyph glyph-name="uni010B" unicode="&#x010B;" d="M263-15Q198-15 147.50 12.50Q97 40 68.50 94Q40 148 40 223Q40 332 107 396Q174 460 278 485Q312 485 352.50 470Q393 455 416 435L416 335L342 335L319 416Q307 425 294 428.50Q281 432 261 432Q227 432 199.50 408.50Q172 385 156.50 343Q141 301 141 247Q141 165 183 112.50Q225 60 297 60Q346 60 410 102L426 64Q358 15 263-15M214 583L208 642L218 691L293 696L321 690L326 633L315 583L241 577L214 583Z"  horiz-adv-x="451" vert-adv-y="1000"  />

      
      <glyph glyph-name="uni010C" unicode="&#x010C;" d="M259 900L317 900L395 837L407 822L420 837L498 900L556 900L449 767L366 767L259 900M400-18Q305-18 222.50 24Q140 66 90 147.50Q40 229 40 341Q40 509 141 601.50Q242 694 418 718Q488 718 552 694Q616 670 657 640L657 505L602 505L570 598Q545 625 502 645.50Q459 666 404 666Q329 666 273 631.50Q217 597 186 529Q155 461 155 365Q155 282 188 206.50Q221 131 283 84Q345 37 429 37Q469 37 500.50 53Q532 69 560 93L614 204L669 204L643 60Q595 37 526 13.50Q457-10 400-18Z"  horiz-adv-x="704" vert-adv-y="1000"  />

      
      <glyph glyph-name="uni010D" unicode="&#x010D;" d="M263-15Q198-15 147.50 12.50Q97 40 68.50 94Q40 148 40 223Q40 332 107 396Q174 460 278 485Q312 485 352.50 470Q393 455 416 435L416 335L342 335L319 416Q307 425 294 428.50Q281 432 261 432Q227 432 199.50 408.50Q172 385 156.50 343Q141 301 141 247Q141 165 183 112.50Q225 60 297 60Q346 60 410 102L426 64Q358 15 263-15M125 710L172 710L249 636L268 609L287 636L365 710L411 710L304 551L232 551L125 710Z"  horiz-adv-x="451" vert-adv-y="1000"  />

      
      <glyph glyph-name="uni010E" unicode="&#x010E;" d="M180 900L238 900L316 837L328 822L341 837L419 900L477 900L370 767L287 767L180 900M30 34L120 47L120 653L30 666L35 701L170 698L369 701Q524 702 611.50 615.50Q699 529 699 370Q699 207 613.50 112.50Q528 18 359-1L170 2L35-1L30 34M350 44Q419 44 472 83Q525 122 554 193Q583 264 583 357Q583 443 553.50 511Q524 579 465 618.50Q406 658 322 658L225 653L225 54L350 44Z"  horiz-adv-x="739" vert-adv-y="1000"  />

      
      <glyph glyph-name="uni010F" unicode="&#x010F;" d="M243-15Q180-15 133 14.50Q86 44 60.50 96.50Q35 149 35 218Q35 335 100.50 402Q166 469 280 485Q294 485 319.50 476.50Q345 468 365 458L365 647L295 645L290 679L410 710L460 714L460 130Q460 102 464.50 86Q469 70 477 57L533 57L537 20L403-5L372 72L243-15M239 65Q284 65 335 106L365 130L365 395Q348 414 322.50 424.50Q297 435 266 435Q206 435 170.50 383.50Q135 332 135 244Q135 162 164 113.50Q193 65 239 65M504 470Q517 498 529 538Q541 578 541 596L501 600L496 657L501 705L576 710L606 705L611 649L606 600L541 455L504 470Z"  horiz-adv-x="577" vert-adv-y="1000"  />

      
      <glyph glyph-name="uni0110" unicode="&#x0110;" d="M369 701Q524 702 611.50 615.50Q699 529 699 370Q699 207 613.50 112.50Q528 18 359-1L170 2L35-1L30 34L120 47L120 343L40 343L40 383L120 383L120 653L30 666L35 701L170 698L369 701M350 44Q419 44 472 83Q525 122 554 193Q583 264 583 357Q583 443 553.50 511Q524 579 465 618.50Q406 658 322 658L225 653L225 383L350 383L350 343L225 343L225 54L350 44Z"  horiz-adv-x="739" vert-adv-y="1000"  />

      
      <glyph glyph-name="uni0111" unicode="&#x0111;" d="M460 557L460 130Q460 102 464.50 86Q469 70 477 57L533 57L537 20L403-5L372 72L243-15Q180-15 133 14.50Q86 44 60.50 96.50Q35 149 35 218Q35 335 100.50 402Q166 469 280 485Q294 485 319.50 476.50Q345 468 365 458L365 557L232 557L232 597L365 597L365 647L295 645L290 679L410 710L460 714L460 597L537 597L537 557L460 557M365 395Q348 414 322.50 424.50Q297 435 266 435Q206 435 170.50 383.50Q135 332 135 244Q135 162 164 113.50Q193 65 239 65Q284 65 335 106L365 130L365 395Z"  horiz-adv-x="557" vert-adv-y="1000"  />

      
      <glyph glyph-name="uni0112" unicode="&#x0112;" d="M203 855L483 855L483 800L203 800L203 855M30 34L120 47L120 653L30 666L35 701L173 698L570 701L580 521L546 521L490 651L225 654L225 388L365 392L405 497L440 497L430 372L440 237L405 237L365 342L225 346L225 46L500 49L567 184L605 184L570-1L173 2L35-1L30 34Z"  horiz-adv-x="630" vert-adv-y="1000"  />

      
      <glyph glyph-name="uni0113" unicode="&#x0113;" d="M440 64Q367 14 265-15Q203-15 150.50 13.50Q98 42 66.50 97Q35 152 35 228Q35 335 94.50 398Q154 461 261 485Q354 485 396 434Q438 383 438 297L438 255L133 255Q136 163 179 111.50Q222 60 299 60Q328 60 361 72Q394 84 424 102L440 64M242 435Q198 435 169 398Q140 361 134 297L334 305Q334 370 315 402.50Q296 435 242 435M122 667L402 667L402 608L122 608L122 667Z"  horiz-adv-x="475" vert-adv-y="1000"  />

      
      <glyph glyph-name="uni0114" unicode="&#x0114;" d="M358 754Q303 754 268 786Q233 818 206 865L233 885Q255 855 279.50 835.50Q304 816 343 816Q382 816 408.50 836Q435 856 456 885L480 865Q476 859 463 836.50Q450 814 424 792Q398 770 358 754M30 34L120 47L120 653L30 666L35 701L173 698L570 701L580 521L546 521L490 651L225 654L225 388L365 392L405 497L440 497L430 372L440 237L405 237L365 342L225 346L225 46L500 49L567 184L605 184L570-1L173 2L35-1L30 34Z"  horiz-adv-x="630" vert-adv-y="1000"  />

      
      <glyph glyph-name="uni0115" unicode="&#x0115;" d="M440 64Q367 14 265-15Q203-15 150.50 13.50Q98 42 66.50 97Q35 152 35 228Q35 335 94.50 398Q154 461 261 485Q354 485 396 434Q438 383 438 297L438 255L133 255Q136 163 179 111.50Q222 60 299 60Q328 60 361 72Q394 84 424 102L440 64M242 435Q198 435 169 398Q140 361 134 297L334 305Q334 370 315 402.50Q296 435 242 435M280 556Q230 556 185 592Q140 628 123 679L153 700Q178 662 204.50 644.50Q231 627 266 627Q302 627 324 646Q346 665 371 700L405 679Q383 638 353 608.50Q323 579 280 556Z"  horiz-adv-x="475" vert-adv-y="1000"  />

      
      <glyph glyph-name="uni0116" unicode="&#x0116;" d="M291 776L285 832L295 880L367 885L395 880L400 824L389 776L318 770L291 776M30 34L120 47L120 653L30 666L35 701L173 698L570 701L580 521L546 521L490 651L225 654L225 388L365 392L405 497L440 497L430 372L440 237L405 237L365 342L225 346L225 46L500 49L567 184L605 184L570-1L173 2L35-1L30 34Z"  horiz-adv-x="630" vert-adv-y="1000"  />

      
      <glyph glyph-name="uni0117" unicode="&#x0117;" d="M440 64Q367 14 265-15Q203-15 150.50 13.50Q98 42 66.50 97Q35 152 35 228Q35 335 94.50 398Q154 461 261 485Q354 485 396 434Q438 383 438 297L438 255L133 255Q136 163 179 111.50Q222 60 299 60Q328 60 361 72Q394 84 424 102L440 64M242 435Q198 435 169 398Q140 361 134 297L334 305Q334 370 315 402.50Q296 435 242 435M208 583L202 642L212 691L287 696L315 690L320 633L309 583L235 577L208 583Z"  horiz-adv-x="475" vert-adv-y="1000"  />

      
      <glyph glyph-name="uni0118" unicode="&#x0118;" d="M450-100L450-143Q450-212 553-212L553-245Q452-245 407.50-219Q363-193 363-139L363-95L460 0L173 2L35-1L30 34L120 47L120 653L30 666L35 701L173 698L570 701L580 521L546 521L490 651L225 654L225 388L365 392L405 497L440 497L430 372L440 237L405 237L365 342L225 346L225 46L500 49L567 184L605 184L570-1L509-1L450-100Z"  horiz-adv-x="630" vert-adv-y="1000"  />

      
      <glyph glyph-name="uni0119" unicode="&#x0119;" d="M263-143Q263-212 366-212L366-245Q265-245 220.50-219Q176-193 176-139L176-95L258-15Q198-13 147 16Q96 45 65.50 99.50Q35 154 35 228Q35 335 94.50 398Q154 461 261 485Q354 485 396 434Q438 383 438 297L438 255L133 255Q136 163 179 111.50Q222 60 299 60Q328 60 361 72Q394 84 424 102L440 64Q385 28 326 5L263-100L263-143M242 435Q198 435 169 398Q140 361 134 297L334 305Q334 370 315 402.50Q296 435 242 435Z"  horiz-adv-x="475" vert-adv-y="1000"  />

      
      <glyph glyph-name="uni011A" unicode="&#x011A;" d="M194 900L252 900L330 837L342 822L355 837L433 900L491 900L384 767L301 767L194 900M30 34L120 47L120 653L30 666L35 701L173 698L570 701L580 521L546 521L490 651L225 654L225 388L365 392L405 497L440 497L430 372L440 237L405 237L365 342L225 346L225 46L500 49L567 184L605 184L570-1L173 2L35-1L30 34Z"  horiz-adv-x="630" vert-adv-y="1000"  />

      
      <glyph glyph-name="uni011B" unicode="&#x011B;" d="M440 64Q367 14 265-15Q203-15 150.50 13.50Q98 42 66.50 97Q35 152 35 228Q35 335 94.50 398Q154 461 261 485Q354 485 396 434Q438 383 438 297L438 255L133 255Q136 163 179 111.50Q222 60 299 60Q328 60 361 72Q394 84 424 102L440 64M242 435Q198 435 169 398Q140 361 134 297L334 305Q334 370 315 402.50Q296 435 242 435M119 710L166 710L243 636L262 609L281 636L359 710L405 710L298 551L226 551L119 710Z"  horiz-adv-x="475" vert-adv-y="1000"  />

      
      <glyph glyph-name="uni011C" unicode="&#x011C;" d="M374 900L457 900L564 767L506 767L428 830L415 845L403 830L325 767L267 767L374 900M390-18Q295-18 215.50 24Q136 66 88 147Q40 228 40 340Q40 660 410 718Q482 718 549.50 693.50Q617 669 655 640L655 505L605 505L573 595Q546 623 500.50 644.50Q455 666 396 666Q323 666 269 630.50Q215 595 185 527Q155 459 155 365Q155 280 188 204.50Q221 129 281.50 83Q342 37 420 37Q461 37 495 53.50Q529 70 550 90L550 280L460 293L465 328L603 325L715 328L720 293L655 280L655 60Q601 39 526 15.50Q451-8 390-18Z"  horiz-adv-x="745" vert-adv-y="1000"  />

      
      <glyph glyph-name="uni011D" unicode="&#x011D;" d="M238-245Q20-245 20-107L20-90L129-6Q96 6 79.50 21Q63 36 58.50 53.50Q54 71 54 98L54 104L154 173Q106 190 78 224.50Q50 259 50 305Q50 370 97 414.50Q144 459 245 485Q293 485 333 469Q373 453 397 424L451 485L511 485L511 404L451 404L418 388Q428 363 428 340Q428 275 380.50 230.50Q333 186 233 160Q206 160 194 162L140 100Q140 84 150.50 74.50Q161 65 179 65L362 65Q428 65 460.50 37.50Q493 10 493-38Q493-99 423-155Q353-211 238-245M248 207Q288 207 310.50 232.50Q333 258 333 302Q333 353 309 396Q285 439 230 439Q190 439 167.50 410.50Q145 382 145 333Q145 286 169 246.50Q193 207 248 207M246-186Q287-186 321.50-170Q356-154 377-126.50Q398-99 398-66Q398-39 376-27Q354-15 303-15L165-15Q131-53 120.50-71.50Q110-90 110-103Q110-139 147.50-162.50Q185-186 246-186M223 710L294 710L401 551L355 551L277 624L258 650L240 624L162 551L116 551L223 710Z"  horiz-adv-x="516" vert-adv-y="1000"  />

      
      <glyph glyph-name="uni011E" unicode="&#x011E;" d="M430 754Q375 754 340 786Q305 818 278 865L305 885Q327 855 351.50 835.50Q376 816 415 816Q454 816 480.50 836Q507 856 528 885L552 865Q548 859 535 836.50Q522 814 496 792Q470 770 430 754M390-18Q295-18 215.50 24Q136 66 88 147Q40 228 40 340Q40 660 410 718Q482 718 549.50 693.50Q617 669 655 640L655 505L605 505L573 595Q546 623 500.50 644.50Q455 666 396 666Q323 666 269 630.50Q215 595 185 527Q155 459 155 365Q155 280 188 204.50Q221 129 281.50 83Q342 37 420 37Q461 37 495 53.50Q529 70 550 90L550 280L460 293L465 328L603 325L715 328L720 293L655 280L655 60Q601 39 526 15.50Q451-8 390-18Z"  horiz-adv-x="745" vert-adv-y="1000"  />

      
      <glyph glyph-name="uni011F" unicode="&#x011F;" d="M238-245Q20-245 20-107L20-90L129-6Q96 6 79.50 21Q63 36 58.50 53.50Q54 71 54 98L54 104L154 173Q106 190 78 224.50Q50 259 50 305Q50 370 97 414.50Q144 459 245 485Q293 485 333 469Q373 453 397 424L451 485L511 485L511 404L451 404L418 388Q428 363 428 340Q428 275 380.50 230.50Q333 186 233 160Q206 160 194 162L140 100Q140 84 150.50 74.50Q161 65 179 65L362 65Q428 65 460.50 37.50Q493 10 493-38Q493-99 423-155Q353-211 238-245M248 207Q288 207 310.50 232.50Q333 258 333 302Q333 353 309 396Q285 439 230 439Q190 439 167.50 410.50Q145 382 145 333Q145 286 169 246.50Q193 207 248 207M246-186Q287-186 321.50-170Q356-154 377-126.50Q398-99 398-66Q398-39 376-27Q354-15 303-15L165-15Q131-53 120.50-71.50Q110-90 110-103Q110-139 147.50-162.50Q185-186 246-186M276 556Q226 556 181 592Q136 628 119 679L149 700Q174 662 200.50 644.50Q227 627 262 627Q298 627 320 646Q342 665 367 700L401 679Q379 638 349 608.50Q319 579 276 556Z"  horiz-adv-x="516" vert-adv-y="1000"  />

      
      <glyph glyph-name="uni0120" unicode="&#x0120;" d="M363 776L357 832L367 880L439 885L467 880L472 824L461 776L390 770L363 776M390-18Q295-18 215.50 24Q136 66 88 147Q40 228 40 340Q40 660 410 718Q482 718 549.50 693.50Q617 669 655 640L655 505L605 505L573 595Q546 623 500.50 644.50Q455 666 396 666Q323 666 269 630.50Q215 595 185 527Q155 459 155 365Q155 280 188 204.50Q221 129 281.50 83Q342 37 420 37Q461 37 495 53.50Q529 70 550 90L550 280L460 293L465 328L603 325L715 328L720 293L655 280L655 60Q601 39 526 15.50Q451-8 390-18Z"  horiz-adv-x="745" vert-adv-y="1000"  />

      
      <glyph glyph-name="uni0121" unicode="&#x0121;" d="M238-245Q20-245 20-107L20-90L129-6Q96 6 79.50 21Q63 36 58.50 53.50Q54 71 54 98L54 104L154 173Q106 190 78 224.50Q50 259 50 305Q50 370 97 414.50Q144 459 245 485Q293 485 333 469Q373 453 397 424L451 485L511 485L511 404L451 404L418 388Q428 363 428 340Q428 275 380.50 230.50Q333 186 233 160Q206 160 194 162L140 100Q140 84 150.50 74.50Q161 65 179 65L362 65Q428 65 460.50 37.50Q493 10 493-38Q493-99 423-155Q353-211 238-245M248 207Q288 207 310.50 232.50Q333 258 333 302Q333 353 309 396Q285 439 230 439Q190 439 167.50 410.50Q145 382 145 333Q145 286 169 246.50Q193 207 248 207M246-186Q287-186 321.50-170Q356-154 377-126.50Q398-99 398-66Q398-39 376-27Q354-15 303-15L165-15Q131-53 120.50-71.50Q110-90 110-103Q110-139 147.50-162.50Q185-186 246-186M204 583L198 642L208 691L283 696L311 690L316 633L305 583L231 577L204 583Z"  horiz-adv-x="516" vert-adv-y="1000"  />

      
      <glyph glyph-name="uni0122" unicode="&#x0122;" d="M390-18Q295-18 215.50 24Q136 66 88 147Q40 228 40 340Q40 660 410 718Q482 718 549.50 693.50Q617 669 655 640L655 505L605 505L573 595Q546 623 500.50 644.50Q455 666 396 666Q323 666 269 630.50Q215 595 185 527Q155 459 155 365Q155 280 188 204.50Q221 129 281.50 83Q342 37 420 37Q461 37 495 53.50Q529 70 550 90L550 280L460 293L465 328L603 325L715 328L720 293L655 280L655 60Q601 39 526 15.50Q451-8 390-18M355-228L378-125L355-90L355-50L452-50L452-130L383-238L355-228Z"  horiz-adv-x="745" vert-adv-y="1000"  />

      
      <glyph glyph-name="uni0123" unicode="&#x0123;" d="M238-245Q20-245 20-107L20-90L129-6Q96 6 79.50 21Q63 36 58.50 53.50Q54 71 54 98L54 104L154 173Q106 190 78 224.50Q50 259 50 305Q50 370 97 414.50Q144 459 245 485Q293 485 333 469Q373 453 397 424L451 485L511 485L511 404L451 404L418 388Q428 363 428 340Q428 275 380.50 230.50Q333 186 233 160Q206 160 194 162L140 100Q140 84 150.50 74.50Q161 65 179 65L362 65Q428 65 460.50 37.50Q493 10 493-38Q493-99 423-155Q353-211 238-245M248 207Q288 207 310.50 232.50Q333 258 333 302Q333 353 309 396Q285 439 230 439Q190 439 167.50 410.50Q145 382 145 333Q145 286 169 246.50Q193 207 248 207M246-186Q287-186 321.50-170Q356-154 377-126.50Q398-99 398-66Q398-39 376-27Q354-15 303-15L165-15Q131-53 120.50-71.50Q110-90 110-103Q110-139 147.50-162.50Q185-186 246-186M208 622L271 716L308 706L285 626L308 591L308 551L208 551L208 622Z"  horiz-adv-x="516" vert-adv-y="1000"  />

      
      <glyph glyph-name="uni0124" unicode="&#x0124;" d="M342 900L425 900L532 767L474 767L396 830L383 845L371 830L293 767L235 767L342 900M30 34L120 47L120 653L30 666L35 701L173 698L305 701L310 666L225 653L225 388L545 388L545 653L455 666L460 701L598 698L730 701L735 666L650 653L650 47L735 34L730-1L598 2L460-1L455 34L545 47L545 338L225 338L225 47L310 34L305-1L173 2L35-1L30 34Z"  horiz-adv-x="765" vert-adv-y="1000"  />

      
      <glyph glyph-name="uni0125" unicode="&#x0125;" d="M104 900L187 900L294 767L236 767L158 830L145 845L133 830L55 767L-3 767L104 900M35 34L105 44L105 647L35 645L30 679L150 710L200 714L200 390L346 485Q409 485 441 468Q473 451 484 414.50Q495 378 495 310L495 44L570 34L565-1L450 2L355-1L350 34L400 44L400 330Q400 405 336 405Q316 405 290 393Q264 381 230 360L200 341L200 44L255 34L250-1L155 2L40-1L35 34Z"  horiz-adv-x="587" vert-adv-y="1000"  />

      
      <glyph glyph-name="uni0126" unicode="&#x0126;" d="M650 47L735 34L730-1L598 2L460-1L455 34L545 47L545 338L225 338L225 47L310 34L305-1L173 2L35-1L30 34L120 47L120 653L30 666L35 701L173 698L305 701L310 666L225 653L225 510L545 510L545 653L455 666L460 701L598 698L730 701L735 666L650 653L650 47M545 388L545 470L225 470L225 388L545 388Z"  horiz-adv-x="765" vert-adv-y="1000"  />

      
      <glyph glyph-name="uni0127" unicode="&#x0127;" d="M570 34L565-1L450 2L355-1L350 34L400 44L400 330Q400 405 336 405Q316 405 290 393Q264 381 230 360L200 341L200 44L255 34L250-1L155 2L40-1L35 34L105 44L105 557L28 557L28 597L105 597L105 647L35 645L30 679L150 710L200 714L200 597L333 597L333 557L200 557L200 390L346 485Q409 485 441 468Q473 451 484 414.50Q495 378 495 310L495 44L570 34Z"  horiz-adv-x="587" vert-adv-y="1000"  />

      
      <glyph glyph-name="uni0128" unicode="&#x0128;" d="M43 865L118 887L273 837L309 890L334 890L310 795L235 773L80 823L44 770L19 770L43 865M30 35L120 48L120 653L30 666L35 701L173 698L310 701L315 666L225 653L225 48L315 35L310-1L173 2L35-1L30 35Z"  horiz-adv-x="345" vert-adv-y="1000"  />

      
      <glyph glyph-name="uni0129" unicode="&#x0129;" d="M35 34L105 44L105 409L35 403L30 438L150 469L200 473L200 44L275 34L270-1L155 2L40-1L35 34M51 633L22 577L-7 577L15 669L92 691L246 633L275 689L303 689L280 592L205 575L51 633Z"  horiz-adv-x="295" vert-adv-y="1000"  />

      
      <glyph glyph-name="uni012A" unicode="&#x012A;" d="M33 855L313 855L313 800L33 800L33 855M30 35L120 48L120 653L30 666L35 701L173 698L310 701L315 666L225 653L225 48L315 35L310-1L173 2L35-1L30 35Z"  horiz-adv-x="345" vert-adv-y="1000"  />

      
      <glyph glyph-name="uni012B" unicode="&#x012B;" d="M35 34L105 44L105 409L35 403L30 438L150 469L200 473L200 44L275 34L270-1L155 2L40-1L35 34M9 667L289 667L289 608L9 608L9 667Z"  horiz-adv-x="295" vert-adv-y="1000"  />

      
      <glyph glyph-name="uni012C" unicode="&#x012C;" d="M188 754Q133 754 98 786Q63 818 36 865L63 885Q85 855 109.50 835.50Q134 816 173 816Q212 816 238.50 836Q265 856 286 885L310 865Q306 859 293 836.50Q280 814 254 792Q228 770 188 754M30 35L120 48L120 653L30 666L35 701L173 698L310 701L315 666L225 653L225 48L315 35L310-1L173 2L35-1L30 35Z"  horiz-adv-x="345" vert-adv-y="1000"  />

      
      <glyph glyph-name="uni012D" unicode="&#x012D;" d="M35 34L105 44L105 409L35 403L30 438L150 469L200 473L200 44L275 34L270-1L155 2L40-1L35 34M166 556Q116 556 71 592Q26 628 9 679L39 700Q64 662 90.50 644.50Q117 627 152 627Q188 627 210 646Q232 665 257 700L291 679Q269 638 239 608.50Q209 579 166 556Z"  horiz-adv-x="295" vert-adv-y="1000"  />

      
      <glyph glyph-name="uni012E" unicode="&#x012E;" d="M225 48L315 35L310-1L188 2L127-100L127-143Q127-212 230-212L230-245Q129-245 84.50-219Q40-193 40-139L40-95L139 1L35-1L30 35L120 48L120 653L30 666L35 701L173 698L310 701L315 666L225 653L225 48Z"  horiz-adv-x="345" vert-adv-y="1000"  />

      
      <glyph glyph-name="uni012F" unicode="&#x012F;" d="M97 586L91 642L101 690L173 695L201 690L207 634L196 586L124 580L97 586M111-100L111-143Q111-212 214-212L214-245Q113-245 68.50-219Q24-193 24-139L24-95L123 1L40-1L35 34L105 44L105 409L35 403L30 438L150 469L200 473L200 44L275 34L270-1L171 2L111-100Z"  horiz-adv-x="295" vert-adv-y="1000"  />

      
      <glyph glyph-name="uni0130" unicode="&#x0130;" d="M121 776L115 832L125 880L197 885L225 880L230 824L219 776L148 770L121 776M30 35L120 48L120 653L30 666L35 701L173 698L310 701L315 666L225 653L225 48L315 35L310-1L173 2L35-1L30 35Z"  horiz-adv-x="345" vert-adv-y="1000"  />

      
      <glyph glyph-name="uni0131" unicode="&#x0131;" d="M35 34L105 44L105 409L35 403L30 438L150 469L200 473L200 44L275 34L270-1L155 2L40-1L35 34Z"  horiz-adv-x="295" vert-adv-y="1000"  />

      
      <glyph glyph-name="uni0132" unicode="&#x0132;" d="M30 35L120 48L120 653L30 666L35 701L173 698L310 701L315 666L225 653L225 48L315 35L310-1L173 2L35-1L30 35M345-85L450-85L459-64Q470-39 472.50-9Q475 21 475 95L475 653L365 666L370 701L528 698L660 701L665 666L580 653L580 100Q580 35 570.50-0.50Q561-36 535-65L435-175L345-175L345-85Z"  horiz-adv-x="690" vert-adv-y="1000"  />

      
      <glyph glyph-name="uni0133" unicode="&#x0133;" d="M35 34L105 44L105 409L35 403L30 438L150 469L200 473L200 44L275 34L270-1L155 2L40-1L35 34M96 586L90 642L100 690L172 695L200 690L206 634L195 586L123 580L96 586M275-147L371-147L381-125Q390-105 395-81.50Q400-58 400-15L400 409L330 403L325 438L445 469L495 473L495 0Q495-43 481.50-75.50Q468-108 440-140L356-235L275-235L275-147M396 586L390 642L400 690L472 695L500 690L506 634L495 586L423 580L396 586Z"  horiz-adv-x="565" vert-adv-y="1000"  />

      
      <glyph glyph-name="uni0134" unicode="&#x0134;" d="M131 900L214 900L321 767L263 767L185 830L172 845L160 830L82 767L24 767L131 900M0-85L105-85L114-64Q125-39 127.50-9Q130 21 130 95L130 653L20 666L25 701L183 698L315 701L320 666L235 653L235 100Q235 35 225.50-0.50Q216-36 190-65L90-175L0-175L0-85Z"  horiz-adv-x="345" vert-adv-y="1000"  />

      
      <glyph glyph-name="uni0135" unicode="&#x0135;" d="M-20-147L76-147L86-125Q95-105 100-81.50Q105-58 105-15L105 409L35 403L30 438L150 469L200 473L200 0Q200-43 186.50-75.50Q173-108 145-140L61-235L-20-235L-20-147M118 710L189 710L296 551L250 551L172 624L153 650L135 624L57 551L11 551L118 710Z"  horiz-adv-x="270" vert-adv-y="1000"  />

      
      </font>
</defs>
</svg>
